<?xml version="1.0" encoding="UTF-8" standalone="no"?>
<svg
   xmlns:dc="http://purl.org/dc/elements/1.1/"
   xmlns:cc="http://creativecommons.org/ns#"
   xmlns:rdf="http://www.w3.org/1999/02/22-rdf-syntax-ns#"
   xmlns:svg="http://www.w3.org/2000/svg"
   xmlns="http://www.w3.org/2000/svg"
   xmlns:sodipodi="http://sodipodi.sourceforge.net/DTD/sodipodi-0.dtd"
   xmlns:inkscape="http://www.inkscape.org/namespaces/inkscape"
   version="1.1"
   id="help"
   x="0px"
   y="0px"
   width="100%"
   height="100%"
   viewBox="0 0 510 510"
   style="enable-background:new 0 0 510 510;"
   xml:space="preserve"><defs
     id="defs11" /><sodipodi:namedview
     pagecolor="#ffffff"
     bordercolor="#666666"
     borderopacity="1"
     objecttolerance="10"
     gridtolerance="10"
     guidetolerance="10"
     inkscape:pageopacity="0"
     inkscape:pageshadow="2"
     inkscape:window-width="1237"
     inkscape:window-height="666"
     id="namedview9"
     showgrid="false"
     showguides="false"
     inkscape:zoom="0.4627451"
     inkscape:cx="255"
     inkscape:cy="255"
     inkscape:window-x="0"
     inkscape:window-y="46"
     inkscape:window-maximized="0"
     inkscape:current-layer="help" /><g
     id="g3"
     transform="matrix(0.90196078,0,0,0.90196078,26.254238,26.711863)"
     fill="currentColor"><g
       id="g5"><path
         d="M 255,0 C 114.75,0 0,114.75 0,255 0,395.25 114.75,510 255,510 395.25,510 510,395.25 510,255 510,114.75 395.25,0 255,0 Z m -1.88281,73.316406 c 34.99349,0 62.9069,9.521485 83.74023,28.564454 20.83334,19.04297 31.25,42.07357 31.25,69.0918 0,15.625 -3.66211,30.02929 -10.98633,43.21289 -7.32421,13.18359 -21.64713,29.21549 -42.96875,48.0957 -14.32291,12.69531 -23.68164,22.05404 -28.07617,28.07617 -4.39453,6.02214 -7.64974,12.93946 -9.76562,20.75196 -2.11589,7.8125 -3.33659,20.50781 -3.66211,38.08593 l -42.23633,0 c -0.16276,-5.85937 -0.24414,-10.2539 -0.24414,-13.18359 0,-17.25261 2.44141,-32.14518 7.32422,-44.67774 3.58073,-9.4401 9.35872,-18.96158 17.33398,-28.56445 5.85938,-6.9987 16.35742,-17.17122 31.49414,-30.51758 15.29948,-13.50911 25.22787,-24.2513 29.78516,-32.22656 4.55729,-7.97526 6.83594,-16.68294 6.83594,-26.12305 0,-17.08984 -6.67318,-32.0638 -20.01953,-44.92187 -13.34636,-13.02083 -29.70378,-19.53125 -49.07227,-19.53125 -18.71745,0 -34.34245,5.85937 -46.875,17.57812 -12.53255,11.71875 -20.75195,30.0293 -24.6582,54.93164 l -45.16602,-5.37109 c 4.06901,-33.36588 16.11328,-58.91927 36.13281,-76.660156 20.18229,-17.740885 46.79362,-26.611328 79.83399,-26.611328 z m -25.39063,313.964844 50.04883,0 0,50.04883 -50.04883,0 0,-50.04883 z"
         id="path7"
         inkscape:connector-curvature="0" /></g></g></svg>
