<?xml version="1.0" encoding="UTF-8" standalone="no"?>
<svg
   xmlns:dc="http://purl.org/dc/elements/1.1/"
   xmlns:cc="http://creativecommons.org/ns#"
   xmlns:rdf="http://www.w3.org/1999/02/22-rdf-syntax-ns#"
   xmlns:svg="http://www.w3.org/2000/svg"
   xmlns="http://www.w3.org/2000/svg"
   xmlns:sodipodi="http://sodipodi.sourceforge.net/DTD/sodipodi-0.dtd"
   xmlns:inkscape="http://www.inkscape.org/namespaces/inkscape"
   width="100%"
   height="100%"
   viewBox="0 0 16 16"
   id="image">
  <defs
     id="defs13" />
  <sodipodi:namedview
     pagecolor="#ffffff"
     bordercolor="#666666"
     borderopacity="1"
     objecttolerance="10"
     gridtolerance="10"
     guidetolerance="10"
     inkscape:pageopacity="0"
     inkscape:pageshadow="2"
     inkscape:window-width="1431"
     inkscape:window-height="788"
     id="namedview11"
     showgrid="false"
     inkscape:zoom="3.6875"
     inkscape:cx="-63.457627"
     inkscape:cy="13.501411"
     inkscape:window-x="0"
     inkscape:window-y="3"
     inkscape:window-maximized="0"
     inkscape:current-layer="image" />
  <path
     fill="currentColor"
     d="m 13.000034,1 0,9.15e-4 -11.9998618,0 c -0.549994,0 -0.999989,0.449971 -0.999989,0.999935 l 0,9.999346 -1.83e-4,0 0,0.999935 1.83e-4,0 0,0.999934 C 1.832e-4,14.550029 0.4501782,15 1.0001722,15 L 15.000011,15 C 15.550005,15 16,14.550029 16,14.000065 L 16,2.00085 C 16,1.450886 15.550005,1.000915 15.000011,1.000915 l -0.999988,0 0,-9.15e-4 -0.999989,0 z m -11.9980918,1.00085 13.9962388,0 c 6.25e-4,5.31e-4 0.0013,0.0012 0.0018,0.0018 l 0,11.995553 c -5.31e-4,6.25e-4 -0.0012,0.0013 -0.0018,0.0018 l -13.9962388,0 c -6.25e-4,-5.31e-4 -0.0013,-0.0012 -0.0018,-0.0018 l 0,-11.995614 c 5.31e-4,-6.25e-4 0.0012,-0.0013 0.0018,-0.0018 z M 11.500052,3.000784 c -0.828429,0 -1.499983,0.671519 -1.499983,1.499902 0,0.828384 0.671554,1.499902 1.499983,1.499902 0.828428,0 1.499982,-0.671518 1.499982,-1.499902 0,-0.828383 -0.671554,-1.499902 -1.499982,-1.499902 z m -5.9999322,1.999869 -3.4999596,5.999609 0,1.999869 11.9998628,0 0,-5.999608 -3.49996,2.999804 -0.9999892,0 -3.999954,-4.999674 z"
     id="path5"
     inkscape:connector-curvature="0" />
</svg>
