<?xml version="1.0" encoding="UTF-8" standalone="no"?>
<svg
   xmlns:dc="http://purl.org/dc/elements/1.1/"
   xmlns:cc="http://creativecommons.org/ns#"
   xmlns:rdf="http://www.w3.org/1999/02/22-rdf-syntax-ns#"
   xmlns:svg="http://www.w3.org/2000/svg"
   xmlns="http://www.w3.org/2000/svg"
   xmlns:sodipodi="http://sodipodi.sourceforge.net/DTD/sodipodi-0.dtd"
   xmlns:inkscape="http://www.inkscape.org/namespaces/inkscape"
   id="link"
   width="100%"
   height="100%"
   viewBox="0 0 16 16"
   xml:space="preserve">
   <defs
     id="defs7" /><sodipodi:namedview
     pagecolor="#ffffff"
     bordercolor="#666666"
     borderopacity="1"
     objecttolerance="10"
     gridtolerance="10"
     guidetolerance="10"
     inkscape:pageopacity="0"
     inkscape:pageshadow="2"
     inkscape:window-width="1095"
     inkscape:window-height="673"
     id="namedview5"
     showgrid="false"
     inkscape:zoom="2.6074563"
     inkscape:cx="-61.194277"
     inkscape:cy="-20.131191"
     inkscape:window-x="0"
     inkscape:window-y="23"
     inkscape:window-maximized="0"
     inkscape:current-layer="link" /><path
     d="m 14.756635,7.2493116 -3.003554,3.0025064 c -1.657826,1.658843 -4.3472261,1.658843 -6.0050523,0 C 5.4867597,9.9915786 5.2825217,9.6981626 5.1031327,9.3954226 l 1.395528,-1.395518 c 0.06635,-0.06688 0.1482682,-0.105237 0.2265332,-0.150324 0.09641,0.329711 0.264886,0.641773 0.524098,0.900951 0.827868,0.828393 2.175189,0.827364 3.0025261,0 l 3.002526,-3.0025068 c 0.828398,-0.828393 0.828398,-2.175175 0,-3.003037 -0.82737,-0.827862 -2.174127,-0.827862 -3.002526,0 l -1.0679041,1.068925 c -0.86622,-0.337475 -1.799856,-0.42818 -2.7086102,-0.294975 l 2.2752182,-2.275203 c 1.6588541,-1.65831295 4.3472261,-1.65831295 6.0060801,0 1.657859,1.658379 1.657859,4.347264 3.3e-5,6.0055768 z M 6.8164309,12.186461 5.7480287,13.255386 c -0.827868,0.827365 -2.175189,0.827365 -3.003057,0 -0.827867,-0.828393 -0.827867,-2.175175 0,-3.003535 l 3.003057,-3.0025064 c 0.828399,-0.8283928 2.1746582,-0.8283928 3.0025262,0 0.258682,0.25868 0.427155,0.570742 0.524629,0.899922 0.0788,-0.04562 0.159681,-0.08294 0.226036,-0.149295 L 10.896747,6.6049836 C 10.718421,6.3012158 10.513121,6.0088288 10.251851,5.7480918 c -1.6578251,-1.658313 -4.3472263,-1.658313 -6.0055823,0 l -3.002526,3.0025058 c -1.65832399,1.6588434 -1.65832399,4.3471984 0,6.0060414 1.658323,1.657815 4.347226,1.657815 6.0055832,0 l 2.275748,-2.275734 c -0.909284,0.133736 -1.84292,0.0425 -2.708643,-0.294444 z"
     id="path3"
     inkscape:connector-curvature="0"
     fill="currentColor" /></svg>
