<?xml version="1.0" encoding="UTF-8" standalone="no"?>
<svg
   xmlns:dc="http://purl.org/dc/elements/1.1/"
   xmlns:cc="http://creativecommons.org/ns#"
   xmlns:rdf="http://www.w3.org/1999/02/22-rdf-syntax-ns#"
   xmlns:svg="http://www.w3.org/2000/svg"
   xmlns="http://www.w3.org/2000/svg"
   xmlns:sodipodi="http://sodipodi.sourceforge.net/DTD/sodipodi-0.dtd"
   xmlns:inkscape="http://www.inkscape.org/namespaces/inkscape"
   version="1.1"
   id="link"
   x="0px"
   y="0px"
   width="100%"
   height="100%"
   viewBox="0 0 512 512"
   enable-background="new 0 0 512 512"
   xml:space="preserve"><defs
     id="defs7" /><sodipodi:namedview
     pagecolor="#ffffff"
     bordercolor="#666666"
     borderopacity="1"
     objecttolerance="10"
     gridtolerance="10"
     guidetolerance="10"
     inkscape:pageopacity="0"
     inkscape:pageshadow="2"
     inkscape:window-width="1095"
     inkscape:window-height="673"
     id="namedview5"
     showgrid="false"
     inkscape:zoom="0.4609375"
     inkscape:cx="256"
     inkscape:cy="256"
     inkscape:window-x="0"
     inkscape:window-y="23"
     inkscape:window-maximized="0"
     inkscape:current-layer="link" /><path
     d="m 447.59528,236.00008 -84.47497,84.44604 c -46.62634,46.65527 -122.26573,46.65527 -168.89208,0 -7.3482,-7.31928 -13.0924,-15.57166 -18.1377,-24.08625 l 39.24921,-39.24921 c 1.86621,-1.88114 4.17005,-2.95981 6.37125,-4.2279 2.7116,9.2732 7.44991,18.04999 14.74026,25.33941 23.28378,23.29871 61.17719,23.26978 84.44604,0 l 84.44604,-84.44604 c 23.29871,-23.29871 23.29871,-61.17719 0,-84.46097 -23.26978,-23.283779 -61.14733,-23.283779 -84.44604,0 l -30.03479,30.06372 c -24.36245,-9.49155 -50.62097,-12.04266 -76.17966,-8.29624 l 63.9905,-63.990499 c 46.65527,-46.640341 122.26573,-46.640341 168.92101,0 46.62727,46.642209 46.62727,122.267599 9.3e-4,168.907939 z m -223.31825,138.85822 -30.0488,30.06372 c -23.28378,23.26978 -61.17719,23.26978 -84.46097,0 -23.283782,-23.29871 -23.283782,-61.17719 0,-84.47496 l 84.46097,-84.44604 c 23.29871,-23.29871 61.16226,-23.29871 84.44604,0 7.27543,7.27542 12.01373,16.05221 14.7552,25.31048 2.21612,-1.28302 4.49103,-2.33276 6.35725,-4.19897 l 39.24921,-39.23429 c -5.01544,-8.54351 -10.7895,-16.76697 -18.1377,-24.10024 -46.62635,-46.64035 -122.26574,-46.64035 -168.90701,0 l -84.446049,84.44604 c -46.640341,46.65527 -46.640341,122.26573 0,168.921 46.640339,46.62635 122.265739,46.62635 168.907019,0 l 64.00543,-64.00543 c -25.57362,3.76135 -51.83214,1.19531 -76.18059,-8.28131 z"
     id="path3"
     inkscape:connector-curvature="0"
     fill="currentColor" /></svg>
