<?xml version="1.0" encoding="UTF-8" standalone="no"?>
<svg
   xmlns:dc="http://purl.org/dc/elements/1.1/"
   xmlns:cc="http://creativecommons.org/ns#"
   xmlns:rdf="http://www.w3.org/1999/02/22-rdf-syntax-ns#"
   xmlns:svg="http://www.w3.org/2000/svg"
   xmlns="http://www.w3.org/2000/svg"
   xmlns:sodipodi="http://sodipodi.sourceforge.net/DTD/sodipodi-0.dtd"
   xmlns:inkscape="http://www.inkscape.org/namespaces/inkscape"
   id="ol"
   width="100%"
   height="100%"
   viewBox="0 0 16 16"
   xml:space="preserve">
   <defs
     id="defs7" /><sodipodi:namedview
     pagecolor="#ffffff"
     bordercolor="#666666"
     borderopacity="1"
     objecttolerance="10"
     gridtolerance="10"
     guidetolerance="10"
     inkscape:pageopacity="0"
     inkscape:pageshadow="2"
     inkscape:window-width="1440"
     inkscape:window-height="792"
     id="namedview5"
     showgrid="false"
     inkscape:zoom="3.6875"
     inkscape:cx="-51.677967"
     inkscape:cy="39.050846"
     inkscape:window-x="-1"
     inkscape:window-y="69"
     inkscape:window-maximized="0"
     inkscape:current-layer="ol" /><path
     d="m 0.81801639,1.5275554 c -0.0061,0.09191 -0.02907,0.168504 -0.0689,0.229779 -0.03983,0.06127 -0.09961,0.111115 -0.179265,0.149412 -0.0674,0.03217 -0.151691,0.05511 -0.252794,0.0689 -0.101103,0.01226 -0.20676498,0.01838 -0.31705898,0.01838 l 0,0.558383 0.72147098,0 0,1.808382 -0.72147098,0 0,0.597427 2.28397099,0 0,-0.597427 -0.705368,0 0,-2.833235 -0.76058801,0 z m 5.39816201,0.647941 c -0.211029,0 -0.380883,0.169854 -0.380883,0.380882 l 0,1.497059 c 0,0.211029 0.169854,0.380882 0.380883,0.380882 l 9.4029416,0 c 0.211028,0 0.380882,-0.169853 0.380882,-0.380882 l 0,-1.497059 c 0,-0.211028 -0.169854,-0.380882 -0.380882,-0.380882 l -9.4029416,0 z m 1.171396,0.719632 c 0.0052,-0.0057 0.01925,0.02844 0.03029,0.117574 -0.03095,-0.06259 -0.03596,-0.111383 -0.03029,-0.117574 z m -4.23272,1.16 0,0.903089 0.859412,0 0,-0.903089 -0.859412,0 z m -1.946177,2.136177 c -0.21292801,0 -0.42589401,0.02376 -0.63882301,0.07125 -0.211397,0.04749 -0.37145798,0.09501 -0.48022098,0.1425 l 0,0.760514 0.07353,0 c 0.13327198,-0.09038 0.27726698,-0.164657 0.43198498,-0.222867 0.15625,-0.05821 0.304804,-0.08728 0.44573501,-0.08728 0.188419,0 0.332415,0.04289 0.431986,0.128677 0.101103,0.08425 0.151691,0.204485 0.151691,0.360735 0,0.130209 -0.03908,0.261948 -0.117206,0.39522 -0.07813,0.133273 -0.209865,0.289523 -0.395221,0.4687512 -0.12408101,0.121017 -0.28952201,0.265012 -0.49632301,0.431985 -0.20527,0.166973 -0.410539,0.324718 -0.61580898,0.473309 l 0,0.565294 2.68610299,0 0,-0.654853 -1.537206,0 c 0.05974,-0.04289 0.160098,-0.11799 0.301029,-0.225221 0.140932,-0.108762 0.281116,-0.2275 0.420515,-0.356176 0.22212,-0.206802 0.38674,-0.4074392 0.493971,-0.6019852 0.108762,-0.194547 0.163161,-0.399817 0.163161,-0.615809 0,-0.329351 -0.11261,-0.58364 -0.337793,-0.762868 -0.225184,-0.18076 -0.552182,-0.271176 -0.981104,-0.271176 z m 5.177868,0.690073 c -0.305384,0 -0.55125,0.245866 -0.55125,0.55125 l 0,1.1563242 c 0,0.305384 0.245866,0.55125 0.55125,0.55125 l 9.0622066,0 c 0.305385,0 0.55125,-0.245866 0.55125,-0.55125 l 0,-1.1563242 c 0,-0.305384 -0.245865,-0.55125 -0.55125,-0.55125 l -9.0622066,0 z m 2.679044,0.77 c 0.0099,-0.0035 0.008,0.05949 -0.03096,0.139853 0.0097,-0.09681 0.02353,-0.137259 0.03096,-0.139853 z m -1.381029,0.06096 c 8.51e-4,-0.0011 0.0047,0.01092 0.0093,0.03441 -0.0071,-0.01963 -0.01014,-0.03327 -0.0093,-0.03441 z m -4.34353,1.0640442 0,0.903015 0.859339,0 0,-0.903015 -0.859339,0 z m 6.8472806,0.03007 c 0.385049,0 0.253294,0.02962 -0.03199,4.4e-4 0.01042,-7.5e-5 0.0217,-4.4e-4 0.03199,-4.4e-4 z M 1.2683834,10.908585 c -0.22212,0 -0.44121301,0.02376 -0.65720601,0.07125 -0.215992,0.04596 -0.38674,0.09415 -0.51235198,0.144706 l 0,0.742206 0.085,0 c 0.15778098,-0.09344 0.32090598,-0.164657 0.48941098,-0.213677 0.168505,-0.05055 0.324755,-0.07581 0.46875001,-0.07581 0.05821,0 0.127929,0.0046 0.209118,0.01375 0.08119,0.0092 0.151654,0.02757 0.211397,0.05515 0.05362,0.02451 0.098,0.05821 0.133235,0.101103 0.03523,0.04136 0.05287,0.09651 0.05287,0.165442 0,0.09344 -0.01681,0.164657 -0.05052,0.213676 -0.0337,0.04749 -0.08429,0.08582 -0.151691,0.114927 -0.06434,0.02757 -0.142426,0.04521 -0.234338,0.05287 -0.09191,0.0077 -0.197647,0.01147 -0.31713301,0.01147 l -0.195294,0 0,0.611176 0.188456,0 c 0.09038,0 0.18841901,0.0016 0.29411801,0.0046 0.105698,0.0015 0.196042,0.01453 0.271103,0.03904 0.07506,0.02298 0.135588,0.06206 0.181544,0.117206 0.04596,0.05361 0.0689,0.130208 0.0689,0.229779 0,0.102635 -0.01681,0.181544 -0.05052,0.236691 -0.0337,0.05361 -0.07891,0.09957 -0.135588,0.137868 -0.072,0.04902 -0.160098,0.08115 -0.264265,0.09647 -0.104166,0.01379 -0.200637,0.02066 -0.289485,0.02066 -0.15165401,0 -0.31941201,-0.02907 -0.50323501,-0.08728 -0.182292,-0.05821 -0.339289,-0.127182 -0.47102998,-0.206838 l -0.08963,0 0,0.751397 c 0.127145,0.05515 0.29183798,0.104914 0.49404398,0.149338 0.203738,0.04442 0.447267,0.06669 0.73066201,0.06669 0.248162,0 0.458811,-0.02533 0.631912,-0.07588 0.174632,-0.05208 0.326323,-0.126361 0.455,-0.222868 0.13174,-0.09957 0.228958,-0.219056 0.291764,-0.358456 0.06434,-0.139399 0.09654,-0.289522 0.09654,-0.450367 0,-0.142464 -0.02227,-0.256569 -0.06669,-0.342353 -0.04442,-0.08579 -0.10413,-0.160883 -0.179191,-0.225221 -0.072,-0.06127 -0.151654,-0.107978 -0.23897,-0.140147 -0.08732,-0.03217 -0.170037,-0.05361 -0.248162,-0.06434 l 0,-0.03213 c 0.193015,-0.04136 0.348517,-0.136336 0.46647,-0.284926 0.117954,-0.150123 0.176912,-0.320196 0.176912,-0.510147 0,-0.143995 -0.03064,-0.269608 -0.09191,-0.376838 -0.06127,-0.107231 -0.154681,-0.198395 -0.280294,-0.273456 -0.105698,-0.06281 -0.239755,-0.112574 -0.402132,-0.149338 -0.162378,-0.0383 -0.351581,-0.05743 -0.567574,-0.05743 z m 4.928824,0.678676 c -0.200482,0 -0.361912,0.161431 -0.361912,0.361912 l 0,1.535 c 0,0.200482 0.16143,0.361912 0.361912,0.361912 l 9.4408826,0 c 0.200482,0 0.361912,-0.16143 0.361912,-0.361912 l 0,-1.535 c 0,-0.200481 -0.16143,-0.361912 -0.361912,-0.361912 l -9.4408826,0 z m 3.0332352,1.83625 c 0.06445,0.207354 0.01187,0.332477 0,0 z m -5.7860292,0.07471 0,0.903014 0.859338,0 0,-0.903014 -0.859338,0 z"
     id="rect3335"
     inkscape:connector-curvature="0"
     fill="currentColor" /></svg>
