<?xml version="1.0" encoding="UTF-8" standalone="no"?>
<svg
   xmlns:dc="http://purl.org/dc/elements/1.1/"
   xmlns:cc="http://creativecommons.org/ns#"
   xmlns:rdf="http://www.w3.org/1999/02/22-rdf-syntax-ns#"
   xmlns:svg="http://www.w3.org/2000/svg"
   xmlns="http://www.w3.org/2000/svg"
   xmlns:sodipodi="http://sodipodi.sourceforge.net/DTD/sodipodi-0.dtd"
   xmlns:inkscape="http://www.inkscape.org/namespaces/inkscape"
   version="1.1"
   id="ol"
   x="0px"
   y="0px"
   width="100%"
   height="100%"
   viewBox="0 0 512 512"
   style="enable-background:new 0 0 512 512;"
   xml:space="preserve"><defs
     id="defs7" /><sodipodi:namedview
     pagecolor="#ffffff"
     bordercolor="#666666"
     borderopacity="1"
     objecttolerance="10"
     gridtolerance="10"
     guidetolerance="10"
     inkscape:pageopacity="0"
     inkscape:pageshadow="2"
     inkscape:window-width="1440"
     inkscape:window-height="792"
     id="namedview5"
     showgrid="false"
     inkscape:zoom="0.32593203"
     inkscape:cx="256"
     inkscape:cy="256"
     inkscape:window-x="-1"
     inkscape:window-y="69"
     inkscape:window-maximized="0"
     inkscape:current-layer="ol" /><path
     fill="currentColor"
     d="M 66.728516 84.789062 C 66.565755 87.230469 65.95638 89.264974 64.898438 90.892578 C 63.840495 92.520182 62.252604 93.844076 60.136719 94.861328 C 58.346354 95.71582 56.107422 96.325195 53.421875 96.691406 C 50.736328 97.016927 47.929688 97.179688 45 97.179688 L 45 112.01172 L 64.164062 112.01172 L 64.164062 160.04688 L 45 160.04688 L 45 175.91602 L 105.66797 175.91602 L 105.66797 160.04688 L 86.931641 160.04688 L 86.931641 84.789062 L 66.728516 84.789062 z M 210.11719 102 C 204.51174 102 200 106.51174 200 112.11719 L 200 151.88281 C 200 157.48826 204.51174 162 210.11719 162 L 459.88281 162 C 465.48826 162 470 157.48826 470 151.88281 L 470 112.11719 C 470 106.51174 465.48826 102 459.88281 102 L 210.11719 102 z M 241.23242 121.11523 C 241.37138 120.96353 241.74375 121.87074 242.03711 124.23828 C 241.21503 122.57586 241.0818 121.27967 241.23242 121.11523 z M 128.80078 151.92773 L 128.80078 175.91602 L 151.62891 175.91602 L 151.62891 151.92773 L 128.80078 151.92773 z M 77.105469 208.66992 C 71.449544 208.66992 65.792643 209.30111 60.136719 210.5625 C 54.521484 211.82389 50.269857 213.08626 47.380859 214.34766 L 47.380859 234.54883 L 49.333984 234.54883 C 52.874023 232.14811 56.698893 230.17513 60.808594 228.62891 C 64.958984 227.08268 68.904948 226.31055 72.648438 226.31055 C 77.65332 226.31055 81.47819 227.44987 84.123047 229.72852 C 86.808594 231.96647 88.152344 235.16016 88.152344 239.31055 C 88.152344 242.76921 87.114258 246.26855 85.039062 249.80859 C 82.963867 253.34863 79.464518 257.49902 74.541016 262.25977 C 71.245117 265.47428 66.850586 269.29915 61.357422 273.73438 C 55.904948 278.1696 50.452474 282.3597 45 286.30664 L 45 301.32227 L 116.34961 301.32227 L 116.34961 283.92773 L 75.517578 283.92773 C 77.104492 282.78841 79.770182 280.79362 83.513672 277.94531 C 87.257161 275.05632 90.980794 271.90234 94.683594 268.48438 C 100.58366 262.99121 104.95638 257.66178 107.80469 252.49414 C 110.69368 247.3265 112.13867 241.87402 112.13867 236.13672 C 112.13867 227.38835 109.14746 220.63379 103.16602 215.87305 C 97.18457 211.07161 88.498698 208.66992 77.105469 208.66992 z M 214.64258 227 C 206.5308 227 200 233.5308 200 241.64258 L 200 272.35742 C 200 280.4692 206.5308 287 214.64258 287 L 455.35742 287 C 463.4692 287 470 280.4692 470 272.35742 L 470 241.64258 C 470 233.5308 463.4692 227 455.35742 227 L 214.64258 227 z M 285.80469 247.45312 C 286.06879 247.36085 286.01817 249.03342 284.98242 251.16797 C 285.24076 248.59657 285.60749 247.52202 285.80469 247.45312 z M 249.12109 249.07227 C 249.14367 249.04276 249.24468 249.36237 249.36719 249.98633 C 249.17928 249.465 249.09788 249.1026 249.12109 249.07227 z M 133.74609 277.33594 L 133.74609 301.32227 L 156.57227 301.32227 L 156.57227 277.33594 L 133.74609 277.33594 z M 315.62695 278.13477 C 325.85483 278.13477 322.35507 278.92154 314.77734 278.14648 C 315.05422 278.14485 315.35384 278.13477 315.62695 278.13477 z M 78.691406 333.97266 C 72.791341 333.97266 66.97168 334.60384 61.234375 335.86523 C 55.49707 337.08594 50.961589 338.36621 47.625 339.70898 L 47.625 359.42383 L 49.882812 359.42383 C 54.073893 356.94173 58.406901 355.05013 62.882812 353.74805 C 67.358724 352.40527 71.509115 351.73438 75.333984 351.73438 C 76.880208 351.73438 78.732096 351.85547 80.888672 352.09961 C 83.045247 352.34375 84.916992 352.83203 86.503906 353.56445 C 87.92806 354.21549 89.107096 355.11068 90.042969 356.25 C 90.978841 357.34863 91.447266 358.81348 91.447266 360.64453 C 91.447266 363.12663 91.000651 365.01823 90.105469 366.32031 C 89.210286 367.58171 87.866536 368.59993 86.076172 369.37305 C 84.367188 370.10547 82.292969 370.57389 79.851562 370.77734 C 77.410156 370.98079 74.601562 371.08203 71.427734 371.08203 L 66.240234 371.08203 L 66.240234 387.31641 L 71.246094 387.31641 C 73.64681 387.31641 76.250977 387.35807 79.058594 387.43945 C 81.866211 387.48014 84.265951 387.82552 86.259766 388.47656 C 88.253581 389.08691 89.861328 390.125 91.082031 391.58984 C 92.302734 393.014 92.912109 395.0485 92.912109 397.69336 C 92.912109 400.4196 92.465495 402.51562 91.570312 403.98047 C 90.67513 405.40462 89.474284 406.62533 87.96875 407.64258 C 86.056315 408.94466 83.716146 409.79818 80.949219 410.20508 C 78.182292 410.57129 75.619792 410.75391 73.259766 410.75391 C 69.231445 410.75391 64.775391 409.98177 59.892578 408.43555 C 55.050456 406.88932 50.880208 405.05729 47.380859 402.94141 L 45 402.94141 L 45 422.90039 C 48.377279 424.36523 52.751953 425.68717 58.123047 426.86719 C 63.534831 428.0472 70.003581 428.63867 77.53125 428.63867 C 84.123047 428.63867 89.718424 427.96582 94.316406 426.62305 C 98.955078 425.23958 102.98438 423.2666 106.40234 420.70312 C 109.90169 418.05827 112.48405 414.88444 114.15234 411.18164 C 115.86133 407.47884 116.7168 403.49121 116.7168 399.21875 C 116.7168 395.43457 116.12533 392.40365 114.94531 390.125 C 113.7653 387.84635 112.17936 385.85156 110.18555 384.14258 C 108.27311 382.51497 106.15723 381.27441 103.83789 380.41992 C 101.51855 379.56543 99.321289 378.99577 97.246094 378.71094 L 97.246094 377.85742 C 102.37305 376.75879 106.50358 374.236 109.63672 370.28906 C 112.76986 366.30143 114.33594 361.78385 114.33594 356.73828 C 114.33594 352.91341 113.52214 349.57682 111.89453 346.72852 C 110.26693 343.88021 107.78581 341.45866 104.44922 339.46484 C 101.6416 337.79655 98.080729 336.47461 93.767578 335.49805 C 89.454427 334.48079 84.428711 333.97266 78.691406 333.97266 z M 209.61328 352 C 204.28799 352 200 356.28799 200 361.61328 L 200 402.38672 C 200 407.71201 204.28799 412 209.61328 412 L 460.38672 412 C 465.71201 412 470 407.71201 470 402.38672 L 470 361.61328 C 470 356.28799 465.71201 352 460.38672 352 L 209.61328 352 z M 290.18359 400.77539 C 291.89562 406.28321 290.4988 409.60679 290.18359 400.77539 z M 136.49219 402.75977 L 136.49219 426.74609 L 159.31836 426.74609 L 159.31836 402.75977 L 136.49219 402.75977 z "
     id="rect3335" /></svg>
