<?xml version="1.0" encoding="UTF-8" standalone="no"?>
<svg
   xmlns:dc="http://purl.org/dc/elements/1.1/"
   xmlns:cc="http://creativecommons.org/ns#"
   xmlns:rdf="http://www.w3.org/1999/02/22-rdf-syntax-ns#"
   xmlns:svg="http://www.w3.org/2000/svg"
   xmlns="http://www.w3.org/2000/svg"
   xmlns:sodipodi="http://sodipodi.sourceforge.net/DTD/sodipodi-0.dtd"
   xmlns:inkscape="http://www.inkscape.org/namespaces/inkscape"
   version="1.1"
   id="table"
   x="0px"
   y="0px"
   width="100%"
   height="100%"
   viewBox="0 0 612 612"
   style="enable-background:new 0 0 612 612;"
   xml:space="preserve"><defs
     id="defs45" /><sodipodi:namedview
     pagecolor="#ffffff"
     bordercolor="#666666"
     borderopacity="1"
     objecttolerance="10"
     gridtolerance="10"
     guidetolerance="10"
     inkscape:pageopacity="0"
     inkscape:pageshadow="2"
     inkscape:window-width="1219"
     inkscape:window-height="697"
     id="namedview43"
     showgrid="false"
     inkscape:zoom="0.54535033"
     inkscape:cx="336.99151"
     inkscape:cy="365.97834"
     inkscape:window-x="130"
     inkscape:window-y="62"
     inkscape:window-maximized="0"
     inkscape:current-layer="g3" /><g
     id="g3"
     transform="matrix(0.94771242,0,0,1.063154,16,-34.10316)"
     fill="currentColor"><g
       id="g5"
       transform="translate(2.1103448,13.954503)"><path
         d="M 18.331,70.286 C 8.189,70.286 0,78.766 0,89.17 L 0,521.086 C 0,531.549 8.189,540 18.302,540 l 575.367,0 C 603.811,540 612,531.52 612,521.086 L 612,89.17 c 0,-10.433 -8.219,-18.885 -18.331,-18.885 l -44.24,0 -131.5668,-0.0261 c -18.302,-0.004 72.0986,10.05415 47.94118,10.3304 l -40.08711,0.45843 c -24.24541,0.27726 83.21164,4.03487 65.36118,0.56272 L 432.858,70.286 l -247.715,0 -122.613903,-0.0103 c -18.302,-0.002 18.205373,2.99963 -5.937968,3.8967 l -9.131311,0.33928 C 23.22954,75.412 154.59872,86.59378 136.7319,83.20687 L 68.571,70.286 Z m 307.3612,7.31405 -24.19861,-7.8988 24.6356,14.81783 -6.8437,-8.74816 z M 422,306 l 160,0 0,90 -160,0 z m 75.429,116 84.571,0 0,70 c 0,6.003 -2.738,20 -9.673,20 L 422,512 422,422 Z M 422,190 l 160,0 0,90 -160,0 z m -195,116 165,0 0,90 -165,0 z m 265.95869,-171.71507 58.90358,-7.77966 -20.74576,43.34426 40.93541,-60.94068 z M 227,190 l 165,0 0,90 -165,0 z m 0,232 165,0 0,90 -165,0 z m 34.11231,-308.214 16.70866,-41.49153 -45.97458,3.14834 -7.03917,36.30509 z m -50.5678,38.12608 -33.15575,8.42797 46.02966,11.57731 -25.19171,-10.37289 z m 150.40678,-2.06783 57.60696,-14.26271 -105.02542,0.55612 20.18964,28.52542 z M 192,512 43.674,512 C 36.738,512 31.845301,505.98802 32,499.958 L 32,422 l 160,0 z m 0,-116 -160,0 0,-90 160,0 z m 0,-116 -160,0 0,-90 160,0 z"
         id="path11"
         inkscape:connector-curvature="0"
         sodipodi:nodetypes="sssssssscssssccsssscsccccccccccccssccccccccccccccccccccccccccccccccccccccccccccssccccccccccccc" /></g></g></svg>
