<?xml version="1.0" encoding="UTF-8" standalone="no"?>
<svg
   xmlns:dc="http://purl.org/dc/elements/1.1/"
   xmlns:cc="http://creativecommons.org/ns#"
   xmlns:rdf="http://www.w3.org/1999/02/22-rdf-syntax-ns#"
   xmlns:svg="http://www.w3.org/2000/svg"
   xmlns="http://www.w3.org/2000/svg"
   xmlns:sodipodi="http://sodipodi.sourceforge.net/DTD/sodipodi-0.dtd"
   xmlns:inkscape="http://www.inkscape.org/namespaces/inkscape"
   version="1.1"
   id="ul"
   x="0px"
   y="0px"
   width="100%"
   height="100%"
   viewBox="0 0 512 512"
   style="enable-background:new 0 0 512 512;"
   xml:space="preserve"><defs
     id="defs7" /><sodipodi:namedview
     pagecolor="#ffffff"
     bordercolor="#666666"
     borderopacity="1"
     objecttolerance="10"
     gridtolerance="10"
     guidetolerance="10"
     inkscape:pageopacity="0"
     inkscape:pageshadow="2"
     inkscape:window-width="1440"
     inkscape:window-height="792"
     id="namedview5"
     showgrid="false"
     inkscape:zoom="0.32593203"
     inkscape:cx="256"
     inkscape:cy="256"
     inkscape:window-x="-1"
     inkscape:window-y="23"
     inkscape:window-maximized="0"
     inkscape:current-layer="ul" /><path
     fill="currentColor"
     d="M 90 87 A 45 45 0 0 0 45 132 A 45 45 0 0 0 90 177 A 45 45 0 0 0 135 132 A 45 45 0 0 0 90 87 z M 210.11719 102 C 204.51174 102 200 106.51174 200 112.11719 L 200 151.88281 C 200 157.48826 204.51174 162 210.11719 162 L 459.88281 162 C 465.48826 162 470 157.48826 470 151.88281 L 470 112.11719 C 470 106.51174 465.48826 102 459.88281 102 L 210.11719 102 z M 90 212 A 45 45 0 0 0 45 257 A 45 45 0 0 0 90 302 A 45 45 0 0 0 135 257 A 45 45 0 0 0 90 212 z M 214.64258 227 C 206.5308 227 200 233.5308 200 241.64258 L 200 272.35742 C 200 280.4692 206.5308 287 214.64258 287 L 455.35742 287 C 463.4692 287 470 280.4692 470 272.35742 L 470 241.64258 C 470 233.5308 463.4692 227 455.35742 227 L 214.64258 227 z M 90 337 A 45 45 0 0 0 45 382 A 45 45 0 0 0 90 427 A 45 45 0 0 0 135 382 A 45 45 0 0 0 90 337 z M 209.61328 352 C 204.28799 352 200 356.28799 200 361.61328 L 200 402.38672 C 200 407.71201 204.28799 412 209.61328 412 L 460.38672 412 C 465.71201 412 470 407.71201 470 402.38672 L 470 361.61328 C 470 356.28799 465.71201 352 460.38672 352 L 209.61328 352 z "
     id="rect3335" /></svg>
