<?xml version="1.0" encoding="UTF-8" standalone="no"?>
<svg
   xmlns:dc="http://purl.org/dc/elements/1.1/"
   xmlns:cc="http://creativecommons.org/ns#"
   xmlns:rdf="http://www.w3.org/1999/02/22-rdf-syntax-ns#"
   xmlns:svg="http://www.w3.org/2000/svg"
   xmlns="http://www.w3.org/2000/svg"
   xmlns:sodipodi="http://sodipodi.sourceforge.net/DTD/sodipodi-0.dtd"
   xmlns:inkscape="http://www.inkscape.org/namespaces/inkscape"
   id="ul"
   width="100%"
   height="100%"
   viewBox="0 0 16 16"
   xml:space="preserve">
   <defs
     id="defs7" /><sodipodi:namedview
     pagecolor="#ffffff"
     bordercolor="#666666"
     borderopacity="1"
     objecttolerance="10"
     gridtolerance="10"
     guidetolerance="10"
     inkscape:pageopacity="0"
     inkscape:pageshadow="2"
     inkscape:window-width="1440"
     inkscape:window-height="792"
     id="namedview5"
     showgrid="false"
     inkscape:zoom="1.3037281"
     inkscape:cx="-257.70142"
     inkscape:cy="163.95627"
     inkscape:window-x="-1"
     inkscape:window-y="23"
     inkscape:window-maximized="0"
     inkscape:current-layer="ul" /><path
     d="M 1.6941181,1.6000002 A 1.6941176,1.6941176 0 0 0 1.0000002e-7,3.2941182 1.6941176,1.6941176 0 0 0 1.6941181,4.9882352 1.6941176,1.6941176 0 0 0 3.3882351,3.2941182 1.6941176,1.6941176 0 0 0 1.6941181,1.6000002 Z m 4.5220588,0.564706 c -0.211029,0 -0.380883,0.169854 -0.380883,0.380882 l 0,1.497059 c 0,0.211029 0.169854,0.380882 0.380883,0.380882 l 9.4029411,0 C 15.830146,4.4235292 16,4.2536762 16,4.0426472 l 0,-1.497059 c 0,-0.211028 -0.169854,-0.380882 -0.380882,-0.380882 l -9.4029411,0 z M 1.6941181,6.3058819 A 1.6941176,1.6941176 0 0 0 1.0000002e-7,7.9999999 1.6941176,1.6941176 0 0 0 1.6941181,9.6941179 1.6941176,1.6941176 0 0 0 3.3882351,7.9999999 1.6941176,1.6941176 0 0 0 1.6941181,6.3058819 Z m 4.6924258,0.564706 c -0.305384,0 -0.55125,0.245866 -0.55125,0.55125 l 0,1.156324 c 0,0.305384 0.245866,0.55125 0.55125,0.55125 l 9.0622061,0 c 0.305385,0 0.55125,-0.245866 0.55125,-0.55125 l 0,-1.156324 c 0,-0.305384 -0.245865,-0.55125 -0.55125,-0.55125 l -9.0622061,0 z M 1.6941181,11.011765 A 1.6941176,1.6941176 0 0 0 1.0000002e-7,12.705882 1.6941176,1.6941176 0 0 0 1.6941181,14.4 1.6941176,1.6941176 0 0 0 3.3882351,12.705882 1.6941176,1.6941176 0 0 0 1.6941181,11.011765 Z m 4.5030878,0.564706 c -0.200482,0 -0.361912,0.16143 -0.361912,0.361911 l 0,1.535 c 0,0.200482 0.16143,0.361912 0.361912,0.361912 l 9.4408821,0 C 15.83857,13.835294 16,13.673864 16,13.473382 l 0,-1.535 c 0,-0.200481 -0.16143,-0.361911 -0.361912,-0.361911 l -9.4408821,0 z"
     id="rect3335"
     inkscape:connector-curvature="0"
     fill="currentColor" /></svg>
