<?xml version="1.0" encoding="UTF-8" standalone="no"?>
<svg
   xmlns:dc="http://purl.org/dc/elements/1.1/"
   xmlns:cc="http://creativecommons.org/ns#"
   xmlns:rdf="http://www.w3.org/1999/02/22-rdf-syntax-ns#"
   xmlns:svg="http://www.w3.org/2000/svg"
   xmlns="http://www.w3.org/2000/svg"
   xmlns:sodipodi="http://sodipodi.sourceforge.net/DTD/sodipodi-0.dtd"
   xmlns:inkscape="http://www.inkscape.org/namespaces/inkscape"
   width="100%"
   height="100%"
   viewBox="0 0 850 100"
   id="sort_horizontal"
   version="1.1"
   inkscape:version="0.91 r13725"
   sodipodi:docname="sort_explorer.svg">
  <metadata
     id="metadata8">
    <rdf:RDF>
      <cc:Work
         rdf:about="">
        <dc:format>image/svg+xml</dc:format>
        <dc:type
           rdf:resource="http://purl.org/dc/dcmitype/StillImage" />
        <dc:title></dc:title>
      </cc:Work>
    </rdf:RDF>
  </metadata>
  <defs
     id="defs4" />
  <sodipodi:namedview
     id="base"
     pagecolor="#ffffff"
     bordercolor="#666666"
     borderopacity="1.0"
     inkscape:pageopacity="0.0"
     inkscape:pageshadow="2"
     inkscape:zoom="0.98994949"
     inkscape:cx="378.65927"
     inkscape:cy="224.48154"
     inkscape:document-units="px"
     inkscape:current-layer="layer1"
     showgrid="false"
     inkscape:window-width="1440"
     inkscape:window-height="797"
     inkscape:window-x="0"
     inkscape:window-y="1"
     inkscape:window-maximized="1" />
  <g
     inkscape:label="Ebene 1"
     inkscape:groupmode="layer"
     id="layer1">
    <text
       xml:space="preserve"
       style="font-style:normal;font-variant:normal;font-weight:normal;font-stretch:normal;font-size:69.87844849px;line-height:125%;font-family:Arial;-inkscape-font-specification:Arial;letter-spacing:0px;word-spacing:0px;fill:#3a6e9f;fill-opacity:1;stroke:none;stroke-width:1px;stroke-linecap:butt;stroke-linejoin:miter;stroke-opacity:1"
       x="137.05481"
       y="89.051788"
       id="text4136"
       sodipodi:linespacing="125%"><tspan
         sodipodi:role="line"
         id="tspan4138"
         x="137.05481"
         y="89.051788"
         style="font-style:normal;font-variant:normal;font-weight:bold;font-stretch:normal;font-size:109.18507385px;font-family:Arial;-inkscape-font-specification:'Arial Bold'">Sortiermodus</tspan></text>
    <g
       id="g4203"
       transform="matrix(0.20057719,0,0,0.20057719,-6.0173157,-3.3895134)">
      <g
         id="g3"
         style="fill:currentColor">
        <g
           id="g5" />
      </g>
      <path
         id="path4203"
         d="M 50,44 C 38.92,44 30,52.92 30,64 l 0,30 c 0,11.08 8.92,20 20,20 l 410,0 c 11.08,0 20,-8.92 20,-20 l 0,-30 c 0,-11.08 -8.92,-20 -20,-20 z"
         style="fill:#3a6e9f;fill-opacity:1"
         inkscape:connector-curvature="0" />
      <path
         id="path4201"
         d="M 47.208984,164 C 37.674906,164 30,171.67491 30,181.20898 l 0,35.58204 C 30,226.32509 37.674906,234 47.208984,234 l 415.582036,0 C 472.32509,234 480,226.32509 480,216.79102 l 0,-35.58204 C 480,171.67491 472.32509,164 462.79102,164 Z"
         style="fill:#3a6e9f;fill-opacity:1"
         inkscape:connector-curvature="0" />
      <path
         id="path4199"
         d="M 122.79883,284 C 112.9388,284 105,291.9388 105,301.79883 l 0,34.40234 C 105,346.0612 112.9388,354 122.79883,354 l 414.40234,0 C 547.0612,354 555,346.0612 555,336.20117 l 0,-34.40234 C 555,291.9388 547.0612,284 537.20117,284 Z"
         style="fill:#ff8300;fill-opacity:1"
         inkscape:connector-curvature="0" />
      <path
         id="rect4141"
         d="M 45.310547,404 C 36.828021,404 30,410.82802 30,419.31055 l 0,39.3789 C 30,467.17198 36.828021,474 45.310547,474 l 419.378903,0 C 473.17198,474 480,467.17198 480,458.68945 l 0,-39.3789 C 480,410.82802 473.17198,404 464.68945,404 Z"
         style="fill:#3a6e9f;fill-opacity:1"
         inkscape:connector-curvature="0" />
      <path
         d="m 478.12953,308.30118 63.8298,191.4894 29.78722,-55.31916 63.82982,63.8298 42.55316,-42.5532 -63.8298,-63.82982 55.31918,-29.7872 z"
         id="path4"
         inkscape:connector-curvature="0"
         style="fill:#3a6e9f;fill-opacity:1;stroke-width:0.2;stroke-linejoin:round"
         sodipodi:nodetypes="cccccccc" />
    </g>
  </g>
</svg>
