<?xml version="1.0" encoding="UTF-8" standalone="no"?>
<svg
   xmlns:dc="http://purl.org/dc/elements/1.1/"
   xmlns:cc="http://creativecommons.org/ns#"
   xmlns:rdf="http://www.w3.org/1999/02/22-rdf-syntax-ns#"
   xmlns:svg="http://www.w3.org/2000/svg"
   xmlns="http://www.w3.org/2000/svg"
   xmlns:sodipodi="http://sodipodi.sourceforge.net/DTD/sodipodi-0.dtd"
   xmlns:inkscape="http://www.inkscape.org/namespaces/inkscape"
   width="100%"
   height="100%"
   viewBox="0 0 850 100"
   id="sort_horizontal"
   version="1.1"
   inkscape:version="0.91 r13725"
   sodipodi:docname="sort_gallery.svg">
  <metadata
     id="metadata8">
    <rdf:RDF>
      <cc:Work
         rdf:about="">
        <dc:format>image/svg+xml</dc:format>
        <dc:type
           rdf:resource="http://purl.org/dc/dcmitype/StillImage" />
        <dc:title />
      </cc:Work>
    </rdf:RDF>
  </metadata>
  <defs
     id="defs4" />
  <sodipodi:namedview
     id="base"
     pagecolor="#ffffff"
     bordercolor="#666666"
     borderopacity="1.0"
     inkscape:pageopacity="0.0"
     inkscape:pageshadow="2"
     inkscape:zoom="0.98994949"
     inkscape:cx="195.31658"
     inkscape:cy="224.48154"
     inkscape:document-units="px"
     inkscape:current-layer="layer1"
     showgrid="false"
     inkscape:window-width="1440"
     inkscape:window-height="797"
     inkscape:window-x="0"
     inkscape:window-y="1"
     inkscape:window-maximized="1" />
  <g
     inkscape:label="Ebene 1"
     inkscape:groupmode="layer"
     id="layer1">
    <text
       xml:space="preserve"
       style="font-style:normal;font-variant:normal;font-weight:normal;font-stretch:normal;font-size:69.87844849px;line-height:125%;font-family:Arial;-inkscape-font-specification:Arial;letter-spacing:0px;word-spacing:0px;fill:#3a6e9f;fill-opacity:1;stroke:none;stroke-width:1px;stroke-linecap:butt;stroke-linejoin:miter;stroke-opacity:1"
       x="109.05481"
       y="79.489716"
       id="text4136"
       sodipodi:linespacing="125%"><tspan
         sodipodi:role="line"
         id="tspan4138"
         x="109.05481"
         y="79.489716"
         style="font-style:normal;font-variant:normal;font-weight:bold;font-stretch:normal;font-size:109.18507385px;font-family:Arial;-inkscape-font-specification:'Arial Bold'">Sortiermodus</tspan></text>
    <g
       id="g4295"
       transform="matrix(0.15912728,0,0,0.15912728,-4.7738185,-3.0745126)">
      <g
         id="g3">
        <g
           id="g5" />
      </g>
      <g
         transform="matrix(1.097561,0,0,1.097561,-24.878055,-24.878055)"
         id="g4143">
        <path
           id="path4197"
           d="m 58.956298,50.000005 c -4.961822,0 -8.956293,3.994471 -8.956293,8.956293 l 0,162.087022 c 0,4.96182 3.994471,8.95629 8.956293,8.95629 l 162.087022,0 c 4.96182,0 8.95629,-3.99447 8.95629,-8.95629 l 0,-162.087022 c 0,-4.961822 -3.99447,-8.956293 -8.95629,-8.956293 z"
           style="fill:#3a6e9f;fill-opacity:1"
           inkscape:connector-curvature="0" />
        <path
           id="path4195"
           d="m 290.03506,50.000005 c -5.55963,0 -10.03467,4.475047 -10.03467,10.034678 l 0,159.930257 c 0,5.55963 4.47504,10.03467 10.03467,10.03467 l 159.93026,0 c 5.55963,0 10.03468,-4.47504 10.03468,-10.03467 l 0,-159.930257 c 0,-5.559631 -4.47505,-10.034678 -10.03468,-10.034678 z"
           style="fill:#3a6e9f;fill-opacity:1"
           inkscape:connector-curvature="0" />
        <path
           id="path4193"
           d="m 60.41194,280.00039 c -5.768117,0 -10.411935,4.64382 -10.411935,10.41194 l 0,159.17573 c 0,5.76811 4.643818,10.41194 10.411935,10.41194 l 159.17573,0 c 5.76812,0 10.41194,-4.64383 10.41194,-10.41194 l 0,-159.17573 c 0,-5.76812 -4.64382,-10.41194 -10.41194,-10.41194 z"
           style="fill:#3a6e9f;fill-opacity:1"
           inkscape:connector-curvature="0" />
        <path
           id="rect4135"
           d="m 326.41901,316.44483 c -5.52634,0 -9.97418,4.44784 -9.97418,9.97418 l 0,160.04947 c 0,5.52635 4.44784,9.97596 9.97418,9.97596 l 160.04947,0 c 5.52635,0 9.97596,-4.44961 9.97596,-9.97596 l 0,-160.04947 c 0,-5.52634 -4.44961,-9.97418 -9.97596,-9.97418 z"
           style="fill:#ff8300;fill-opacity:1"
           inkscape:connector-curvature="0" />
      </g>
      <path
         d="m 445.8592,447.74882 63.82979,191.48936 29.78724,-55.31912 63.82979,63.82979 42.55318,-42.55322 -63.82979,-63.82979 55.31916,-29.78724 z"
         id="path4"
         inkscape:connector-curvature="0"
         style="fill:#3a6e9f;fill-opacity:1;stroke-width:0.2;stroke-linejoin:round"
         sodipodi:nodetypes="cccccccc" />
    </g>
  </g>
</svg>
