<?xml version="1.0" encoding="UTF-8" standalone="no"?>
<svg
   xmlns:dc="http://purl.org/dc/elements/1.1/"
   xmlns:cc="http://creativecommons.org/ns#"
   xmlns:rdf="http://www.w3.org/1999/02/22-rdf-syntax-ns#"
   xmlns:svg="http://www.w3.org/2000/svg"
   xmlns="http://www.w3.org/2000/svg"
   xmlns:sodipodi="http://sodipodi.sourceforge.net/DTD/sodipodi-0.dtd"
   xmlns:inkscape="http://www.inkscape.org/namespaces/inkscape"
   width="100%"
   height="100%"
   viewBox="0 0 300 30"
   id="sort_horizontal">
  <defs
     id="defs4" />
  <sodipodi:namedview
     id="base"
     pagecolor="#ffffff"
     bordercolor="#666666"
     borderopacity="1.0"
     inkscape:pageopacity="0.0"
     inkscape:pageshadow="2"
     inkscape:zoom="1.4"
     inkscape:cx="256.25685"
     inkscape:cy="81.624397"
     inkscape:document-units="px"
     inkscape:current-layer="layer1"
     showgrid="false"
     inkscape:window-width="1440"
     inkscape:window-height="797"
     inkscape:window-x="0"
     inkscape:window-y="1"
     inkscape:window-maximized="1" />
  <g
     inkscape:label="Ebene 1"
     inkscape:groupmode="layer"
     id="layer1"
     transform="translate(0,-70)">
    <g
       id="g4152"
       transform="matrix(0.32213646,0,0,0.32213646,14.54162,68.248904)">
      <text
         sodipodi:linespacing="125%"
         id="text4136"
         y="89.051788"
         x="137.05481"
         style="font-style:normal;font-variant:normal;font-weight:normal;font-stretch:normal;font-size:69.87844849px;line-height:125%;font-family:Arial;-inkscape-font-specification:Arial;letter-spacing:0px;word-spacing:0px;fill:#3a6e9f;fill-opacity:1;stroke:none;stroke-width:1px;stroke-linecap:butt;stroke-linejoin:miter;stroke-opacity:1"
         xml:space="preserve"><tspan
           style="font-style:normal;font-variant:normal;font-weight:bold;font-stretch:normal;font-size:109.18507385px;font-family:Arial;-inkscape-font-specification:'Arial Bold'"
           y="89.051788"
           x="137.05481"
           id="tspan4138"
           sodipodi:role="line">Sortiermodus</tspan></text>
      <path
         id="path4203"
         d="M 4.0115438,5.435883 C 1.7891485,5.435883 0,7.2250315 0,9.4474268 l 0,6.0173152 c 0,2.222396 1.7891485,4.011544 4.0115438,4.011544 l 82.2366482,0 c 2.222395,0 4.011543,-1.789148 4.011543,-4.011544 l 0,-6.0173152 c 0,-2.2223953 -1.789148,-4.0115438 -4.011543,-4.0115438 z"
         style="fill:#3a6e9f;fill-opacity:1"
         inkscape:connector-curvature="0" />
      <path
         id="path4201"
         d="M 3.4517297,29.505146 C 1.5394111,29.505146 0,31.044558 0,32.956875 l 0,7.136945 c 0,1.912317 1.5394111,3.451729 3.4517297,3.451729 l 83.3562773,0 c 1.912317,0 3.451728,-1.539412 3.451728,-3.451729 l 0,-7.136945 c 0,-1.912317 -1.539411,-3.451729 -3.451728,-3.451729 z"
         style="fill:#3a6e9f;fill-opacity:1"
         inkscape:connector-curvature="0" />
      <path
         id="path4199"
         d="m 18.613329,53.574409 c -1.977698,0 -3.57004,1.592342 -3.57004,3.570039 l 0,6.900325 c 0,1.977697 1.592342,3.570039 3.57004,3.570039 l 83.119661,0 c 1.97769,0 3.57003,-1.592342 3.57003,-3.570039 l 0,-6.900325 c 0,-1.977697 -1.59234,-3.570039 -3.57003,-3.570039 z"
         style="fill:#ff8300;fill-opacity:1"
         inkscape:connector-curvature="0" />
      <path
         id="rect4141"
         d="M 3.0709465,77.643671 C 1.3695453,77.643671 0,79.013216 0,80.714618 l 0,7.89851 c 0,1.701402 1.3695453,3.070947 3.0709465,3.070947 l 84.1178415,0 c 1.701402,0 3.070947,-1.369545 3.070947,-3.070947 l 0,-7.89851 c 0,-1.701402 -1.369545,-3.070947 -3.070947,-3.070947 z"
         style="fill:#3a6e9f;fill-opacity:1"
         inkscape:connector-curvature="0" />
      <path
         d="M 89.884562,58.448671 102.68736,96.857077 108.662,85.761315 121.46481,98.564117 130,90.028916 117.1972,77.22611 128.29296,71.251477 Z"
         id="path4"
         inkscape:connector-curvature="0"
         style="fill:#3a6e9f;fill-opacity:1;stroke-width:0.2;stroke-linejoin:round"
         sodipodi:nodetypes="cccccccc" />
    </g>
  </g>
</svg>
