<?xml version="1.0" encoding="UTF-8" standalone="no"?>
<svg
   xmlns:dc="http://purl.org/dc/elements/1.1/"
   xmlns:cc="http://creativecommons.org/ns#"
   xmlns:rdf="http://www.w3.org/1999/02/22-rdf-syntax-ns#"
   xmlns:svg="http://www.w3.org/2000/svg"
   xmlns="http://www.w3.org/2000/svg"
   xmlns:sodipodi="http://sodipodi.sourceforge.net/DTD/sodipodi-0.dtd"
   xmlns:inkscape="http://www.inkscape.org/namespaces/inkscape"
   width="100%"
   height="100%"
   viewBox="0 0 16 16"
   id="brush">
  <defs
     id="defs4747" />
  <sodipodi:namedview
     id="base"
     pagecolor="#ffffff"
     bordercolor="#666666"
     borderopacity="1.0"
     inkscape:pageopacity="0.0"
     inkscape:pageshadow="2"
     inkscape:zoom="3.959798"
     inkscape:cx="34.53837"
     inkscape:cy="34.173066"
     inkscape:document-units="px"
     inkscape:current-layer="layer1"
     showgrid="false"
     fit-margin-top="0"
     fit-margin-left="0"
     fit-margin-right="0"
     fit-margin-bottom="0"
     inkscape:window-width="1440"
     inkscape:window-height="797"
     inkscape:window-x="0"
     inkscape:window-y="1"
     inkscape:window-maximized="1" />
  <g
     inkscape:label="Layer 1"
     inkscape:groupmode="layer"
     id="layer1"
     transform="translate(-325.30643,-437.32053)">
    <path
       d="m 341.30616,437.84094 c -0.0109,1.40905 -1.05608,2.64714 -3.76574,4.70364 -0.69684,0.52886 -0.93936,0.77801 -0.93936,0.94961 0,0.45048 0.70818,1.7279 1.29903,2.34321 l 0.50771,0.52872 -0.63916,0.62263 -1.62204,1.59456 -3.1177,-3.08295 -3.11769,-3.08294 1.52763,-1.52074 c 0.84019,-0.83641 0.62157,-0.54883 0.71545,-0.54883 0.0939,0 0.52395,0.2807 0.95568,0.62378 0.45796,0.36393 1.12144,0.66842 1.59266,0.73092 0,0 0.55742,0.21155 0.80769,0.10712 0.57537,-0.24007 1.22059,-1.44628 1.22059,-1.44628 1.4201,-1.89047 2.46706,-2.76675 3.87353,-2.99245 0.66891,-0.10734 0.70598,-0.0825 0.70172,0.47 z m -2.32105,1.43886 c 0.0658,0.23985 0.53779,0.48563 0.82031,0.21349 0.27489,-0.26479 0.37066,-0.46476 0.0721,-0.75783 -0.21525,-0.21132 -0.51775,-0.17093 -0.73861,0.0103 -0.157,0.12885 -0.19538,0.38258 -0.15382,0.53402 z m -6.32862,6.80233 2.75126,2.8007 -1.52267,2.21885 -1.52266,2.21885 -2.70974,-2.66337 -2.70974,-2.66337 0.61089,-0.62326 c 0.85453,-0.87182 0.76131,-1.01194 -0.27407,-0.41193 l -0.88497,0.51285 -0.58465,-0.60344 c -0.32156,-0.33189 -0.5453,-0.63763 -0.4972,-0.67941 0.6389,-0.55496 4.22419,-2.95798 4.38101,-2.93633 0.1162,0.016 1.44935,1.28948 2.96254,2.82986 z"
       id="path4186"
       inkscape:connector-curvature="0"
       sodipodi:nodetypes="sssscccccsssssssssssssssccccsscsscss"
       fill="currentColor" />
  </g>
</svg>
