<?xml version="1.0" encoding="UTF-8" standalone="no"?>
<svg
   xmlns:dc="http://purl.org/dc/elements/1.1/"
   xmlns:cc="http://creativecommons.org/ns#"
   xmlns:rdf="http://www.w3.org/1999/02/22-rdf-syntax-ns#"
   xmlns:svg="http://www.w3.org/2000/svg"
   xmlns="http://www.w3.org/2000/svg"
   xmlns:sodipodi="http://sodipodi.sourceforge.net/DTD/sodipodi-0.dtd"
   xmlns:inkscape="http://www.inkscape.org/namespaces/inkscape"
   width="100%"
   height="100%"
   viewBox="0 0 103.67285 104.7738"
   id="brush">
  <defs
     id="defs4747" />
  <sodipodi:namedview
     id="base"
     pagecolor="#ffffff"
     bordercolor="#666666"
     borderopacity="1.0"
     inkscape:pageopacity="0.0"
     inkscape:pageshadow="2"
     inkscape:zoom="2.8"
     inkscape:cx="99.359799"
     inkscape:cy="84.680693"
     inkscape:document-units="px"
     inkscape:current-layer="layer1"
     showgrid="false"
     fit-margin-top="0"
     fit-margin-left="0"
     fit-margin-right="0"
     fit-margin-bottom="0"
     inkscape:window-width="1440"
     inkscape:window-height="797"
     inkscape:window-x="0"
     inkscape:window-y="1"
     inkscape:window-maximized="1" />
  <g
     inkscape:label="Layer 1"
     inkscape:groupmode="layer"
     id="layer1"
     transform="translate(-325.30643,-348.54673)">
    <path
       fill="currentColor"
       d="m 425.9776,354.75941 c -0.0663,8.6986 -6.44692,16.34176 -22.98815,29.03725 -4.25392,3.2649 -5.7344,4.80294 -5.7344,5.86229 0,2.78103 4.32312,10.667 7.93002,14.46549 l 3.09936,3.26399 -3.90183,3.84375 -9.90183,9.84376 -19.03211,-19.03212 -19.03211,-19.03211 9.32546,-9.38813 c 5.12901,-5.16346 3.79441,-3.38812 4.36755,-3.38812 0.57315,0 3.19843,1.73289 5.83397,3.85086 2.79565,2.24665 6.84589,4.12637 9.72248,4.5122 0,0 3.40278,1.30599 4.93059,0.66133 3.51238,-1.48206 7.45115,-8.92844 7.45115,-8.92844 8.66909,-11.67054 15.0603,-17.08016 23.64616,-18.47346 4.08338,-0.66264 4.30969,-0.50936 4.28369,2.90146 z m -14.16897,8.88262 c 0.40178,1.48065 3.28298,2.99794 5.00763,1.31793 1.67806,-1.63462 2.26272,-2.86913 0.44028,-4.67837 -1.31405,-1.30453 -3.16065,-1.05519 -4.50893,0.0638 -0.95841,0.79541 -1.19266,2.36182 -0.93898,3.29666 z m -38.63337,41.99327 16.79521,17.28971 -9.29521,13.69776 -9.29521,13.69777 -16.54174,-16.44196 -16.54173,-16.44195 3.72923,-3.84759 c 5.21652,-5.38208 4.64742,-6.24706 -1.67311,-2.54298 l -5.40235,3.16599 -3.56903,-3.72526 c -1.96297,-2.04889 -3.32878,-3.93629 -3.03515,-4.19422 3.90017,-3.42601 25.78678,-18.26069 26.74407,-18.12704 0.70939,0.099 8.84765,7.96043 18.08502,17.46977 z"
       id="path4186"
       inkscape:connector-curvature="0"
       sodipodi:nodetypes="sssscccccsssssssssssssssccccsscsscss" />
  </g>
</svg>
