<?xml version="1.0" encoding="UTF-8" standalone="no"?>
<svg
   xmlns:dc="http://purl.org/dc/elements/1.1/"
   xmlns:cc="http://creativecommons.org/ns#"
   xmlns:rdf="http://www.w3.org/1999/02/22-rdf-syntax-ns#"
   xmlns:svg="http://www.w3.org/2000/svg"
   xmlns="http://www.w3.org/2000/svg"
   xmlns:sodipodi="http://sodipodi.sourceforge.net/DTD/sodipodi-0.dtd"
   xmlns:inkscape="http://www.inkscape.org/namespaces/inkscape"
   height="100%"
   width="100%"
   viewBox="0 0 16 16"
   id="copy">
  <defs
     id="defs10" />
  <sodipodi:namedview
     pagecolor="#ffffff"
     bordercolor="#666666"
     borderopacity="1"
     objecttolerance="10"
     gridtolerance="10"
     guidetolerance="10"
     inkscape:pageopacity="0"
     inkscape:pageshadow="2"
     inkscape:window-width="1270"
     inkscape:window-height="673"
     id="namedview8"
     showgrid="false"
     inkscape:zoom="13.906433"
     inkscape:cx="-1.0515136"
     inkscape:cy="12"
     inkscape:window-x="20"
     inkscape:window-y="43"
     inkscape:window-maximized="0"
     inkscape:current-layer="copy" />
  <path
     d="m 0,-8 24,0 0,24 -24,0 z"
     id="path4"
     inkscape:connector-curvature="0"
     style="fill:none" />
  <path
     d="m 16,4.3018878 0,9.0566022 c 0,0.830195 -0.67924,1.509435 -1.509435,1.509435 l -10.5660364,0 0,-1.509435 10.5660364,0 0,-9.0566022 z m -2.415088,-1.6603781 0,8.3018923 c 0,0.830176 -0.679259,1.509435 -1.509435,1.509435 l -10.5660421,0 C 0.67924585,12.452837 2.5e-7,11.773578 2.5e-7,10.943402 l 0,-8.3018924 c 0,-0.830189 0.6792456,-1.5094346 1.50943465,-1.5094346 l 10.5660421,0 c 0.830176,0 1.509435,0.6792456 1.509435,1.5094346 z m -12.0754771,0 0,8.3018923 10.5660421,0 0,-8.3018923 z"
     id="path6"
     inkscape:connector-curvature="0"
     sodipodi:nodetypes="csscccccsssssssssccccc"
     fill="currentColor" />
</svg>
