<?xml version="1.0" encoding="UTF-8" standalone="no"?>
<svg
   xmlns:dc="http://purl.org/dc/elements/1.1/"
   xmlns:cc="http://creativecommons.org/ns#"
   xmlns:rdf="http://www.w3.org/1999/02/22-rdf-syntax-ns#"
   xmlns:svg="http://www.w3.org/2000/svg"
   xmlns="http://www.w3.org/2000/svg"
   xmlns:sodipodi="http://sodipodi.sourceforge.net/DTD/sodipodi-0.dtd"
   xmlns:inkscape="http://www.inkscape.org/namespaces/inkscape"
   version="1.1"
   id="download"
   x="0px"
   y="0px"
   width="100%"
   height="100%"
   viewBox="0 0 512 512"
   style="enable-background:new 0 0 512 512;"
   xml:space="preserve"><defs
     id="defs11" /><sodipodi:namedview
     pagecolor="#ffffff"
     bordercolor="#666666"
     borderopacity="1"
     objecttolerance="10"
     gridtolerance="10"
     guidetolerance="10"
     inkscape:pageopacity="0"
     inkscape:pageshadow="2"
     inkscape:window-width="1257"
     inkscape:window-height="727"
     id="namedview9"
     showgrid="false"
     inkscape:zoom="0.921875"
     inkscape:cx="256"
     inkscape:cy="248.55548"
     inkscape:window-x="0"
     inkscape:window-y="23"
     inkscape:window-maximized="0"
     inkscape:current-layer="Layer_1" /><path
     fill="currentColor"
     d="M 200 12 L 200 233.74219 L 128 233.74219 L 256 397.69922 L 384 233.74219 L 310 233.74219 L 310 12 L 200 12 z M 109.92383 319.79688 L 33.429688 378.7207 C 22.073196 385.36317 16.500942 399.07695 18.322266 412.57617 L 27.642578 484.25195 C 30.106722 498.28688 38.034888 506 57.748047 506 L 458.22656 506 C 478.68968 506 485.86789 497.85832 488.33203 484.25195 L 497.65234 412.57617 C 499.47366 398.75554 493.68853 385.36317 482.33203 378.7207 L 405.83594 319.79688 L 360.83789 319.79688 L 427.26367 386.00781 L 373.05273 386.00781 C 370.58857 386.00781 368.44608 387.29197 367.26758 389.11328 L 347.55469 437.86133 L 168.09961 437.86133 L 148.38672 389.11328 C 147.31535 387.18483 145.06571 386.00781 142.60156 386.00781 L 88.498047 386.00781 L 155.13672 319.79688 L 109.92383 319.79688 z "
     id="polygon5" /></svg>
