<?xml version="1.0" encoding="UTF-8" standalone="no"?>
<svg
   xmlns:dc="http://purl.org/dc/elements/1.1/"
   xmlns:cc="http://creativecommons.org/ns#"
   xmlns:rdf="http://www.w3.org/1999/02/22-rdf-syntax-ns#"
   xmlns:svg="http://www.w3.org/2000/svg"
   xmlns="http://www.w3.org/2000/svg"
   xmlns:sodipodi="http://sodipodi.sourceforge.net/DTD/sodipodi-0.dtd"
   xmlns:inkscape="http://www.inkscape.org/namespaces/inkscape"
   id="download"
   width="100%"
   height="100%"
   viewBox="0 0 16 16"
   xml:space="preserve">
   <defs
     id="defs11" /><sodipodi:namedview
     pagecolor="#ffffff"
     bordercolor="#666666"
     borderopacity="1"
     objecttolerance="10"
     gridtolerance="10"
     guidetolerance="10"
     inkscape:pageopacity="0"
     inkscape:pageshadow="2"
     inkscape:window-width="1411"
     inkscape:window-height="760"
     id="namedview9"
     showgrid="false"
     inkscape:zoom="5.2149125"
     inkscape:cx="59.118644"
     inkscape:cy="-19.9054"
     inkscape:window-x="0"
     inkscape:window-y="23"
     inkscape:window-maximized="0"
     inkscape:current-layer="download" /><path
     d="m 6.1220126,-1.5e-7 0,7.18193325 -2.331984,0 4.145749,5.3103489 4.1457494,-5.3103488 -2.3967614,0 0,-7.18193335 -3.562753,0 z M 3.2045656,9.9691291 0.72702291,11.877593 c -0.367821,0.215141 -0.548299,0.659312 -0.489309,1.096534 l 0.301872,2.321482 C 0.61939691,15.750182 0.87617891,16 1.5146619,16 l 12.9709641,0 c 0.662773,0 0.895266,-0.263698 0.975076,-0.704391 l 0.301873,-2.321482 c 0.05899,-0.447632 -0.128383,-0.881393 -0.496205,-1.096534 l -2.477606,-1.9084639 -1.457427,0 2.151443,2.1444839 -1.75582,0 c -0.07981,0 -0.149204,0.04159 -0.187374,0.100582 l -0.638474,1.578884 -5.8123104,0 -0.638474,-1.578884 c -0.0347,-0.06246 -0.107563,-0.100582 -0.187374,-0.100582 l -1.7523397,0 2.1583367,-2.1444839 -1.464385,0 z"
     id="polygon5"
     inkscape:connector-curvature="0"
     fill="currentColor" /></svg>
