<?xml version="1.0" encoding="UTF-8" standalone="no"?>
<svg
   xmlns:dc="http://purl.org/dc/elements/1.1/"
   xmlns:cc="http://creativecommons.org/ns#"
   xmlns:rdf="http://www.w3.org/1999/02/22-rdf-syntax-ns#"
   xmlns:svg="http://www.w3.org/2000/svg"
   xmlns="http://www.w3.org/2000/svg"
   xmlns:sodipodi="http://sodipodi.sourceforge.net/DTD/sodipodi-0.dtd"
   xmlns:inkscape="http://www.inkscape.org/namespaces/inkscape"
   id="explorer"
   width="100%"
   height="100%"
   viewBox="0 0 16 16"
   xml:space="preserve">
   <defs
     id="defs11" /><sodipodi:namedview
     pagecolor="#ffffff"
     bordercolor="#666666"
     borderopacity="1"
     objecttolerance="10"
     gridtolerance="10"
     guidetolerance="10"
     inkscape:pageopacity="0"
     inkscape:pageshadow="2"
     inkscape:window-width="1286"
     inkscape:window-height="665"
     id="namedview9"
     showgrid="false"
     inkscape:zoom="3.7019608"
     inkscape:cx="64.873616"
     inkscape:cy="-15.127118"
     inkscape:window-x="0"
     inkscape:window-y="69"
     inkscape:window-maximized="0"
     inkscape:current-layer="explorer" /><g
     id="g3"
     fill="currentColor"
     transform="translate(0,-494)"><g
       id="g5" /></g><path
     d="M 0.7111111,0.35555535 C 0.3171561,0.35555535 9.9999999e-8,0.67271135 9.9999999e-8,1.0666664 l 0,1.066667 C 9.9999999e-8,2.5272884 0.3171561,2.8444444 0.7111111,2.8444444 l 14.5777779,0 C 15.682844,2.8444444 16,2.5272884 16,2.1333334 l 0,-1.066667 C 16,0.67271135 15.682844,0.35555535 15.288889,0.35555535 Z M 0.6118711,4.6222224 C 0.2728861,4.6222224 9.9999999e-8,4.8951074 9.9999999e-8,5.2340974 l 0,1.265139 C 9.9999999e-8,6.8382254 0.2728861,7.1111114 0.6118751,7.1111114 l 14.7762499,0 C 15.727114,7.1111114 16,6.8382254 16,6.4992364 l 0,-1.265139 c 0,-0.33899 -0.272886,-0.611875 -0.611875,-0.611875 z m 0.02097,4.2666663 C 0.2822681,8.8888887 9.9999999e-8,9.1711577 9.9999999e-8,9.5217367 l 0,1.2231943 C 9.9999999e-8,11.09551 0.2822681,11.377778 0.6328471,11.377778 l 14.7343059,0 C 15.717732,11.377778 16,11.09551 16,10.744931 l 0,-1.2231943 c 0,-0.350579 -0.282268,-0.632848 -0.632847,-0.632848 z m -0.08847,4.2666673 C 0.2427741,13.155556 9.9999999e-8,13.39833 9.9999999e-8,13.699931 l 0,1.400139 C 9.9999999e-8,15.401671 0.2427741,15.644445 0.5443751,15.644445 l 14.9112499,0 C 15.757226,15.644445 16,15.401671 16,15.10007 l 0,-1.400139 c 0,-0.301601 -0.242774,-0.544375 -0.544375,-0.544375 z"
     id="rect4141"
     inkscape:connector-curvature="0"
     fill="currentColor"
     sodipodi:nodetypes="ssssssssssssssssssssssssssssssssssss" /></svg>
