<?xml version="1.0" encoding="UTF-8" standalone="no"?>
<svg
   xmlns:dc="http://purl.org/dc/elements/1.1/"
   xmlns:cc="http://creativecommons.org/ns#"
   xmlns:rdf="http://www.w3.org/1999/02/22-rdf-syntax-ns#"
   xmlns:svg="http://www.w3.org/2000/svg"
   xmlns="http://www.w3.org/2000/svg"
   xmlns:sodipodi="http://sodipodi.sourceforge.net/DTD/sodipodi-0.dtd"
   xmlns:inkscape="http://www.inkscape.org/namespaces/inkscape"
   version="1.1"
   id="explorer"
   x="0px"
   y="0px"
   width="100%"
   height="100%"
   viewBox="0 0 510 510"
   style="enable-background:new 0 0 510 510;"
   xml:space="preserve"
   inkscape:version="0.91 r13725"
   sodipodi:docname="explorer.svg"><metadata
     id="metadata8"><rdf:RDF><cc:Work
         rdf:about=""><dc:format>image/svg+xml</dc:format><dc:type
           rdf:resource="http://purl.org/dc/dcmitype/StillImage" /></cc:Work></rdf:RDF></metadata><defs
     id="defs11" /><sodipodi:namedview
     pagecolor="#ffffff"
     bordercolor="#666666"
     borderopacity="1"
     objecttolerance="10"
     gridtolerance="10"
     guidetolerance="10"
     inkscape:pageopacity="0"
     inkscape:pageshadow="2"
     inkscape:window-width="1286"
     inkscape:window-height="665"
     id="namedview9"
     showgrid="false"
     inkscape:zoom="0.4627451"
     inkscape:cx="457.09819"
     inkscape:cy="255"
     inkscape:window-x="0"
     inkscape:window-y="69"
     inkscape:window-maximized="0"
     inkscape:current-layer="explorer" /><g
     fill="currentColor"
     id="g3"><g
       id="g5" /></g><path
     d="M 50,44 C 38.92,44 30,52.92 30,64 l 0,30 c 0,11.08 8.92,20 20,20 l 410,0 c 11.08,0 20,-8.92 20,-20 l 0,-30 C 480,52.92 471.08,44 460,44 Z M 47.208984,164 C 37.674906,164 30,171.67491 30,181.20898 l 0,35.58204 C 30,226.32509 37.674906,234 47.208984,234 l 415.582036,0 C 472.32509,234 480,226.32509 480,216.79102 l 0,-35.58204 C 480,171.67491 472.32509,164 462.79102,164 Z m 0.589844,120 C 37.938798,284 30,291.9388 30,301.79883 l 0,34.40234 C 30,346.0612 37.938798,354 47.798828,354 l 414.402342,0 C 472.0612,354 480,346.0612 480,336.20117 l 0,-34.40234 C 480,291.9388 472.0612,284 462.20117,284 Z M 45.310547,404 C 36.828021,404 30,410.82802 30,419.31055 l 0,39.3789 C 30,467.17198 36.828021,474 45.310547,474 l 419.378903,0 C 473.17198,474 480,467.17198 480,458.68945 l 0,-39.3789 C 480,410.82802 473.17198,404 464.68945,404 Z"
     id="rect4141"
     inkscape:connector-curvature="0"
     style="fill:currentColor"
     sodipodi:nodetypes="ssssssssssssssssssssssssssssssssssss" /></svg>