<?xml version="1.0" encoding="UTF-8" standalone="no"?>
<svg
   xmlns:dc="http://purl.org/dc/elements/1.1/"
   xmlns:cc="http://creativecommons.org/ns#"
   xmlns:rdf="http://www.w3.org/1999/02/22-rdf-syntax-ns#"
   xmlns:svg="http://www.w3.org/2000/svg"
   xmlns="http://www.w3.org/2000/svg"
   xmlns:sodipodi="http://sodipodi.sourceforge.net/DTD/sodipodi-0.dtd"
   xmlns:inkscape="http://www.inkscape.org/namespaces/inkscape"
   version="1.1"
   id="gallery"
   x="0px"
   y="0px"
   width="100%"
   height="100%"
   viewBox="0 0 510 510"
   style="enable-background:new 0 0 510 510;"
   xml:space="preserve"
   inkscape:version="0.91 r13725"
   sodipodi:docname="gallery.svg"><defs
     id="defs11" /><sodipodi:namedview
     pagecolor="#ffffff"
     bordercolor="#666666"
     borderopacity="1"
     objecttolerance="10"
     gridtolerance="10"
     guidetolerance="10"
     inkscape:pageopacity="0"
     inkscape:pageshadow="2"
     inkscape:window-width="1403"
     inkscape:window-height="755"
     id="namedview9"
     showgrid="false"
     inkscape:zoom="0.65442039"
     inkscape:cx="64.873616"
     inkscape:cy="255"
     inkscape:window-x="14"
     inkscape:window-y="33"
     inkscape:window-maximized="0"
     inkscape:current-layer="explorer" /><g
     id="g3"><g
       id="g5" /></g><g
     id="g4143"
     transform="matrix(1.097561,0,0,1.097561,-24.878055,-24.878055)"><path
     fill="currentColor"
       d="M 39.830078 30 C 34.384176 30 30 34.384176 30 39.830078 L 30 217.73047 C 30 223.17637 34.384176 227.56055 39.830078 227.56055 L 217.73047 227.56055 C 223.17637 227.56055 227.56055 223.17637 227.56055 217.73047 L 227.56055 39.830078 C 227.56055 34.384176 223.17637 30 217.73047 30 L 39.830078 30 z M 293.45312 30 C 287.35108 30 282.43945 34.911637 282.43945 41.013672 L 282.43945 216.54688 C 282.43945 222.64892 287.35108 227.56055 293.45312 227.56055 L 468.98633 227.56055 C 475.08837 227.56055 480 222.64892 480 216.54688 L 480 41.013672 C 480 34.911637 475.08837 30 468.98633 30 L 293.45312 30 z M 41.427734 282.43945 C 35.096874 282.43945 30 287.53633 30 293.86719 L 30 468.57227 C 30 474.90312 35.096874 480 41.427734 480 L 216.13281 480 C 222.46367 480 227.56055 474.90312 227.56055 468.57227 L 227.56055 293.86719 C 227.56055 287.53633 222.46367 282.43945 216.13281 282.43945 L 41.427734 282.43945 z M 293.38672 282.43945 C 287.32122 282.43945 282.43945 287.32122 282.43945 293.38672 L 282.43945 469.05078 C 282.43945 475.11628 287.32122 480 293.38672 480 L 469.05078 480 C 475.11628 480 480 475.11628 480 469.05078 L 480 293.38672 C 480 287.32122 475.11628 282.43945 469.05078 282.43945 L 293.38672 282.43945 z "
       transform="matrix(0.91111109,0,0,0.91111109,22.666672,22.666672)"
       id="rect4135" /></g></svg>
