<?xml version="1.0" encoding="UTF-8" standalone="no"?>
<svg
   xmlns:dc="http://purl.org/dc/elements/1.1/"
   xmlns:cc="http://creativecommons.org/ns#"
   xmlns:rdf="http://www.w3.org/1999/02/22-rdf-syntax-ns#"
   xmlns:svg="http://www.w3.org/2000/svg"
   xmlns="http://www.w3.org/2000/svg"
   xmlns:sodipodi="http://sodipodi.sourceforge.net/DTD/sodipodi-0.dtd"
   xmlns:inkscape="http://www.inkscape.org/namespaces/inkscape"
   version="1.1"
   id="paste"
   x="0px"
   y="0px"
   width="100%"
   height="100%"
   viewBox="10 10 30 30"
   xml:space="preserve"><defs
     id="defs33" /><sodipodi:namedview
     pagecolor="#ffffff"
     bordercolor="#666666"
     borderopacity="1"
     objecttolerance="10"
     gridtolerance="10"
     guidetolerance="10"
     inkscape:pageopacity="0"
     inkscape:pageshadow="2"
     inkscape:window-width="1379"
     inkscape:window-height="747"
     id="namedview31"
     showgrid="false"
     inkscape:zoom="13.350176"
     inkscape:cx="13.482644"
     inkscape:cy="10.938703"
     inkscape:window-x="137"
     inkscape:window-y="39"
     inkscape:window-maximized="0"
     inkscape:current-layer="clipboard" /><g
     id="g5"
     transform="translate(-0.1992188,0.4)"><path
       fill="currentColor"
       d="M 14.900391 0.1875 C 13.881587 0.18821646 13.039032 0.98115923 12.976562 1.9980469 L 11.441406 1.9980469 C 11.148726 1.9980469 10.953125 2.1936481 10.953125 2.4863281 L 10.953125 5.0214844 C 11.050675 5.3141694 11.246286 5.5097656 11.441406 5.5097656 L 18.367188 5.5097656 C 18.659872 5.5097656 18.855468 5.3141694 18.855469 5.0214844 L 18.855469 2.4863281 C 18.855469 2.1936481 18.659872 1.9980469 18.367188 1.9980469 L 16.824219 1.9980469 C 16.761749 0.98115884 15.919196 0.18821593 14.900391 0.1875 z M 7.2441406 3.65625 C 5.9758456 3.65625 4.9999999 4.7296606 5 5.9003906 L 5 27.65625 C 5 28.924545 6.0734056 29.900391 7.2441406 29.900391 L 22.757812 29.900391 C 24.026103 29.900391 25 28.826985 25 27.65625 L 25 5.9980469 C 24.90245 4.7297569 23.928446 3.65625 22.660156 3.65625 L 19.732422 3.65625 L 19.732422 5.6074219 C 19.732422 5.9976669 19.439169 6.1914064 19.146484 6.1914062 L 10.660156 6.1914062 C 10.367472 6.1914062 10.171875 5.9001069 10.171875 5.6074219 L 10.171875 3.65625 L 7.2441406 3.65625 z M 12.164062 10.412109 L 17.8125 10.412109 L 17.8125 19.787109 L 22.5 19.787109 L 15 26.566406 L 7.5 19.787109 L 12.164062 19.787109 L 12.164062 10.412109 z "
       transform="translate(10.199219,9.6)"
       id="path27" /></g><g
     id="g4241"
     transform="matrix(0.078125,0,0,0.078125,4.8110993,15.074847)" /></svg>
