<?xml version="1.0" encoding="UTF-8" standalone="no"?>
<svg
   xmlns:dc="http://purl.org/dc/elements/1.1/"
   xmlns:cc="http://creativecommons.org/ns#"
   xmlns:rdf="http://www.w3.org/1999/02/22-rdf-syntax-ns#"
   xmlns:svg="http://www.w3.org/2000/svg"
   xmlns="http://www.w3.org/2000/svg"
   xmlns:sodipodi="http://sodipodi.sourceforge.net/DTD/sodipodi-0.dtd"
   xmlns:inkscape="http://www.inkscape.org/namespaces/inkscape"
   id="paste"
   width="100%"
   height="100%"
   viewBox="0 0 16 16"
   xml:space="preserve">
   <defs
     id="defs33" /><sodipodi:namedview
     pagecolor="#ffffff"
     bordercolor="#666666"
     borderopacity="1"
     objecttolerance="10"
     gridtolerance="10"
     guidetolerance="10"
     inkscape:pageopacity="0"
     inkscape:pageshadow="2"
     inkscape:window-width="1379"
     inkscape:window-height="747"
     id="namedview31"
     showgrid="false"
     inkscape:zoom="18.88"
     inkscape:cx="5.0749745"
     inkscape:cy="11.816274"
     inkscape:window-x="137"
     inkscape:window-y="62"
     inkscape:window-maximized="0"
     inkscape:current-layer="g5" /><g
     id="g5"
     transform="translate(-0.1992188,-13.6)"><path
       d="m 8.1455806,13.6 c -0.548613,3.86e-4 -1.002317,0.427375 -1.035957,0.974956 l -0.717491,0 c -0.157605,0 -0.262933,0.105328 -0.262933,0.262933 l 0,1.365148 c 0.05253,0.157607 0.157863,0.262933 0.262933,0.262933 l 3.560323,0 c 0.1576074,0 0.2629334,-0.105326 0.2629334,-0.262933 l 0,-1.365148 c 0,-0.157605 -0.105326,-0.262933 -0.2629334,-0.262933 l -0.770919,0 C 9.1478966,14.027375 8.6941936,13.600386 8.1455806,13.6 Z m -4.1227897,1.867876 c -0.68296,0 -1.20844,0.578018 -1.20844,1.20844 l 0,11.715244 c 0,0.68296 0.578015,1.20844 1.20844,1.20844 l 8.3539081,0 c 0.682958,0 1.207388,-0.578015 1.207388,-1.20844 l 0,-11.662657 c -0.05253,-0.682958 -0.577017,-1.261027 -1.259975,-1.261027 l -1.576546,0 0,1.212542 c 0,0.210142 -0.157913,0.314468 -0.31552,0.314468 l -4.5697764,0 c -0.1576057,0 -0.2629327,-0.156861 -0.2629327,-0.314468 l 0,-1.212542 z m 3.0994547,3.637941 2.153947,0 0,5.048314 1.6154604,0 -2.6924344,3.650562 -2.6924337,-3.650562 1.6154607,0 z"
       id="path27"
       inkscape:connector-curvature="0"
       sodipodi:nodetypes="ccsscsssssccsssssscscsssscscccccccc"
       fill="currentColor" /></g><g
     id="g4241"
     transform="matrix(0.078125,0,0,0.078125,4.8110993,1.074847)" /></svg>
