<?xml version="1.0" encoding="UTF-8" standalone="no"?>
<svg
   xmlns:dc="http://purl.org/dc/elements/1.1/"
   xmlns:cc="http://creativecommons.org/ns#"
   xmlns:rdf="http://www.w3.org/1999/02/22-rdf-syntax-ns#"
   xmlns:svg="http://www.w3.org/2000/svg"
   xmlns="http://www.w3.org/2000/svg"
   xmlns:sodipodi="http://sodipodi.sourceforge.net/DTD/sodipodi-0.dtd"
   xmlns:inkscape="http://www.inkscape.org/namespaces/inkscape"
   version="1.1"
   id="properties"
   x="0px"
   y="0px"
   width="100%"
   height="100%"
   viewBox="0 0 512 512"
   enable-background="new 0 0 512 512"
   xml:space="preserve"><defs
     id="defs9" /><sodipodi:namedview
     pagecolor="#ffffff"
     bordercolor="#666666"
     borderopacity="1"
     objecttolerance="10"
     gridtolerance="10"
     guidetolerance="10"
     inkscape:pageopacity="0"
     inkscape:pageshadow="2"
     inkscape:window-width="1259"
     inkscape:window-height="739"
     id="namedview7"
     showgrid="false"
     inkscape:zoom="0.4609375"
     inkscape:cx="-137.76271"
     inkscape:cy="256"
     inkscape:window-x="0"
     inkscape:window-y="46"
     inkscape:window-maximized="0"
     inkscape:current-layer="properties" /><path
     fill="currentColor"
     d="M 170.56445 8.6425781 L 156.11328 50.388672 C 142.8828 53.814799 130.38434 60.153879 118.89844 66.939453 L 118.82031 66.882812 L 79.796875 48.335938 L 49.072266 78.978516 L 67.435547 117.95117 L 67.134766 118.00586 C 60.33828 129.49174 54.332175 141.97413 50.912109 155.20703 L 8.7792969 169.65039 L 8.7792969 212.98047 L 50.912109 227.41602 C 54.332174 240.64407 61.064201 253.12154 67.859375 264.60352 L 67.798828 264.65234 L 49.251953 303.59766 L 79.886719 334.17188 L 118.86328 315.50195 L 118.92188 315.20312 C 130.40533 321.99841 142.89257 326.79086 156.12305 330.21094 L 170.56445 369.92578 L 213.89453 369.92578 L 228.32617 330.21289 C 241.55665 326.79162 254.02826 322.48184 265.51172 315.69141 L 265.54883 315.74609 L 304.48828 334.29297 L 335.03906 303.6582 L 316.32227 264.67773 L 315.92773 264.62695 C 322.71814 253.14348 327.31338 240.64992 330.73828 227.42188 L 370.0625 212.98047 L 370.0625 169.65039 L 330.74023 155.20117 C 327.31532 141.97191 323.39393 129.48078 316.60352 117.99609 L 316.66016 117.92188 L 335.20703 78.90625 L 304.57422 48.201172 L 265.5957 66.621094 L 265.53516 66.408203 C 254.0517 59.61778 241.57032 53.812847 228.33984 50.386719 L 213.89453 8.6425781 L 170.56445 8.6425781 z M 192.23047 119.09961 C 232.11829 119.09961 264.44727 151.42421 264.44727 191.31445 C 264.44727 231.19621 232.11829 263.53125 192.23047 263.53125 C 152.3475 263.53125 120.01562 231.19621 120.01562 191.31445 C 120.01562 151.42421 152.3475 119.09961 192.23047 119.09961 z M 433.86133 305.45898 L 418.42773 323.7832 C 410.69894 322.69805 402.43342 322.9458 397.58398 323.83203 L 397.58398 323.79102 L 378.86914 305.4707 L 353.8125 314.94531 L 355.06055 339.57227 L 355.04492 339.60156 C 348.95524 344.17457 343.37299 349.5937 338.68359 355.83008 L 313.93555 354.51367 L 304.46484 377.39062 L 322.90234 393.95312 C 321.80879 401.68797 322.17626 409.9591 323.0625 417.0332 L 323.01758 417.05859 L 304.70703 433.56641 L 314.16211 456.42383 L 338.79297 455.15625 L 338.83984 455.13086 C 343.4177 461.23871 348.84377 466.75375 355.08984 471.44922 L 353.81055 496.08398 L 376.68359 505.55859 L 393.20703 487.22656 C 400.92855 488.32739 408.67476 488.26583 416.22656 487.19531 L 416.23633 487.23242 L 432.75977 505.54883 L 455.625 496.06445 L 454.33984 471.43164 L 454.29297 471.38086 C 460.39355 466.80299 465.86312 461.35014 470.55859 455.11133 L 495.08594 456.33789 L 504.56055 433.46484 L 486.34766 416.99023 C 487.44117 409.26386 487.47143 401.55697 486.4082 394.01367 L 486.44727 393.99023 L 504.7793 377.47266 L 495.32031 354.60352 L 470.74219 355.87109 C 466.16677 349.77623 460.86429 344.26647 454.63281 339.57227 L 456.19141 314.93164 L 433.86133 305.45898 z M 404.4375 364.24219 C 409.7963 364.2021 415.25038 365.21141 420.51172 367.39062 C 441.56313 376.11232 451.56088 400.24284 442.84766 421.30273 C 434.1223 442.35413 409.99348 452.35014 388.93359 443.63086 C 367.87734 434.91037 357.88328 410.77405 366.60742 389.72266 C 373.14689 373.93048 388.36111 364.36244 404.4375 364.24219 z "
     id="path3" /></svg>
