<?xml version="1.0" encoding="UTF-8" standalone="no"?>
<svg
   xmlns:dc="http://purl.org/dc/elements/1.1/"
   xmlns:cc="http://creativecommons.org/ns#"
   xmlns:rdf="http://www.w3.org/1999/02/22-rdf-syntax-ns#"
   xmlns:svg="http://www.w3.org/2000/svg"
   xmlns="http://www.w3.org/2000/svg"
   xmlns:sodipodi="http://sodipodi.sourceforge.net/DTD/sodipodi-0.dtd"
   xmlns:inkscape="http://www.inkscape.org/namespaces/inkscape"
   id="properties"
   width="100%"
   height="100%"
   viewBox="0 0 16 16"
   xml:space="preserve">
   <defs
     id="defs9" /><sodipodi:namedview
     pagecolor="#ffffff"
     bordercolor="#666666"
     borderopacity="1"
     objecttolerance="10"
     gridtolerance="10"
     guidetolerance="10"
     inkscape:pageopacity="0"
     inkscape:pageshadow="2"
     inkscape:window-width="1431"
     inkscape:window-height="742"
     id="namedview7"
     showgrid="false"
     inkscape:zoom="3.6875"
     inkscape:cx="-79.457627"
     inkscape:cy="-20.131191"
     inkscape:window-x="0"
     inkscape:window-y="46"
     inkscape:window-maximized="0"
     inkscape:current-layer="properties" /><path
     d="M 5.2187784,-2.54e-5 4.7526124,1.3441403 C 4.3258227,1.4544569 3.9226467,1.6585664 3.5521347,1.8770523 l -0.0025,-0.00182 -1.25882,-0.5971833 -0.991116,0.9866483 0.592364,1.2548651 -0.0097,0.0018 c -0.219241,0.369829 -0.412986,0.771744 -0.523311,1.197825 l -1.3591221,0.465056 0,1.395168 1.3591221,0.464805 c 0.110325,0.425923 0.327487,0.82768 0.546686,1.197384 l -0.002,0.0016 -0.598286,1.253985 0.988217,0.9844466 1.257308,-0.6011456 0.0019,-0.0096 c 0.370433,0.2187986 0.773247,0.3731086 1.2000367,0.4832306 l 0.465851,1.278762 1.397744,0 0.465537,-1.278699 c 0.426789,-0.11016 0.829099,-0.248929 1.199533,-0.4675716 l 0.0012,0.0018 1.25611,0.5971836 0.9855086,-0.9863966 -0.6037666,-1.255116 -0.01273,-0.0016 c 0.2190446,-0.369747 0.3672786,-0.772022 0.4777586,-1.197946 l 1.268523,-0.464994 0,-1.395168 -1.26846,-0.465244 C 10.275241,4.2929934 10.148745,3.8907964 9.9296994,3.5210054 l 0.0018,-0.0024 0.5982856,-1.2562485 -0.9881546,-0.9886607 -1.257371,0.5930957 -0.002,-0.00685 C 7.9118244,1.6413099 7.5091994,1.4543993 7.0824104,1.3440827 l -0.465978,-1.3441029 -1.397744,0 z m 0.698904,3.5565618 c 1.286703,0 2.329573,1.040807 2.329573,2.325217 0,1.284137 -1.04287,2.32528 -2.329573,2.32528 -1.2865467,0 -2.3295097,-1.041143 -2.3295097,-2.32528 0,-1.28441 1.042963,-2.325217 2.3295097,-2.325217 z m 7.7945396,6.000511 -0.497858,0.5900136 c -0.249316,-0.03494 -0.515945,-0.02696 -0.672379,0.0016 l 0,-0.0013 -0.603704,-0.5898876 -0.808278,0.305069 0.04026,0.7929526 -5.03e-4,9.44e-4 c -0.196441,0.147245 -0.376513,0.321734 -0.527784,0.522537 l -0.7983236,-0.04239 -0.305506,0.736606 0.5947566,0.533289 c -0.03528,0.249052 -0.02342,0.51537 0.0052,0.743146 l -0.0014,8.18e-4 -0.5906616,0.531529 0.305002,0.735977 0.7945436,-0.04081 0.0015,-8.18e-4 c 0.147672,0.196664 0.322707,0.374241 0.524193,0.525428 l -0.04127,0.793205 0.73784,0.305069 0.533014,-0.590265 c 0.249081,0.03544 0.498959,0.03346 0.742565,-0.001 l 3.23e-4,0.0012 0.533014,0.589762 0.737587,-0.305383 -0.04146,-0.793142 -0.0015,-0.0016 c 0.196793,-0.147401 0.37323,-0.322976 0.524697,-0.523857 l 0.791204,0.03949 0.305633,-0.73648 -0.587513,-0.530459 c 0.03528,-0.248778 0.03625,-0.49693 0.002,-0.739813 l 0.0013,-7.54e-4 0.591356,-0.531842 -0.305129,-0.736355 -0.792842,0.04081 c -0.147594,-0.196335 -0.318642,-0.373742 -0.519657,-0.524888 l 0.05028,-0.7933936 -0.720324,-0.305006 z m -0.949155,1.8927366 c 0.172864,-0.0013 0.348802,0.03121 0.518522,0.101375 0.679078,0.280827 1.001586,1.057796 0.720514,1.735895 -0.281463,0.677825 -1.059811,0.999683 -1.739162,0.718934 -0.679234,-0.280787 -1.001623,-1.057943 -0.720199,-1.735768 0.21095,-0.508487 0.701732,-0.816564 1.220325,-0.820436 z"
     id="path3"
     inkscape:connector-curvature="0"
     fill="currentColor" /></svg>
