<?xml version="1.0" encoding="UTF-8" standalone="no"?>
<svg
   xmlns:dc="http://purl.org/dc/elements/1.1/"
   xmlns:cc="http://creativecommons.org/ns#"
   xmlns:rdf="http://www.w3.org/1999/02/22-rdf-syntax-ns#"
   xmlns:svg="http://www.w3.org/2000/svg"
   xmlns="http://www.w3.org/2000/svg"
   xmlns:sodipodi="http://sodipodi.sourceforge.net/DTD/sodipodi-0.dtd"
   xmlns:inkscape="http://www.inkscape.org/namespaces/inkscape"
   width="100%"
   height="100%"
   id="rights"
   viewBox="0 0 16 16">
  <defs
     id="defs9" />
  <sodipodi:namedview
     pagecolor="#ffffff"
     bordercolor="#666666"
     borderopacity="1"
     objecttolerance="10"
     gridtolerance="10"
     guidetolerance="10"
     inkscape:pageopacity="0"
     inkscape:pageshadow="2"
     inkscape:window-width="1357"
     inkscape:window-height="680"
     id="namedview32"
     showgrid="false"
     inkscape:zoom="3.5883013"
     inkscape:cx="-78.182942"
     inkscape:cy="-29.160745"
     inkscape:window-x="36"
     inkscape:window-y="102"
     inkscape:window-maximized="0"
     inkscape:current-layer="rights" />
  <g
     id="g19"
     transform="matrix(0,0.01712188,-0.01712188,0,14.370145,-1.0092093)">
    <title
       id="title21">Layer 1</title>
    <g
       id="layer1">
      <g
         transform="matrix(2.116591,0,0,2.116591,-102.64501,-421.37692)"
         id="g2346">
        <path
           d="M 350.02344,12.544922 C 272.74518,12.544922 210,79.314974 210,161.57812 c 0,61.77699 35.378,114.80282 85.73047,137.38868 l 0,38.7207 c 17.64627,0.33218 22.36428,-0.20043 23.5,-0.62305 l -12.47266,31.57813 0,3.25976 23.66602,15.91016 -21.9043,14.52148 -0.16601,4.69532 21.25586,19.40625 -26.14454,29.63476 -0.0137,12.88477 26.97266,33.86523 -24.69727,22.71094 0.20117,5.2168 10.3125,14.62695 -7.69531,20.13281 0.82422,17.73828 24.16992,22.74805 -22.05468,17.1875 0,10.63867 72.27539,55.74805 20.55859,0 0,-390.60156 C 454.6574,276.38094 490,223.35511 490,161.57812 490,79.31499 427.30171,12.544922 350.02344,12.544922 Z m 0,38.912109 c 21.52421,0 38.96094,17.483617 38.96094,39.007813 0,21.524206 -17.48361,38.958986 -39.00782,38.958986 -21.52421,0 -38.96093,-17.43478 -38.96094,-38.958986 0,-21.524196 17.48361,-39.007813 39.00782,-39.007813 z"
           transform="matrix(0,-0.65212054,0.65212054,0,68.162566,603.10156)"
           id="path2907"
           inkscape:connector-curvature="0"
           fill="currentColor" />
      </g>
    </g>
  </g>
</svg>
