<?xml version="1.0" encoding="UTF-8" standalone="no"?>
<svg
   xmlns:dc="http://purl.org/dc/elements/1.1/"
   xmlns:cc="http://creativecommons.org/ns#"
   xmlns:rdf="http://www.w3.org/1999/02/22-rdf-syntax-ns#"
   xmlns:svg="http://www.w3.org/2000/svg"
   xmlns="http://www.w3.org/2000/svg"
   xmlns:sodipodi="http://sodipodi.sourceforge.net/DTD/sodipodi-0.dtd"
   xmlns:inkscape="http://www.inkscape.org/namespaces/inkscape"
   version="1.1"
   x="0px"
   y="0px"
   width="100%"
   height="100%"
   viewBox="0 0 1000 1000"
   enable-background="new 0 0 1000 1000"
   xml:space="preserve"
   id="sort_favorites"
   inkscape:version="0.91 r13725"
   sodipodi:docname="sort_favorites.svg"><defs
     id="defs12" /><sodipodi:namedview
     pagecolor="#ffffff"
     bordercolor="#666666"
     borderopacity="1"
     objecttolerance="10"
     gridtolerance="10"
     guidetolerance="10"
     inkscape:pageopacity="0"
     inkscape:pageshadow="2"
     inkscape:window-width="1381"
     inkscape:window-height="736"
     id="namedview10"
     showgrid="false"
     inkscape:zoom="0.3337544"
     inkscape:cx="508.70097"
     inkscape:cy="498.75893"
     inkscape:window-x="0"
     inkscape:window-y="23"
     inkscape:window-maximized="0"
     inkscape:current-layer="sort_horizontal" /><path
     fill="currentColor"
     d="M 732.2832 3.9667969 L 732.2832 137.01172 L 332.60938 137.01172 C 148.91372 137.01172 -3.1595845e-14 286.46705 0 469.94531 L 133.15234 469.94531 C 133.15234 359.83662 222.49942 270.27148 332.7168 270.27148 L 732.2832 270.27148 L 732.2832 403.5332 L 998.58789 203.75 L 732.2832 3.9667969 z M 500.00195 317.67383 C 495.71995 317.67383 491.92261 320.43191 490.59961 324.50391 L 450.01758 449.4043 L 318.6875 449.4043 C 314.4055 449.4043 310.6062 452.16133 309.2832 456.23633 C 307.9612 460.31033 309.40805 464.77106 312.87305 467.28906 L 419.11914 544.48242 L 378.53711 669.38086 C 377.21411 673.45486 378.66191 677.91655 382.12891 680.43555 C 385.59491 682.95655 390.28595 682.95655 393.75195 680.43555 L 500 603.24414 L 606.25 680.43555 C 607.981 681.69755 610.02255 682.32422 612.06055 682.32422 C 614.09855 682.32422 616.14005 681.69755 617.87305 680.43555 C 621.33905 677.91655 622.78489 673.45586 621.46289 669.38086 L 580.88477 544.48242 L 687.125 467.28906 C 690.589 464.77106 692.0398 460.31033 690.7168 456.23633 C 689.3938 452.16233 685.59541 449.4043 681.31641 449.4043 L 549.98633 449.4043 L 509.4043 324.50391 C 508.0823 320.43191 504.28395 317.67383 500.00195 317.67383 z M 866.95703 527.83789 C 866.95703 637.94658 777.58194 716.52641 667.39062 718.92383 L 267.7168 727.61914 L 267.7168 594.4668 L 1.4121094 794.25 L 267.7168 994.0332 L 267.7168 860.88086 L 667.39062 852.18555 C 851.02053 847.27144 1000 711.42357 1000 527.94531 L 866.95703 527.83789 z "
     id="path8" /><g
     id="g3"
     style="fill:currentColor"
     transform="translate(308.79886,308.79863)" /></svg>
