<?xml version="1.0" encoding="UTF-8" standalone="no"?>

<svg
   xmlns:dc="http://purl.org/dc/elements/1.1/"
   xmlns:cc="http://creativecommons.org/ns#"
   xmlns:rdf="http://www.w3.org/1999/02/22-rdf-syntax-ns#"
   xmlns:svg="http://www.w3.org/2000/svg"
   xmlns="http://www.w3.org/2000/svg"
   xmlns:sodipodi="http://sodipodi.sourceforge.net/DTD/sodipodi-0.dtd"
   xmlns:inkscape="http://www.inkscape.org/namespaces/inkscape"
   version="1.1"
   id="sort"
   x="0px"
   y="0px"
   width="100%"
   height="100%"
   viewBox="0 0 427.484 427.484"
   style="enable-background:new 0 0 427.484 427.484;"
   xml:space="preserve"><defs
     id="defs39" /><sodipodi:namedview
     pagecolor="#ffffff"
     bordercolor="#666666"
     borderopacity="1"
     objecttolerance="10"
     gridtolerance="10"
     guidetolerance="10"
     inkscape:pageopacity="0"
     inkscape:pageshadow="2"
     inkscape:window-width="1081"
     inkscape:window-height="643"
     id="namedview37"
     showgrid="false"
     inkscape:zoom="0.55206743"
     inkscape:cx="67.34065"
     inkscape:cy="292.03561"
     inkscape:window-x="20"
     inkscape:window-y="43"
     inkscape:window-maximized="0"
     inkscape:current-layer="Capa_1" /><g
     id="g3"><path
       fill="currentColor"
       d="M 405.943,274.254 302.096,409.338 c -1.04,1.354 -2.66,2.146 -4.374,2.146 -1.702,0 -3.321,-0.798 -4.368,-2.146 L 189.511,274.254 c -0.769,-0.993 -1.144,-2.176 -1.144,-3.357 0,-1.152 0.3599,-2.33209 1.108,-3.322 1.49491,-1.9781 3.95652,-1.80777 6.434,-1.809 l 68.76,-0.034 0,-244.72201 c 0,-3.047 2.477,-5.503 5.515,-5.503 l 55.106,0 c 3.038,0 5.509,2.456 5.509,5.503 l 0,244.72201 68.76,0.034 c 2.47375,10e-4 4.93073,-0.16655 6.419,1.809 1.49573,1.98545 1.483,4.705 -0.035,6.679 z M 238.012,159.913 c 0.75003,-0.98846 1.105,-2.167 1.105,-3.322 0,-1.176 -0.379,-2.367 -1.142,-3.36 L 134.125,18.148 C 133.081,16.792 131.458,16 129.759,16 c -1.714,0 -3.328,0.798 -4.377,2.148 L 21.539,153.23 c -1.519,1.969 -1.528456,4.6926 -0.03,6.683 1.483549,1.9706 3.944041,1.77245 6.419,1.70301 l 68.685,0.073 0.081,244.78299 c 0.001,3.05 2.462,5.509 5.506,5.509 l 55.109,0 c 3.041,0 5.515,-2.459 5.515,-5.509 l 0,-244.78799 68.763,0.031 c 2.47071,0.001 4.929,0.16957 6.425,-1.80201 z"
       id="path5"
       inkscape:connector-curvature="0"
       sodipodi:nodetypes="ccsccssscsssscsscssccsccsscsssscss" /></g><g
     id="g7" /><g
     id="g9" /><g
     id="g11" /><g
     id="g13" /><g
     id="g15" /><g
     id="g17" /><g
     id="g19" /><g
     id="g21" /><g
     id="g23" /><g
     id="g25" /><g
     id="g27" /><g
     id="g29" /><g
     id="g31" /><g
     id="g33" /><g
     id="g35" /></svg>
