<?xml version="1.0" encoding="UTF-8" standalone="no"?>
<svg
   xmlns:dc="http://purl.org/dc/elements/1.1/"
   xmlns:cc="http://creativecommons.org/ns#"
   xmlns:rdf="http://www.w3.org/1999/02/22-rdf-syntax-ns#"
   xmlns:svg="http://www.w3.org/2000/svg"
   xmlns="http://www.w3.org/2000/svg"
   xmlns:sodipodi="http://sodipodi.sourceforge.net/DTD/sodipodi-0.dtd"
   xmlns:inkscape="http://www.inkscape.org/namespaces/inkscape"
   width="100%"
   height="100%"
   viewBox="0 0 16 16"
   xml:space="preserve"
   id="sort_horizontal">
   <defs
     id="defs12" /><sodipodi:namedview
     pagecolor="#ffffff"
     bordercolor="#666666"
     borderopacity="1"
     objecttolerance="10"
     gridtolerance="10"
     guidetolerance="10"
     inkscape:pageopacity="0"
     inkscape:pageshadow="2"
     inkscape:window-width="1381"
     inkscape:window-height="736"
     id="namedview10"
     showgrid="false"
     inkscape:zoom="3.776"
     inkscape:cx="115.4661"
     inkscape:cy="38.468829"
     inkscape:window-x="0"
     inkscape:window-y="23"
     inkscape:window-maximized="0"
     inkscape:current-layer="sort_horizontal" /><g
     id="g6"
     transform="matrix(0.0173913,0,0,0.0173913,-0.173911,-0.69651956)"><path
       d="m 930,500 c 0,168.8 -137.02249,295.54268 -306,298.3 l -367.7,8 0,122.5 -245,-183.8 245,-183.8 0,122.5 367.7,-8 C 725.37601,673.49438 807.6,601.2 807.6,499.9 Z M 132.5,500 10,500 C 10,331.2 147,193.7 316,193.7 l 367.7,0 0,-122.4 245,183.8 -245,183.8 0,-122.6 -367.6,0 c -101.4,0 -183.6,82.4 -183.6,183.7 z"
       id="path8"
       inkscape:connector-curvature="0"
       sodipodi:nodetypes="cscccccsccccscccccsc"
       fill="currentColor" /></g></svg>
