<?xml version="1.0" encoding="UTF-8" standalone="no"?>
<svg
   xmlns:dc="http://purl.org/dc/elements/1.1/"
   xmlns:cc="http://creativecommons.org/ns#"
   xmlns:rdf="http://www.w3.org/1999/02/22-rdf-syntax-ns#"
   xmlns:svg="http://www.w3.org/2000/svg"
   xmlns="http://www.w3.org/2000/svg"
   xmlns:sodipodi="http://sodipodi.sourceforge.net/DTD/sodipodi-0.dtd"
   xmlns:inkscape="http://www.inkscape.org/namespaces/inkscape"
   id="sort"
   width="100%"
   height="100%"
   viewBox="0 0 16 16"
   xml:space="preserve">
   <defs
     id="defs39" /><sodipodi:namedview
     pagecolor="#ffffff"
     bordercolor="#666666"
     borderopacity="1"
     objecttolerance="10"
     gridtolerance="10"
     guidetolerance="10"
     inkscape:pageopacity="0"
     inkscape:pageshadow="2"
     inkscape:window-width="1389"
     inkscape:window-height="709"
     id="namedview37"
     showgrid="false"
     inkscape:zoom="6.2459302"
     inkscape:cx="-33.709729"
     inkscape:cy="-6.3003181"
     inkscape:window-x="20"
     inkscape:window-y="66"
     inkscape:window-maximized="0"
     inkscape:current-layer="g3" /><g
     id="g3"
     transform="translate(0,-411.48401)"><path
       d="m 15.956139,421.79604 -3.968375,5.16205 c -0.03974,0.0517 -0.101649,0.082 -0.167147,0.082 -0.06504,0 -0.126907,-0.0305 -0.166917,-0.082 l -3.9682215,-5.16205 c -0.02939,-0.0379 -0.04372,-0.0832 -0.04372,-0.12829 0,-0.044 0.01375,-0.0891 0.04234,-0.12694 0.05713,-0.0756 0.151193,-0.0691 0.245867,-0.0691 l 2.6275715,-10e-4 0,-9.35173 c 0,-0.11643 0.09465,-0.21029 0.210748,-0.21029 l 2.105803,0 c 0.116093,0 0.209567,0.0939 0.210519,0.21029 l 0,9.35173 2.627572,10e-4 c 0.09453,4e-5 0.188421,-0.006 0.245294,0.0691 0.05716,0.0759 0.05667,0.17979 -0.0013,0.25523 z m -7.6400975,-4.36939 c 0.02866,-0.0378 0.04223,-0.0828 0.04223,-0.12695 0,-0.0449 -0.01448,-0.0904 -0.04364,-0.1284 l -3.9684903,-5.16202 c -0.039895,-0.0518 -0.1019159,-0.0821 -0.1668409,-0.0821 -0.065498,0 -0.1271751,0.0305 -0.1672613,0.0821 l -3.96822226,5.16198 c -0.058047,0.0753 -0.058408,0.17933 -0.00115,0.25539 0.056692,0.0753 0.1506791,0.065 0.2452936,0.0651 l 2.62470596,0.003 0.0031,9.35406 c 3.82e-5,0.11655 0.094082,0.21052 0.2104045,0.21052 l 2.1059172,0 c 0.1162078,0 0.2097962,-0.094 0.2107484,-0.21052 l 0,-9.35425 2.6276872,0.001 c 0.09441,4e-5 0.188355,0.006 0.245522,-0.0689 z"
       id="path5"
       inkscape:connector-curvature="0"
       sodipodi:nodetypes="ccsccssscsssscsscssccsccsscsssscss"
       fill="currentColor" /></g></svg>
