<?xml version="1.0" encoding="UTF-8" standalone="no"?>
<svg
   xmlns:dc="http://purl.org/dc/elements/1.1/"
   xmlns:cc="http://creativecommons.org/ns#"
   xmlns:rdf="http://www.w3.org/1999/02/22-rdf-syntax-ns#"
   xmlns:svg="http://www.w3.org/2000/svg"
   xmlns="http://www.w3.org/2000/svg"
   xmlns:sodipodi="http://sodipodi.sourceforge.net/DTD/sodipodi-0.dtd"
   xmlns:inkscape="http://www.inkscape.org/namespaces/inkscape"
   id="transparent"
   width="100%"
   height="100%"
   viewBox="0 0 16 16"
   xml:space="preserve">
   <defs
     id="defs11"><inkscape:path-effect
       effect="skeletal"
       id="path-effect4143"
       is_visible="true"
       pattern="m -19.864907,-66.819278 c 0,-2.76 2.24,-5 5,-5 2.76,0 5.0000003,2.24 5.0000003,5 0,2.76 -2.2400003,5 -5.0000003,5 -2.76,0 -5,-2.24 -5,-5 z"
       copytype="single_stretched"
       prop_scale="1"
       scale_y_rel="false"
       spacing="0"
       normal_offset="0"
       tang_offset="0"
       prop_units="false"
       vertical_pattern="false"
       fuse_tolerance="0" /></defs><sodipodi:namedview
     pagecolor="#ffffff"
     bordercolor="#666666"
     borderopacity="1"
     objecttolerance="10"
     gridtolerance="10"
     guidetolerance="10"
     inkscape:pageopacity="0"
     inkscape:pageshadow="2"
     inkscape:window-width="1286"
     inkscape:window-height="665"
     id="namedview9"
     showgrid="false"
     inkscape:zoom="3.7019608"
     inkscape:cx="-51.940928"
     inkscape:cy="-35.333252"
     inkscape:window-x="-4"
     inkscape:window-y="80"
     inkscape:window-maximized="0"
     inkscape:current-layer="transparent" /><g
     id="g3"
     transform="translate(0,-494)"><g
       id="g5" /></g><path
     d="M 8,0 C 3.590313,-1.41e-5 -1.39e-5,3.590313 0,8 c -1.4e-5,4.409687 3.590313,8.000014 8,8 4.409687,1.4e-5 8.000014,-3.590313 8,-8 C 16.000014,3.590313 12.409687,-1.41e-5 8,0 Z M 8,1.4545002 C 11.623581,1.4544886 14.545511,4.3764189 14.5455,8 14.545511,11.623581 11.623581,14.545511 8,14.5455 4.3764189,14.545511 1.4544885,11.623581 1.4545,8 1.4544885,4.3764189 4.3764189,1.4544886 8,1.4545002 Z"
     id="path3335"
     inkscape:connector-curvature="0"
     fill="currentColor" /></svg>
