<?xml version="1.0" standalone="no"?>
<!DOCTYPE svg PUBLIC "-//W3C//DTD SVG 20010904//EN"
 "http://www.w3.org/TR/2001/REC-SVG-20010904/DTD/svg10.dtd">
<svg version="1.0" xmlns="http://www.w3.org/2000/svg"
 width="16.000000pt" height="16.000000pt" viewBox="0 0 16.000000 16.000000"
 preserveAspectRatio="xMidYMid meet">

<g transform="translate(0.000000,16.000000) scale(0.100000,-0.100000)"
fill="#ff0000" stroke="none">
<path d="M70 150 c0 -5 5 -10 10 -10 6 0 10 5 10 10 0 6 -4 10 -10 10 -5 0
-10 -4 -10 -10z"/>
<path d="M0 120 c0 -5 5 -10 11 -10 7 0 10 -12 7 -30 l-5 -30 67 0 67 0 -5 30
c-3 18 0 30 7 30 6 0 11 5 11 10 0 6 -33 10 -80 10 -47 0 -80 -4 -80 -10z
m120 -30 c0 -17 -7 -20 -40 -20 -33 0 -40 3 -40 20 0 17 7 20 40 20 33 0 40
-3 40 -20z"/>
<path d="M59 21 c-15 -17 -14 -18 23 -18 38 0 39 0 19 18 -24 22 -22 22 -42 0z"/>
</g>
</svg>
