<?xml version="1.0" encoding="UTF-8" standalone="no"?>

<svg
   xmlns:dc="http://purl.org/dc/elements/1.1/"
   xmlns:cc="http://creativecommons.org/ns#"
   xmlns:rdf="http://www.w3.org/1999/02/22-rdf-syntax-ns#"
   xmlns:svg="http://www.w3.org/2000/svg"
   xmlns="http://www.w3.org/2000/svg"
   xmlns:sodipodi="http://sodipodi.sourceforge.net/DTD/sodipodi-0.dtd"
   xmlns:inkscape="http://www.inkscape.org/namespaces/inkscape"
   id="application_vnd.google-earth.kmz"
   viewBox="0 0 16 16"
   width="100%"
   height="100%"><defs
     id="defs6" /><sodipodi:namedview
     pagecolor="#ffffff"
     bordercolor="#666666"
     borderopacity="1"
     objecttolerance="10"
     gridtolerance="10"
     guidetolerance="10"
     inkscape:pageopacity="0"
     inkscape:pageshadow="2"
     inkscape:window-width="1394"
     inkscape:window-height="648"
     id="namedview4"
     showgrid="false"
     inkscape:zoom="7.8666667"
     inkscape:cx="50"
     inkscape:cy="4.0677966"
     inkscape:window-x="0"
     inkscape:window-y="0"
     inkscape:window-maximized="0"
     inkscape:current-layer="application_vnd.google-earth.kmz" /><path
     id="location"
     d="M 12.6,4.6 C 12.6,2.0666667 10.493333,0 7.9466671,0 5.4000002,0 3.4000001,2.0666667 3.4000001,4.6 c 0,0.4 0.05333,0.7866667 0.146667,1.16 0.01333,0.04 0.12,0.3866667 0.173333,0.52 0.84,2.3333333 4.226667,9.72 4.226667,9.72 0,0 3.5466659,-7.52 4.3733329,-9.7866667 0.01333,-0.026667 0.146667,-0.4533333 0.16,-0.5466666 0,0 0,0 0,0 C 12.56,5.3333333 12.6,4.9733333 12.6,4.6 Z M 7.9466671,7.0533333 c -1.346667,0 -2.4,-1.0933333 -2.4,-2.4533333 0,-1.3466667 1.04,-2.4533333 2.4,-2.4533333 1.346666,0 2.5066659,1.0933333 2.5066659,2.4533333 0,1.36 -1.1599999,2.4533333 -2.5066659,2.4533333 z"
     inkscape:connector-curvature="0"
     fill="currentColor" /></svg>
