<?xml version="1.0" encoding="UTF-8" standalone="no"?>
<svg
   xmlns:dc="http://purl.org/dc/elements/1.1/"
   xmlns:cc="http://creativecommons.org/ns#"
   xmlns:rdf="http://www.w3.org/1999/02/22-rdf-syntax-ns#"
   xmlns:svg="http://www.w3.org/2000/svg"
   xmlns="http://www.w3.org/2000/svg"
   xmlns:sodipodi="http://sodipodi.sourceforge.net/DTD/sodipodi-0.dtd"
   xmlns:inkscape="http://www.inkscape.org/namespaces/inkscape"
   version="1.1"
   id="application_zip"
   x="0px"
   y="0px"
   width="100%"
   height="100%"
   viewBox="0 0 534.479 534.479"
   style="enable-background:new 0 0 534.479 534.479;"
   xml:space="preserve"
   inkscape:version="0.91 r13725"
   sodipodi:docname="zip file.svg"><defs
     id="defs43" /><sodipodi:namedview
     pagecolor="#ffffff"
     bordercolor="#666666"
     borderopacity="1"
     objecttolerance="10"
     gridtolerance="10"
     guidetolerance="10"
     inkscape:pageopacity="0"
     inkscape:pageshadow="2"
     inkscape:window-width="1440"
     inkscape:window-height="794"
     id="namedview41"
     showgrid="false"
     inkscape:zoom="0.62444811"
     inkscape:cx="-67.800476"
     inkscape:cy="269.89281"
     inkscape:window-x="0"
     inkscape:window-y="1"
     inkscape:window-maximized="0"
     inkscape:current-layer="generic" /><g
     id="g3"
     fill="currentColor"
     transform="matrix(-1,0,0,1,534.479,0)"><g
       id="g5"><path
         d="M 77.519531 0 L 77.519531 534.47852 L 456.95898 534.47852 L 456.95898 124.94922 L 319.76953 124.94922 L 319.76953 0 L 77.519531 0 z M 186.42383 9.0371094 L 217.29297 9.0371094 C 224.13374 9.0371094 229.62109 14.559205 229.62109 21.365234 L 229.62109 24.419922 C 229.62109 31.260675 224.099 36.748047 217.29297 36.748047 L 186.42383 36.748047 C 179.58307 36.748047 174.0957 31.225951 174.0957 24.419922 L 174.0957 21.365234 C 174.0957 14.52448 179.61779 9.0371094 186.42383 9.0371094 z M 186.28516 49.179688 L 217.22461 49.179688 C 224.06536 49.179687 229.55078 54.699835 229.55078 61.505859 L 229.55078 64.632812 C 229.55078 71.473562 224.03063 76.958984 217.22461 76.958984 L 186.28516 76.958984 C 179.4444 76.958984 173.95703 71.438838 173.95703 64.632812 L 173.95703 61.505859 C 173.95703 54.66511 179.47914 49.179688 186.28516 49.179688 z M 186.25 88.869141 L 217.11914 88.869141 C 223.95989 88.869141 229.44727 94.391259 229.44727 101.19727 L 229.44727 104.32227 C 229.44727 111.16302 223.92518 116.64844 217.11914 116.64844 L 186.25 116.64844 C 179.40925 116.64844 173.92188 111.12829 173.92188 104.32227 L 173.92188 101.19727 C 173.92187 94.356519 179.44397 88.869141 186.25 88.869141 z M 186.875 130.22656 L 217.74414 130.22656 C 224.58489 130.22656 230.07227 135.74866 230.07227 142.55469 L 230.07227 145.60938 C 230.07227 152.45013 224.55016 157.9375 217.74414 157.9375 L 186.875 157.9375 C 180.03425 157.9375 174.54688 152.41541 174.54688 145.60938 L 174.54688 142.55469 C 174.54688 135.71395 180.06896 130.22656 186.875 130.22656 z M 186.875 170.78516 L 217.74414 170.78516 C 224.58489 170.78516 230.07227 176.30726 230.07227 183.11328 L 230.07227 186.23828 C 230.07227 193.07903 224.55016 198.56445 217.74414 198.56445 L 186.875 198.56445 C 180.03425 198.56445 174.54688 193.04429 174.54688 186.23828 L 174.54688 183.11328 C 174.54688 176.27253 180.06896 170.78516 186.875 170.78516 z M 186.875 212.34961 L 217.74414 212.34961 C 224.58489 212.34961 230.07227 217.87169 230.07227 224.67773 L 230.07227 227.73438 C 230.07227 234.57513 224.55016 240.06055 217.74414 240.06055 L 186.875 240.06055 C 180.03425 240.06055 174.54688 234.54041 174.54688 227.73438 L 174.54688 224.67773 C 174.54688 217.83698 180.06896 212.34961 186.875 212.34961 z M 189.41016 254.33203 L 213.85547 254.33203 C 218.71691 254.33203 222.67578 258.3288 222.67578 263.22266 L 222.67578 280.72266 L 236.32227 320.86523 C 240.14199 332.04654 238.30127 344.51258 231.42578 354.16602 C 224.5503 363.78476 213.36931 369.47852 201.59766 369.47852 C 189.79128 369.47852 178.68059 363.78476 171.83984 354.16602 C 164.96435 344.51258 163.15837 332.04654 166.94336 320.86523 L 180.58984 280.72266 L 180.58984 263.22266 C 180.58984 258.32647 184.54871 254.33203 189.41016 254.33203 z M 188.33398 313.12109 L 183.71484 326.62891 C 181.77025 332.39321 182.74323 338.81756 186.28516 343.7832 C 193.36897 353.71444 209.93179 353.71444 217.01562 343.7832 C 220.55753 338.81756 221.49492 332.39321 219.51562 326.62891 L 214.9668 313.12109 L 188.33398 313.12109 z "
         transform="matrix(-1,0,0,1,534.479,0)"
         id="path7" /><polygon
         points="199.409,6.928 85.968,109.649 199.409,109.649 "
         id="polygon9" /></g></g><g
     id="g11" /><g
     id="g13" /><g
     id="g15" /><g
     id="g17" /><g
     id="g19" /><g
     id="g21" /><g
     id="g23" /><g
     id="g25" /><g
     id="g27" /><g
     id="g29" /><g
     id="g31" /><g
     id="g33" /><g
     id="g35" /><g
     id="g37" /><g
     id="g39" /></svg>
