<?xml version="1.0" encoding="UTF-8" standalone="no"?>
<svg
   xmlns:dc="http://purl.org/dc/elements/1.1/"
   xmlns:cc="http://creativecommons.org/ns#"
   xmlns:rdf="http://www.w3.org/1999/02/22-rdf-syntax-ns#"
   xmlns:svg="http://www.w3.org/2000/svg"
   xmlns="http://www.w3.org/2000/svg"
   xmlns:sodipodi="http://sodipodi.sourceforge.net/DTD/sodipodi-0.dtd"
   xmlns:inkscape="http://www.inkscape.org/namespaces/inkscape"
   version="1.1"
   id="application_vnd.oasis.opendocument.spreadsheet"
   x="0px"
   y="0px"
   width="100%"
   height="100%"
   viewBox="0 0 534.479 534.479"
   style="enable-background:new 0 0 534.479 534.479;"
   xml:space="preserve"
   inkscape:version="0.91 r13725"
   sodipodi:docname="oasis spreadsheet document.svg"><defs
     id="defs43" /><sodipodi:namedview
     pagecolor="#ffffff"
     bordercolor="#666666"
     borderopacity="1"
     objecttolerance="10"
     gridtolerance="10"
     guidetolerance="10"
     inkscape:pageopacity="0"
     inkscape:pageshadow="2"
     inkscape:window-width="1440"
     inkscape:window-height="794"
     id="namedview41"
     showgrid="false"
     inkscape:zoom="0.88310298"
     inkscape:cx="-18.117934"
     inkscape:cy="267.2395"
     inkscape:window-x="0"
     inkscape:window-y="1"
     inkscape:window-maximized="0"
     inkscape:current-layer="generic" /><g
     id="g3"
     fill="currentColor"
     transform="matrix(-1,0,0,1,534.479,0)"><g
       id="g5"><path
         d="M 77.519531 0 L 77.519531 534.47852 L 456.95898 534.47852 L 456.95898 124.94922 L 319.76953 124.94922 L 319.76953 0 L 77.519531 0 z M 399.78516 211.83984 L 400 449.3457 L 332.90625 449.37305 L 332.69141 211.86719 L 399.78516 211.83984 z M 301.75586 273.13672 L 301.9707 449.05859 L 234.87695 449.07812 L 234.66211 273.15625 L 301.75586 273.13672 z M 207.09375 335.28125 L 207.30859 449.4668 L 140.21484 449.47852 L 140 335.29492 L 207.09375 335.28125 z "
         transform="matrix(-1,0,0,1,534.479,0)"
         id="path7" /><polygon
         points="199.409,6.928 85.968,109.649 199.409,109.649 "
         id="polygon9" /></g></g><g
     id="g11" /><g
     id="g13" /><g
     id="g15" /><g
     id="g17" /><g
     id="g19" /><g
     id="g21" /><g
     id="g23" /><g
     id="g25" /><g
     id="g27" /><g
     id="g29" /><g
     id="g31" /><g
     id="g33" /><g
     id="g35" /><g
     id="g37" /><g
     id="g39" /><g
     id="g4313"
     transform="matrix(19.793318,0,0,19.793318,-1295.3222,-304.75924)"><g
       id="g4315"
       transform="matrix(-9.1e-4,-1.10684,1.52004,-6.6e-4,-1480.91,29.915)"
       style="fill:#ffffff;stroke:none" /></g></svg>
