<?xml version="1.0" encoding="utf-8"?>
<!-- Generator: Adobe Illustrator 18.1.1, SVG Export Plug-In . SVG Version: 6.00 Build 0)  -->
<svg version="1.1" id="application_vnd.google-earth.kmz" xmlns="http://www.w3.org/2000/svg" xmlns:xlink="http://www.w3.org/1999/xlink" x="0px" y="0px"
	 viewBox="0 0 100 120" enable-background="new 0 0 100 120" xml:space="preserve" width="100%" height="100%">
<path id="location" fill="currentColor" d="M84.5,34.5C84.5,15.5,68.7,0,49.6,0C30.5,0,15.5,15.5,15.5,34.5c0,3,0.4,5.9,1.1,8.7
	c0.1,0.3,0.9,2.9,1.3,3.9C24.2,64.6,49.6,120,49.6,120s26.6-56.4,32.8-73.4c0.1-0.2,1.1-3.4,1.2-4.1c0,0,0,0,0,0
	C84.2,40,84.5,37.3,84.5,34.5z M49.6,52.9c-10.1,0-18-8.2-18-18.4c0-10.1,7.8-18.4,18-18.4c10.1,0,18.8,8.2,18.8,18.4
	C68.4,44.7,59.7,52.9,49.6,52.9z"/>
</svg>
