<?xml version="1.0" encoding="UTF-8" standalone="no"?>
<svg
   xmlns:dc="http://purl.org/dc/elements/1.1/"
   xmlns:cc="http://creativecommons.org/ns#"
   xmlns:rdf="http://www.w3.org/1999/02/22-rdf-syntax-ns#"
   xmlns:svg="http://www.w3.org/2000/svg"
   xmlns="http://www.w3.org/2000/svg"
   xmlns:xlink="http://www.w3.org/1999/xlink"
   xmlns:sodipodi="http://sodipodi.sourceforge.net/DTD/sodipodi-0.dtd"
   xmlns:inkscape="http://www.inkscape.org/namespaces/inkscape"
   id="application_pdf"
   width="100%"
   height="100%"
   viewBox="0 0 16 16"
   xml:space="preserve">
   <defs
     id="defs43"><inkscape:perspective
       id="perspective60"
       inkscape:persp3d-origin="0.14967847 : 0.099785647 : 1"
       inkscape:vp_z="0.29935694 : 0.14967847 : 1"
       inkscape:vp_y="0 : 1.8709809 : 0"
       inkscape:vp_x="0 : 0.14967847 : 1"
       sodipodi:type="inkscape:persp3d" /><radialGradient
       xlink:href="#linearGradient853"
       r="0.5"
       id="radialGradient864"
       fy="0.14942528"
       fx="0.5"
       cy="0.5"
       cx="0.5" /><linearGradient
       id="linearGradient841"><stop
         style="stop-color:#ffffff;stop-opacity:1.0000000;"
         offset="0.00000000"
         id="stop842" /><stop
         style="stop-color:#ffffff;stop-opacity:0.00000000;"
         offset="1.0000000"
         id="stop843" /></linearGradient><linearGradient
       id="linearGradient1290"><stop
         style="stop-color:#df421e;stop-opacity:1.0000000;"
         offset="0.0000000"
         id="stop1291" /><stop
         style="stop-color:#990000;stop-opacity:1.0000000;"
         offset="1.0000000"
         id="stop1292" /></linearGradient><linearGradient
       id="linearGradient846"><stop
         style="stop-color:#e7e7e7;stop-opacity:1.0000000;"
         offset="0.00000000"
         id="stop847" /><stop
         style="stop-color:#a5a5a5;stop-opacity:1.0000000;"
         offset="1.0000000"
         id="stop848" /></linearGradient><linearGradient
       id="linearGradient853"><stop
         style="stop-color:#000000;stop-opacity:0.29752067;"
         offset="0.00000000"
         id="stop854" /><stop
         style="stop-color:#000000;stop-opacity:0.00000000;"
         offset="1.0000000"
         id="stop855" /></linearGradient><radialGradient
       xlink:href="#linearGradient853"
       r="0.5"
       id="radialGradient861"
       fy="0.29885057"
       fx="0.50704223"
       cy="0.5"
       cx="0.5" /><linearGradient
       id="linearGradient1492"><stop
         style="stop-color:#dadada;stop-opacity:1.0000000;"
         offset="0.0000000"
         id="stop1493" /><stop
         style="stop-color:#f1f1f1;stop-opacity:1.0000000;"
         offset="0.34923077"
         id="stop1496" /><stop
         style="stop-color:#f0f0f0;stop-opacity:1.0000000;"
         offset="1.0000000"
         id="stop1494" /></linearGradient><linearGradient
       gradientUnits="userSpaceOnUse"
       gradientTransform="matrix(1.5665693,0,0,1.7161545,-471.13869,-223.03072)"
       y2="689.86005"
       y1="230.07422"
       xlink:href="#linearGradient1492"
       x2="351.7063"
       x1="728.96643"
       id="linearGradient1495" /><linearGradient
       gradientUnits="userSpaceOnUse"
       gradientTransform="matrix(1.5663522,0,0,1.7163924,-471.13869,-223.03072)"
       y2="287.73825"
       y1="169.4436"
       xlink:href="#linearGradient1492"
       x2="622.33325"
       x1="741.63898"
       id="linearGradient1497" /><linearGradient
       gradientUnits="userSpaceOnUse"
       gradientTransform="matrix(1.6216357,0,0,1.6578785,-471.13869,-223.03072)"
       y2="418.53635"
       y1="236.12772"
       xlink:href="#linearGradient841"
       x2="330.88034"
       x1="687.96375"
       id="linearGradient1499" /><linearGradient
       gradientUnits="userSpaceOnUse"
       gradientTransform="scale(0.9446888,1.0585496)"
       y2="383.76529"
       y1="843.20789"
       xlink:href="#linearGradient853"
       x2="547.80804"
       x1="201.38963"
       id="linearGradient1506" /><linearGradient
       gradientUnits="userSpaceOnUse"
       gradientTransform="matrix(5.0852019,0,0,6.0061319,-77.6727,-34.807199)"
       y2="109.71216"
       y1="30.568512"
       xlink:href="#linearGradient1290"
       x2="129.23233"
       x1="42.438137"
       id="linearGradient1556" /><radialGradient
       xlink:href="#linearGradient841"
       r="0.5460667"
       id="radialGradient856"
       fy="3.52"
       fx="0.5411765"
       cy="0.89285713"
       cx="0.5" /><linearGradient
       gradientUnits="userSpaceOnUse"
       gradientTransform="scale(0.9208103,1.086)"
       y2="-106.66177"
       y1="22.397957"
       xlink:href="#linearGradient853"
       x2="78.384125"
       x1="22.405666"
       id="linearGradient1944" /><linearGradient
       xlink:href="#linearGradient841"
       id="linearGradient852" /><linearGradient
       y2="0.5"
       y1="0.5"
       xlink:href="#linearGradient841"
       x2="1"
       x1="6.8169212e-18"
       id="linearGradient844" /><linearGradient
       y2="0.5"
       y1="0.5"
       xlink:href="#linearGradient841"
       x2="1"
       x1="1.3633842e-17"
       id="linearGradient845" /><linearGradient
       xlink:href="#linearGradient853"
       id="linearGradient840" /><linearGradient
       xlink:href="#linearGradient846"
       id="linearGradient849" /><linearGradient
       xlink:href="#linearGradient1290"
       id="linearGradient860" /></defs><sodipodi:namedview
     pagecolor="#ffffff"
     bordercolor="#666666"
     borderopacity="1"
     objecttolerance="10"
     gridtolerance="10"
     guidetolerance="10"
     inkscape:pageopacity="0"
     inkscape:pageshadow="2"
     inkscape:window-width="1440"
     inkscape:window-height="794"
     id="namedview41"
     showgrid="false"
     inkscape:zoom="4.9955849"
     inkscape:cx="7.7048801"
     inkscape:cy="31.384481"
     inkscape:window-x="0"
     inkscape:window-y="1"
     inkscape:window-maximized="0"
     inkscape:current-layer="application_pdf" /><g
     id="g3"
     transform="matrix(-0.02993572,0,0,0.02993572,16.000014,3.396328e-7)"><g
       id="g5"><path
         d="m 77.519531,0 0,534.47852 379.439449,0 0,-409.5293 -137.18945,0 L 319.76953,0 77.519531,0 Z M 269.4375,125.68359 c 7.83773,0.21595 14.9068,4.40345 17.70117,20.8711 3.43923,20.26792 -0.95736,51.45232 -5.24414,79.49609 15.82381,30.57738 32.71907,60.59138 51.0293,89.7207 5.67865,7.67522 11.83043,15.86916 18.45703,23.49024 15.20223,-3.44894 30.59235,-5.35413 46.09375,-2.26953 23.38399,0.35428 26.82062,28.06573 6.31641,37.40625 -20.45264,14.28461 -44.55608,-0.16111 -60.99805,-14.50782 -39.32169,9.75629 -77.50674,23.74506 -114.49219,40.36915 -9.33105,17.36188 -19.92979,33.98553 -32.27539,49.54687 -4.00688,4.94651 -8.83412,9.89724 -14.11523,14.41016 -5.28111,4.51285 -11.05554,8.61725 -17.17383,11.54882 -12.23658,5.8631 -25.72642,7.34842 -38.68945,0 -23.08403,-12.71539 2.05551,-36.89067 15.79101,-45.50195 22.77432,-15.38178 46.77295,-28.82452 71.45899,-40.96094 17.72372,-40.11587 29.50891,-82.84564 39.87695,-125.34961 2.71758,-10.40875 4.63736,-20.99473 6.21679,-31.58398 -2.76724,-7.02044 -5.8896,-13.90611 -8.29101,-21.02344 -5.85459,-21.3931 -9.97969,-49.28155 -5.71484,-64.77343 4.26486,-15.49188 9.31835,-19.15216 18.54687,-20.50586 1.84733,-0.27099 3.69715,-0.43265 5.50586,-0.38282 z m -5.76953,19.23047 c -1.08762,-0.0273 -2.09752,0.6249 -2.79688,2.17578 -2.48662,5.51427 -1.63664,24.2734 2.27149,36.22461 5.23294,-4.6166 6.40541,-21.13814 6.51562,-28.51757 0.0792,-5.30398 -3.21076,-9.81316 -5.99023,-9.88282 z m 10.82422,121.20899 c -8.00762,37.94253 -18.59979,75.64457 -34.64453,110.9414 22.5866,-9.88499 45.55521,-18.87128 68.99218,-26.35351 6.34903,-1.61646 12.91379,-3.37545 19.34571,-5.23047 -21.82473,-23.46094 -39.29872,-50.63086 -53.69336,-79.35742 z m 99.19531,88.24023 c -1.77852,0.017 -3.65524,0.40119 -5.52734,0.5918 5.72619,4.10991 11.79222,7.49937 18.7539,9.27734 1.62754,-7.8456 -4.9684,-9.94804 -13.22656,-9.86914 z M 201.75,412.79492 c -7.44709,3.64335 -14.96265,7.13643 -22.30664,10.95508 -13.47514,8.93257 -42.38973,19.97487 -35.33594,39.77734 23.61691,0.41937 40.76079,-22.40126 52.60938,-40.5664 1.86786,-3.30621 3.275,-6.80822 5.0332,-10.16602 z"
         transform="matrix(-1,0,0,1,534.479,0)"
         id="path7"
         inkscape:connector-curvature="0"
         fill="currentColor" /><polygon
         points="199.409,6.928 85.968,109.649 199.409,109.649 "
         id="polygon9"
         fill="currentColor" /></g></g><g
     id="g11"
     transform="translate(0,-518.479)" /><g
     id="g13"
     transform="translate(0,-518.479)" /><g
     id="g15"
     transform="translate(0,-518.479)" /><g
     id="g17"
     transform="translate(0,-518.479)" /><g
     id="g19"
     transform="translate(0,-518.479)" /><g
     id="g21"
     transform="translate(0,-518.479)" /><g
     id="g23"
     transform="translate(0,-518.479)" /><g
     id="g25"
     transform="translate(0,-518.479)" /><g
     id="g27"
     transform="translate(0,-518.479)" /><g
     id="g29"
     transform="translate(0,-518.479)" /><g
     id="g31"
     transform="translate(0,-518.479)" /><g
     id="g33"
     transform="translate(0,-518.479)" /><g
     id="g35"
     transform="translate(0,-518.479)" /><g
     id="g37"
     transform="translate(0,-518.479)" /><g
     id="g39"
     transform="translate(0,-518.479)" /></svg>
