<?xml version="1.0" encoding="UTF-8" standalone="no"?>
<svg
   xmlns:dc="http://purl.org/dc/elements/1.1/"
   xmlns:cc="http://creativecommons.org/ns#"
   xmlns:rdf="http://www.w3.org/1999/02/22-rdf-syntax-ns#"
   xmlns:svg="http://www.w3.org/2000/svg"
   xmlns="http://www.w3.org/2000/svg"
   xmlns:sodipodi="http://sodipodi.sourceforge.net/DTD/sodipodi-0.dtd"
   xmlns:inkscape="http://www.inkscape.org/namespaces/inkscape"
   width="100%"
   height="100%"
   viewBox="0 0 16 16"
   id="application_ms-powerpoint">
  <defs
     id="defs124" />
  <sodipodi:namedview
     pagecolor="#ffffff"
     bordercolor="#666666"
     borderopacity="1"
     objecttolerance="10"
     gridtolerance="10"
     guidetolerance="10"
     inkscape:pageopacity="0"
     inkscape:pageshadow="2"
     inkscape:window-width="1440"
     inkscape:window-height="797"
     id="namedview122"
     showgrid="false"
     inkscape:zoom="12.338711"
     inkscape:cx="-7.2204942"
     inkscape:cy="-1.3611044"
     inkscape:window-x="0"
     inkscape:window-y="1"
     inkscape:window-maximized="1"
     inkscape:current-layer="application_ms-powerpoint"
     fit-margin-top="0"
     fit-margin-left="0"
     fit-margin-right="0"
     fit-margin-bottom="0" />
  <g
     id="g3607"
     transform="matrix(0.18176462,0,0,0.18176462,-40.53624,0.18412134)"
     fill="currentColor">
    <path
       d="m 46.314453,0 c -15.45,2.63 -30.880547,5.3495314 -46.31054675,8.0195312 0,23.3199998 -0.01,46.6504688 0,69.9804688 C 15.253906,80.68 30.523672,83.22 45.763672,86 l 6.220703,0 0,-10 c 10.01,0 20.009766,-0.0207 30.009766,0.0293 1.71,-0.08 3.610312,0.06 5.070312,-1 1.16,-1.79 0.860938,-4.028828 0.960938,-6.048828 -0.14,-18.69 0.06844,-37.380547 -0.101563,-56.060547 0.23,-2.3 -1.569141,-4.0891407 -3.86914,-3.8691408 C 73.374686,8.8907812 62.674375,9.06 51.984375,9 l 0,-9 -5.669922,0 z m 5.669922,12 33,0 0,61 -33,0 0,-8 24,0 0,-4 -24,0 0,-5 24,0 0,-4 -23.990234,0 c -0.01,-1.96 -0.0095,-3.920859 -0.01953,-5.880859 3.96,1.23 8.469766,1.200312 12.009766,-1.179688 3.83,-2.27 5.830156,-6.599922 6.160156,-10.919922 C 65.754531,33.989531 61.364375,34 56.984375,34 c -0.01,-4.35 0.05016,-8.699063 -0.08984,-13.039062 -1.64,0.32 -3.280156,0.659765 -4.910156,1.009765 l 0,-9.970703 z M 24.648438,25.951172 c 2.886249,-0.06125 5.656249,0.353672 7.90625,2.388672 4.31,5.23 3.169296,14.850468 -3.220704,17.980468 -2.27,1.16 -4.869843,0.999922 -7.339843,0.919922 -0.01,3.91 -0.01977,7.820469 -0.0098,11.730469 -1.98,-0.17 -3.969219,-0.34 -5.949219,-0.5 -0.09,-10.68 -0.110234,-21.370781 0.0098,-32.050781 2.715,0.13 5.717265,-0.4075 8.603516,-0.46875 z"
       transform="translate(223.01556,0)"
       id="path14"
       inkscape:connector-curvature="0" />
    <path
       id="path60"
       d="m 282.01,18.87 c 6.95,0.32 12.79,6.17 13.16,13.1 -4.39,0.05 -8.78,0.03 -13.17,0.03 0,-4.38 -0.01,-8.76 0.01,-13.13 z"
       inkscape:connector-curvature="0" />
    <path
       id="path94"
       d="m 245,31.83 c 1.97,-0.09 4.41,-0.45 5.74,1.4 1.14,1.96 1.08,4.54 0.13,6.56 -1.14,2.06 -3.72,1.86 -5.71,2.1 -0.21,-3.35 -0.19,-6.7 -0.16,-10.06 z"
       inkscape:connector-curvature="0" />
  </g>
</svg>
