<?xml version="1.0" encoding="utf-8"?>
<!-- Generator: Adobe Illustrator 17.1.0, SVG Export Plug-In . SVG Version: 6.00 Build 0)  -->
<!DOCTYPE svg PUBLIC "-//W3C//DTD SVG 1.1//EN" "http://www.w3.org/Graphics/SVG/1.1/DTD/svg11.dtd">
<svg xmlns="http://www.w3.org/2000/svg" xmlns:xlink="http://www.w3.org/1999/xlink" version="1.1" id="application_x-robolab" x="0px" y="0px" width="100%" height="100%" viewBox="0 0 159.88 324.2" enable-background="new 0 0 159.88 324.2" xml:space="preserve">
<g fill="currentColor">
	<path d="M38.87,166.06c-1.33,0.57-2.27,1.99-2.27,3.66v75.42c0,2.17,1.59,3.93,3.56,3.93h79.46c1.97,0,3.56-1.75,3.56-3.93v-75.42   c0-1.67-0.94-3.09-2.27-3.66H38.87z M38.87,166.06"/>
	<path d="M22.34,53.76c-2.18,0-3.92,1.75-3.92,3.92v57.51c40.97-0.14,81.95,0,122.92-0.08V57.68c0-2.17-1.75-3.92-3.92-3.92H22.34z    M58.29,70.06c9.25,0,16.74,7.29,16.74,16.3c0,9-7.5,16.3-16.74,16.3c-9.25,0-16.74-7.3-16.74-16.3   C41.55,77.35,49.05,70.06,58.29,70.06L58.29,70.06z M101.47,70.06c9.25,0,16.74,7.29,16.74,16.3c0,9-7.49,16.3-16.74,16.3   c-9.25,0-16.74-7.3-16.74-16.3C84.73,77.35,92.23,70.06,101.47,70.06L101.47,70.06z M101.47,70.06"/>
	<path d="M4.71,72.04c-2.23,0-4.02,1.75-4.02,3.93v23.87c0,2.17,1.79,3.93,4.02,3.93h10.32V72.04H4.71z M144.73,72.04   c0.05,10.57,0,21.15-0.01,31.72h10.33c2.23,0,4.03-1.75,4.03-3.93V75.97c0-2.18-1.8-3.93-4.03-3.93H144.73z M144.73,72.04"/>
	<path d="M14.73,121.61c-1.68,0-3.02,1.35-3.02,3.02v23.47c0,1.68,1.35,3.02,3.02,3.02h130.31c1.68,0,3.03-1.35,3.03-3.02v-23.47   c0-1.67-1.35-3.02-3.03-3.02h-29.89l-7.22,6.62c-0.99,0.91-1.13,2.32-2.55,2.32H54.39c-1.41,0-1.56-1.41-2.55-2.32l-7.22-6.62   H14.73z M14.73,121.61"/>
	<g>
		<defs>
			<rect id="SVGID_1_" x="0" y="0.1" width="159.88" height="324.1"/>
		</defs>
		<clipPath id="SVGID_2_">
			<use xlink:href="#SVGID_1_" overflow="visible"/>
		</clipPath>
		<path clip-path="url(#SVGID_2_)" d="M57.63,156.41v11.68c0,2.76,1.75,4.98,3.93,4.98h36.65c2.18,0,3.93-2.22,3.93-4.98v-11.67    C87.3,156.43,72.47,156.42,57.63,156.41L57.63,156.41z M57.63,156.41"/>
		<path clip-path="url(#SVGID_2_)" d="M43.42,256.45c-4.39,0-7.93,3.53-7.93,7.93c0,2.5,1.15,4.72,2.94,6.17    c-1.79,1.45-2.94,3.67-2.94,6.17c0,2.53,1.18,4.78,3.02,6.23c-1.84,1.56-3.02,3.97-3.02,6.69c0,0.87,0.12,1.71,0.35,2.51    c0.07-0.01,0.14-0.01,0.21-0.01h39.4c0.09-1.01,0.14-1.94,0.14-2.5c0-2.72-1.18-5.14-3.02-6.69c1.84-1.45,3.02-3.7,3.02-6.23    c0-2.5-1.15-4.72-2.94-6.17c1.79-1.45,2.94-3.67,2.94-6.17c0-4.39-3.54-7.93-7.93-7.93H43.42z M92.11,256.45    c-4.39,0-7.93,3.53-7.93,7.93c0,2.5,1.15,4.72,2.94,6.17c-1.79,1.45-2.94,3.67-2.94,6.17c0,2.53,1.18,4.78,3.02,6.23    c-1.84,1.56-3.02,3.97-3.02,6.69c0,0.55,0.06,1.48,0.15,2.5h39.6c0.22-0.79,0.34-1.63,0.34-2.5c0-2.72-1.18-5.14-3.02-6.69    c1.84-1.45,3.02-3.7,3.02-6.23c0-2.5-1.15-4.72-2.94-6.17c1.79-1.45,2.94-3.67,2.94-6.17c0-4.39-3.54-7.93-7.93-7.93H92.11z     M36.86,297.19c-13.98,0-23.73,8.24-23.51,19.7h-0.1v3.26c0,2.17,1.58,3.92,3.55,3.92h54.13c1.97,0,3.55-1.75,3.55-3.92v-19.03    c0-2.17-1.7-3.26-3.55-3.93H46.64H36.86z M88.83,297.19c-1.97,0-3.55,1.75-3.55,3.93v19.03c0,2.17,1.7,4.59,3.55,3.92h54.14    c1.97,0,3.55-1.75,3.55-3.92v-3.26h-0.1c0.22-11.45-9.56-18.79-23.52-19.7H97.44H88.83z M88.83,297.19"/>
		<path clip-path="url(#SVGID_2_)" d="M4.78,166.06c-2.98,3.07-4.85,7.98-4.78,15.81c0.2,20.83,13.4,20.97,24.98,20.97    c11.58,0,20.97-9.39,20.97-20.97c0-6.3-2.78-11.96-7.18-15.81H4.78z M121.92,166.06c-4.4,3.84-7.19,9.5-7.19,15.81    c0,11.58,9.39,20.97,20.97,20.97c11.58,0,23.81-0.14,24.06-20.97c0.09-7.82-1.64-12.73-4.46-15.81H121.92z M121.92,166.06"/>
	</g>
	<path d="M8.91,184.3c-1.34,0-2.42,1.08-2.42,2.42v54.19c0,0.58,0.21,1.12,0.55,1.54c-2.15,2.05-3.71,4.72-4.27,7.67   c-1.05,5.07,0.73,10.68,4.66,14.05c0.66,0.26,0.7-0.65,0.52-1.06c-0.9-5.15,3.08-10.62,8.33-11.13c3.93-0.47,7.89,1.88,9.49,5.45   c1,2.12,1.21,4.59,0.67,6.88c0.96,0.14,1.41-0.97,2.04-1.48c4.28-4.76,4.83-12.44,1.25-17.77c-0.56-0.87-1.22-1.68-1.96-2.41   c0.46-0.44,0.75-1.06,0.75-1.74v-54.19c0-1.34-1.08-2.42-2.42-2.42H8.91z M134.13,184.3c-1.34,0-2.42,1.08-2.42,2.42v54.19   c0,0.58,0.21,1.12,0.55,1.54c-2.15,2.05-3.71,4.72-4.27,7.67c-1.05,5.07,0.73,10.68,4.65,14.05c0.66,0.26,0.7-0.65,0.52-1.06   c-0.9-5.15,3.08-10.62,8.33-11.13c3.93-0.47,7.9,1.88,9.49,5.45c1,2.12,1.21,4.59,0.67,6.88c0.96,0.14,1.41-0.97,2.04-1.48   c4.28-4.76,4.83-12.44,1.25-17.77c-0.56-0.87-1.22-1.68-1.96-2.41c0.46-0.44,0.75-1.06,0.75-1.74v-54.19   c0-1.34-1.08-2.42-2.42-2.42H134.13z M134.13,184.3"/>
	<g>
		<path d="M58.29,76.23c-5.75,0-10.41,4.53-10.41,10.13c0,5.6,4.66,10.14,10.41,10.14c5.75,0,10.41-4.54,10.41-10.14    C68.7,80.76,64.04,76.23,58.29,76.23L58.29,76.23z M101.47,76.23c-5.75,0-10.41,4.53-10.41,10.13c0,5.6,4.66,10.14,10.41,10.14    c5.75,0,10.41-4.54,10.41-10.14C111.88,80.76,107.22,76.23,101.47,76.23L101.47,76.23z M101.47,76.23"/>
		<path d="M50.38,0c-6.33,0-11.46,5.13-11.46,11.46c0,6.15,4.84,11.16,10.92,11.44l13.59,34.28c0.85,2.15,3.27,3.2,5.43,2.35    c2.16-0.85,3.2-3.28,2.35-5.44L57.77,20.2c2.48-2.1,4.06-5.24,4.06-8.74C61.83,5.13,56.7,0,50.38,0L50.38,0z M109.4,0    c-6.33,0-11.45,5.13-11.45,11.46c0,3.51,1.58,6.64,4.06,8.74L88.56,54.09c-0.85,2.16,0.2,4.58,2.35,5.44    c2.16,0.85,4.58-0.19,5.43-2.35l13.59-34.28c6.08-0.28,10.92-5.29,10.92-11.44C120.85,5.13,115.72,0,109.4,0L109.4,0z M109.4,0"/>
	</g>
</g>
<desc>6bQ29weXJpZ2h0IGJ5IHNoaXJ0bGFib3IuZGU=</desc></svg>
