<?xml version="1.0" encoding="UTF-8" standalone="no"?>
<svg
   xmlns:dc="http://purl.org/dc/elements/1.1/"
   xmlns:cc="http://creativecommons.org/ns#"
   xmlns:rdf="http://www.w3.org/1999/02/22-rdf-syntax-ns#"
   xmlns:svg="http://www.w3.org/2000/svg"
   xmlns="http://www.w3.org/2000/svg"
   xmlns:xlink="http://www.w3.org/1999/xlink"
   xmlns:sodipodi="http://sodipodi.sourceforge.net/DTD/sodipodi-0.dtd"
   xmlns:inkscape="http://www.inkscape.org/namespaces/inkscape"
   version="1.1"
   id="application_pdf"
   x="0px"
   y="0px"
   width="100%"
   height="100%"
   viewBox="0 0 534.479 534.479"
   style="enable-background:new 0 0 534.479 534.479;"
   xml:space="preserve"
   inkscape:version="0.91 r13725"
   sodipodi:docname="application_pdf.svg"><defs
     id="defs43"><inkscape:perspective
       id="perspective60"
       inkscape:persp3d-origin="80 : 53.333333 : 1"
       inkscape:vp_z="160 : 80 : 1"
       inkscape:vp_y="0 : 1000 : 0"
       inkscape:vp_x="0 : 80 : 1"
       sodipodi:type="inkscape:persp3d" /><radialGradient
       xlink:href="#linearGradient853"
       r="0.5"
       id="radialGradient864"
       fy="0.14942528"
       fx="0.5"
       cy="0.5"
       cx="0.5" /><linearGradient
       id="linearGradient841"><stop
         style="stop-color:#ffffff;stop-opacity:1.0000000;"
         offset="0.00000000"
         id="stop842" /><stop
         style="stop-color:#ffffff;stop-opacity:0.00000000;"
         offset="1.0000000"
         id="stop843" /></linearGradient><linearGradient
       id="linearGradient1290"><stop
         style="stop-color:#df421e;stop-opacity:1.0000000;"
         offset="0.0000000"
         id="stop1291" /><stop
         style="stop-color:#990000;stop-opacity:1.0000000;"
         offset="1.0000000"
         id="stop1292" /></linearGradient><linearGradient
       id="linearGradient846"><stop
         style="stop-color:#e7e7e7;stop-opacity:1.0000000;"
         offset="0.00000000"
         id="stop847" /><stop
         style="stop-color:#a5a5a5;stop-opacity:1.0000000;"
         offset="1.0000000"
         id="stop848" /></linearGradient><linearGradient
       id="linearGradient853"><stop
         style="stop-color:#000000;stop-opacity:0.29752067;"
         offset="0.00000000"
         id="stop854" /><stop
         style="stop-color:#000000;stop-opacity:0.00000000;"
         offset="1.0000000"
         id="stop855" /></linearGradient><radialGradient
       xlink:href="#linearGradient853"
       r="0.5"
       id="radialGradient861"
       fy="0.29885057"
       fx="0.50704223"
       cy="0.5"
       cx="0.5" /><linearGradient
       id="linearGradient1492"><stop
         style="stop-color:#dadada;stop-opacity:1.0000000;"
         offset="0.0000000"
         id="stop1493" /><stop
         style="stop-color:#f1f1f1;stop-opacity:1.0000000;"
         offset="0.34923077"
         id="stop1496" /><stop
         style="stop-color:#f0f0f0;stop-opacity:1.0000000;"
         offset="1.0000000"
         id="stop1494" /></linearGradient><linearGradient
       gradientUnits="userSpaceOnUse"
       gradientTransform="matrix(1.5665693,0,0,1.7161545,-471.13869,-223.03072)"
       y2="689.86005"
       y1="230.07422"
       xlink:href="#linearGradient1492"
       x2="351.7063"
       x1="728.96643"
       id="linearGradient1495" /><linearGradient
       gradientUnits="userSpaceOnUse"
       gradientTransform="matrix(1.5663522,0,0,1.7163924,-471.13869,-223.03072)"
       y2="287.73825"
       y1="169.4436"
       xlink:href="#linearGradient1492"
       x2="622.33325"
       x1="741.63898"
       id="linearGradient1497" /><linearGradient
       gradientUnits="userSpaceOnUse"
       gradientTransform="matrix(1.6216357,0,0,1.6578785,-471.13869,-223.03072)"
       y2="418.53635"
       y1="236.12772"
       xlink:href="#linearGradient841"
       x2="330.88034"
       x1="687.96375"
       id="linearGradient1499" /><linearGradient
       gradientUnits="userSpaceOnUse"
       gradientTransform="scale(0.9446888,1.0585496)"
       y2="383.76529"
       y1="843.20789"
       xlink:href="#linearGradient853"
       x2="547.80804"
       x1="201.38963"
       id="linearGradient1506" /><linearGradient
       gradientUnits="userSpaceOnUse"
       gradientTransform="matrix(5.0852019,0,0,6.0061319,-77.6727,-34.807199)"
       y2="109.71216"
       y1="30.568512"
       xlink:href="#linearGradient1290"
       x2="129.23233"
       x1="42.438137"
       id="linearGradient1556" /><radialGradient
       xlink:href="#linearGradient841"
       r="0.5460667"
       id="radialGradient856"
       fy="3.52"
       fx="0.5411765"
       cy="0.89285713"
       cx="0.5" /><linearGradient
       gradientUnits="userSpaceOnUse"
       gradientTransform="scale(0.9208103,1.086)"
       y2="-106.66177"
       y1="22.397957"
       xlink:href="#linearGradient853"
       x2="78.384125"
       x1="22.405666"
       id="linearGradient1944" /><linearGradient
       xlink:href="#linearGradient841"
       id="linearGradient852" /><linearGradient
       y2="0.5"
       y1="0.5"
       xlink:href="#linearGradient841"
       x2="1"
       x1="6.8169212e-18"
       id="linearGradient844" /><linearGradient
       y2="0.5"
       y1="0.5"
       xlink:href="#linearGradient841"
       x2="1"
       x1="1.3633842e-17"
       id="linearGradient845" /><linearGradient
       xlink:href="#linearGradient853"
       id="linearGradient840" /><linearGradient
       xlink:href="#linearGradient846"
       id="linearGradient849" /><linearGradient
       xlink:href="#linearGradient1290"
       id="linearGradient860" /></defs><sodipodi:namedview
     pagecolor="#ffffff"
     bordercolor="#666666"
     borderopacity="1"
     objecttolerance="10"
     gridtolerance="10"
     guidetolerance="10"
     inkscape:pageopacity="0"
     inkscape:pageshadow="2"
     inkscape:window-width="1440"
     inkscape:window-height="794"
     id="namedview41"
     showgrid="false"
     inkscape:zoom="0.62444811"
     inkscape:cx="-228.94245"
     inkscape:cy="267.2395"
     inkscape:window-x="0"
     inkscape:window-y="1"
     inkscape:window-maximized="0"
     inkscape:current-layer="application_pdf" /><g
     id="g3"
     transform="matrix(-1,0,0,1,534.479,0)"><g
       id="g5"><path fill="currentColor"
         d="M 77.519531 0 L 77.519531 534.47852 L 456.95898 534.47852 L 456.95898 124.94922 L 319.76953 124.94922 L 319.76953 0 L 77.519531 0 z M 269.4375 125.68359 C 277.27523 125.89954 284.3443 130.08704 287.13867 146.55469 C 290.5779 166.82261 286.18131 198.00701 281.89453 226.05078 C 297.71834 256.62816 314.6136 286.64216 332.92383 315.77148 C 338.60248 323.4467 344.75426 331.64064 351.38086 339.26172 C 366.58309 335.81278 381.97321 333.90759 397.47461 336.99219 C 420.8586 337.34647 424.29523 365.05792 403.79102 374.39844 C 383.33838 388.68305 359.23494 374.23733 342.79297 359.89062 C 303.47128 369.64691 265.28623 383.63568 228.30078 400.25977 C 218.96973 417.62165 208.37099 434.2453 196.02539 449.80664 C 192.01851 454.75315 187.19127 459.70388 181.91016 464.2168 C 176.62905 468.72965 170.85462 472.83405 164.73633 475.76562 C 152.49975 481.62872 139.00991 483.11404 126.04688 475.76562 C 102.96285 463.05023 128.10239 438.87495 141.83789 430.26367 C 164.61221 414.88189 188.61084 401.43915 213.29688 389.30273 C 231.0206 349.18686 242.80579 306.45709 253.17383 263.95312 C 255.89141 253.54437 257.81119 242.95839 259.39062 232.36914 C 256.62338 225.3487 253.50102 218.46303 251.09961 211.3457 C 245.24502 189.9526 241.11992 162.06415 245.38477 146.57227 C 249.64963 131.08039 254.70312 127.42011 263.93164 126.06641 C 265.77897 125.79542 267.62879 125.63376 269.4375 125.68359 z M 263.66797 144.91406 C 262.58035 144.8868 261.57045 145.53896 260.87109 147.08984 C 258.38447 152.60411 259.23445 171.36324 263.14258 183.31445 C 268.37552 178.69785 269.54799 162.17631 269.6582 154.79688 C 269.73742 149.4929 266.44744 144.98372 263.66797 144.91406 z M 274.49219 266.12305 C 266.48457 304.06558 255.8924 341.76762 239.84766 377.06445 C 262.43426 367.17946 285.40287 358.19317 308.83984 350.71094 C 315.18887 349.09448 321.75363 347.33549 328.18555 345.48047 C 306.36082 322.01953 288.88683 294.84961 274.49219 266.12305 z M 373.6875 354.36328 C 371.90898 354.38027 370.03226 354.76447 368.16016 354.95508 C 373.88635 359.06499 379.95238 362.45445 386.91406 364.23242 C 388.5416 356.38682 381.94566 354.28438 373.6875 354.36328 z M 201.75 412.79492 C 194.30291 416.43827 186.78735 419.93135 179.44336 423.75 C 165.96822 432.68257 137.05363 443.72487 144.10742 463.52734 C 167.72433 463.94671 184.86821 441.12608 196.7168 422.96094 C 198.58466 419.65473 199.9918 416.15272 201.75 412.79492 z "
         transform="matrix(-1,0,0,1,534.479,0)"
         id="path7" /><polygon fill="currentColor"
         points="199.409,6.928 85.968,109.649 199.409,109.649 "
         id="polygon9" /></g></g><g
     id="g11" /><g
     id="g13" /><g
     id="g15" /><g
     id="g17" /><g
     id="g19" /><g
     id="g21" /><g
     id="g23" /><g
     id="g25" /><g
     id="g27" /><g
     id="g29" /><g
     id="g31" /><g
     id="g33" /><g
     id="g35" /><g
     id="g37" /><g
     id="g39" /></svg>
