<?xml version="1.0" encoding="UTF-8" standalone="no"?>
<svg
   xmlns:dc="http://purl.org/dc/elements/1.1/"
   xmlns:cc="http://creativecommons.org/ns#"
   xmlns:rdf="http://www.w3.org/1999/02/22-rdf-syntax-ns#"
   xmlns:svg="http://www.w3.org/2000/svg"
   xmlns="http://www.w3.org/2000/svg"
   xmlns:sodipodi="http://sodipodi.sourceforge.net/DTD/sodipodi-0.dtd"
   xmlns:inkscape="http://www.inkscape.org/namespaces/inkscape"
   id="application_msword"
   width="100%"
   height="100%"
   viewBox="0 0 16 16"
   xml:space="preserve">
   <defs
     id="defs8" /><sodipodi:namedview
     id="namedview122"
     inkscape:window-y="1"
     inkscape:window-width="1440"
     fit-margin-bottom="0"
     inkscape:pageshadow="2"
     fit-margin-right="0"
     inkscape:window-maximized="1"
     inkscape:window-x="0"
     inkscape:window-height="797"
     inkscape:pageopacity="0"
     inkscape:current-layer="application_msword"
     fit-margin-left="0"
     objecttolerance="10"
     bordercolor="#666666"
     guidetolerance="10"
     inkscape:cx="47.574032"
     showgrid="false"
     borderopacity="1"
     pagecolor="#ffffff"
     inkscape:cy="53.75"
     inkscape:zoom="3.0846778"
     gridtolerance="10"
     fit-margin-top="0" /><g
     id="g3103"
     transform="matrix(0.14541334,0,0,0.14541334,-3.0559539,0.18403298)"
     fill="currentColor"><path
       d="m 57.505859,0 c -19.162,3.413 -38.339,6.6753902 -57.49999962,10.025391 0,29.15 -0.01300001,58.312609 0,87.474609 19.06199962,3.338 38.13810962,6.525 57.16210962,10 l 7.8125,0 0,-10 c 12.512,0 25.011389,-0.02584 37.525391,0.03516 2.124,-0.099 4.4875,0.06367 6.3125,-1.236328 1.463,-2.237 1.08789,-5.0375 1.21289,-7.5625 -0.176,-24.625 0.087,-49.261719 -0.125,-73.886719 0.262,-2.85 -1.97422,-5.0633906 -4.82422,-4.77539 C 91.719032,9.8612186 78.355469,10.075 64.980469,10 l 0,-10 -7.47461,0 z m 7.47461,13.75 41.250001,0 0,80 -41.250001,0 0,-10 32.5,0 0,-5 -32.5,0 0,-6.25 32.5,0 0,-5 -32.5,0 0,-6.25 32.5,0 0,-5 -32.5,0 0,-6.25 32.5,0 0,-5 -32.5,0 0,-6.25 32.5,0 0,-5 -32.5,0 0,-6.25 32.5,0 0,-5 -32.5,0 0,-8.75 z M 50.091797,34.375 c -2.825,12.112 -5.299719,24.324328 -8.386719,36.361328 -2.088,1.088 -5.214453,-0.05 -7.689453,0.125 -1.663,-8.274 -3.600891,-16.498547 -5.087891,-24.810547 -1.462,8.075 -3.362109,16.07361 -5.037109,24.09961 -2.4,-0.125 -4.810609,-0.2745 -7.224609,-0.4375 -2.074,-11 -4.512219,-21.924219 -6.449219,-32.949219 2.137,-0.1 4.285828,-0.188672 6.423828,-0.263672 1.287,7.962 2.75,15.887328 3.875,23.861328 1.765,-8.174 3.564453,-16.347437 5.314453,-24.523437 2.375,-0.137 4.75,-0.238282 7.125,-0.363282 1.662,8.438 3.36211,16.861719 5.16211,25.261719 1.412998,-8.675 2.975328,-17.324328 4.486328,-25.986328 2.5,-0.087 5.000281,-0.225 7.488281,-0.375 z"
       transform="translate(21.015556,0)"
       id="path6"
       inkscape:connector-curvature="0" /></g></svg>
