<?xml version="1.0" encoding="UTF-8" standalone="no"?>
<svg
   xmlns:dc="http://purl.org/dc/elements/1.1/"
   xmlns:cc="http://creativecommons.org/ns#"
   xmlns:rdf="http://www.w3.org/1999/02/22-rdf-syntax-ns#"
   xmlns:svg="http://www.w3.org/2000/svg"
   xmlns="http://www.w3.org/2000/svg"
   xmlns:sodipodi="http://sodipodi.sourceforge.net/DTD/sodipodi-0.dtd"
   xmlns:inkscape="http://www.inkscape.org/namespaces/inkscape"
   id="application_vnd.oasis.opendocument.presentation"
   width="100%"
   height="100%"
   viewBox="0 0 16 16"
   xml:space="preserve">
   <defs
     id="defs43" /><sodipodi:namedview
     pagecolor="#ffffff"
     bordercolor="#666666"
     borderopacity="1"
     objecttolerance="10"
     gridtolerance="10"
     guidetolerance="10"
     inkscape:pageopacity="0"
     inkscape:pageshadow="2"
     inkscape:window-width="1440"
     inkscape:window-height="794"
     id="namedview41"
     showgrid="false"
     inkscape:zoom="4.9955848"
     inkscape:cx="82.374109"
     inkscape:cy="-5.0008969"
     inkscape:window-x="0"
     inkscape:window-y="1"
     inkscape:window-maximized="0"
     inkscape:current-layer="application_vnd.oasis.opendocument.presentation" /><g
     id="g3"
     transform="matrix(-0.02993572,0,0,0.02993572,16.000014,3.396328e-7)"
     fill="currentColor"><g
       id="g5"><path
         d="m 77.519531,0 0,534.47852 379.439449,0 0,-409.5293 -137.18945,0 L 319.76953,0 77.519531,0 Z M 201.14844,231.69922 c 37.13793,0 67.25195,30.05933 67.25195,67.19726 l -67.25195,0 c 0.002,0 0.002,-67.19726 0,-67.19726 z m -18.91406,18.27734 0,67.25 67.25195,0 c 0,37.19102 -30.09633,67.25196 -67.25195,67.25196 -37.15563,0 -67.23438,-30.07864 -67.23438,-67.25196 0,-37.15563 30.07875,-67.25 67.23438,-67.25 z m 124.22656,15.4336 97.01953,0 c 6.36836,0 11.49414,5.12577 11.49414,11.49414 0,6.36836 -5.12578,11.49609 -11.49414,11.49609 l -97.01953,0 c -6.36836,0 -11.4961,-5.12773 -11.4961,-11.49609 0,-6.36837 5.12774,-11.49414 11.4961,-11.49414 z m 0.16797,40.64453 95.41211,0 c 6.36836,0 11.49414,5.12773 11.49414,11.49609 l 0,0.37891 c 0,6.36836 -5.12578,11.49414 -11.49414,11.49414 l -95.41211,0 c -6.36837,0 -11.4961,-5.12578 -11.4961,-11.49414 l 0,-0.37891 c 0,-6.36836 5.12773,-11.49609 11.4961,-11.49609 z m 0.11718,40.30078 96.8086,0 c 6.34039,0 11.44531,5.10335 11.44531,11.44141 0,6.33805 -5.10492,11.43945 -11.44531,11.43945 l -96.8086,0 c -6.34039,0 -11.44531,-5.1014 -11.44531,-11.43945 0,-6.33806 5.10492,-11.44141 11.44531,-11.44141 z"
         transform="matrix(-1,0,0,1,534.479,0)"
         id="path7"
         inkscape:connector-curvature="0" /><polygon
         points="85.968,109.649 199.409,109.649 199.409,6.928 "
         id="polygon9" /></g></g><g
     id="g11"
     transform="translate(0,-518.479)" /><g
     id="g13"
     transform="translate(0,-518.479)" /><g
     id="g15"
     transform="translate(0,-518.479)" /><g
     id="g17"
     transform="translate(0,-518.479)" /><g
     id="g19"
     transform="translate(0,-518.479)" /><g
     id="g21"
     transform="translate(0,-518.479)" /><g
     id="g23"
     transform="translate(0,-518.479)" /><g
     id="g25"
     transform="translate(0,-518.479)" /><g
     id="g27"
     transform="translate(0,-518.479)" /><g
     id="g29"
     transform="translate(0,-518.479)" /><g
     id="g31"
     transform="translate(0,-518.479)" /><g
     id="g33"
     transform="translate(0,-518.479)" /><g
     id="g35"
     transform="translate(0,-518.479)" /><g
     id="g37"
     transform="translate(0,-518.479)" /><g
     id="g39"
     transform="translate(0,-518.479)" /><g
     id="g4212"
     transform="matrix(8.4152545,0,0,8.4152545,66.743108,-431.31286)"
     style="fill:#ffffff;stroke:none"><g
       id="g4216"
       transform="translate(0,-0.3)"
       style="fill-rule:evenodd;stroke-width:0.40000001;stroke-linecap:round;stroke-linejoin:round" /></g></svg>
