<?xml version="1.0" encoding="UTF-8" standalone="no"?>
<svg
   xmlns:dc="http://purl.org/dc/elements/1.1/"
   xmlns:cc="http://creativecommons.org/ns#"
   xmlns:rdf="http://www.w3.org/1999/02/22-rdf-syntax-ns#"
   xmlns:svg="http://www.w3.org/2000/svg"
   xmlns="http://www.w3.org/2000/svg"
   xmlns:sodipodi="http://sodipodi.sourceforge.net/DTD/sodipodi-0.dtd"
   xmlns:inkscape="http://www.inkscape.org/namespaces/inkscape"
   version="1.1"
   id="application_ms-excel"
   inkscape:version="0.91 r13725"
   sodipodi:docname="application_ms-excel.svg"
   x="0px"
   y="0px"
   width="100%"
   height="100%"
   viewBox="0 0 110.037 107.5"
   style="enable-background:new 0 0 110.037 107.5;"
   xml:space="preserve"><defs
     id="defs12" /><sodipodi:namedview
     id="namedview122"
     inkscape:window-y="1"
     inkscape:window-width="1440"
     fit-margin-bottom="0"
     inkscape:pageshadow="2"
     fit-margin-right="0"
     inkscape:window-maximized="1"
     inkscape:window-x="0"
     inkscape:window-height="795"
     inkscape:pageopacity="0"
     inkscape:current-layer="application_ms-excel"
     fit-margin-left="0"
     objecttolerance="10"
     bordercolor="#666666"
     guidetolerance="10"
     inkscape:cx="120.43013"
     showgrid="false"
     borderopacity="1"
     pagecolor="#ffffff"
     inkscape:cy="53.75"
     inkscape:zoom="3.0846778"
     gridtolerance="10"
     fit-margin-top="0" /><path fill="currentColor"
     d="M 57.550781 0 C 38.375781 3.388 19.188 6.6756718 0 10.013672 L 0 97.5 C 19.074 100.838 38.162891 104.037 57.212891 107.5 L 64.974609 107.5 L 64.974609 96.25 C 77.937609 96.225 90.899608 96.287 103.84961 96.25 C 105.93761 96.162 109.0625 96.1 109.5625 93.5 C 110.3245 89.912 109.92628 86.2005 109.98828 82.5625 C 109.97528 60.8755 109.94972 39.186328 110.01172 17.486328 C 109.92472 15.361328 110.07411 13.012109 108.78711 11.162109 C 106.95011 9.9001098 104.62472 10.049891 102.51172 9.9628906 C 89.999718 10.025891 77.487609 10 64.974609 10 L 64.974609 0 L 57.550781 0 z M 64.974609 13.75 L 106.22461 13.75 L 106.22461 92.5 L 64.974609 92.5 L 64.974609 85 L 74.974609 85 L 74.974609 76.25 L 64.974609 76.25 L 64.974609 71.25 L 74.974609 71.25 L 74.974609 62.5 L 64.974609 62.5 L 64.974609 57.5 L 74.974609 57.5 L 74.974609 48.75 L 64.974609 48.75 L 64.974609 43.75 L 74.974609 43.75 L 74.974609 35 L 64.974609 35 L 64.974609 30 L 74.974609 30 L 74.974609 21.25 L 64.974609 21.25 L 64.974609 13.75 z M 45.525391 32.449219 C 42.188391 39.286219 38.8365 46.1255 35.4375 52.9375 C 38.8755 59.9375 42.387891 66.886719 45.837891 73.886719 C 42.824891 73.711719 39.8235 73.5255 36.8125 73.3125 C 34.6875 68.0995 32.099219 63.061328 30.574219 57.611328 C 28.875219 62.686328 26.450953 67.473219 24.501953 72.449219 C 21.763953 72.411219 19.024109 72.3005 16.287109 72.1875 C 19.499109 65.9005 22.600109 59.5625 25.912109 53.3125 C 23.100109 46.8745 20.011328 40.562109 17.111328 34.162109 C 19.861328 33.999109 22.611328 33.8375 25.361328 33.6875 C 27.223328 38.5755 29.261781 43.399109 30.800781 48.412109 C 32.449781 43.100109 34.912391 38.100891 37.025391 32.962891 C 39.850391 32.762891 42.688391 32.586219 45.525391 32.449219 z "
     id="path10" /><path fill="currentColor"
     id="path58"
     inkscape:connector-curvature="0"
     d="M79.975,21.25c5.838,0,11.662,0,17.5,0 c0,2.913,0,5.837,0,8.75c-5.838,0-11.662,0-17.5,0C79.975,27.087,79.975,24.163,79.975,21.25z" /><path
     fill="currentColor"
     id="path90"
     inkscape:connector-curvature="0"
     d="M79.975,35c5.838,0,11.662,0,17.5,0 c0,2.913,0,5.837,0,8.75c-5.838,0-11.662,0-17.5,0C79.975,40.837,79.975,37.913,79.975,35z" /><path
     fill="currentColor"
     id="path108"
     inkscape:connector-curvature="0"
     d="M79.975,48.75c5.838,0,11.662,0,17.5,0 c0,2.913,0,5.838,0,8.75c-5.838,0-11.662,0-17.5,0C79.975,54.588,79.975,51.663,79.975,48.75z" /><path
     fill="currentColor"
     id="path114"
     inkscape:connector-curvature="0"
     d="M79.975,62.5c5.838,0,11.662,0,17.5,0 c0,2.912,0,5.838,0,8.75c-5.838,0-11.662,0-17.5,0C79.975,68.338,79.975,65.412,79.975,62.5z" /><path
     fill="currentColor"
     id="path120"
     inkscape:connector-curvature="0"
     d="M79.975,76.25c5.838,0,11.662,0,17.5,0 c0,2.912,0,5.838,0,8.75c-5.838,0-11.662,0-17.5,0C79.975,82.088,79.975,79.162,79.975,76.25z" /></svg>
