<?xml version="1.0" encoding="UTF-8" standalone="no"?>
<svg
   xmlns:dc="http://purl.org/dc/elements/1.1/"
   xmlns:cc="http://creativecommons.org/ns#"
   xmlns:rdf="http://www.w3.org/1999/02/22-rdf-syntax-ns#"
   xmlns:svg="http://www.w3.org/2000/svg"
   xmlns="http://www.w3.org/2000/svg"
   xmlns:sodipodi="http://sodipodi.sourceforge.net/DTD/sodipodi-0.dtd"
   xmlns:inkscape="http://www.inkscape.org/namespaces/inkscape"
   id="application_vnd.google-earth.kml+xml"
   viewBox="0 0 16 16"
   width="100%"
   height="100%"><defs
     id="defs6" /><sodipodi:namedview
     pagecolor="#ffffff"
     bordercolor="#666666"
     borderopacity="1"
     objecttolerance="10"
     gridtolerance="10"
     guidetolerance="10"
     inkscape:pageopacity="0"
     inkscape:pageshadow="2"
     inkscape:window-width="1278"
     inkscape:window-height="643"
     id="namedview4"
     showgrid="false"
     inkscape:zoom="7.8666667"
     inkscape:cx="16.085726"
     inkscape:cy="16.854501"
     inkscape:window-x="0"
     inkscape:window-y="0"
     inkscape:window-maximized="0"
     inkscape:current-layer="application_vnd.google-earth.kml+xml" /><path
     id="location"
     d="M 12.6,4.6 C 12.6,2.0666666 10.493333,0 7.946667,0 5.4,0 3.4,2.0666666 3.4,4.6 3.4,5 3.45333,5.3866667 3.546666,5.76 3.559996,5.8 3.666667,6.1466667 3.72,6.2799999 4.56,8.6133333 7.946667,16 7.946667,16 c 0,0 3.546666,-7.52 4.373333,-9.7866666 0.01333,-0.026667 0.146666,-0.4533334 0.16,-0.5466668 0,0 0,0 0,0 C 12.56,5.3333333 12.6,4.9733334 12.6,4.6 Z M 7.946667,7.0533333 C 6.6,7.0533333 5.546667,5.96 5.546667,4.6 c 0,-1.3466667 1.039999,-2.4533333 2.4,-2.4533333 1.346666,0 2.506666,1.0933333 2.506666,2.4533333 0,1.36 -1.16,2.4533333 -2.506666,2.4533333 z"
     inkscape:connector-curvature="0"
     fill="currentColor" /></svg>
