<?xml version="1.0" encoding="UTF-8" standalone="no"?>
<svg
   xmlns:dc="http://purl.org/dc/elements/1.1/"
   xmlns:cc="http://creativecommons.org/ns#"
   xmlns:rdf="http://www.w3.org/1999/02/22-rdf-syntax-ns#"
   xmlns:svg="http://www.w3.org/2000/svg"
   xmlns="http://www.w3.org/2000/svg"
   xmlns:sodipodi="http://sodipodi.sourceforge.net/DTD/sodipodi-0.dtd"
   xmlns:inkscape="http://www.inkscape.org/namespaces/inkscape"
   id="application_vnd.openxmlformats-officedocument.spreadsheetml.sheet"
   width="100%"
   height="100%"
   viewBox="0 0 16 16"
   xml:space="preserve">
   <defs
     id="defs12" /><sodipodi:namedview
     id="namedview122"
     inkscape:window-y="1"
     inkscape:window-width="1440"
     fit-margin-bottom="0"
     inkscape:pageshadow="2"
     fit-margin-right="0"
     inkscape:window-maximized="1"
     inkscape:window-x="0"
     inkscape:window-height="797"
     inkscape:pageopacity="0"
     inkscape:current-layer="application_vnd.openxmlformats-officedocument.spreadsheetml.sheet"
     fit-margin-left="0"
     objecttolerance="10"
     bordercolor="#666666"
     guidetolerance="10"
     inkscape:cx="69.329832"
     showgrid="false"
     borderopacity="1"
     pagecolor="#ffffff"
     inkscape:cy="53.75"
     inkscape:zoom="3.0846778"
     gridtolerance="10"
     fit-margin-top="0" /><path
     fill="currentColor"
     d="M 8.3681333,0.18451785 C 5.5800054,0.67714765 2.7900191,1.1551895 9.3272791e-7,1.6405491 l 0,12.7208899 C 2.773443,14.846798 5.5490503,15.311947 8.3190023,15.815482 l 1.128588,0 0,-1.635799 c 1.8848757,-0.0036 3.7696057,0.0054 5.6525927,0 0.303605,-0.01279 0.757977,-0.02181 0.830679,-0.399862 0.110798,-0.52171 0.05289,-1.061378 0.06191,-1.590359 -0.0019,-3.1533828 -0.0056,-6.3070828 0.0034,-9.4623564 -0.01265,-0.3089842 0.0091,-0.6505708 -0.178064,-0.9195688 C 15.551,1.6240367 15.212879,1.6458155 14.905639,1.6331653 c -1.819294,0.00916 -3.638614,0.0054 -5.4580577,0.0054 l 0,-1.45404315 -1.079457,0 z m 1.079457,1.99930955 5.9979287,0 0,11.4505896 -5.9979287,0 0,-1.090532 1.4540427,0 0,-1.272288 -1.4540427,0 0,-0.727022 1.4540427,0 0,-1.2722868 -1.4540427,0 0,-0.727022 1.4540427,0 0,-1.272288 -1.4540427,0 0,-0.727021 1.4540427,0 0,-1.272288 -1.4540427,0 0,-0.7270216 1.4540427,0 0,-1.2722878 -1.4540427,0 0,-1.0905324 z m 2.1810647,1.0905324 0,1.2722877 2.544576,0 0,-1.2722878 -2.544576,0 z M 6.6195893,4.9027742 c -0.485214,0.99413 -0.9725934,1.988591 -1.4668227,2.979085 0.4999001,1.01783 1.0106167,2.028276 1.5122617,3.0461068 C 6.2269253,10.902516 5.79051,10.875446 5.3526976,10.844476 5.0437134,10.086483 4.6673661,9.3539112 4.4456245,8.5614582 4.1985826,9.2993852 3.8460838,9.9954192 3.5626908,10.718951 3.1645738,10.713451 2.7661886,10.697331 2.368217,10.680901 2.8352557,9.7667442 3.2861545,8.8451722 3.7677336,7.9363952 3.3588566,7.0002822 2.9097345,6.0824331 2.488062,5.1518451 c 0.3998619,-0.0237 0.7997238,-0.0472 1.1995856,-0.06901 0.2707429,0.710736 0.5671428,1.41211 0.79092,2.141022 0.2397718,-0.772388 0.5978459,-1.499296 0.9050852,-2.246383 0.4107673,-0.02908 0.8234245,-0.05477 1.2359365,-0.07469 z m 5.0090657,0.3708949 0,1.272288 2.544576,0 0,-1.272288 -2.544576,0 z m 0,1.999309 0,1.2722881 2.544576,0 0,-1.2722881 -2.544576,0 z m 0,1.9993101 0,1.2722868 2.544576,0 0,-1.2722868 -2.544576,0 z m 0,1.9993088 0,1.272288 2.544576,0 0,-1.272288 -2.544576,0 z"
     id="path10"
     inkscape:connector-curvature="0" /></svg>
