<?xml version="1.0" encoding="UTF-8" standalone="no"?>

<svg
   xmlns:dc="http://purl.org/dc/elements/1.1/"
   xmlns:cc="http://creativecommons.org/ns#"
   xmlns:rdf="http://www.w3.org/1999/02/22-rdf-syntax-ns#"
   xmlns:svg="http://www.w3.org/2000/svg"
   xmlns="http://www.w3.org/2000/svg"
   xmlns:xlink="http://www.w3.org/1999/xlink"
   xmlns:sodipodi="http://sodipodi.sourceforge.net/DTD/sodipodi-0.dtd"
   xmlns:inkscape="http://www.inkscape.org/namespaces/inkscape"
   id="application_x-robolab"
   width="100%"
   height="100%"
   viewBox="0 0 16 16"
   xml:space="preserve">
	 <defs
     id="defs39" /><sodipodi:namedview
     pagecolor="#ffffff"
     bordercolor="#666666"
     borderopacity="1"
     objecttolerance="10"
     gridtolerance="10"
     guidetolerance="10"
     inkscape:pageopacity="0"
     inkscape:pageshadow="2"
     inkscape:window-width="1418"
     inkscape:window-height="781"
     id="namedview37"
     showgrid="false"
     inkscape:zoom="8.2357656"
     inkscape:cx="50.375339"
     inkscape:cy="-2.7474578"
     inkscape:window-x="0"
     inkscape:window-y="0"
     inkscape:window-maximized="0"
     inkscape:current-layer="application_x-robolab" /><g
     id="g3"
     fill="currentColor"
     transform="matrix(0.04935474,0,0,0.04935474,4.0574607,4.3406477e-7)"><path
       d="m 38.87,166.06 c -1.33,0.57 -2.27,1.99 -2.27,3.66 l 0,75.42 c 0,2.17 1.59,3.93 3.56,3.93 l 79.46,0 c 1.97,0 3.56,-1.75 3.56,-3.93 l 0,-75.42 c 0,-1.67 -0.94,-3.09 -2.27,-3.66 l -82.04,0 z m 0,0"
       id="path5"
       inkscape:connector-curvature="0" /><path
       d="m 22.34,53.76 c -2.18,0 -3.92,1.75 -3.92,3.92 l 0,57.51 c 40.97,-0.14 81.95,0 122.92,-0.08 l 0,-57.43 c 0,-2.17 -1.75,-3.92 -3.92,-3.92 l -115.08,0 z m 35.95,16.3 c 9.25,0 16.74,7.29 16.74,16.3 0,9 -7.5,16.3 -16.74,16.3 -9.25,0 -16.74,-7.3 -16.74,-16.3 0,-9.01 7.5,-16.3 16.74,-16.3 l 0,0 z m 43.18,0 c 9.25,0 16.74,7.29 16.74,16.3 0,9 -7.49,16.3 -16.74,16.3 -9.25,0 -16.74,-7.3 -16.74,-16.3 0,-9.01 7.5,-16.3 16.74,-16.3 l 0,0 z m 0,0"
       id="path7"
       inkscape:connector-curvature="0" /><path
       d="m 4.71,72.04 c -2.23,0 -4.02,1.75 -4.02,3.93 l 0,23.87 c 0,2.17 1.79,3.93 4.02,3.93 l 10.32,0 0,-31.73 -10.32,0 z m 140.02,0 c 0.05,10.57 0,21.15 -0.01,31.72 l 10.33,0 c 2.23,0 4.03,-1.75 4.03,-3.93 l 0,-23.86 c 0,-2.18 -1.8,-3.93 -4.03,-3.93 l -10.32,0 z m 0,0"
       id="path9"
       inkscape:connector-curvature="0" /><path
       d="m 14.73,121.61 c -1.68,0 -3.02,1.35 -3.02,3.02 l 0,23.47 c 0,1.68 1.35,3.02 3.02,3.02 l 130.31,0 c 1.68,0 3.03,-1.35 3.03,-3.02 l 0,-23.47 c 0,-1.67 -1.35,-3.02 -3.03,-3.02 l -29.89,0 -7.22,6.62 c -0.99,0.91 -1.13,2.32 -2.55,2.32 l -50.99,0 c -1.41,0 -1.56,-1.41 -2.55,-2.32 l -7.22,-6.62 -29.89,0 z m 0,0"
       id="path11"
       inkscape:connector-curvature="0" /><g
       id="g13"><defs
         id="defs15"><rect
           id="SVGID_1_"
           x="0"
           y="0.1"
           width="159.88"
           height="324.10001" /></defs><clipPath
         id="SVGID_2_"><use
           xlink:href="#SVGID_1_"
           overflow="visible"
           id="use19"
           style="overflow:visible"
           x="0"
           y="0"
           width="100%"
           height="100%" /></clipPath><path
         clip-path="url(#SVGID_2_)"
         d="m 57.63,156.41 0,11.68 c 0,2.76 1.75,4.98 3.93,4.98 l 36.65,0 c 2.18,0 3.93,-2.22 3.93,-4.98 l 0,-11.67 c -14.84,0.01 -29.67,0 -44.51,-0.01 l 0,0 z m 0,0"
         id="path21"
         inkscape:connector-curvature="0" /><path
         clip-path="url(#SVGID_2_)"
         d="m 43.42,256.45 c -4.39,0 -7.93,3.53 -7.93,7.93 0,2.5 1.15,4.72 2.94,6.17 -1.79,1.45 -2.94,3.67 -2.94,6.17 0,2.53 1.18,4.78 3.02,6.23 -1.84,1.56 -3.02,3.97 -3.02,6.69 0,0.87 0.12,1.71 0.35,2.51 0.07,-0.01 0.14,-0.01 0.21,-0.01 l 39.4,0 c 0.09,-1.01 0.14,-1.94 0.14,-2.5 0,-2.72 -1.18,-5.14 -3.02,-6.69 1.84,-1.45 3.02,-3.7 3.02,-6.23 0,-2.5 -1.15,-4.72 -2.94,-6.17 1.79,-1.45 2.94,-3.67 2.94,-6.17 0,-4.39 -3.54,-7.93 -7.93,-7.93 l -24.24,0 z m 48.69,0 c -4.39,0 -7.93,3.53 -7.93,7.93 0,2.5 1.15,4.72 2.94,6.17 -1.79,1.45 -2.94,3.67 -2.94,6.17 0,2.53 1.18,4.78 3.02,6.23 -1.84,1.56 -3.02,3.97 -3.02,6.69 0,0.55 0.06,1.48 0.15,2.5 l 39.6,0 c 0.22,-0.79 0.34,-1.63 0.34,-2.5 0,-2.72 -1.18,-5.14 -3.02,-6.69 1.84,-1.45 3.02,-3.7 3.02,-6.23 0,-2.5 -1.15,-4.72 -2.94,-6.17 1.79,-1.45 2.94,-3.67 2.94,-6.17 0,-4.39 -3.54,-7.93 -7.93,-7.93 l -24.23,0 z m -55.25,40.74 c -13.98,0 -23.73,8.24 -23.51,19.7 l -0.1,0 0,3.26 c 0,2.17 1.58,3.92 3.55,3.92 l 54.13,0 c 1.97,0 3.55,-1.75 3.55,-3.92 l 0,-19.03 c 0,-2.17 -1.7,-3.26 -3.55,-3.93 l -24.29,0 -9.78,0 z m 51.97,0 c -1.97,0 -3.55,1.75 -3.55,3.93 l 0,19.03 c 0,2.17 1.7,4.59 3.55,3.92 l 54.14,0 c 1.97,0 3.55,-1.75 3.55,-3.92 l 0,-3.26 -0.1,0 c 0.22,-11.45 -9.56,-18.79 -23.52,-19.7 l -25.46,0 -8.61,0 z m 0,0"
         id="path23"
         inkscape:connector-curvature="0" /><path
         clip-path="url(#SVGID_2_)"
         d="m 4.78,166.06 c -2.98,3.07 -4.85,7.98 -4.78,15.81 0.2,20.83 13.4,20.97 24.98,20.97 11.58,0 20.97,-9.39 20.97,-20.97 0,-6.3 -2.78,-11.96 -7.18,-15.81 l -33.99,0 z m 117.14,0 c -4.4,3.84 -7.19,9.5 -7.19,15.81 0,11.58 9.39,20.97 20.97,20.97 11.58,0 23.81,-0.14 24.06,-20.97 0.09,-7.82 -1.64,-12.73 -4.46,-15.81 l -33.38,0 z m 0,0"
         id="path25"
         inkscape:connector-curvature="0" /></g><path
       d="m 8.91,184.3 c -1.34,0 -2.42,1.08 -2.42,2.42 l 0,54.19 c 0,0.58 0.21,1.12 0.55,1.54 -2.15,2.05 -3.71,4.72 -4.27,7.67 -1.05,5.07 0.73,10.68 4.66,14.05 0.66,0.26 0.7,-0.65 0.52,-1.06 -0.9,-5.15 3.08,-10.62 8.33,-11.13 3.93,-0.47 7.89,1.88 9.49,5.45 1,2.12 1.21,4.59 0.67,6.88 0.96,0.14 1.41,-0.97 2.04,-1.48 4.28,-4.76 4.83,-12.44 1.25,-17.77 -0.56,-0.87 -1.22,-1.68 -1.96,-2.41 0.46,-0.44 0.75,-1.06 0.75,-1.74 l 0,-54.19 c 0,-1.34 -1.08,-2.42 -2.42,-2.42 l -17.19,0 z m 125.22,0 c -1.34,0 -2.42,1.08 -2.42,2.42 l 0,54.19 c 0,0.58 0.21,1.12 0.55,1.54 -2.15,2.05 -3.71,4.72 -4.27,7.67 -1.05,5.07 0.73,10.68 4.65,14.05 0.66,0.26 0.7,-0.65 0.52,-1.06 -0.9,-5.15 3.08,-10.62 8.33,-11.13 3.93,-0.47 7.9,1.88 9.49,5.45 1,2.12 1.21,4.59 0.67,6.88 0.96,0.14 1.41,-0.97 2.04,-1.48 4.28,-4.76 4.83,-12.44 1.25,-17.77 -0.56,-0.87 -1.22,-1.68 -1.96,-2.41 0.46,-0.44 0.75,-1.06 0.75,-1.74 l 0,-54.19 c 0,-1.34 -1.08,-2.42 -2.42,-2.42 l -17.18,0 z m 0,0"
       id="path27"
       inkscape:connector-curvature="0" /><g
       id="g29"><path
         d="m 58.29,76.23 c -5.75,0 -10.41,4.53 -10.41,10.13 0,5.6 4.66,10.14 10.41,10.14 5.75,0 10.41,-4.54 10.41,-10.14 0,-5.6 -4.66,-10.13 -10.41,-10.13 l 0,0 z m 43.18,0 c -5.75,0 -10.41,4.53 -10.41,10.13 0,5.6 4.66,10.14 10.41,10.14 5.75,0 10.41,-4.54 10.41,-10.14 0,-5.6 -4.66,-10.13 -10.41,-10.13 l 0,0 z m 0,0"
         id="path31"
         inkscape:connector-curvature="0" /><path
         d="m 50.38,0 c -6.33,0 -11.46,5.13 -11.46,11.46 0,6.15 4.84,11.16 10.92,11.44 l 13.59,34.28 c 0.85,2.15 3.27,3.2 5.43,2.35 2.16,-0.85 3.2,-3.28 2.35,-5.44 L 57.77,20.2 c 2.48,-2.1 4.06,-5.24 4.06,-8.74 C 61.83,5.13 56.7,0 50.38,0 l 0,0 z m 59.02,0 c -6.33,0 -11.45,5.13 -11.45,11.46 0,3.51 1.58,6.64 4.06,8.74 L 88.56,54.09 c -0.85,2.16 0.2,4.58 2.35,5.44 2.16,0.85 4.58,-0.19 5.43,-2.35 L 109.93,22.9 c 6.08,-0.28 10.92,-5.29 10.92,-11.44 C 120.85,5.13 115.72,0 109.4,0 l 0,0 z m 0,0"
         id="path33"
         inkscape:connector-curvature="0" /></g></g></svg>
