<?xml version="1.0" encoding="UTF-8" standalone="no"?>
<svg
   xmlns:dc="http://purl.org/dc/elements/1.1/"
   xmlns:cc="http://creativecommons.org/ns#"
   xmlns:rdf="http://www.w3.org/1999/02/22-rdf-syntax-ns#"
   xmlns:svg="http://www.w3.org/2000/svg"
   xmlns="http://www.w3.org/2000/svg"
   xmlns:sodipodi="http://sodipodi.sourceforge.net/DTD/sodipodi-0.dtd"
   xmlns:inkscape="http://www.inkscape.org/namespaces/inkscape"
   version="1.1"
   id="application_msword"
   inkscape:version="0.91 r13725"
   sodipodi:docname="application_msword.svg"
   x="0px"
   y="0px"
   width="100%"
   height="100%"
   viewBox="0 0 110.031 107.5"
   style="enable-background:new 0 0 110.031 107.5;"
   xml:space="preserve"><defs
     id="defs8" /><sodipodi:namedview
     id="namedview122"
     inkscape:window-y="1"
     inkscape:window-width="1440"
     fit-margin-bottom="0"
     inkscape:pageshadow="2"
     fit-margin-right="0"
     inkscape:window-maximized="1"
     inkscape:window-x="0"
     inkscape:window-height="795"
     inkscape:pageopacity="0"
     inkscape:current-layer="application_msword"
     fit-margin-left="0"
     objecttolerance="10"
     bordercolor="#666666"
     guidetolerance="10"
     inkscape:cx="106.41324"
     showgrid="false"
     borderopacity="1"
     pagecolor="#ffffff"
     inkscape:cy="53.75"
     inkscape:zoom="3.0846778"
     gridtolerance="10"
     fit-margin-top="0" /><g
     id="g3103"
     fill="currentColor"
     transform="translate(-21.015556,0)"><path
       d="M 57.505859 0 C 38.343859 3.413 19.166859 6.6753902 0.005859375 10.025391 C 0.005859375 39.175391 -0.007140625 68.338 0.005859375 97.5 C 19.067859 100.838 38.143969 104.025 57.167969 107.5 L 64.980469 107.5 L 64.980469 97.5 C 77.492469 97.5 89.991858 97.474156 102.50586 97.535156 C 104.62986 97.436156 106.99336 97.598828 108.81836 96.298828 C 110.28136 94.061828 109.90625 91.261328 110.03125 88.736328 C 109.85525 64.111328 110.11825 39.474609 109.90625 14.849609 C 110.16825 11.999609 107.93203 9.7862184 105.08203 10.074219 C 91.719032 9.8612186 78.355469 10.075 64.980469 10 L 64.980469 0 L 57.505859 0 z M 64.980469 13.75 L 106.23047 13.75 L 106.23047 93.75 L 64.980469 93.75 L 64.980469 83.75 L 97.480469 83.75 L 97.480469 78.75 L 64.980469 78.75 L 64.980469 72.5 L 97.480469 72.5 L 97.480469 67.5 L 64.980469 67.5 L 64.980469 61.25 L 97.480469 61.25 L 97.480469 56.25 L 64.980469 56.25 L 64.980469 50 L 97.480469 50 L 97.480469 45 L 64.980469 45 L 64.980469 38.75 L 97.480469 38.75 L 97.480469 33.75 L 64.980469 33.75 L 64.980469 27.5 L 97.480469 27.5 L 97.480469 22.5 L 64.980469 22.5 L 64.980469 13.75 z M 50.091797 34.375 C 47.266797 46.487 44.792078 58.699328 41.705078 70.736328 C 39.617078 71.824328 36.490625 70.686328 34.015625 70.861328 C 32.352625 62.587328 30.414734 54.362781 28.927734 46.050781 C 27.465734 54.125781 25.565625 62.124391 23.890625 70.150391 C 21.490625 70.025391 19.080016 69.875891 16.666016 69.712891 C 14.592016 58.712891 12.153797 47.788672 10.216797 36.763672 C 12.353797 36.663672 14.502625 36.575 16.640625 36.5 C 17.927625 44.462 19.390625 52.387328 20.515625 60.361328 C 22.280625 52.187328 24.080078 44.013891 25.830078 35.837891 C 28.205078 35.700891 30.580078 35.599609 32.955078 35.474609 C 34.617078 43.912609 36.317188 52.336328 38.117188 60.736328 C 39.530186 52.061328 41.092516 43.412 42.603516 34.75 C 45.103516 34.663 47.603797 34.525 50.091797 34.375 z "
       transform="translate(21.015556,0)"
       id="path6" /></g></svg>
