<?xml version="1.0" encoding="UTF-8" standalone="no"?>
<svg
   xmlns:dc="http://purl.org/dc/elements/1.1/"
   xmlns:cc="http://creativecommons.org/ns#"
   xmlns:rdf="http://www.w3.org/1999/02/22-rdf-syntax-ns#"
   xmlns:svg="http://www.w3.org/2000/svg"
   xmlns="http://www.w3.org/2000/svg"
   xmlns:sodipodi="http://sodipodi.sourceforge.net/DTD/sodipodi-0.dtd"
   xmlns:inkscape="http://www.inkscape.org/namespaces/inkscape"
   version="1.1"
   id="application_vnd.oasis.opendocument.presentation"
   x="0px"
   y="0px"
   width="100%"
   height="100%"
   viewBox="0 0 534.479 534.479"
   style="enable-background:new 0 0 534.479 534.479;"
   xml:space="preserve"
   inkscape:version="0.91 r13725"
   sodipodi:docname="oasis presentation document.svg"><defs
     id="defs43" /><sodipodi:namedview
     pagecolor="#ffffff"
     bordercolor="#666666"
     borderopacity="1"
     objecttolerance="10"
     gridtolerance="10"
     guidetolerance="10"
     inkscape:pageopacity="0"
     inkscape:pageshadow="2"
     inkscape:window-width="1440"
     inkscape:window-height="794"
     id="namedview41"
     showgrid="false"
     inkscape:zoom="0.88310298"
     inkscape:cx="-18.117934"
     inkscape:cy="267.2395"
     inkscape:window-x="0"
     inkscape:window-y="1"
     inkscape:window-maximized="0"
     inkscape:current-layer="generic" /><g
     id="g3"
     fill="currentColor"
     transform="matrix(-1,0,0,1,534.479,0)"><g
       id="g5"><path
         d="M 77.519531 0 L 77.519531 534.47852 L 456.95898 534.47852 L 456.95898 124.94922 L 319.76953 124.94922 L 319.76953 0 L 77.519531 0 z M 201.14844 231.69922 C 238.28637 231.69922 268.40039 261.75855 268.40039 298.89648 L 201.14844 298.89648 C 201.15021 298.89648 201.15021 231.69922 201.14844 231.69922 z M 182.23438 249.97656 L 182.23438 317.22656 L 249.48633 317.22656 C 249.48633 354.41758 219.39 384.47852 182.23438 384.47852 C 145.07875 384.47852 115 354.39988 115 317.22656 C 115 280.07093 145.07875 249.97656 182.23438 249.97656 z M 306.46094 265.41016 L 403.48047 265.41016 C 409.84883 265.41016 414.97461 270.53593 414.97461 276.9043 C 414.97461 283.27266 409.84883 288.40039 403.48047 288.40039 L 306.46094 288.40039 C 300.09258 288.40039 294.96484 283.27266 294.96484 276.9043 C 294.96484 270.53593 300.09258 265.41016 306.46094 265.41016 z M 306.62891 306.05469 L 402.04102 306.05469 C 408.40938 306.05469 413.53516 311.18242 413.53516 317.55078 L 413.53516 317.92969 C 413.53516 324.29805 408.40938 329.42383 402.04102 329.42383 L 306.62891 329.42383 C 300.26054 329.42383 295.13281 324.29805 295.13281 317.92969 L 295.13281 317.55078 C 295.13281 311.18242 300.26054 306.05469 306.62891 306.05469 z M 306.74609 346.35547 L 403.55469 346.35547 C 409.89508 346.35547 415 351.45882 415 357.79688 C 415 364.13493 409.89508 369.23633 403.55469 369.23633 L 306.74609 369.23633 C 300.4057 369.23633 295.30078 364.13493 295.30078 357.79688 C 295.30078 351.45882 300.4057 346.35547 306.74609 346.35547 z "
         transform="matrix(-1,0,0,1,534.479,0)"
         id="path7" /><polygon
         points="199.409,6.928 85.968,109.649 199.409,109.649 "
         id="polygon9" /></g></g><g
     id="g11" /><g
     id="g13" /><g
     id="g15" /><g
     id="g17" /><g
     id="g19" /><g
     id="g21" /><g
     id="g23" /><g
     id="g25" /><g
     id="g27" /><g
     id="g29" /><g
     id="g31" /><g
     id="g33" /><g
     id="g35" /><g
     id="g37" /><g
     id="g39" /><g
     id="g4212"
     transform="matrix(8.4152545,0,0,8.4152545,66.743108,87.166146)"
     style="fill:#ffffff;stroke:none"><g
       id="g4216"
       transform="translate(0,-0.3)"
       style="fill-rule:evenodd;stroke-width:0.40000001;stroke-linecap:round;stroke-linejoin:round" /></g></svg>
