<?xml version="1.0" encoding="UTF-8" standalone="no"?>
<svg
   xmlns:dc="http://purl.org/dc/elements/1.1/"
   xmlns:cc="http://creativecommons.org/ns#"
   xmlns:rdf="http://www.w3.org/1999/02/22-rdf-syntax-ns#"
   xmlns:svg="http://www.w3.org/2000/svg"
   xmlns="http://www.w3.org/2000/svg"
   xmlns:sodipodi="http://sodipodi.sourceforge.net/DTD/sodipodi-0.dtd"
   xmlns:inkscape="http://www.inkscape.org/namespaces/inkscape"
   id="application_zip"
   width="100%"
   height="100%"
   viewBox="0 0 16 16"
   xml:space="preserve">
   <defs
     id="defs43" /><sodipodi:namedview
     pagecolor="#ffffff"
     bordercolor="#666666"
     borderopacity="1"
     objecttolerance="10"
     gridtolerance="10"
     guidetolerance="10"
     inkscape:pageopacity="0"
     inkscape:pageshadow="2"
     inkscape:window-width="1440"
     inkscape:window-height="794"
     id="namedview41"
     showgrid="false"
     inkscape:zoom="4.9955849"
     inkscape:cx="5.7048801"
     inkscape:cy="43.418658"
     inkscape:window-x="0"
     inkscape:window-y="1"
     inkscape:window-maximized="0"
     inkscape:current-layer="application_zip" /><g
     id="g3"
     transform="matrix(-0.02993572,0,0,0.02993572,16.000014,3.396328e-7)"
     fill="currentColor"><g
       id="g5"><path
         d="m 77.519531,0 0,534.47852 379.439449,0 0,-409.5293 -137.18945,0 L 319.76953,0 77.519531,0 Z m 108.904299,9.0371094 30.86914,0 c 6.84077,0 12.32812,5.5220956 12.32812,12.3281246 l 0,3.054688 c 0,6.840753 -5.52209,12.328125 -12.32812,12.328125 l -30.86914,0 c -6.84076,0 -12.32813,-5.522096 -12.32813,-12.328125 l 0,-3.054688 c 0,-6.840754 5.52209,-12.3281246 12.32813,-12.3281246 z m -0.13867,40.1425786 30.93945,0 c 6.84075,-10e-7 12.32617,5.520147 12.32617,12.326171 l 0,3.126953 c 0,6.84075 -5.52015,12.326172 -12.32617,12.326172 l -30.93945,0 c -6.84076,0 -12.32813,-5.520146 -12.32813,-12.326172 l 0,-3.126953 c 0,-6.840749 5.52211,-12.326171 12.32813,-12.326171 z m -0.0352,39.689453 30.86914,0 c 6.84075,0 12.32813,5.522118 12.32813,12.328129 l 0,3.125 c 0,6.84075 -5.52209,12.32617 -12.32813,12.32617 l -30.86914,0 c -6.84075,0 -12.32812,-5.52015 -12.32812,-12.32617 l 0,-3.125 c -1e-5,-6.840751 5.52209,-12.328129 12.32812,-12.328129 z m 0.625,41.357419 30.86914,0 c 6.84075,0 12.32813,5.5221 12.32813,12.32813 l 0,3.05469 c 0,6.84075 -5.52211,12.32812 -12.32813,12.32812 l -30.86914,0 c -6.84075,0 -12.32812,-5.52209 -12.32812,-12.32812 l 0,-3.05469 c 0,-6.84074 5.52208,-12.32813 12.32812,-12.32813 z m 0,40.5586 30.86914,0 c 6.84075,0 12.32813,5.5221 12.32813,12.32812 l 0,3.125 c 0,6.84075 -5.52211,12.32617 -12.32813,12.32617 l -30.86914,0 c -6.84075,0 -12.32812,-5.52016 -12.32812,-12.32617 l 0,-3.125 c 0,-6.84075 5.52208,-12.32812 12.32812,-12.32812 z m 0,41.56445 30.86914,0 c 6.84075,0 12.32813,5.52208 12.32813,12.32812 l 0,3.05665 c 0,6.84075 -5.52211,12.32617 -12.32813,12.32617 l -30.86914,0 c -6.84075,0 -12.32812,-5.52014 -12.32812,-12.32617 l 0,-3.05665 c 0,-6.84075 5.52208,-12.32812 12.32812,-12.32812 z m 2.53516,41.98242 24.44531,0 c 4.86144,0 8.82031,3.99677 8.82031,8.89063 l 0,17.5 13.64649,40.14257 c 3.81972,11.18131 1.979,23.64735 -4.89649,33.30079 -6.87548,9.61874 -18.05647,15.3125 -29.82812,15.3125 -11.80638,0 -22.91707,-5.69376 -29.75782,-15.3125 -6.87549,-9.65344 -8.68147,-22.11948 -4.89648,-33.30079 l 13.64648,-40.14257 0,-17.5 c 0,-4.89619 3.95887,-8.89063 8.82032,-8.89063 z m -1.07618,58.78906 -4.61914,13.50782 c -1.94459,5.7643 -0.97161,12.18865 2.57032,17.15429 7.08381,9.93124 23.64663,9.93124 30.73046,0 3.54191,-4.96564 4.4793,-11.38999 2.5,-17.15429 l -4.54882,-13.50782 -26.63282,0 z"
         transform="matrix(-1,0,0,1,534.479,0)"
         id="path7"
         inkscape:connector-curvature="0" /><polygon
         points="85.968,109.649 199.409,109.649 199.409,6.928 "
         id="polygon9" /></g></g><g
     id="g11"
     transform="translate(0,-518.479)" /><g
     id="g13"
     transform="translate(0,-518.479)" /><g
     id="g15"
     transform="translate(0,-518.479)" /><g
     id="g17"
     transform="translate(0,-518.479)" /><g
     id="g19"
     transform="translate(0,-518.479)" /><g
     id="g21"
     transform="translate(0,-518.479)" /><g
     id="g23"
     transform="translate(0,-518.479)" /><g
     id="g25"
     transform="translate(0,-518.479)" /><g
     id="g27"
     transform="translate(0,-518.479)" /><g
     id="g29"
     transform="translate(0,-518.479)" /><g
     id="g31"
     transform="translate(0,-518.479)" /><g
     id="g33"
     transform="translate(0,-518.479)" /><g
     id="g35"
     transform="translate(0,-518.479)" /><g
     id="g37"
     transform="translate(0,-518.479)" /><g
     id="g39"
     transform="translate(0,-518.479)" /></svg>
