<?xml version="1.0" encoding="UTF-8" standalone="no"?>
<svg
   xmlns:dc="http://purl.org/dc/elements/1.1/"
   xmlns:cc="http://creativecommons.org/ns#"
   xmlns:rdf="http://www.w3.org/1999/02/22-rdf-syntax-ns#"
   xmlns:svg="http://www.w3.org/2000/svg"
   xmlns="http://www.w3.org/2000/svg"
   xmlns:sodipodi="http://sodipodi.sourceforge.net/DTD/sodipodi-0.dtd"
   xmlns:inkscape="http://www.inkscape.org/namespaces/inkscape"
   id="application_ms-excel"
   width="100%"
   height="100%"
   viewBox="0 0 16 16"
   xml:space="preserve">
   <defs
     id="defs12" /><sodipodi:namedview
     id="namedview122"
     inkscape:window-y="1"
     inkscape:window-width="1440"
     fit-margin-bottom="0"
     inkscape:pageshadow="2"
     fit-margin-right="0"
     inkscape:window-maximized="1"
     inkscape:window-x="0"
     inkscape:window-height="797"
     inkscape:pageopacity="0"
     inkscape:current-layer="application_ms-excel"
     fit-margin-left="0"
     objecttolerance="10"
     bordercolor="#666666"
     guidetolerance="10"
     inkscape:cx="43.260993"
     showgrid="false"
     borderopacity="1"
     pagecolor="#ffffff"
     inkscape:cy="-5.8503133"
     inkscape:zoom="8.7247864"
     gridtolerance="10"
     fit-margin-top="0" /><path
     fill="currentColor"
     d="M 8.3681333,0.18451767 C 5.5800055,0.67714752 2.7900192,1.1551893 9.827279e-7,1.6405489 l 0,12.7208901 C 2.7734431,14.846798 5.5490504,15.311947 8.3190023,15.815482 l 1.128588,0 0,-1.635799 c 1.8848757,-0.0036 3.7696057,0.0054 5.6525927,0 0.303605,-0.01279 0.757977,-0.02181 0.830679,-0.399862 0.110798,-0.52171 0.05289,-1.061378 0.06191,-1.590359 -0.0019,-3.1533835 -0.0056,-6.3070829 0.0034,-9.4623567 -0.01265,-0.3089842 0.0091,-0.6505708 -0.178064,-0.9195687 C 15.551,1.6240365 15.212879,1.6458153 14.905639,1.6331651 c -1.819294,0.00916 -3.638614,0.0054 -5.4580577,0.0054 l 0,-1.45404324 -1.079457,0 z m 1.079457,1.99930943 5.9979287,0 0,11.4505899 -5.9979287,0 0,-1.090532 1.4540427,0 0,-1.272288 -1.4540427,0 0,-0.727022 1.4540427,0 0,-1.2722872 -1.4540427,0 0,-0.7270216 1.4540427,0 0,-1.2722878 -1.4540427,0 0,-0.7270216 1.4540427,0 0,-1.2722879 -1.4540427,0 0,-0.7270216 1.4540427,0 0,-1.2722878 -1.4540427,0 0,-1.0905324 z m 2.1810647,1.0905324 0,1.2722878 2.544576,0 0,-1.2722878 -2.544576,0 z M 6.6195897,4.9027743 C 6.1343755,5.8969037 5.646996,6.8913647 5.1527667,7.881859 5.6526668,8.8996893 6.1633836,9.9101354 6.6650285,10.927966 6.2269253,10.90252 5.7905101,10.875443 5.3526977,10.844472 5.0437135,10.086479 4.6673662,9.3539074 4.4456246,8.5614538 4.1985827,9.2993807 3.8460839,9.9954154 3.5626909,10.718947 3.1645739,10.713422 2.7661887,10.697323 2.3682171,10.680892 2.8352558,9.7667352 3.2861546,8.8451626 3.7677337,7.9363856 3.3588567,7.0002726 2.9097346,6.0824236 2.4880621,5.151836 2.887924,5.128135 3.2877859,5.104636 3.6876477,5.082826 3.9583906,5.7935623 4.2547905,6.4949359 4.4785677,7.2238478 4.7183395,6.45146 5.0764136,5.7245521 5.3836529,4.9774647 c 0.4107673,-0.029081 0.8234247,-0.05477 1.2359368,-0.07469 z m 5.0090653,0.3708946 0,1.2722879 2.544576,0 0,-1.2722879 -2.544576,0 z m 0,1.9993095 0,1.2722878 2.544576,0 0,-1.2722878 -2.544576,0 z m 0,1.9993094 0,1.2722872 2.544576,0 0,-1.2722872 -2.544576,0 z m 0,1.9993092 0,1.272288 2.544576,0 0,-1.272288 -2.544576,0 z"
     id="path10"
     inkscape:connector-curvature="0" /></svg>
