<?xml version="1.0" standalone="no"?>
<!DOCTYPE svg PUBLIC "-//W3C//DTD SVG 20010904//EN"
 "http://www.w3.org/TR/2001/REC-SVG-20010904/DTD/svg10.dtd">
<svg id="application_ms-excel" version="1.0" xmlns="http://www.w3.org/2000/svg"
 width="100%" height="100%" viewBox="0 0 16.000000 16.000000"
 preserveAspectRatio="xMidYMid">

<g class="SVGChild" transform="translate(0.000000,16.000000) scale(0.100000,-0.100000)"
fill="currentColor" stroke="none">
<path d="M25 140 c-3 -6 3 -22 15 -37 18 -23 18 -28 6 -42 -7 -9 -17 -27 -21
-40 -7 -23 -6 -24 31 -18 22 4 49 7 62 7 25 0 29 19 10 50 -10 15 -9 24 2 45
19 35 0 57 -28 32 -17 -16 -20 -16 -32 -2 -14 17 -36 20 -45 5z"/>
</g>
</svg>
