<?xml version="1.0" encoding="UTF-8" standalone="no"?>
<svg
   xmlns:dc="http://purl.org/dc/elements/1.1/"
   xmlns:cc="http://creativecommons.org/ns#"
   xmlns:rdf="http://www.w3.org/1999/02/22-rdf-syntax-ns#"
   xmlns:svg="http://www.w3.org/2000/svg"
   xmlns="http://www.w3.org/2000/svg"
   xmlns:sodipodi="http://sodipodi.sourceforge.net/DTD/sodipodi-0.dtd"
   xmlns:inkscape="http://www.inkscape.org/namespaces/inkscape"
   id="appointment"
   viewBox="0 0 16 16"
   preserveAspectRatio="xMinYMin"
   width="100%"
   height="100%">
  <defs
     id="defs17" />
  <sodipodi:namedview
     pagecolor="#ffffff"
     bordercolor="#666666"
     borderopacity="1"
     objecttolerance="10"
     gridtolerance="10"
     guidetolerance="10"
     inkscape:pageopacity="0"
     inkscape:pageshadow="2"
     inkscape:window-width="1429"
     inkscape:window-height="785"
     id="namedview15"
     showgrid="false"
     showguides="false"
     inkscape:zoom="3.2680474"
     inkscape:cx="-85.768672"
     inkscape:cy="19.583554"
     inkscape:window-x="3"
     inkscape:window-y="5"
     inkscape:window-maximized="0"
     inkscape:current-layer="appointment" />
  <g
     id="g3"
     transform="matrix(0.02868849,0,0,0.02868849,0.65574656,-6.00175e-7)"
     fill="currentColor">
    <path
       d="m 501.812,184.411 -491.635,0 C 4.557,184.411 0,188.952 0,194.568 l 0,352.99 c 0,5.604 4.557,10.157 10.177,10.157 l 491.635,0 c 5.651,0 10.188,-4.553 10.188,-10.157 l 0,-352.99 c 0,-5.616 -4.537,-10.157 -10.188,-10.157 z M 170.579,483.304 c -16.967,0 -35.711,-3.422 -50.182,-9.137 -2.178,-0.863 -3.512,-3.093 -3.183,-5.416 l 4.745,-34.521 c 0.192,-1.522 1.091,-2.873 2.41,-3.658 1.365,-0.801 2.99,-0.941 4.403,-0.393 15.906,5.997 29.282,8.462 46.17,8.462 17.7,0 30.027,-8.367 30.027,-20.33 0,-14.835 -7.158,-22.778 -46.311,-25.008 -2.692,-0.157 -4.784,-2.386 -4.784,-5.07 l 0,-34.51 c 0,-2.669 2.048,-4.891 4.701,-5.087 33.721,-2.378 37.618,-12.747 37.618,-20.33 0,-5.142 0,-13.736 -22.826,-13.736 -12.209,0 -25.177,3.328 -38.517,9.852 -1.479,0.698 -3.202,0.667 -4.615,-0.071 -1.456,-0.77 -2.438,-2.189 -2.653,-3.799 l -4.726,-34.49 c -0.321,-2.214 0.875,-4.364 2.885,-5.322 15.538,-7.182 35.142,-10.824 58.306,-10.824 41.291,0 69.039,19.177 69.039,47.717 0,21.413 -11.067,37.159 -33.776,47.865 19.49,7.52 39.408,21.166 39.408,50.021 0.002,41.16 -34.574,67.785 -88.139,67.785 z m 214.751,-8.226 c 0,2.794 -2.284,5.07 -5.086,5.07 l -42.018,0 c -2.818,0 -5.087,-2.276 -5.087,-5.07 l 0,-138.436 -27.606,10.534 c -1.483,0.55 -3.084,0.416 -4.403,-0.393 -1.342,-0.77 -2.245,-2.135 -2.434,-3.665 l -4.709,-34.515 c -0.299,-2.166 0.824,-4.277 2.786,-5.235 l 60.229,-29.788 c 0.706,-0.338 1.476,-0.519 2.261,-0.519 l 20.989,0 c 2.81,0 5.086,2.276 5.086,5.087 l 0,196.93 -0.008,0 z"
       id="path5"
       inkscape:connector-curvature="0" />
    <g
       id="g7">
      <path
         d="m 501.812,34.021 -52.387,0 0,24.525 c 0,26.001 -14.836,53.772 -56.512,53.772 -41.673,0 -56.516,-27.771 -56.516,-53.772 l 0,-24.525 -160.135,0 0,24.525 c 0,26.001 -14.831,53.772 -56.508,53.772 -41.684,0 -56.551,-27.771 -56.551,-53.772 l 0,-24.525 -53.026,0 C 4.557,34.021 0,38.565 0,44.182 l 0,103.356 c 0,5.628 4.557,10.177 10.177,10.177 l 491.635,0 c 5.651,0 10.188,-4.549 10.188,-10.177 l 0,-103.356 c 0,-5.617 -4.537,-10.161 -10.188,-10.161 z"
         id="path9"
         inkscape:connector-curvature="0" />
      <path
         d="m 119.754,90.932 c 16.841,0 23.682,-6.068 23.682,-20.946 l 0,-24.518 0,-24.514 C 143.436,6.06 136.595,0 119.754,0 102.87,0 96.029,6.067 96.029,20.954 l 0,24.514 0,24.525 c 0,14.878 6.841,20.939 23.725,20.939 z"
         id="path11"
         inkscape:connector-curvature="0" />
      <path
         d="m 392.905,90.932 c 16.833,0 23.678,-6.068 23.678,-20.946 l 0,-24.518 0,-24.514 C 416.583,6.06 409.738,0 392.905,0 376.013,0 369.223,6.067 369.223,20.954 l 0,24.514 0,24.525 c -0.007,14.878 6.791,20.939 23.682,20.939 z"
         id="path13"
         inkscape:connector-curvature="0" />
    </g>
  </g>
</svg>
