<?xml version="1.0" encoding="UTF-8" standalone="no"?>
<svg
   xmlns:dc="http://purl.org/dc/elements/1.1/"
   xmlns:cc="http://creativecommons.org/ns#"
   xmlns:rdf="http://www.w3.org/1999/02/22-rdf-syntax-ns#"
   xmlns:svg="http://www.w3.org/2000/svg"
   xmlns="http://www.w3.org/2000/svg"
   xmlns:sodipodi="http://sodipodi.sourceforge.net/DTD/sodipodi-0.dtd"
   xmlns:inkscape="http://www.inkscape.org/namespaces/inkscape"
   id="audio"
   width="100%"
   height="100%"
   viewBox="0 0 16 16">
  <defs
     id="defs7" />
  <sodipodi:namedview
     pagecolor="#ffffff"
     bordercolor="#666666"
     borderopacity="1"
     objecttolerance="10"
     gridtolerance="10"
     guidetolerance="10"
     inkscape:pageopacity="0"
     inkscape:pageshadow="2"
     inkscape:window-width="1357"
     inkscape:window-height="708"
     id="namedview5"
     showgrid="false"
     inkscape:zoom="11.9198"
     inkscape:cx="19.90078"
     inkscape:cy="14.685156"
     inkscape:window-x="0"
     inkscape:window-y="0"
     inkscape:window-maximized="0"
     inkscape:current-layer="audio" />
  <path
     d="m 7.3846149,2.76921 0,10.46154 q 0,0.25 -0.182692,0.43269 -0.182692,0.1827 -0.432692,0.1827 -0.25,0 -0.432693,-0.1827 l -3.201923,-3.20192 -2.51923002,0 q -0.25,0 -0.432693,-0.18269 Q -1.15e-7,10.09614 -1.15e-7,9.84614 l 0,-3.69231 q 0,-0.25 0.182691995,-0.43269 0.182693,-0.1827 0.432693,-0.1827 l 2.51923002,0 3.201923,-3.2019199 q 0.182693,-0.18269 0.432693,-0.18269 0.25,0 0.432692,0.18269 0.182692,0.18269 0.182692,0.43269 z m 3.6923081,5.23077 q 0,0.73077 -0.408654,1.3605799 -0.408654,0.62981 -1.0817311,0.8990401 -0.09615,0.0481 -0.240384,0.0481 -0.25,0 -0.432692,-0.17788 -0.182693,-0.1778901 -0.182693,-0.4375001 0,-0.20192 0.115385,-0.34135 0.115384,-0.1394199 0.278846,-0.2403799 0.163462,-0.10096 0.326923,-0.22116 0.163462,-0.12019 0.278846,-0.34134 0.115385,-0.22116 0.115385,-0.54808 0,-0.32692 -0.115385,-0.54808 Q 9.6153849,7.23078 9.4519229,7.11059 9.2884619,6.9904 9.1249999,6.88943 8.9615379,6.78847 8.8461539,6.64905 8.7307689,6.50963 8.7307689,6.3077 q 0,-0.25961 0.182693,-0.4375 0.182692,-0.17788 0.432692,-0.17788 0.144231,0 0.240384,0.0481 0.6730771,0.25961 1.0817311,0.89423 0.408654,0.63461 0.408654,1.36538 z m 2.461539,0 q 0,1.47116 -0.817308,2.71635 -0.817308,1.24519 -2.163462,1.8125 -0.125,0.0481 -0.240384,0.0481 -0.259616,0 -0.4423081,-0.18269 -0.182692,-0.18269 -0.182692,-0.43269 0,-0.375 0.3750001,-0.56731 0.538461,-0.27884 0.730769,-0.42307 0.711538,-0.51924 1.110577,-1.30289 0.399038,-0.7836499 0.399038,-1.6682699 0,-0.8846101 -0.399038,-1.66827 -0.399039,-0.78365 -1.110577,-1.30288 -0.192308,-0.1442301 -0.730769,-0.42308 -0.3750001,-0.19231 -0.3750001,-0.56731 0,-0.25 0.182692,-0.43269 0.1826921,-0.18269 0.4326921,-0.18269 0.125,0 0.25,0.0481 1.346154,0.5673 2.163462,1.8125 0.817308,1.24519 0.817308,2.71634 z m 2.461538,0 q 0,2.21154 -1.221154,4.0625 -1.221154,1.85096 -3.25,2.72596 -0.125,0.0481 -0.25,0.0481 -0.25,0 -0.432692,-0.18269 -0.182692,-0.18269 -0.182692,-0.43269 0,-0.34616 0.375,-0.56731 0.06731,-0.0385 0.216346,-0.10096 0.149038,-0.0625 0.216346,-0.10097 0.442308,-0.24038 0.788461,-0.49038 1.182693,-0.875 1.846154,-2.18269 0.663462,-1.30769 0.663462,-2.7788499 0,-1.47115 -0.663462,-2.7788401 -0.663461,-1.3077 -1.846154,-2.1827 -0.346153,-0.25 -0.788461,-0.49038 -0.06731,-0.0385 -0.216346,-0.10096 -0.149039,-0.0625 -0.216346,-0.10096 -0.375,-0.22116 -0.375,-0.56731 0,-0.25 0.182692,-0.43269 0.182692,-0.1827 0.432692,-0.1827 0.125,0 0.25,0.0481 2.028846,0.875 3.25,2.7259601 Q 16,5.78844 16,7.99998 Z"
     id="path3"
     inkscape:connector-curvature="0"
     fill="currentColor" />
</svg>
