<?xml version="1.0" encoding="iso-8859-1"?>
<!DOCTYPE svg PUBLIC "-//W3C//DTD SVG 1.1//EN" "http://www.w3.org/Graphics/SVG/1.1/DTD/svg11.dtd">
<svg version="1.1" id="chronic" xmlns="http://www.w3.org/2000/svg" xmlns:xlink="http://www.w3.org/1999/xlink" x="0px" y="0px"
	 width="100%" height="100%" viewBox="0 0 612 612" style="enable-background:new 0 0 612 612;" xml:space="preserve">
<g fill="currentColor">
	<g>
		<path d="M140.734,433.628H81.651C128.112,524.382,222.539,586.5,331.5,586.5C486.412,586.5,612,460.912,612,306
			c0-154.913-125.588-280.5-280.5-280.5C194.004,25.5,79.611,124.44,55.616,255H0l76.5,102L153,255h-45.313
			C130.892,152.796,222.284,76.5,331.5,76.5C458.261,76.5,561,179.239,561,306S458.261,535.5,331.5,535.5
			C251.991,535.5,181.917,495.057,140.734,433.628z"/>
		<polygon points="318.75,128.316 318.75,314.925 451.631,393.235 464.585,371.28 344.25,299.727 344.25,128.316 		"/>
	</g>
</g>
</svg>
