<?xml version="1.0" encoding="UTF-8" standalone="no"?>
<svg
   xmlns:dc="http://purl.org/dc/elements/1.1/"
   xmlns:cc="http://creativecommons.org/ns#"
   xmlns:rdf="http://www.w3.org/1999/02/22-rdf-syntax-ns#"
   xmlns:svg="http://www.w3.org/2000/svg"
   xmlns="http://www.w3.org/2000/svg"
   xmlns:sodipodi="http://sodipodi.sourceforge.net/DTD/sodipodi-0.dtd"
   xmlns:inkscape="http://www.inkscape.org/namespaces/inkscape"
   id="explorer"
   width="100%"
   height="100%"
   viewBox="0 0 16 16"
   xml:space="preserve">
   <defs
     id="defs11" /><sodipodi:namedview
     pagecolor="#ffffff"
     bordercolor="#666666"
     borderopacity="1"
     objecttolerance="10"
     gridtolerance="10"
     guidetolerance="10"
     inkscape:pageopacity="0"
     inkscape:pageshadow="2"
     inkscape:window-width="1286"
     inkscape:window-height="665"
     id="namedview9"
     showgrid="false"
     inkscape:zoom="3.7019608"
     inkscape:cx="64.873616"
     inkscape:cy="33.972872"
     inkscape:window-x="0"
     inkscape:window-y="69"
     inkscape:window-maximized="0"
     inkscape:current-layer="explorer" /><g
     id="g3"
     fill="currentColor"
     transform="translate(0,-494)"><g
       id="g5" /></g><path
     d="m 0.7111108,0.35555565 c -0.393955,0 -0.711111,0.317156 -0.711111,0.71111105 l 0,1.066667 c 0,0.393955 0.317156,0.711111 0.711111,0.711111 l 14.5777782,0 C 15.682844,2.8444447 16,2.5272887 16,2.1333337 l 0,-1.066667 C 16,0.67271165 15.682844,0.35555565 15.288889,0.35555565 Z m -0.09924,4.26666675 c -0.338985,0 -0.611871,0.272885 -0.611871,0.611875 l 0,1.265139 c 0,0.3389889 0.272886,0.6118749 0.611875,0.6118749 l 14.7762502,0 C 15.727114,7.1111114 16,6.8382254 16,6.4992364 l 0,-1.265139 c 0,-0.33899 -0.272886,-0.611875 -0.611875,-0.611875 z m 0.02097,4.266666 c -0.350573,0 -0.632841,0.282269 -0.632841,0.632848 l 0,1.2231936 c 0,0.350579 0.282268,0.632847 0.632847,0.632847 l 14.7343062,0 C 15.717732,11.377777 16,11.095509 16,10.74493 l 0,-1.2231936 c 0,-0.350579 -0.282268,-0.632848 -0.632847,-0.632848 z m -0.08847,4.2666666 c -0.301597,0 -0.544371,0.242774 -0.544371,0.544375 l 0,1.400139 c 0,0.301601 0.242774,0.544375 0.544375,0.544375 l 14.9112502,0 C 15.757226,15.644444 16,15.40167 16,15.100069 l 0,-1.400139 c 0,-0.301601 -0.242774,-0.544375 -0.544375,-0.544375 z"
     id="rect4141"
     inkscape:connector-curvature="0"
     fill="currentColor"
     sodipodi:nodetypes="ssssssssssssssssssssssssssssssssssss" /></svg>
