<?xml version="1.0" encoding="UTF-8" standalone="no"?>

<svg xmlns="http://www.w3.org/2000/svg" id="folder" width="100%" height="100%" viewBox="0 0 50 50">
    <path fill="currentColor" d="M 3 4 C 1.346 4 0 5.346 0 7 L 0 33.09375 C 1.464 25.29875 3.1045 16.552 3.1875 16.125 C 3.6955 13.535 5.6495 12 8.4375 12 L 47 12 L 47 11 C 47 9.346 45.654 8 44 8 L 18.03125 8 C 17.75225 7.899 17.185 6.994 16.875 6.5 C 16.106 5.275 15.317 4 14 4 L 3 4 z M 8.4375 14 C 7.1575 14 5.56425 14.44825 5.15625 16.53125 C 5.02925 17.17825 1.132 37.9105 0 43.9375 L 0 44 C 0 45.654 1.346 47 3 47 L 42 47 C 43.62 47 44.947 45.70175 45 44.09375 L 49.96875 17.1875 L 50 17 C 50 15.346 48.654 14 47 14 L 8.4375 14 z"></path>
</svg>
