<?xml version="1.0" encoding="UTF-8" standalone="no"?>
<svg
   xmlns:dc="http://purl.org/dc/elements/1.1/"
   xmlns:cc="http://creativecommons.org/ns#"
   xmlns:rdf="http://www.w3.org/1999/02/22-rdf-syntax-ns#"
   xmlns:svg="http://www.w3.org/2000/svg"
   xmlns="http://www.w3.org/2000/svg"
   xmlns:sodipodi="http://sodipodi.sourceforge.net/DTD/sodipodi-0.dtd"
   xmlns:inkscape="http://www.inkscape.org/namespaces/inkscape"
   height="100%"
   width="100%"
   id="forum"
   viewBox="0 0 16 16">
  <defs
     id="defs7" />
  <sodipodi:namedview
     pagecolor="#ffffff"
     bordercolor="#666666"
     borderopacity="1"
     objecttolerance="10"
     gridtolerance="10"
     guidetolerance="10"
     inkscape:pageopacity="0"
     inkscape:pageshadow="2"
     inkscape:window-width="1426"
     inkscape:window-height="770"
     id="namedview5"
     showgrid="false"
     inkscape:zoom="3.1412179"
     inkscape:cx="114.0451"
     inkscape:cy="-19.937305"
     inkscape:window-x="0"
     inkscape:window-y="0"
     inkscape:window-maximized="0"
     inkscape:current-layer="forum" />
  <path
     d="m 4.5714286,7.4285702 c 0,-1.14286 0,-3.42857 0,-3.42857 0,0 -2.8571429,0 -3.4285715,0 -0.5714286,0 -1.142857169999998,0.57143 -1.142857169999998,1.14286 0,0.57142 0,5.1428498 0,5.7142798 C -6.9999998e-8,11.42857 0.5714285,12 1.1428571,12 c 0.5714286,0 1.1428572,0 1.1428572,0 l 0,3.42857 L 5.75,12 c 0,0 2.8928571,0 3.4285714,0 0.5357147,0 1.1071426,-0.57143 1.1071426,-1.14286 0,-0.57143 0,-1.1428602 0,-1.1428602 0,0 -2.285714,0 -3.4285711,0 -1.1428572,0 -2.2857143,-1.1428496 -2.2857143,-2.2857096 z M 14.857143,0.57143022 c -0.571429,0 -7.4285716,0 -8.0000001,0 -0.5714286,0 -1.1428572,0.57142998 -1.1428572,1.14284998 0,0.57143 0,5.14286 0,5.71429 0,0.57143 0.5714286,1.14286 1.1428572,1.14286 0.5714285,0 3.3928571,0 3.3928571,0 L 13.714286,12 l 0,-3.4285698 c 0,0 0.571428,0 1.142857,0 0.571428,0 1.142857,-0.57143 1.142857,-1.14286 0,-0.57143 0,-5.14286 0,-5.71429 0,-0.57142 -0.571429,-1.14284998 -1.142857,-1.14284998 z"
     id="path3"
     inkscape:connector-curvature="0"
     fill="currentColor" />
</svg>
