<?xml version="1.0" encoding="UTF-8" standalone="no"?>
<svg
   xmlns:dc="http://purl.org/dc/elements/1.1/"
   xmlns:cc="http://creativecommons.org/ns#"
   xmlns:rdf="http://www.w3.org/1999/02/22-rdf-syntax-ns#"
   xmlns:svg="http://www.w3.org/2000/svg"
   xmlns="http://www.w3.org/2000/svg"
   xmlns:sodipodi="http://sodipodi.sourceforge.net/DTD/sodipodi-0.dtd"
   xmlns:inkscape="http://www.inkscape.org/namespaces/inkscape"
   id="forumthread"
   width="100%"
   height="100%"
   viewBox="0 0 16 16"
   xml:space="preserve">
   <defs
     id="defs9" /><sodipodi:namedview
     pagecolor="#ffffff"
     bordercolor="#666666"
     borderopacity="1"
     objecttolerance="10"
     gridtolerance="10"
     guidetolerance="10"
     inkscape:pageopacity="0"
     inkscape:pageshadow="2"
     inkscape:window-width="1375"
     inkscape:window-height="730"
     id="namedview7"
     showgrid="false"
     inkscape:zoom="3.5934711"
     inkscape:cx="37.716928"
     inkscape:cy="-48.001273"
     inkscape:window-x="0"
     inkscape:window-y="46"
     inkscape:window-maximized="0"
     inkscape:current-layer="g3" /><g
     id="g3"
     fill="currentColor"
     transform="translate(0,-355.51199)"><path
       d="m 0.5423601,359.44418 c -0.300474,0 -0.542361,0.24188 -0.542361,0.54236 l 0,7.0509 c 0,0.30048 0.241887,0.54236 0.542361,0.54236 l 7.0508328,0 c 0.300475,0 0.542362,-0.24188 0.542362,-0.54236 l 0,-7.0509 c 0,-0.30048 -0.241887,-0.54236 -0.542362,-0.54236 l -7.0508328,0 z m 9.2609028,0 c -0.172723,0 -0.311736,0.13908 -0.311736,0.3118 l 0,1.00354 c 0,0.17273 0.139013,0.31181 0.311736,0.31181 l 5.8849301,0 c 0.172723,0 0.311806,-0.13908 0.311806,-0.31181 l 0,-1.00354 c 0,-0.17272 -0.139083,-0.3118 -0.311806,-0.3118 l -5.8849301,0 z m -0.09632,3.25423 c -0.11936,0 -0.215416,0.0961 -0.215416,0.21549 l 0,1.19618 c 0,0.11936 0.09606,0.21549 0.215416,0.21549 l 6.0775701,0 c 0.11936,0 0.215486,-0.0961 0.215486,-0.21549 l 0,-1.19618 c 0,-0.11936 -0.09613,-0.21549 -0.215486,-0.21549 l -6.0775701,0 z m -0.0434,3.25424 c -0.09531,0 -0.172014,0.0768 -0.172014,0.17208 l 0,1.28299 c 0,0.0953 0.0767,0.17208 0.172014,0.17208 l 6.1643741,0 c 0.09532,0 0.172084,-0.0768 0.172084,-0.17208 l 0,-1.28299 c 0,-0.0953 -0.07677,-0.17208 -0.172084,-0.17208 l -6.1643741,0 z"
       id="rect3342"
       inkscape:connector-curvature="0" /></g></svg>
