<?xml version="1.0" encoding="UTF-8" standalone="no"?>
<svg
   xmlns:dc="http://purl.org/dc/elements/1.1/"
   xmlns:cc="http://creativecommons.org/ns#"
   xmlns:rdf="http://www.w3.org/1999/02/22-rdf-syntax-ns#"
   xmlns:svg="http://www.w3.org/2000/svg"
   xmlns="http://www.w3.org/2000/svg"
   xmlns:sodipodi="http://sodipodi.sourceforge.net/DTD/sodipodi-0.dtd"
   xmlns:inkscape="http://www.inkscape.org/namespaces/inkscape"
   width="100%"
   height="100%"
   viewBox="0 0 16 16"
   id="gallery">
  <defs
     id="defs13" />
  <sodipodi:namedview
     pagecolor="#ffffff"
     bordercolor="#666666"
     borderopacity="1"
     objecttolerance="10"
     gridtolerance="10"
     guidetolerance="10"
     inkscape:pageopacity="0"
     inkscape:pageshadow="2"
     inkscape:window-width="1441"
     inkscape:window-height="793"
     id="namedview11"
     showgrid="false"
     inkscape:zoom="5.2149125"
     inkscape:cx="-47.771233"
     inkscape:cy="-3.248759"
     inkscape:window-x="-2"
     inkscape:window-y="0"
     inkscape:window-maximized="0"
     inkscape:current-layer="gallery" />
  <path
     fill="currentColor"
     d="m 0.88888905,0.8888889 c -0.4888889,0 -0.8888889,0.4 -0.8888889,0.8888889 l 0,10.6666662 c 0,0.488889 0.4,0.888889 0.8888889,0.888889 l 0.88888895,0 0,0.888889 c 0,0.488889 0.4,0.888889 0.8888889,0.888889 l 12.4444441,0 C 15.6,15.111111 16,14.711111 16,14.222222 L 16,3.5555555 C 16,3.0666667 15.6,2.6666667 15.111111,2.6666667 l -0.888889,0 0,-0.8888889 c 0,-0.4888889 -0.4,-0.8888889 -0.888889,-0.8888889 l -12.44444395,0 z m 0.00157,0.8888889 12.44124395,0 c 5.55e-4,4.722e-4 0.0012,0.00107 0.0016,0.00163 l 0,0.8872614 -10.6666665,0 c -0.4888889,0 -0.8888889,0.4 -0.8888889,0.8888888 l 0,8.888889 -0.88731555,0 c -5.556e-4,-4.72e-4 -0.00113,-0.0011 -0.00157,-0.0016 l 0,-10.6634664 c 4.722e-4,-5.556e-4 0.00105,-0.00113 0.00157,-0.00157 z m 1.77777815,1.7777777 12.4412438,0 c 5.55e-4,4.723e-4 0.0012,0.00107 0.0016,0.00163 l 0,10.6634125 c -4.72e-4,5.55e-4 -0.0011,0.0012 -0.0016,0.0016 l -12.4412438,0 c -5.555e-4,-4.72e-4 -0.00113,-0.0011 -0.00157,-0.0016 l 0,-10.6634666 c 4.722e-4,-5.556e-4 0.00105,-0.00113 0.00157,-0.00157 z m 9.3317598,0.8888889 c -0.736389,0 -1.333333,0.5969445 -1.333333,1.3333334 0,0.7363889 0.596944,1.3333333 1.333333,1.3333333 0.736389,0 1.333333,-0.5969444 1.333333,-1.3333333 0,-0.7363889 -0.596944,-1.3333334 -1.333333,-1.3333334 z m -5.3333331,1.7777778 -3.1111111,5.3333328 0,1.777778 10.6666662,0 0,-5.3333329 -3.111111,2.6666669 -0.888889,0 -3.5555552,-4.4444448 z"
     id="path5"
     inkscape:connector-curvature="0" />
</svg>
