<?xml version="1.0" encoding="UTF-8" standalone="no"?>
<svg
   xmlns:dc="http://purl.org/dc/elements/1.1/"
   xmlns:cc="http://creativecommons.org/ns#"
   xmlns:rdf="http://www.w3.org/1999/02/22-rdf-syntax-ns#"
   xmlns:svg="http://www.w3.org/2000/svg"
   xmlns="http://www.w3.org/2000/svg"
   xmlns:sodipodi="http://sodipodi.sourceforge.net/DTD/sodipodi-0.dtd"
   xmlns:inkscape="http://www.inkscape.org/namespaces/inkscape"
   version="1.1"
   id="generic"
   x="0px"
   y="0px"
   width="100%"
   height="100%"
   viewBox="0 0 534.479 534.479"
   style="enable-background:new 0 0 534.479 534.479;"
   xml:space="preserve"
   inkscape:version="0.91 r13725"
   sodipodi:docname="generic.svg"><metadata
     id="metadata24"><rdf:RDF><cc:Work
         rdf:about=""><dc:format>image/svg+xml</dc:format><dc:type
           rdf:resource="http://purl.org/dc/dcmitype/StillImage" /></cc:Work></rdf:RDF></metadata><defs
     id="defs43" /><sodipodi:namedview
     pagecolor="#ffffff"
     bordercolor="#666666"
     borderopacity="1"
     objecttolerance="10"
     gridtolerance="10"
     guidetolerance="10"
     inkscape:pageopacity="0"
     inkscape:pageshadow="2"
     inkscape:window-width="1440"
     inkscape:window-height="794"
     id="namedview41"
     showgrid="false"
     inkscape:zoom="1.2488962"
     inkscape:cx="279.33299"
     inkscape:cy="235.21122"
     inkscape:window-x="0"
     inkscape:window-y="1"
     inkscape:window-maximized="0"
     inkscape:current-layer="g3" /><g
     id="g3"
     fill="currentColor"
     transform="matrix(-1,0,0,1,534.479,0)"><g
       id="g5"><path
         d="m 77.519531,0 0,534.47852 379.439449,0 0,-409.5293 -137.18945,0 0,-124.94922 z m 179.205779,311.44167 3.07705,13.58845 81.08045,69.0734 c 5.79834,13.83463 11.03744,22.83903 15.7168,27.00976 4.78109,4.06901 26.11356,53.91618 34.55676,54.42481 L 376.43555,433.625 324.24242,307.93184 294.80078,427.97852 c 8.23975,-0.40691 13.78451,-1.77946 16.63281,-4.11914 2.95004,-2.33969 108.60194,-32.36489 108.60194,-35.72183 0,-4.47591 -117.53632,-35.32681 -121.60533,-44.99071 l -49.87995,-22.95969 -31.41744,44.16246 -14.03711,32.6543 c -3.45866,8.03629 -5.1875,14.03857 -5.1875,18.00586 0,3.15348 1.4738,5.94921 4.42383,8.39062 3.05176,2.33968 9.56218,3.86605 19.53125,4.57813 l 26.04453,-104.19348 -36.84503,116.63418 13.50595,-42.24733 c 8.64665,-1.52588 -11.18025,1.87529 -8.63712,-0.56612 5.18799,-4.88281 8.13073,15.28313 14.4377,0.32952 z m 1.14969,-42.00222 -36.01172,83.61914 123.19453,7.9266 z"
         transform="matrix(-1,0,0,1,534.479,0)"
         id="path7"
         inkscape:connector-curvature="0"
         sodipodi:nodetypes="ccccccccccccccccsccccscccccccccccc" /><polygon
         points="199.409,6.928 85.968,109.649 199.409,109.649 "
         id="polygon9" /></g></g><g
     id="g11" /><g
     id="g13" /><g
     id="g15" /><g
     id="g17" /><g
     id="g19" /><g
     id="g21" /><g
     id="g23" /><g
     id="g25" /><g
     id="g27" /><g
     id="g29" /><g
     id="g31" /><g
     id="g33" /><g
     id="g35" /><g
     id="g37" /><g
     id="g39" /></svg>