<?xml version="1.0" encoding="UTF-8" standalone="no"?>
<svg
   xmlns:dc="http://purl.org/dc/elements/1.1/"
   xmlns:cc="http://creativecommons.org/ns#"
   xmlns:rdf="http://www.w3.org/1999/02/22-rdf-syntax-ns#"
   xmlns:svg="http://www.w3.org/2000/svg"
   xmlns="http://www.w3.org/2000/svg"
   xmlns:sodipodi="http://sodipodi.sourceforge.net/DTD/sodipodi-0.dtd"
   xmlns:inkscape="http://www.inkscape.org/namespaces/inkscape"
   width="100%"
   height="100%"
   viewBox="0 0 16 16"
   id="image">
  <defs
     id="defs13" />
  <sodipodi:namedview
     pagecolor="#ffffff"
     bordercolor="#666666"
     borderopacity="1"
     objecttolerance="10"
     gridtolerance="10"
     guidetolerance="10"
     inkscape:pageopacity="0"
     inkscape:pageshadow="2"
     inkscape:window-width="1441"
     inkscape:window-height="792"
     id="namedview11"
     showgrid="false"
     inkscape:zoom="3.6875"
     inkscape:cx="-64.81356"
     inkscape:cy="67.738699"
     inkscape:window-x="1"
     inkscape:window-y="4"
     inkscape:window-maximized="0"
     inkscape:current-layer="image" />
  <path
     fill="currentColor"
     d="m 13.000034,0.9996223 0,9.15e-4 -11.9998622,0 c -0.549994,0 -0.999989,0.449995 -0.999989,0.999989 l 0,9.9998857 -1.83e-4,0 0,0.999989 1.83e-4,0 0,0.999988 c 0,0.549994 0.449995,0.999989 0.999989,0.999989 l 13.9998392,0 C 15.550005,15.000378 16,14.550383 16,14.000389 L 16,2.0005263 c 0,-0.549994 -0.449995,-0.999989 -0.999989,-0.999989 l -0.999988,0 0,-9.15e-4 -0.999989,0 z m -11.9980922,1.000904 13.9962392,0 c 6.25e-4,5.31e-4 0.0013,0.0012 0.0018,0.0018 l 0,11.9962007 c -5.31e-4,6.25e-4 -0.0012,0.0013 -0.0018,0.0018 l -13.9962392,0 c -6.25e-4,-5.31e-4 -0.0013,-0.0012 -0.0018,-0.0018 l 0,-11.9962617 c 5.31e-4,-6.25e-4 0.0012,-0.0013 0.0018,-0.0018 z m 10.4981102,0.999988 c -0.828429,0 -1.499983,0.671555 -1.499983,1.499983 0,0.8284284 0.671554,1.4999834 1.499983,1.4999834 0.828428,0 1.499982,-0.671555 1.499982,-1.4999834 0,-0.828428 -0.671554,-1.499983 -1.499982,-1.499983 z m -5.9999322,1.9999774 -3.49996,5.9999323 0,1.999977 11.9998632,0 0,-5.9999313 -3.49996,2.9999653 -0.9999888,0 -3.9999544,-4.9999433 z"
     id="path5"
     inkscape:connector-curvature="0" />
</svg>
