<?xml version="1.0" encoding="UTF-8" standalone="no"?>
<svg
   xmlns:dc="http://purl.org/dc/elements/1.1/"
   xmlns:cc="http://creativecommons.org/ns#"
   xmlns:rdf="http://www.w3.org/1999/02/22-rdf-syntax-ns#"
   xmlns:svg="http://www.w3.org/2000/svg"
   xmlns="http://www.w3.org/2000/svg"
   xmlns:sodipodi="http://sodipodi.sourceforge.net/DTD/sodipodi-0.dtd"
   xmlns:inkscape="http://www.inkscape.org/namespaces/inkscape"
   id="messages"
   width="100%"
   height="100%"
   viewBox="0 0 16 16"
   xml:space="preserve">
   <defs
     id="defs9" /><sodipodi:namedview
     pagecolor="#ffffff"
     bordercolor="#666666"
     borderopacity="1"
     objecttolerance="10"
     gridtolerance="10"
     guidetolerance="10"
     inkscape:pageopacity="0"
     inkscape:pageshadow="2"
     inkscape:window-width="1375"
     inkscape:window-height="730"
     id="namedview7"
     showgrid="false"
     inkscape:zoom="3.5934711"
     inkscape:cx="-74.582186"
     inkscape:cy="-59.132573"
     inkscape:window-x="0"
     inkscape:window-y="23"
     inkscape:window-maximized="0"
     inkscape:current-layer="g3" /><g
     id="g3"
     fill="currentColor"
     transform="translate(0,-355.51199)"><path
       d="m 2.2189778,357.31366 0,2.05214 -2.218978,0 0,7.69134 c 0,0.93431 0.194469,1.61288 0.583942,2.03545 0.389205,0.42258 0.95099,0.62826 1.685088,0.61731 l 11.9791452,0 c 0.467153,-0.0224 0.873043,-0.21142 1.217936,-0.56725 0.344625,-0.35584 0.522677,-0.78415 0.533889,-1.28468 l 0,-10.54431 -13.7810222,0 z m 1.117831,1.13451 11.5286762,0 0,9.4098 c 0,0.1559 -0.05579,0.31153 -0.166841,0.46716 -0.111316,0.15589 -0.261472,0.23931 -0.450469,0.25026 l -11.2283632,0 c 0.211154,-0.35584 0.316997,-0.86183 0.316997,-1.51825 l 0,-8.60897 z m 1.1224584,1.2517 c -0.159684,0 -0.288256,0.12857 -0.288256,0.28825 l 0,0.75822 c 0,0.15968 0.128572,0.28825 0.288256,0.28825 l 9.4339158,0 c 0.159684,0 0.288256,-0.12857 0.288256,-0.28825 l 0,-0.75822 c 0,-0.15968 -0.128572,-0.28825 -0.288256,-0.28825 l -9.4339158,0 z m -3.3247524,0.78376 1.084463,0 0,6.57351 c 0,0.47837 -0.05005,0.8342 -0.150156,1.06778 -0.100105,0.23358 -0.233577,0.35036 -0.400417,0.35036 -0.166841,0 -0.297711,-0.11678 -0.392075,-0.35036 -0.09463,-0.23358 -0.141815,-0.58941 -0.141815,-1.06778 l 0,-6.57351 z m 3.3701774,1.88568 c -0.184859,0 -0.333681,0.14883 -0.333681,0.33369 l 0,4.33785 c 0,0.18486 0.148822,0.33368 0.333681,0.33368 l 4.337852,0 c 0.18486,0 0.333681,-0.14882 0.333681,-0.33368 l 0,-4.33785 c 0,-0.18486 -0.148821,-0.33369 -0.333681,-0.33369 l -4.337852,0 z m 5.6975368,0 c -0.106263,0 -0.191801,0.0855 -0.191801,0.19181 l 0,0.61744 c 0,0.10626 0.08554,0.1918 0.191801,0.1918 l 3.620568,0 c 0.106263,0 0.191802,-0.0855 0.191802,-0.1918 l 0,-0.61744 c 0,-0.10627 -0.08554,-0.19181 -0.191802,-0.19181 l -3.620568,0 z m -0.05924,2.00209 c -0.07343,0 -0.13256,0.0591 -0.13256,0.13256 l 0,0.73592 c 0,0.0734 0.05913,0.13256 0.13256,0.13256 l 3.73905,0 c 0.07343,0 0.132561,-0.0591 0.132561,-0.13256 l 0,-0.73592 c 0,-0.0734 -0.05913,-0.13256 -0.132561,-0.13256 l -3.73905,0 z m -0.02672,2.00209 c -0.05864,0 -0.105839,0.0472 -0.105839,0.10584 l 0,0.78936 c 0,0.0586 0.0472,0.10584 0.105839,0.10584 l 3.792492,0 c 0.05864,0 0.10584,-0.0472 0.10584,-0.10584 l 0,-0.78936 c 0,-0.0586 -0.0472,-0.10584 -0.10584,-0.10584 l -3.792492,0 z"
       id="path5"
       inkscape:connector-curvature="0" /></g></svg>
