<?xml version="1.0" encoding="UTF-8" standalone="no"?>

<svg
   xmlns:dc="http://purl.org/dc/elements/1.1/"
   xmlns:cc="http://creativecommons.org/ns#"
   xmlns:rdf="http://www.w3.org/1999/02/22-rdf-syntax-ns#"
   xmlns:svg="http://www.w3.org/2000/svg"
   xmlns="http://www.w3.org/2000/svg"
   xmlns:sodipodi="http://sodipodi.sourceforge.net/DTD/sodipodi-0.dtd"
   xmlns:inkscape="http://www.inkscape.org/namespaces/inkscape"
   version="1.1"
   id="messages"
   x="0px"
   y="0px"
   width="100%"
   height="100%"
   viewBox="11 99 479.5 371.512"
   enable-background="new 11 99 479.5 371.512"
   xml:space="preserve"
   inkscape:version="0.91 r13725"
   sodipodi:docname="newspaper.svg"><defs
     id="defs9" /><sodipodi:namedview
     pagecolor="#ffffff"
     bordercolor="#666666"
     borderopacity="1"
     objecttolerance="10"
     gridtolerance="10"
     guidetolerance="10"
     inkscape:pageopacity="0"
     inkscape:pageshadow="2"
     inkscape:window-width="1375"
     inkscape:window-height="730"
     id="namedview7"
     showgrid="false"
     inkscape:zoom="0.31762097"
     inkscape:cx="239.75"
     inkscape:cy="185.756"
     inkscape:window-x="0"
     inkscape:window-y="23"
     inkscape:window-maximized="0"
     inkscape:current-layer="g3" /><g fill="currentColor"
     id="g3"><path
       d="M 66.5 0 L 66.5 61.5 L 0 61.5 L 0 292 C 0 320 5.828 340.336 17.5 353 C 29.164 365.664 46 371.828 68 371.5 L 427 371.5 C 441 370.828 453.164 365.164 463.5 354.5 C 473.828 343.836 479.164 331 479.5 316 L 479.5 0 L 66.5 0 z M 100 34 L 445.5 34 L 445.5 316 C 445.5 320.672 443.828 325.336 440.5 330 C 437.164 334.672 432.664 337.172 427 337.5 L 90.5 337.5 C 96.828 326.836 100 311.672 100 292 L 100 34 z M 34 95 L 66.5 95 L 66.5 292 C 66.5 306.336 65 317 62 324 C 59 331 55 334.5 50 334.5 C 45 334.5 41.078 331 38.25 324 C 35.414 317 34 306.336 34 292 L 34 95 z "
       transform="translate(11,99)"
       id="path5" /><rect
       id="rect3342"
       width="150"
       height="150"
       x="136"
       y="250.51199"
       rx="10" /><rect
       id="rect3344"
       width="300"
       height="40"
       x="136"
       y="170.51199"
       rx="8.6381521" /><rect
       id="rect3346"
       width="120"
       height="30"
       x="311"
       y="250.51199"
       rx="5.7483225" /><rect
       id="rect3348"
       width="120"
       height="30"
       x="311"
       y="310.51199"
       rx="3.972389" /><rect
       id="rect3354"
       width="120"
       height="30"
       x="311"
       y="370.51199"
       rx="3.1721485" /></g></svg>
