<?xml version="1.0" encoding="utf-8"?>

<!DOCTYPE svg PUBLIC "-//W3C//DTD SVG 1.1//EN" "http://www.w3.org/Graphics/SVG/1.1/DTD/svg11.dtd">
<svg id="mokodesk" xmlns="http://www.w3.org/2000/svg" xmlns:xlink="http://www.w3.org/1999/xlink" x="0px" y="0px"
	 width="100%" height="100%" viewBox="0 0 512 512" style="enable-background:new 0 0 512 512;" xml:space="preserve">
<path fill="currentColor" d="M335.474,115l6.41,22.69H170.275l6.379-22.69H335.474z M157.979,181.42h196.258l-7.627-27H165.57
	L157.979,181.42z M130.17,181.42L156.163,90h199.776l26.115,91.42h41.385L385.553,50H126.571L88.595,181.42H130.17z M50.406,212.232
	L71.58,321.5h368.84l21.174-109.268H50.406z M287.469,274.625h-62.938c-7.247,0-13.125-5.876-13.125-13.125
	s5.878-13.125,13.125-13.125h62.938c7.247,0,13.124,5.876,13.124,13.125S294.716,274.625,287.469,274.625z M50.406,351.732
	L73.58,462h364.84l23.174-110.268H50.406z M287.469,414.125h-62.938c-7.247,0-13.125-5.875-13.125-13.125
	c0-7.248,5.878-13.125,13.125-13.125h62.938c7.247,0,13.124,5.877,13.124,13.125C300.593,408.25,294.716,414.125,287.469,414.125z"
	/>
</svg>
