<?xml version="1.0" encoding="utf-8"?>

<!DOCTYPE svg PUBLIC "-//W3C//DTD SVG 1.1//EN" "http://www.w3.org/Graphics/SVG/1.1/DTD/svg11.dtd">
<svg id="postbox" version="1.1" xmlns="http://www.w3.org/2000/svg" xmlns:xlink="http://www.w3.org/1999/xlink" x="0px" y="0px" viewBox="0 0 1000 1000" enable-background="new 0 0 1000 1000" xml:space="preserve" width="100%" height="100%">
<g fill="currentColor"><path d="M983.3,480.9l-245-306.3c-5.8-7.3-14.6-11.5-23.9-11.5H285.6c-9.3,0-18.1,4.2-23.9,11.5l-245,306.3c-4.3,5.5-6.7,12.2-6.7,19.1v275.6c0,33.8,27.4,61.3,61.3,61.3h857.5c33.8,0,61.3-27.4,61.3-61.3V500C990,493,987.6,486.3,983.3,480.9z M928.8,530.6H714.4L591.9,653.1H408.1L285.6,530.6H71.3v-19.9l229.1-286.3h399.3l229.1,286.3L928.8,530.6L928.8,530.6z"/><path d="M714.4,346.9H285.6c-16.9,0-30.6-13.7-30.6-30.6s13.7-30.6,30.6-30.6h428.8c16.9,0,30.6,13.7,30.6,30.6S731.3,346.9,714.4,346.9z"/><path d="M775.6,469.4H224.4c-16.9,0-30.6-13.7-30.6-30.6s13.7-30.6,30.6-30.6h551.3c16.9,0,30.6,13.7,30.6,30.6S792.5,469.4,775.6,469.4z"/></g>
</svg>
