<?xml version="1.0" encoding="UTF-8" standalone="no"?>
<svg
   xmlns:dc="http://purl.org/dc/elements/1.1/"
   xmlns:cc="http://creativecommons.org/ns#"
   xmlns:rdf="http://www.w3.org/1999/02/22-rdf-syntax-ns#"
   xmlns:svg="http://www.w3.org/2000/svg"
   xmlns="http://www.w3.org/2000/svg"
   xmlns:sodipodi="http://sodipodi.sourceforge.net/DTD/sodipodi-0.dtd"
   xmlns:inkscape="http://www.inkscape.org/namespaces/inkscape"
   id="postbox"
   viewBox="0 0 16 16"
   xml:space="preserve"
   width="100%"
   height="100%">
   <defs
     id="defs13" /><sodipodi:namedview
     pagecolor="#ffffff"
     bordercolor="#666666"
     borderopacity="1"
     objecttolerance="10"
     gridtolerance="10"
     guidetolerance="10"
     inkscape:pageopacity="0"
     inkscape:pageshadow="2"
     inkscape:window-width="1430"
     inkscape:window-height="786"
     id="namedview11"
     showgrid="false"
     inkscape:zoom="1.3350176"
     inkscape:cx="-269.0678"
     inkscape:cy="140.45418"
     inkscape:window-x="0"
     inkscape:window-y="0"
     inkscape:window-maximized="0"
     inkscape:current-layer="postbox" /><g
     id="g3"
     fill="currentColor"
     transform="matrix(0.01632486,0,0,0.01632486,-0.16324624,-0.16243)"><path
       d="m 983.3,480.9 -245,-306.3 c -5.8,-7.3 -14.6,-11.5 -23.9,-11.5 l -428.8,0 c -9.3,0 -18.1,4.2 -23.9,11.5 L 16.7,480.9 C 12.4,486.4 10,493.1 10,500 l 0,275.6 c 0,33.8 27.4,61.3 61.3,61.3 l 857.5,0 c 33.8,0 61.3,-27.4 61.3,-61.3 l 0,-275.6 c -0.1,-7 -2.5,-13.7 -6.8,-19.1 z m -54.5,49.7 -214.4,0 -122.5,122.5 -183.8,0 -122.5,-122.5 -214.3,0 0,-19.9 229.1,-286.3 399.3,0 229.1,286.3 0,19.9 0,0 z"
       id="path5"
       inkscape:connector-curvature="0" /><path
       d="m 714.4,346.9 -428.8,0 c -16.9,0 -30.6,-13.7 -30.6,-30.6 0,-16.9 13.7,-30.6 30.6,-30.6 l 428.8,0 c 16.9,0 30.6,13.7 30.6,30.6 0,16.9 -13.7,30.6 -30.6,30.6 z"
       id="path7"
       inkscape:connector-curvature="0" /><path
       d="m 775.6,469.4 -551.2,0 c -16.9,0 -30.6,-13.7 -30.6,-30.6 0,-16.9 13.7,-30.6 30.6,-30.6 l 551.3,0 c 16.9,0 30.6,13.7 30.6,30.6 0,16.9 -13.8,30.6 -30.7,30.6 z"
       id="path9"
       inkscape:connector-curvature="0" /></g></svg>
