<?xml version="1.0" encoding="UTF-8" standalone="no"?>
<svg
   xmlns:dc="http://purl.org/dc/elements/1.1/"
   xmlns:cc="http://creativecommons.org/ns#"
   xmlns:rdf="http://www.w3.org/1999/02/22-rdf-syntax-ns#"
   xmlns:svg="http://www.w3.org/2000/svg"
   xmlns="http://www.w3.org/2000/svg"
   xmlns:sodipodi="http://sodipodi.sourceforge.net/DTD/sodipodi-0.dtd"
   xmlns:inkscape="http://www.inkscape.org/namespaces/inkscape"
   version="1.1"
   id="rapidfeedback"
   x="0px"
   y="0px"
   width="100%"
   height="100%"
   viewBox="10 10 30 30"
   xml:space="preserve"><defs
     id="defs33" /><sodipodi:namedview
     pagecolor="#ffffff"
     bordercolor="#666666"
     borderopacity="1"
     objecttolerance="10"
     gridtolerance="10"
     guidetolerance="10"
     inkscape:pageopacity="0"
     inkscape:pageshadow="2"
     inkscape:window-width="1313"
     inkscape:window-height="674"
     id="namedview31"
     showgrid="false"
     inkscape:zoom="9.44"
     inkscape:cx="25"
     inkscape:cy="27.118644"
     inkscape:window-x="0"
     inkscape:window-y="46"
     inkscape:window-maximized="0"
     inkscape:current-layer="rapidfeedback" /><g
     fill="currentColor"
     id="g5"><path
       d="m 21.800781,10.400391 c -0.3,0 -0.5,0.2 -0.5,0.5 l 0,2.599609 c 0.1,0.3 0.3,0.5 0.5,0.5 l 7.09961,0 c 0.3,0 0.5,-0.2 0.5,-0.5 l 0,-2.599609 c 0,-0.3 -0.2,-0.5 -0.5,-0.5 z M 17.5,12.099609 c -1.3,0 -2.300781,1.100782 -2.300781,2.300782 l 0,22.298828 C 15.199219,37.999219 16.3,39 17.5,39 l 15.900391,0 c 1.3,0 2.298828,-1.100781 2.298828,-2.300781 l 0,-22.199219 c -0.1,-1.3 -1.098438,-2.400391 -2.398438,-2.400391 l -3,0 0,2 c 0,0.4 -0.301562,0.59961 -0.601562,0.59961 l -8.699219,0 c -0.3,0 -0.5,-0.29961 -0.5,-0.59961 l 0,-2 z m 0.699219,5.09961 1.800781,0 c 0.2,0 0.400391,0.20039 0.400391,0.40039 l 0,1.800782 c 0,0.2 -0.200391,0.40039 -0.400391,0.40039 l -1.800781,0 c -0.2,0 -0.398438,-0.20039 -0.398438,-0.40039 l 0,-1.800782 c 0,-0.2 0.198438,-0.40039 0.398438,-0.40039 z M 24,18.099609 l 8.599609,0 c 0.3,0 0.5,0.2 0.5,0.5 -0.1,0.2 -0.3,0.400391 -0.5,0.400391 L 24,19 c -0.3,0 -0.5,-0.200391 -0.5,-0.400391 0,-0.3 0.2,-0.5 0.5,-0.5 z M 18.199219,21.5 l 0.101562,0 1.798828,0 c 0.2,0 0.400391,0.200391 0.400391,0.400391 l 0,1.798828 -0.006,0.01873 c 0,0.2 -0.294023,0.481274 -0.494023,0.481274 l -1.800781,0 c -0.2,0 -0.398438,-0.2 -0.398438,-0.5 l 0,-1.798828 c 0,-0.2 0.198438,-0.400391 0.398438,-0.400391 z M 24,22.300781 l 8.599609,0 c 0.3,0 0.5,0.2 0.5,0.5 0,0.3 -0.3,0.5 -0.5,0.5 l -8.599609,0 c -0.3,0 -0.5,-0.2 -0.5,-0.5 0,-0.3 0.2,-0.5 0.5,-0.5 z m -5.800781,3.5 1.800781,0 c 0.2,0 0.400391,0.198438 0.400391,0.398438 l 0,1.800781 C 20.400391,28.2 20.2,28.400391 20,28.400391 l -1.800781,0 c -0.2,0 -0.398438,-0.200391 -0.398438,-0.400391 l 0,-1.800781 c 0,-0.2 0.198438,-0.398438 0.398438,-0.398438 z M 24,26.699219 l 8.599609,0 c 0.3,0 0.5,0.20039 0.5,0.40039 -0.1,0.3 -0.3,0.5 -0.5,0.5 l -8.599609,0 c -0.3,0 -0.5,-0.2 -0.5,-0.5 0,-0.3 0.2,-0.40039 0.5,-0.40039 z m -5.800781,3.40039 1.800781,0 c 0.2,0 0.400391,0.2 0.400391,0.5 l 0,1.800782 c 0,0.2 -0.200391,0.40039 -0.400391,0.40039 l -1.800781,0 c -0.2,0 -0.398438,-0.20039 -0.398438,-0.40039 l 0,-1.800782 c 0,-0.2 0.198438,-0.5 0.398438,-0.5 z M 24,30.900391 l 8.599609,0 c 0.3,0 0.5,0.2 0.5,0.5 0,0.3 -0.3,0.5 -0.5,0.5 l -8.599609,0 c -0.3,0 -0.5,-0.2 -0.5,-0.5 0,-0.3 0.2,-0.5 0.5,-0.5 z M 18.199219,34.5 20,34.5 c 0.2,0 0.400391,0.200391 0.400391,0.400391 l 0,1.798828 c 0,0.2 -0.200391,0.40039 -0.400391,0.40039 l -1.800781,0 c -0.2,0 -0.398438,-0.20039 -0.398438,-0.40039 l 0,-1.798828 c 0,-0.2 0.198438,-0.400391 0.398438,-0.400391 z M 24,35.199219 l 8.599609,0 c 0.3,0 0.5,0.2 0.5,0.5 -0.1,0.3 -0.3,0.5 -0.5,0.5 l -8.599609,0 c -0.3,0 -0.5,-0.2 -0.5,-0.5 0,-0.3 0.2,-0.5 0.5,-0.5 z"
       id="path27"
       inkscape:connector-curvature="0"
       sodipodi:nodetypes="sscsssssssssssscscsssscsssssssssssscssssscssccssssssssssssssssssssssscssssssssssssssssssssssssssssssscssss" /></g></svg>
