<?xml version="1.0" encoding="UTF-8" standalone="no"?>
<svg
   xmlns:dc="http://purl.org/dc/elements/1.1/"
   xmlns:cc="http://creativecommons.org/ns#"
   xmlns:rdf="http://www.w3.org/1999/02/22-rdf-syntax-ns#"
   xmlns:svg="http://www.w3.org/2000/svg"
   xmlns="http://www.w3.org/2000/svg"
   xmlns:sodipodi="http://sodipodi.sourceforge.net/DTD/sodipodi-0.dtd"
   xmlns:inkscape="http://www.inkscape.org/namespaces/inkscape"
   id="reference_folder"
   width="100%"
   height="100%"
   viewBox="0 0 16 16">
  <defs
     id="defs7" />
  <sodipodi:namedview
     pagecolor="#ffffff"
     bordercolor="#666666"
     borderopacity="1"
     objecttolerance="10"
     gridtolerance="10"
     guidetolerance="10"
     inkscape:pageopacity="0"
     inkscape:pageshadow="2"
     inkscape:window-width="1354"
     inkscape:window-height="735"
     id="namedview5"
     showgrid="false"
     inkscape:zoom="6.675088"
     inkscape:cx="-2.1906528"
     inkscape:cy="27.482146"
     inkscape:window-x="64"
     inkscape:window-y="12"
     inkscape:window-maximized="0"
     inkscape:current-layer="reference_folder" />
  <path
     d="m 0.96,1.1199999 c -0.52928,0 -0.96,0.43072 -0.96,0.96 L 0,10.43 C 0.46848,7.9356001 0.99344,5.1366399 1.02,4.9999999 c 0.16256,-0.8288 0.78784,-1.32 1.68,-1.32 l 12.34,0 0,-0.32 c 0,-0.52928 -0.43072,-0.96 -0.96,-0.96 l -8.31,0 c -0.08928,-0.03232 -0.2708,-0.32192 -0.37,-0.48 -0.24608,-0.392 -0.49856,-0.8 -0.92,-0.8 l -3.52,0 z m 1.74,3.2 c -0.4096,0 -0.91944,0.14344 -1.05,0.81 C 1.60936,5.3370399 0.36224,11.97136 0,13.9 l 0,0.02 c 0,0.52928 0.43072,0.96 0.96,0.96 l 12.48,0 c 0.5184,0 0.94304,-0.41544 0.96,-0.93 l 1.59,-8.6100001 0.01,-0.06 c 0,-0.52928 -0.43072,-0.96 -0.96,-0.96 l -12.34,0 z m 5.97875,1.365625 3.733125,3.7331252 -3.733125,3.7331249 0,-2.18625 c -2.6666668,0 -4.5335417,0.853333 -5.866875,2.72 C 3.3452083,11.018958 4.9454166,8.3520831 8.67875,7.8187501 l 0,-2.1331252 z"
     id="path3"
     inkscape:connector-curvature="0"
     fill="currentColor" />
  <g
     id="g3440"
     transform="matrix(0.06535948,0,0,0.06535948,8.78769,-18.23279)"
     fill="currentColor" />
</svg>
