<?xml version="1.0" encoding="UTF-8" standalone="no"?>
<svg
   xmlns:dc="http://purl.org/dc/elements/1.1/"
   xmlns:cc="http://creativecommons.org/ns#"
   xmlns:rdf="http://www.w3.org/1999/02/22-rdf-syntax-ns#"
   xmlns:svg="http://www.w3.org/2000/svg"
   xmlns="http://www.w3.org/2000/svg"
   xmlns:sodipodi="http://sodipodi.sourceforge.net/DTD/sodipodi-0.dtd"
   xmlns:inkscape="http://www.inkscape.org/namespaces/inkscape"
   id="rss"
   width="100%"
   height="100%"
   viewBox="0 0 16 16"
   xml:space="preserve">
	 <defs
     id="defs41" /><sodipodi:namedview
     pagecolor="#ffffff"
     bordercolor="#666666"
     borderopacity="1"
     objecttolerance="10"
     gridtolerance="10"
     guidetolerance="10"
     inkscape:pageopacity="0"
     inkscape:pageshadow="2"
     inkscape:window-width="1389"
     inkscape:window-height="787"
     id="namedview39"
     showgrid="false"
     inkscape:zoom="5.0649043"
     inkscape:cx="61.000468"
     inkscape:cy="26.889963"
     inkscape:window-x="0"
     inkscape:window-y="0"
     inkscape:window-maximized="0"
     inkscape:current-layer="rss" /><g
     id="g3"
     fill="currentColor"
     transform="matrix(0.03035109,0,0,0.03035178,-1.00438e-6,-1.8287596e-4)"><g
       id="g5"><path
         d="m 428.32,0.006 -329.476,0 C 71.616,0.006 48.336,9.67 29.003,29.003 9.663,48.335 0,71.622 0,98.85 l 0,329.476 c 0,27.228 9.663,50.515 29.002,69.836 19.333,19.333 42.614,28.996 69.841,28.996 l 329.477,0 c 27.228,0 50.502,-9.663 69.842,-28.996 19.333,-19.321 29.002,-42.607 29.002,-69.836 l 0,-329.476 c 0,-27.228 -9.669,-50.515 -29.002,-69.848 C 478.822,9.669 455.542,0.006 428.32,0.006 Z m -265.467,426.43 c -8.581,8.58 -18.936,12.87 -31.059,12.87 -12.13,0 -22.479,-4.29 -31.059,-12.87 -8.58,-8.58 -12.87,-18.93 -12.87,-31.065 0,-12.117 4.29,-22.485 12.87,-31.065 8.581,-8.58 18.929,-12.87 31.059,-12.87 12.124,0 22.479,4.29 31.059,12.87 8.58,8.58 12.87,18.941 12.87,31.065 0,12.135 -4.29,22.484 -12.87,31.065 z m 130.246,9.436 c -2.289,2.295 -4.92,3.434 -7.895,3.434 l -43.93,0 c -2.974,0 -5.489,-0.967 -7.552,-2.926 -2.057,-1.946 -3.207,-4.4 -3.434,-7.374 -2.521,-35.233 -16.358,-65.436 -41.53,-90.613 -25.171,-25.153 -55.374,-38.996 -90.606,-41.518 -2.975,-0.227 -5.441,-1.383 -7.381,-3.434 -1.946,-2.062 -2.919,-4.571 -2.919,-7.546 l 0,-43.935 c 0,-2.974 1.144,-5.606 3.433,-7.895 2.283,-2.277 5.031,-3.311 8.238,-3.084 53.079,2.974 98.379,23.219 135.907,60.747 37.522,37.522 57.773,82.822 60.747,135.901 0.233,3.219 -0.795,5.954 -3.078,8.243 z m 131.788,0 c -2.289,2.295 -4.92,3.434 -7.895,3.434 l -43.93,0 c -2.975,0 -5.489,-1.034 -7.552,-3.097 -2.057,-2.051 -3.207,-4.56 -3.434,-7.546 -1.604,-46.665 -14.357,-89.915 -38.269,-129.731 -23.91,-39.805 -55.771,-71.66 -95.582,-95.577 -39.811,-23.905 -83.054,-36.665 -129.731,-38.274 -2.975,-0.214 -5.49,-1.365 -7.552,-3.433 -2.056,-2.05 -3.09,-4.56 -3.09,-7.546 l 0,-43.936 c 0,-2.962 1.145,-5.594 3.433,-7.883 2.056,-2.295 4.688,-3.323 7.895,-3.097 35.232,1.15 69.266,7.546 102.106,19.223 32.828,11.665 62.577,27.631 89.236,47.876 26.652,20.245 50.104,43.703 70.355,70.355 20.251,26.665 36.206,56.402 47.877,89.236 11.671,32.846 18.072,66.873 19.223,102.105 0.454,3.197 -0.575,5.829 -3.09,7.891 z"
         id="path7"
         inkscape:connector-curvature="0" /></g></g><g
     id="g9"
     transform="translate(0,-511.164)" /><g
     id="g11"
     transform="translate(0,-511.164)" /><g
     id="g13"
     transform="translate(0,-511.164)" /><g
     id="g15"
     transform="translate(0,-511.164)" /><g
     id="g17"
     transform="translate(0,-511.164)" /><g
     id="g19"
     transform="translate(0,-511.164)" /><g
     id="g21"
     transform="translate(0,-511.164)" /><g
     id="g23"
     transform="translate(0,-511.164)" /><g
     id="g25"
     transform="translate(0,-511.164)" /><g
     id="g27"
     transform="translate(0,-511.164)" /><g
     id="g29"
     transform="translate(0,-511.164)" /><g
     id="g31"
     transform="translate(0,-511.164)" /><g
     id="g33"
     transform="translate(0,-511.164)" /><g
     id="g35"
     transform="translate(0,-511.164)" /><g
     id="g37"
     transform="translate(0,-511.164)" /></svg>
