<?xml version="1.0" encoding="UTF-8" standalone="no"?>
<svg
   xmlns:dc="http://purl.org/dc/elements/1.1/"
   xmlns:cc="http://creativecommons.org/ns#"
   xmlns:rdf="http://www.w3.org/1999/02/22-rdf-syntax-ns#"
   xmlns:svg="http://www.w3.org/2000/svg"
   xmlns="http://www.w3.org/2000/svg"
   xmlns:sodipodi="http://sodipodi.sourceforge.net/DTD/sodipodi-0.dtd"
   xmlns:inkscape="http://www.inkscape.org/namespaces/inkscape"
   id="text_html"
   width="100%"
   height="100%"
   viewBox="0 0 16 16"
   xml:space="preserve">
   <defs
     id="defs43" /><sodipodi:namedview
     pagecolor="#ffffff"
     bordercolor="#666666"
     borderopacity="1"
     objecttolerance="10"
     gridtolerance="10"
     guidetolerance="10"
     inkscape:pageopacity="0"
     inkscape:pageshadow="2"
     inkscape:window-width="1440"
     inkscape:window-height="794"
     id="namedview41"
     showgrid="false"
     inkscape:zoom="4.9955848"
     inkscape:cx="40.496531"
     inkscape:cy="-12.225798"
     inkscape:window-x="0"
     inkscape:window-y="1"
     inkscape:window-maximized="0"
     inkscape:current-layer="text_html" /><g
     id="g3"
     transform="matrix(-0.02993572,0,0,0.02993572,16.000014,3.396328e-7)"
     fill="currentColor"><g
       id="g5"><path
         d="m 77.519531,0 0,534.47852 379.439449,0 0,-409.5293 -137.18945,0 L 319.76953,0 77.519531,0 Z m 194.058589,207.29883 28.41993,0 -42.63282,241.58008 -28.41992,0 42.63281,-241.58008 z m -63.94921,35.52929 0,35.5254 -49.73438,49.73632 49.73633,49.73828 0,42.63086 -0.002,0 -78.15625,-78.1582 0,-21.3164 78.15625,-78.15626 z m 113.68554,0 78.15821,78.15626 0,21.3164 -78.15821,78.1582 0,-42.63281 49.73633,-49.73633 -49.73633,-49.73632 0,-35.5254 z"
         transform="matrix(-1,0,0,1,534.479,0)"
         id="path7"
         inkscape:connector-curvature="0" /><polygon
         points="85.968,109.649 199.409,109.649 199.409,6.928 "
         id="polygon9" /></g></g><g
     id="g11"
     transform="translate(0,-518.479)" /><g
     id="g13"
     transform="translate(0,-518.479)" /><g
     id="g15"
     transform="translate(0,-518.479)" /><g
     id="g17"
     transform="translate(0,-518.479)" /><g
     id="g19"
     transform="translate(0,-518.479)" /><g
     id="g21"
     transform="translate(0,-518.479)" /><g
     id="g23"
     transform="translate(0,-518.479)" /><g
     id="g25"
     transform="translate(0,-518.479)" /><g
     id="g27"
     transform="translate(0,-518.479)" /><g
     id="g29"
     transform="translate(0,-518.479)" /><g
     id="g31"
     transform="translate(0,-518.479)" /><g
     id="g33"
     transform="translate(0,-518.479)" /><g
     id="g35"
     transform="translate(0,-518.479)" /><g
     id="g37"
     transform="translate(0,-518.479)" /><g
     id="g39"
     transform="translate(0,-518.479)" /><g
     style="clip-rule:evenodd;fill-rule:evenodd;stroke-linejoin:round;stroke-miterlimit:1.41420996"
     id="g3451"
     transform="matrix(4.1666667,0,0,4.1666667,16.471726,-451.44166)"><g
       transform="scale(0.4,0.4)"
       id="Background"><rect
         id="rect3440"
         style="fill:none"
         height="300"
         width="300"
         y="0"
         x="0" /></g><g
       transform="matrix(0.432,0,0,0.432,-5.2799995,-2.1473585)"
       id="Icon"
       style="fill:#ffffff" /></g></svg>
