<?xml version="1.0" encoding="UTF-8" standalone="no"?>
<svg
   xmlns:dc="http://purl.org/dc/elements/1.1/"
   xmlns:cc="http://creativecommons.org/ns#"
   xmlns:rdf="http://www.w3.org/1999/02/22-rdf-syntax-ns#"
   xmlns:svg="http://www.w3.org/2000/svg"
   xmlns="http://www.w3.org/2000/svg"
   xmlns:sodipodi="http://sodipodi.sourceforge.net/DTD/sodipodi-0.dtd"
   xmlns:inkscape="http://www.inkscape.org/namespaces/inkscape"
   version="1.1"
   id="text"
   x="0px"
   y="0px"
   width="100%"
   height="100%"
   viewBox="0 0 534.479 534.479"
   style="enable-background:new 0 0 534.479 534.479;"
   xml:space="preserve"
   inkscape:version="0.91 r13725"
   sodipodi:docname="application_rtf.svg"><defs
     id="defs43" /><sodipodi:namedview
     pagecolor="#ffffff"
     bordercolor="#666666"
     borderopacity="1"
     objecttolerance="10"
     gridtolerance="10"
     guidetolerance="10"
     inkscape:pageopacity="0"
     inkscape:pageshadow="2"
     inkscape:window-width="1440"
     inkscape:window-height="794"
     id="namedview41"
     showgrid="false"
     inkscape:zoom="0.62444811"
     inkscape:cx="146.43254"
     inkscape:cy="185.08453"
     inkscape:window-x="0"
     inkscape:window-y="1"
     inkscape:window-maximized="0"
     inkscape:current-layer="application_rtf" /><g
     id="g3"
     fill="currentColor"
     transform="matrix(-1,0,0,1,534.479,0)"><g
       id="g5"><path
         d="M 77.519531 0 L 77.519531 534.47852 L 456.95898 534.47852 L 456.95898 124.94922 L 319.76953 124.94922 L 319.76953 0 L 77.519531 0 z M 139.33398 174.47852 L 400.66602 174.47852 C 405.83668 174.47852 410 178.64183 410 183.8125 L 410 195.14648 C 410 200.31715 405.83668 204.47852 400.66602 204.47852 L 139.33398 204.47852 C 134.16332 204.47852 130 200.31715 130 195.14648 L 130 183.8125 C 130 178.64183 134.16332 174.47852 139.33398 174.47852 z M 139.33398 264.47852 L 400.66602 264.47852 C 405.83668 264.47852 410 268.64183 410 273.8125 L 410 285.14648 C 410 290.31715 405.83668 294.47852 400.66602 294.47852 L 139.33398 294.47852 C 134.16332 294.47852 130 290.31715 130 285.14648 L 130 273.8125 C 130 268.64183 134.16332 264.47852 139.33398 264.47852 z M 139.33398 354.47852 L 400.66602 354.47852 C 405.83668 354.47852 410 358.64183 410 363.8125 L 410 375.14648 C 410 380.31715 405.83668 384.47852 400.66602 384.47852 L 139.33398 384.47852 C 134.16332 384.47852 130 380.31715 130 375.14648 L 130 363.8125 C 130 358.64183 134.16332 354.47852 139.33398 354.47852 z M 135 444.47852 L 275 444.47852 C 277.77 444.47852 280 446.70852 280 449.47852 L 280 469.47852 C 280 472.24852 277.77 474.47852 275 474.47852 L 135 474.47852 C 132.23 474.47852 130 472.24852 130 469.47852 L 130 449.47852 C 130 446.70852 132.23 444.47852 135 444.47852 z "
         transform="matrix(-1,0,0,1,534.479,0)"
         id="path7" /><polygon
         points="199.409,6.928 85.968,109.649 199.409,109.649 "
         id="polygon9" /></g></g><g
     id="g11" /><g
     id="g13" /><g
     id="g15" /><g
     id="g17" /><g
     id="g19" /><g
     id="g21" /><g
     id="g23" /><g
     id="g25" /><g
     id="g27" /><g
     id="g29" /><g
     id="g31" /><g
     id="g33" /><g
     id="g35" /><g
     id="g37" /><g
     id="g39" /></svg>
