<?xml version="1.0" encoding="UTF-8" standalone="no"?>
<svg
   xmlns:dc="http://purl.org/dc/elements/1.1/"
   xmlns:cc="http://creativecommons.org/ns#"
   xmlns:rdf="http://www.w3.org/1999/02/22-rdf-syntax-ns#"
   xmlns:svg="http://www.w3.org/2000/svg"
   xmlns="http://www.w3.org/2000/svg"
   xmlns:sodipodi="http://sodipodi.sourceforge.net/DTD/sodipodi-0.dtd"
   xmlns:inkscape="http://www.inkscape.org/namespaces/inkscape"
   id="text"
   width="100%"
   height="100%"
   viewBox="0 0 16 16"
   xml:space="preserve">
   <defs
     id="defs43" /><sodipodi:namedview
     pagecolor="#ffffff"
     bordercolor="#666666"
     borderopacity="1"
     objecttolerance="10"
     gridtolerance="10"
     guidetolerance="10"
     inkscape:pageopacity="0"
     inkscape:pageshadow="2"
     inkscape:window-width="1440"
     inkscape:window-height="794"
     id="namedview41"
     showgrid="false"
     inkscape:zoom="4.9955849"
     inkscape:cx="5.7048801"
     inkscape:cy="45.07865"
     inkscape:window-x="0"
     inkscape:window-y="1"
     inkscape:window-maximized="0"
     inkscape:current-layer="text" /><g
     id="g3"
     transform="matrix(-0.02993572,0,0,0.02993572,16.000014,3.396328e-7)"
     fill="currentColor"><g
       id="g5"><path
         d="m 77.519531,0 0,534.47852 379.439449,0 0,-409.5293 -137.18945,0 L 319.76953,0 77.519531,0 Z m 61.814449,174.47852 261.33204,0 c 5.17066,0 9.33398,4.16331 9.33398,9.33398 l 0,11.33398 c 0,5.17067 -4.16332,9.33204 -9.33398,9.33204 l -261.33204,0 c -5.17066,0 -9.33398,-4.16137 -9.33398,-9.33204 l 0,-11.33398 c 0,-5.17067 4.16332,-9.33398 9.33398,-9.33398 z m 0,90 261.33204,0 c 5.17066,0 9.33398,4.16331 9.33398,9.33398 l 0,11.33398 c 0,5.17067 -4.16332,9.33204 -9.33398,9.33204 l -261.33204,0 c -5.17066,0 -9.33398,-4.16137 -9.33398,-9.33204 l 0,-11.33398 c 0,-5.17067 4.16332,-9.33398 9.33398,-9.33398 z m 0,90 261.33204,0 c 5.17066,0 9.33398,4.16331 9.33398,9.33398 l 0,11.33398 c 0,5.17067 -4.16332,9.33204 -9.33398,9.33204 l -261.33204,0 c -5.17066,0 -9.33398,-4.16137 -9.33398,-9.33204 l 0,-11.33398 c 0,-5.17067 4.16332,-9.33398 9.33398,-9.33398 z m -4.33398,90 140,0 c 2.77,0 5,2.23 5,5 l 0,20 c 0,2.77 -2.23,5 -5,5 l -140,0 c -2.77,0 -5,-2.23 -5,-5 l 0,-20 c 0,-2.77 2.23,-5 5,-5 z"
         transform="matrix(-1,0,0,1,534.479,0)"
         id="path7"
         inkscape:connector-curvature="0" /><polygon
         points="85.968,109.649 199.409,109.649 199.409,6.928 "
         id="polygon9" /></g></g><g
     id="g11"
     transform="translate(0,-518.479)" /><g
     id="g13"
     transform="translate(0,-518.479)" /><g
     id="g15"
     transform="translate(0,-518.479)" /><g
     id="g17"
     transform="translate(0,-518.479)" /><g
     id="g19"
     transform="translate(0,-518.479)" /><g
     id="g21"
     transform="translate(0,-518.479)" /><g
     id="g23"
     transform="translate(0,-518.479)" /><g
     id="g25"
     transform="translate(0,-518.479)" /><g
     id="g27"
     transform="translate(0,-518.479)" /><g
     id="g29"
     transform="translate(0,-518.479)" /><g
     id="g31"
     transform="translate(0,-518.479)" /><g
     id="g33"
     transform="translate(0,-518.479)" /><g
     id="g35"
     transform="translate(0,-518.479)" /><g
     id="g37"
     transform="translate(0,-518.479)" /><g
     id="g39"
     transform="translate(0,-518.479)" /></svg>
