<?xml version="1.0" encoding="UTF-8" standalone="no"?>
<svg
   xmlns:dc="http://purl.org/dc/elements/1.1/"
   xmlns:cc="http://creativecommons.org/ns#"
   xmlns:rdf="http://www.w3.org/1999/02/22-rdf-syntax-ns#"
   xmlns:svg="http://www.w3.org/2000/svg"
   xmlns="http://www.w3.org/2000/svg"
   xmlns:sodipodi="http://sodipodi.sourceforge.net/DTD/sodipodi-0.dtd"
   xmlns:inkscape="http://www.inkscape.org/namespaces/inkscape"
   width="100%"
   height="100%"
   viewBox="0 0 16 16"
   id="userPicture">
  <defs
     id="defs13" />
  <sodipodi:namedview
     pagecolor="#ffffff"
     bordercolor="#666666"
     borderopacity="1"
     objecttolerance="10"
     gridtolerance="10"
     guidetolerance="10"
     inkscape:pageopacity="0"
     inkscape:pageshadow="2"
     inkscape:window-width="1441"
     inkscape:window-height="794"
     id="namedview11"
     showgrid="false"
     inkscape:zoom="2.6074563"
     inkscape:cx="-87.864407"
     inkscape:cy="111.12853"
     inkscape:window-x="5"
     inkscape:window-y="0"
     inkscape:window-maximized="0"
     inkscape:current-layer="userPicture" />
  <path
     d="m 13.000035,1.0000001 0,9.15e-4 -11.9998621,0 c -0.549994,0 -0.999989,0.449971 -0.999989,0.999935 l 0,9.9993469 -1.83999999998e-4,0 0,0.999934 1.83999999998e-4,0 0,0.999935 C 1.839e-4,14.550029 0.4501789,15 1.0001729,15 L 15.000012,15 C 15.550006,15 16,14.550029 16,14.000066 L 16,2.0008501 c 0,-0.549964 -0.449994,-0.999935 -0.999988,-0.999935 l -0.999989,0 0,-9.15e-4 -0.999988,0 z m -11.9980921,1.00085 13.9962381,0 c 6.25e-4,5.31e-4 0.0013,0.0012 0.0018,0.0018 l 0,11.9955539 c -5.31e-4,6.25e-4 -0.0012,0.0013 -0.0018,0.0018 l -13.9962381,0 c -6.25e-4,-5.32e-4 -0.0013,-0.0012 -0.0018,-0.0018 l 0,-11.9956149 c 5.31e-4,-6.24e-4 0.0012,-0.0013 0.0018,-0.0018 z m 6.9990652,0.823982 c -1.242811,0 -2.250096,0.496126 -2.250096,2.279025 0,1.1833028 0.443856,2.6348738 1.105578,3.4781058 -0.006,0.06657 -0.01395,0.133121 -0.02594,0.199388 -0.03943,0.181272 -0.102919,0.38385 -0.272214,0.484466 -0.189964,0.112847 -0.400916,0.184447 -0.608573,0.257185 -0.860699,0.289559 -1.75077,0.5449041 -2.51456,1.0519941 -0.397267,0.261573 -0.666343,0.741576 -0.814748,1.187178 -0.152829,0.462476 -0.215352,1.035246 -0.205931,1.499415 l 5.623776,0 5.6242639,0 c 0.0095,-0.464142 -0.05315,-1.036912 -0.20587,-1.499415 C 13.30818,11.316572 13.038995,10.867085 12.641946,10.605512 11.877964,10.098421 10.987779,9.8279079 10.127083,9.5383209 9.9194511,9.4655809 9.7084971,9.3862659 9.5187521,9.2734449 c -0.169404,-0.100642 -0.232989,-0.30701 -0.272336,-0.488309 -0.01737,-0.0959 -0.02799,-0.194327 -0.03351,-0.29112 0.624122,-0.853715 1.0381349,-2.246998 1.0381349,-3.3894258 0,-1.7829 -1.0074699,-2.279758 -2.2500349,-2.279758 z"
     id="path5"
     fill="currentColor"
     inkscape:connector-curvature="0" />
</svg>
