<?xml version="1.0" standalone="no"?>
<!DOCTYPE svg PUBLIC "-//W3C//DTD SVG 20010904//EN"
 "http://www.w3.org/TR/2001/REC-SVG-20010904/DTD/svg10.dtd">
<svg id="video" version="1.0" xmlns="http://www.w3.org/2000/svg"
 width="100%" height="100%" viewBox="0 0 16.000000 16.000000"
 preserveAspectRatio="xMidYMid">

<g class="SVGChild" transform="translate(0.000000,16.000000) scale(0.100000,-0.100000)"
fill="currentColor" stroke="none">
<path d="M10 81 l0 -79 70 0 70 0 0 79 0 79 -70 0 -70 0 0 -79z m110 49 c0
-17 -7 -20 -40 -20 -33 0 -40 3 -40 20 0 17 7 20 40 20 33 0 40 -3 40 -20z m0
-50 c0 -17 -7 -20 -40 -20 -33 0 -40 3 -40 20 0 17 7 20 40 20 33 0 40 -3 40
-20z m0 -50 c0 -17 -7 -20 -40 -20 -33 0 -40 3 -40 20 0 17 7 20 40 20 33 0
40 -3 40 -20z"/>
</g>
</svg>
