<?xml version="1.0" encoding="UTF-8" standalone="no"?>
<svg
   xmlns:dc="http://purl.org/dc/elements/1.1/"
   xmlns:cc="http://creativecommons.org/ns#"
   xmlns:rdf="http://www.w3.org/1999/02/22-rdf-syntax-ns#"
   xmlns:svg="http://www.w3.org/2000/svg"
   xmlns="http://www.w3.org/2000/svg"
   xmlns:sodipodi="http://sodipodi.sourceforge.net/DTD/sodipodi-0.dtd"
   xmlns:inkscape="http://www.inkscape.org/namespaces/inkscape"
   version="1.1"
   id="wiki"
   x="0px"
   y="0px"
   width="100%"
   height="100%"
   viewBox="0 0 96 96"
   style="enable-background:new 0 0 96 96;"
   xml:space="preserve"><defs
     id="defs9" /><sodipodi:namedview
     pagecolor="#ffffff"
     bordercolor="#666666"
     borderopacity="1"
     objecttolerance="10"
     gridtolerance="10"
     guidetolerance="10"
     inkscape:pageopacity="0"
     inkscape:pageshadow="2"
     inkscape:window-width="1202"
     inkscape:window-height="655"
     id="namedview7"
     showgrid="false"
     inkscape:zoom="3.4766083"
     inkscape:cx="51.719722"
     inkscape:cy="59.505466"
     inkscape:window-x="0"
     inkscape:window-y="23"
     inkscape:window-maximized="0"
     inkscape:current-layer="Layer_1" /><path
     sodipodi:nodetypes="ccccsssccsssscscscssccscscscsccsssccssscsccsssccsssccsscccccccssscssssccccscsccsscsccc"
     fill="currentColor"
     inkscape:connector-curvature="0"
     d="m 91.457569,25.27571 c 1.489126,2.150973 1.820053,4.467403 0.992747,7.114753 L 77.393517,81.862816 c -0.661838,2.316431 -2.150971,4.301943 -4.136484,5.956537 -2.150972,1.654593 -4.301943,2.316431 -6.618374,2.316431 l -50.465108,0 c -2.812811,0 -5.460161,-0.992757 -8.1075099,-2.978269 C 5.4186907,85.172004 3.5986384,82.855571 2.6058816,80.042762 1.7785849,77.560872 1.6131249,75.244441 2.4404227,73.093468 c 0,-0.165457 0,-0.661836 0.1654589,-1.489133 0.16546,-0.827298 0.16546,-1.489136 0.16546,-1.985514 0,-0.330917 0,-0.661836 -0.16546,-1.158214 -0.1654589,-0.496379 -0.1654589,-0.827298 -0.1654589,-0.992757 0,-0.330919 0.1654589,-0.827298 0.4963778,-1.158217 0.16546,-0.330916 0.4963778,-0.827295 0.8272956,-1.323673 0.3309189,-0.496379 0.6618379,-0.992757 0.8272979,-1.323676 0.8272967,-1.323674 1.6545945,-2.978269 2.4818901,-4.96378 0.827297,-1.985512 1.323676,-3.640107 1.654595,-4.963782 0.165459,-0.330918 0.165459,-0.992756 0,-1.654593 -0.16546,-0.661838 -0.16546,-1.158217 0,-1.489135 0.165459,-0.330918 0.496378,-0.992756 0.992757,-1.489134 0.4963759,-0.661838 0.8272949,-0.992757 0.9927539,-1.323676 0.827298,-1.323674 1.489136,-2.978268 2.316433,-4.96378 0.827295,-1.985512 1.158214,-3.640107 1.323674,-4.96378 0,-0.330919 0,-0.992757 -0.16546,-1.820055 -0.165459,-0.827297 -0.165459,-1.323673 0,-1.489133 0.16546,-0.496378 0.496379,-0.992757 1.158217,-1.654595 l 1.158214,-1.158215 c 0.661838,-0.992756 1.489135,-2.481891 2.316433,-4.632862 0.827295,-2.150972 1.323674,-3.971026 1.489133,-5.2947 0,-0.330919 0,-0.827297 -0.165459,-1.323675 -0.16546,-0.661838 -0.16546,-1.158217 -0.16546,-1.489135 0,-0.330919 0.16546,-0.661838 0.496379,-0.992756 0.330918,-0.330918 0.661837,-0.827297 0.992756,-1.323675 0.330919,-0.496379 0.661838,-0.827297 0.992757,-1.158216 0.330917,-0.496377 0.661836,-0.992755 0.827296,-1.654593 0.330919,-0.661837 0.661838,-1.323675 0.827297,-1.985512 0.165459,-0.661838 0.496378,-1.323676 0.827297,-1.985513 0.330919,-0.661838 0.661838,-1.3236748 0.992755,-1.8200526 0.330919,-0.496379 0.827298,-0.8272967 1.489135,-1.3236757 0.661838,-0.3309178 1.323676,-0.6618367 1.985512,-0.6618367 0.661838,0 1.233936,0.4206588 2.226692,0.7515777 l 0.588923,0.081327 C 33.549588,6.5844146 34.374081,6.0824274 34.87046,6.0824274 l 41.530301,0 c 2.647351,0 4.798322,0.9927567 6.287456,2.9782691 1.489135,1.9855125 1.820054,4.4674035 0.992756,7.1147525 L 68.78963,65.647797 c -1.323675,4.301943 -2.647349,7.114752 -3.971025,8.438428 -1.323674,1.323675 -3.640106,1.820052 -6.949294,1.820052 l -47.32138,0 c -0.9927549,0 -1.6545929,0.330919 -2.1509709,0.827297 -0.330919,0.661838 -0.496379,1.323675 0,2.316431 0.827297,2.481891 3.4746469,3.805566 7.9420509,3.805566 l 50.465108,0 c 0.992755,0 2.150971,-0.330919 2.978268,-0.827296 0.992755,-0.496379 1.654593,-1.323675 1.985512,-2.316432 L 88.148377,25.772088 c 0.330919,-0.827296 0.330919,-1.820052 0.330919,-3.143728 1.158214,0.827297 2.316431,1.654595 2.978273,2.64735 z m -58.076244,0.16546 c -0.16546,0.496377 -0.16546,0.827296 0.165459,1.158215 0.16546,0.330919 0.661838,0.496379 1.158216,0.496379 l 33.257333,0 c 0.496379,0 0.992757,-0.16546 1.323676,-0.496379 0.330919,-0.330919 0.827296,-0.827297 0.827296,-1.158215 l 1.158216,-3.474646 c 0.165459,-0.496379 0.165459,-0.827297 -0.16546,-1.158216 -0.330919,-0.330919 -0.661838,-0.496379 -1.158214,-0.496379 l -33.091875,0 c -0.496379,0 -0.992757,0.16546 -1.323674,0.496379 C 35.035919,21.139227 34.705,21.635605 34.705,21.966524 Z m 15.16437,10.686116 C 67.187157,38.483673 29.4862,35.601347 33.95758,35.262834 c 37.971691,-2.874727 32.695697,1.29304 15.792811,8.706029 L 43.744177,33.260622 c -0.242828,-0.432925 8.56659,7.019849 17.980936,6.880416 -8.070213,0.382963 -22.844247,-6.662906 -12.141572,-3.656806 0.386072,-1.158217 11.51033,1.139727 4.72763,-0.262177 C 42.25171,33.729512 65.269753,37.70461 64.85395,37.919373 51.673142,44.727281 33.843459,36.140976 50.845847,31.949892 l -1.727513,5.354116 c -0.152421,0.472395 10.072425,0.522402 9.741506,0.853321 -0.496376,0.330918 11.90361,-3.812943 -8.085103,-2.887122 z"
     class="st0"
     id="XMLID_11_" /></svg>
