<?xml version="1.0" encoding="UTF-8" standalone="no"?>
<svg
   xmlns:dc="http://purl.org/dc/elements/1.1/"
   xmlns:cc="http://creativecommons.org/ns#"
   xmlns:rdf="http://www.w3.org/1999/02/22-rdf-syntax-ns#"
   xmlns:svg="http://www.w3.org/2000/svg"
   xmlns="http://www.w3.org/2000/svg"
   xmlns:sodipodi="http://sodipodi.sourceforge.net/DTD/sodipodi-0.dtd"
   xmlns:inkscape="http://www.inkscape.org/namespaces/inkscape"
   id="wiki"
   width="100%"
   height="100%"
   viewBox="0 0 16 16"
   xml:space="preserve">
   <defs
     id="defs9" /><sodipodi:namedview
     pagecolor="#ffffff"
     bordercolor="#666666"
     borderopacity="1"
     objecttolerance="10"
     gridtolerance="10"
     guidetolerance="10"
     inkscape:pageopacity="0"
     inkscape:pageshadow="2"
     inkscape:window-width="1202"
     inkscape:window-height="655"
     id="namedview7"
     showgrid="false"
     inkscape:zoom="9.8333332"
     inkscape:cx="-0.48633181"
     inkscape:cy="14.759703"
     inkscape:window-x="0"
     inkscape:window-y="23"
     inkscape:window-maximized="0"
     inkscape:current-layer="wiki" /><path
     sodipodi:nodetypes="ccccsssccsssscscscssccscscscsccsssccssscsccsssccsssccsscccccccssscssssccccscsccsscsccc"
     inkscape:connector-curvature="0"
     d="m 15.747518,3.9852049 c 0.261833,0.3782056 0.32002,0.7855034 0.174554,1.2509869 l -2.647436,8.6987222 c -0.116371,0.407298 -0.378205,0.756411 -0.727318,1.047338 -0.378205,0.290927 -0.75641,0.407298 -1.163708,0.407298 l -8.8732793,0 c -0.4945764,0 -0.9600599,-0.174556 -1.4255432,-0.523669 -0.46548348,-0.349112 -0.78550328,-0.756411 -0.96005968,-1.250987 -0.1454635,-0.43639 -0.1745564,-0.843688 -0.0290926,-1.221894 0,-0.02909 0,-0.116371 0.029093,-0.261834 0.029093,-0.145464 0.029093,-0.261835 0.029093,-0.349113 0,-0.05818 0,-0.116371 -0.029093,-0.203649 -0.029093,-0.08728 -0.029093,-0.145464 -0.029093,-0.174556 0,-0.05818 0.029093,-0.145464 0.087278,-0.20365 0.0290929,-0.05818 0.0872782,-0.145463 0.1454634,-0.232741 0.0581855,-0.08728 0.116371,-0.174556 0.1454638,-0.232742 0.1454636,-0.232741 0.2909273,-0.523669 0.4363907,-0.8727812 C 1.0556947,9.5128213 1.142973,9.2218939 1.2011585,8.9891522 c 0.029093,-0.058185 0.029093,-0.1745563 0,-0.2909271 -0.029093,-0.1163709 -0.029093,-0.2036492 0,-0.2618345 C 1.2302511,8.3782053 1.2884366,8.2618343 1.3757149,8.1745562 1.4629927,8.0581852 1.5211781,7.9999998 1.5502708,7.9418143 1.6957346,7.7090727 1.8121055,7.4181455 1.9575691,7.069033 2.1030324,6.7199205 2.1612179,6.4289931 2.1903107,6.1962517 c 0,-0.058186 0,-0.1745564 -0.029093,-0.3200202 -0.029093,-0.1454636 -0.029093,-0.2327414 0,-0.2618342 0.029093,-0.087278 0.087278,-0.1745564 0.2036492,-0.2909274 L 2.5685159,5.119821 C 2.6848868,4.9452647 2.8303504,4.6834302 2.9758142,4.305225 3.1212775,3.9270196 3.2085558,3.6069996 3.2376484,3.374258 c 0,-0.058185 0,-0.1454636 -0.029093,-0.2327417 -0.029093,-0.116371 -0.029093,-0.2036493 -0.029093,-0.2618346 0,-0.058185 0.029093,-0.116371 0.087278,-0.1745563 C 3.3249254,2.6469404 3.3831111,2.5596618 3.4412966,2.4723837 3.4994816,2.3851057 3.5576676,2.3269201 3.6158531,2.2687346 3.6740381,2.1814566 3.7322237,2.0941785 3.7613165,1.9778076 3.8195015,1.8614368 3.8776874,1.7450658 3.9067801,1.628695 3.9358731,1.5123241 3.9940581,1.3959531 4.0522437,1.2795823 4.1104297,1.1632114 4.1686147,1.0468406 4.2267998,0.95956255 c 0.058186,-0.087278 0.1454638,-0.1454635 0.2618345,-0.2327418 0.116371,-0.058185 0.232742,-0.1163707 0.3491126,-0.1163707 0.1163709,0 0.2169629,0.073964 0.3915192,0.1321499 l 0.1035503,0.0143 c 0.2327415,-0.058185 0.3777121,-0.1464492 0.4649904,-0.1464492 l 7.3022722,0 c 0.465483,0 0.843689,0.1745565 1.105523,0.52366905 0.261834,0.3491126 0.32002,0.7855034 0.174556,1.2509867 l -2.618344,8.6987215 c -0.232742,0.75641 -0.465484,1.250986 -0.698225,1.483728 -0.232742,0.232742 -0.64004,0.32002 -1.2218952,0.32002 l -8.3205166,0 c -0.174556,0 -0.290927,0.05818 -0.3782051,0.145463 -0.058185,0.116371 -0.087278,0.232742 0,0.407298 0.1454636,0.436391 0.610947,0.669133 1.3964506,0.669133 l 8.8732783,0 c 0.174556,0 0.378206,-0.05819 0.523669,-0.145463 0.174556,-0.08728 0.290927,-0.232742 0.349113,-0.407299 l 2.880179,-9.4842253 c 0.05819,-0.1454634 0.05819,-0.3200197 0.05819,-0.5527616 0.203649,0.1454636 0.407298,0.2909274 0.52367,0.4654835 z M 5.5359732,4.0142979 c -0.029093,0.087278 -0.029093,0.1454635 0.029093,0.2036489 0.029093,0.058186 0.116371,0.087278 0.2036491,0.087278 l 5.8476357,0 c 0.08728,0 0.174557,-0.029093 0.232742,-0.087278 0.05819,-0.058185 0.145463,-0.1454636 0.145463,-0.2036489 l 0.20365,-0.6109469 c 0.02909,-0.087278 0.02909,-0.1454636 -0.02909,-0.2036491 -0.05819,-0.058185 -0.116371,-0.087278 -0.203649,-0.087278 l -5.8185434,0 c -0.087278,0 -0.1745564,0.029093 -0.2327415,0.087278 C 5.8269041,3.2578869 5.7687183,3.3451655 5.7687183,3.403351 Z M 8.2023237,5.8932373 C 11.480052,6.3075607 4.8510934,5.8007614 5.6372961,5.7412407 12.313858,5.2357775 11.38618,5.9685959 8.4141457,7.2720215 L 7.3580731,5.3891918 C 7.3153767,5.3130706 8.8643367,6.6234916 10.519661,6.5989751 9.1006757,6.6663115 6.5029573,5.4274366 8.3848087,5.9559991 8.4526917,5.7523498 10.40867,6.1563972 9.2160677,5.9099005 7.0956527,5.4716367 11.142915,6.1705781 11.069804,6.2083399 8.7522227,7.4053741 5.6172302,5.8956444 8.6067597,5.1587262 l -0.303749,0.941414 c -0.0268,0.083061 1.7710353,0.091854 1.7128493,0.1500395 -0.08728,0.058185 2.093011,-0.6704297 -1.4216033,-0.5076426 z"
     class="st0"
     id="XMLID_11_"
     fill="currentColor" /></svg>
