<?xml version="1.0" encoding="UTF-8" standalone="no"?>
<svg
   xmlns:dc="http://purl.org/dc/elements/1.1/"
   xmlns:cc="http://creativecommons.org/ns#"
   xmlns:rdf="http://www.w3.org/1999/02/22-rdf-syntax-ns#"
   xmlns:svg="http://www.w3.org/2000/svg"
   xmlns="http://www.w3.org/2000/svg"
   xmlns:sodipodi="http://sodipodi.sourceforge.net/DTD/sodipodi-0.dtd"
   xmlns:inkscape="http://www.inkscape.org/namespaces/inkscape"
   id="worksheets"
   width="100%"
   height="100%"
   viewBox="0 0 16 16"
   xml:space="preserve">
   <defs
     id="defs43" /><sodipodi:namedview
     pagecolor="#ffffff"
     bordercolor="#666666"
     borderopacity="1"
     objecttolerance="10"
     gridtolerance="10"
     guidetolerance="10"
     inkscape:pageopacity="0"
     inkscape:pageshadow="2"
     inkscape:window-width="1440"
     inkscape:window-height="794"
     id="namedview41"
     showgrid="false"
     inkscape:zoom="3.5324119"
     inkscape:cx="15.901666"
     inkscape:cy="29.441638"
     inkscape:window-x="0"
     inkscape:window-y="1"
     inkscape:window-maximized="0"
     inkscape:current-layer="worksheets" /><path
     fill="currentColor"
     d="m 3.030665,0 0,0.526349 6.8974199,0 0,-0.526349 -6.8974199,0 z m 7.33301,0.197249 0,1.508199 -0.84549,-0.765583 0,2.932371 3.23844,0 -0.82853,-0.750235 1.66552,0 -3.22994,-2.924752 z m -8.1978599,0.544811 0,15.25794 10.8319399,0 0,-11.690947 -3.91639,0 0,-3.566993 -6.9155499,0 z m 11.1348499,2.815535 0,11.66025 0.53352,0 0,-11.66025 -0.53352,0 z m -5.8250401,3.521559 0.1524801,0 2.05602,4.913534 c 0.16552,0.394941 0.31507,0.651968 0.44866,0.771032 0.13648,0.116159 0.32524,0.181449 0.56627,0.195969 l 0,0.161214 -2.33044,0 0,-0.161214 c 0.23522,-0.01162 0.39348,-0.05077 0.47479,-0.117559 0.0842,-0.06679 0.12629,-0.148129 0.12629,-0.243961 0,-0.127775 -0.0581,-0.329603 -0.17422,-0.605481 l -0.35719,-0.849388 -2.2869,0 -0.40073,0.932191 c -0.0987,0.229414 -0.14809,0.400747 -0.14809,0.514003 0,0.09002 0.0421,0.169816 0.12629,0.239512 0.0871,0.06679 0.27296,0.110356 0.55755,0.130683 l 0,0.161214 -1.8599899,0 0,-0.161214 c 0.24684,-0.04356 0.40659,-0.100192 0.47919,-0.169888 0.14811,-0.139391 0.31216,-0.422501 0.49221,-0.849387 L 7.475625,7.079154 Z m -0.16116,1.354715 -1.02806,2.38706 2.0298801,0 -1.0018201,-2.38706 z"
     id="path7-2"
     inkscape:connector-curvature="0" /><g
     inkscape:groupmode="layer"
     id="layer1"
     inkscape:label="Layer 1"
     transform="translate(0,-554)" /><g
     inkscape:groupmode="layer"
     id="layer2"
     inkscape:label="Layer 2"
     transform="translate(0,-554)" /></svg>
