<?xml version="1.0" encoding="UTF-8" standalone="no"?>
<svg
   xmlns:dc="http://purl.org/dc/elements/1.1/"
   xmlns:cc="http://creativecommons.org/ns#"
   xmlns:rdf="http://www.w3.org/1999/02/22-rdf-syntax-ns#"
   xmlns:svg="http://www.w3.org/2000/svg"
   xmlns="http://www.w3.org/2000/svg"
   xmlns:sodipodi="http://sodipodi.sourceforge.net/DTD/sodipodi-0.dtd"
   xmlns:inkscape="http://www.inkscape.org/namespaces/inkscape"
   id="worksheet"
   width="100%"
   height="100%"
   viewBox="0 0 16 16"
   xml:space="preserve">
   <defs
     id="defs43" /><sodipodi:namedview
     pagecolor="#ffffff"
     bordercolor="#666666"
     borderopacity="1"
     objecttolerance="10"
     gridtolerance="10"
     guidetolerance="10"
     inkscape:pageopacity="0"
     inkscape:pageshadow="2"
     inkscape:window-width="1440"
     inkscape:window-height="794"
     id="namedview41"
     showgrid="false"
     inkscape:zoom="7.0648238"
     inkscape:cx="17.766258"
     inkscape:cy="-9.8579997"
     inkscape:window-x="0"
     inkscape:window-y="1"
     inkscape:window-maximized="0"
     inkscape:current-layer="worksheet" /><g
     id="g3"
     transform="matrix(-0.02993572,0,0,0.02993572,16.000014,3.396328e-7)"
     fill="currentColor"><g
       id="g5"><path
         d="m 77.519531,0 0,534.47852 379.439449,0 0,-409.5293 -137.18945,0 L 319.76953,0 77.519531,0 Z m 185.999999,221.98438 5.3418,0 72.02148,172.11914 c 5.79834,13.83463 11.03744,22.83903 15.7168,27.00976 4.78109,4.06901 11.39274,6.35661 19.83594,6.86524 l 0,5.64648 -81.63477,0 0,-5.64648 c 8.23975,-0.40691 13.78451,-1.77946 16.63281,-4.11914 2.95004,-2.33969 4.42383,-5.18799 4.42383,-8.54493 0,-4.47591 -2.0345,-11.54703 -6.10351,-21.21093 l -12.51172,-29.75391 -80.10938,0 -14.03711,32.6543 c -3.45866,8.03629 -5.1875,14.03857 -5.1875,18.00586 0,3.15348 1.4738,5.94921 4.42383,8.39062 3.05176,2.33968 9.56218,3.86605 19.53125,4.57813 l 0,5.64648 -65.1543,0 0,-5.64648 c 8.64665,-1.52588 14.24203,-3.50977 16.78516,-5.95118 5.18799,-4.88281 10.93522,-14.80029 17.24219,-29.7539 l 72.7832,-170.28906 z m -5.64453,47.45507 -36.01172,83.61914 71.10547,0 -35.09375,-83.61914 z"
         transform="matrix(-1,0,0,1,534.479,0)"
         id="path7"
         inkscape:connector-curvature="0" /><polygon
         points="85.968,109.649 199.409,109.649 199.409,6.928 "
         id="polygon9" /></g></g><g
     id="g11"
     transform="translate(0,-518.479)" /><g
     id="g13"
     transform="translate(0,-518.479)" /><g
     id="g15"
     transform="translate(0,-518.479)" /><g
     id="g17"
     transform="translate(0,-518.479)" /><g
     id="g19"
     transform="translate(0,-518.479)" /><g
     id="g21"
     transform="translate(0,-518.479)" /><g
     id="g23"
     transform="translate(0,-518.479)" /><g
     id="g25"
     transform="translate(0,-518.479)" /><g
     id="g27"
     transform="translate(0,-518.479)" /><g
     id="g29"
     transform="translate(0,-518.479)" /><g
     id="g31"
     transform="translate(0,-518.479)" /><g
     id="g33"
     transform="translate(0,-518.479)" /><g
     id="g35"
     transform="translate(0,-518.479)" /><g
     id="g37"
     transform="translate(0,-518.479)" /><g
     id="g39"
     transform="translate(0,-518.479)" /></svg>
