<?xml version="1.0" encoding="UTF-8" standalone="no"?>

<svg
   xmlns:dc="http://purl.org/dc/elements/1.1/"
   xmlns:cc="http://creativecommons.org/ns#"
   xmlns:rdf="http://www.w3.org/1999/02/22-rdf-syntax-ns#"
   xmlns:svg="http://www.w3.org/2000/svg"
   xmlns="http://www.w3.org/2000/svg"
   xmlns:sodipodi="http://sodipodi.sourceforge.net/DTD/sodipodi-0.dtd"
   xmlns:inkscape="http://www.inkscape.org/namespaces/inkscape"
   version="1.1"
   width="100%"
   height="100%"
   viewBox="0 0 512 512"
   id="www">
  <defs
     id="defs10" />
  <sodipodi:namedview
     pagecolor="#ffffff"
     bordercolor="#666666"
     borderopacity="1"
     objecttolerance="10"
     gridtolerance="10"
     guidetolerance="10"
     inkscape:pageopacity="0"
     inkscape:pageshadow="2"
     inkscape:window-width="1183"
     inkscape:window-height="689"
     id="namedview8"
     showgrid="false"
     inkscape:zoom="0.65186406"
     inkscape:cx="256"
     inkscape:cy="256"
     inkscape:window-x="20"
     inkscape:window-y="43"
     inkscape:window-maximized="0"
     inkscape:current-layer="svg2" />
  <g
     id="g4" />
  <path
     d="m 6.0545322,245.6974 c -1.38723,79.10866 23.6861398,142.15125 75.9492098,189.89884 52.272748,47.36152 110.811688,71.05949 175.264098,71.05949 43.17725,0 83.94352,-10.10957 121.91167,-30.32656 37.94665,-20.55896 68.6141,-49.82843 92.34541,-88.84399 23.31191,-38.6736 34.83022,-83.60156 34.46674,-135.16994 C 505.3088,202.87287 493.43885,159.66121 470.12693,122.34365 447.10107,85.113203 416.47771,56.163118 378.49773,36.011726 340.50699,15.475351 300.44617,5.3442735 258.98628,5.3442735 c -28.55434,0 -57.15063,5.2080255 -86.03512,15.3175955 C 144.04517,31.089749 116.84579,46.792328 91.78317,67.714762 66.346328,88.967335 46.139016,114.0192 31.130052,143.65215 15.812456,172.87753 7.4772492,207.05822 6.0556072,245.69848 l 0,0 z M 145.76146,134.59967 c -5.5715,10.45046 -11.14408,27.14453 -16.71558,50.13706 -5.60484,22.97101 -8.71051,43.21059 -9.0514,60.9725 l -90.561365,0 C 34.993863,185.1002 54.154838,137.35262 86.88163,103.20526 c 3.50248,3.50248 8.02765,6.65117 14.29276,10.10849 6.27695,3.47991 13.24751,6.97057 20.87835,10.45047 8.05023,3.4799 15.70258,6.98131 23.70872,10.83545 l 0,0 z m 47.05289,-96.187714 c -16.73816,23.675386 -30.33731,49.12406 -41.11791,76.630994 -26.46168,-12.54206 -42.85787,-21.59454 -49.47571,-27.506934 22.64088,-22.992525 52.61472,-39.377965 90.59362,-49.12406 l 0,0 z m 29.919,-6.596331 c 2.48841,-0.363475 4.90047,-0.726951 7.00282,-1.05709 2.45615,-0.363476 4.87789,-0.363476 8.02765,-0.363476 l 7.99431,0 0,108.697511 c -8.35779,0 -19.15022,-1.39798 -32.74937,-4.4929 -13.57764,-2.79705 -27.52952,-6.62967 -41.45881,-10.83545 13.24751,-32.76013 30.28247,-63.395323 51.1834,-91.948595 l 0,0 z m 23.01403,130.269465 0,83.62307 -104.52399,0 c 0,-32.42999 7.68676,-66.90749 22.99253,-103.4669 34.15811,13.21417 61.33598,19.84383 81.53146,19.84383 l 0,0 z m 0,104.84338 0,84.65865 c -20.53637,0 -47.38411,6.65117 -80.13348,19.87609 -4.8338,-9.41488 -10.08699,-25.76806 -16.01121,-49.46495 -5.56075,-24.04962 -8.3793,-42.1535 -8.3793,-55.05904 l 104.52399,-0.0108 z m -125.75398,0 c 0,27.18862 8.01582,64.46316 24.369,111.83652 -35.84322,18.12539 -55.0257,28.23388 -57.4926,30.32656 C 69.107883,389.95316 55.540992,366.59715 45.774465,339.43111 36.0402,312.24356 31.128977,288.20363 31.128977,266.92954 l 88.865503,0 z m 125.75398,104.52399 0,112.52906 -23.02586,-1.37648 c -19.82125,-27.55103 -37.25303,-58.89166 -51.17157,-93.36916 9.7676,-4.85638 34.48933,-10.76877 74.19743,-17.7845 l 0,0 z m -94.06277,26.48318 c 18.10281,37.6606 32.05576,63.40607 42.50514,77.35795 -30.28247,-9.05248 -60.96175,-25.81108 -91.99268,-50.18008 16.74892,-10.81286 33.12361,-19.86534 49.48754,-27.17679 l 0,0 z m 138.66059,84.67047 -22.6398,1.37648 0,-111.13107 c 23.67538,1.37647 48.41969,6.97056 74.19743,16.38544 -20.91168,45.98505 -38.32088,77.00522 -51.55763,93.36915 l 0,0 z m 120.89868,-57.4926 c -23.31191,24.369 -53.30834,40.77595 -90.60546,48.43045 7.33404,-9.07399 13.60023,-18.81901 19.1599,-28.58661 5.2747,-9.7461 10.12033,-19.85352 14.29277,-30.66853 4.19503,-10.42788 6.62859,-15.97788 7.00282,-16.36286 27.84891,13.62174 44.55373,22.65056 50.14782,27.18863 l 0,0 z m 71.78644,-158.18504 c 0,25.07444 -5.25319,51.22749 -16.39727,78.41504 -11.14408,27.18755 -24.03886,48.40786 -39.35646,63.74696 -3.83155,-3.13793 -10.79135,-6.99207 -20.93318,-12.19041 -10.08699,-5.23061 -22.62905,-11.82694 -37.23153,-19.50187 17.75117,-45.64416 26.44985,-82.22508 26.44985,-110.45897 l 87.46752,-0.0108 z m -110.81169,0 c 0,30.69004 -7.66417,65.16861 -23.00435,104.52399 -8.71051,-4.85638 -21.59347,-9.7676 -38.6736,-14.26051 -16.71558,-4.90047 -30.98684,-6.62859 -42.83636,-5.61666 l 0,-84.65865 104.51324,0.0107 z M 267.7054,162.08509 c 21.60529,0 48.78209,-6.62966 81.49813,-19.85458 4.87788,8.00614 10.10957,23.69689 15.3391,46.34852 4.87789,22.27633 7.66417,41.44806 7.66417,57.12913 l -104.50248,0 0,-83.62307 z M 425.87969,103.1945 c 17.43177,16.74892 31.33956,37.97999 41.8126,64.47393 10.43864,26.47242 15.34986,52.62547 15.34986,78.02897 l -88.8655,0 c 0,-33.46449 -8.35779,-70.37663 -25.05186,-111.10956 25.382,-12.25601 44.55373,-22.66239 56.7549,-31.39441 l 0,0 z M 411.24388,87.536016 C 405.64979,92.414977 389.63858,102.16 362.47254,116.44201 349.91972,85.454096 334.92151,58.949407 317.88547,37.03548 c 33.07951,9.746095 64.42983,26.460599 93.35841,50.500536 l 0,0 z M 288.95905,31.815625 c 20.55895,25.095952 38.33162,55.014947 52.95561,90.528025 -13.57765,8.77611 -38.32088,14.34869 -74.19743,16.74892 l 0,-108.697511 8.00614,0 c 6.98131,0 11.47422,0.363476 13.23568,1.420566 z"
     id="path6"
     inkscape:connector-curvature="0"
     fill="currentColor" />
</svg>
