<?xml version="1.0" encoding="UTF-8" standalone="no"?>
<svg
   xmlns:dc="http://purl.org/dc/elements/1.1/"
   xmlns:cc="http://creativecommons.org/ns#"
   xmlns:rdf="http://www.w3.org/1999/02/22-rdf-syntax-ns#"
   xmlns:svg="http://www.w3.org/2000/svg"
   xmlns="http://www.w3.org/2000/svg"
   xmlns:sodipodi="http://sodipodi.sourceforge.net/DTD/sodipodi-0.dtd"
   xmlns:inkscape="http://www.inkscape.org/namespaces/inkscape"
   width="100%"
   height="100%"
   viewBox="0 0 16 16"
   id="www">
  <defs
     id="defs10" />
  <sodipodi:namedview
     pagecolor="#ffffff"
     bordercolor="#666666"
     borderopacity="1"
     objecttolerance="10"
     gridtolerance="10"
     guidetolerance="10"
     inkscape:pageopacity="0"
     inkscape:pageshadow="2"
     inkscape:window-width="1183"
     inkscape:window-height="689"
     id="namedview8"
     showgrid="false"
     inkscape:zoom="3.6875"
     inkscape:cx="-22.432285"
     inkscape:cy="-20.131192"
     inkscape:window-x="20"
     inkscape:window-y="43"
     inkscape:window-maximized="0"
     inkscape:current-layer="www" />
  <g
     id="g4"
     transform="translate(0,-496)" />
  <path
     d="M 0.00174502,8.328821 C -0.04264598,5.8039661 0.75970152,3.7918808 2.4321197,2.267955 4.1048481,0.7563512 5.9780941,0 8.0405711,0 c 1.381672,0 2.6861919,0.32266 3.9011729,0.9679112 1.214293,0.6561656 2.195651,1.5903384 2.955053,2.8355702 0.745981,1.2343177 1.114567,2.6682513 1.102936,4.3141226 -0.02185,1.578017 -0.40169,2.957172 -1.147671,4.14821 -0.736828,1.188258 -1.716775,2.112237 -2.932135,2.755395 C 10.704224,15.676654 9.4222771,16 8.0955611,16 7.1818221,16 6.2667411,15.833779 5.3424371,15.511119 4.4174451,15.1783 3.5470653,14.677132 2.7450614,14.009366 1.9310825,13.331062 1.2844485,12.5315 0.80416162,11.585726 0.31399862,10.652961 0.04727202,9.56204 0.00177942,8.328786 l 0,0 z M 4.4723671,11.874648 C 4.2940791,11.541108 4.1157561,11.008295 3.9374681,10.274459 3.7581133,9.54131 3.6587318,8.895337 3.6478233,8.328443 l -2.89796358,0 c 0.1779439,1.934415 0.79109508,3.458341 1.83835238,4.548198 0.1120794,-0.111786 0.2568848,-0.212281 0.4573684,-0.322626 0.2008624,-0.111066 0.4239203,-0.222474 0.6681072,-0.33354 0.2576073,-0.111065 0.5024824,-0.222817 0.7586794,-0.345827 l 0,0 z m 1.505692,3.069954 c -0.535621,-0.75563 -0.970794,-1.567857 -1.315773,-2.445776 -0.8467738,0.400296 -1.3714519,0.689217 -1.5832228,0.877919 0.7245082,0.733836 1.6836708,1.256798 2.8989958,1.567857 l 0,0 z m 0.957408,0.210531 c 0.07963,0.0116 0.156815,0.0232 0.22409,0.03374 0.0786,0.0116 0.156093,0.0116 0.256885,0.0116 l 0.255818,0 0,-3.469221 c -0.267449,0 -0.612807,0.04462 -1.04798,0.143396 -0.434484,0.08927 -0.880944,0.211595 -1.326682,0.345828 0.423921,1.045581 0.969039,2.023343 1.637869,2.934657 l 0,0 z m 0.736449,-4.157718 0,-2.668938 -3.344768,0 c 0,1.035045 0.245977,2.135439 0.735761,3.30228 1.09306,-0.421748 1.962752,-0.633342 2.609007,-0.633342 l 0,0 z m 0,-3.346211 0,-2.7019899 c -0.657164,0 -1.516291,-0.2122806 -2.564271,-0.6343709 -0.154682,0.300488 -0.322784,0.8224207 -0.512359,1.5787374 -0.177944,0.7675746 -0.268138,1.3453832 -0.268138,1.7572804 l 3.344768,3.44e-4 z m -4.0241273,0 c 0,-0.86776 0.2565062,-2.0574248 0.7798083,-3.5694065 C 3.2806137,3.5033023 2.6667744,3.1806769 2.5878336,3.1138863 2.0194522,3.7247126 1.5853117,4.4701497 1.2727829,5.3371888 0.96128642,6.2049144 0.80412722,6.9721797 0.80412722,7.65117 l 2.84369608,0 z m 4.0241273,-3.3360177 0,-3.5915097 -0.736827,0.043932 c -0.63428,0.8793267 -1.192097,1.8796032 -1.637491,2.9799969 0.312563,0.1549976 1.103659,0.3436992 2.374318,0.5676152 l 0,0 z M 4.6619071,3.4699415 C 5.2411971,2.267955 5.6876921,1.4462552 6.0220721,1.000963 5.0530331,1.2898846 4.0712961,1.8247568 3.0783062,2.6025248 3.6142717,2.9476312 4.1382621,3.2365527 4.6619071,3.469907 l 0,0 z m 4.437139,-2.7023669 -0.724473,-0.043932 0,3.5468911 C 9.1321851,4.2266017 9.9240031,4.0480593 10.74889,3.7475713 10.079717,2.2798992 9.5226221,1.2898506 9.0990461,0.7675748 l 0,0 z m 3.8687579,1.8349502 c -0.745981,-0.777768 -1.705867,-1.3014169 -2.899375,-1.5457201 0.23469,0.2896081 0.435208,0.6006329 0.613117,0.9123785 0.168791,0.3110593 0.323851,0.6336506 0.457369,0.9788255 0.134241,0.3328192 0.212115,0.5099546 0.22409,0.5222418 0.891165,-0.4347554 1.425719,-0.7229218 1.60473,-0.8677601 l 0,0 z M 15.26497,7.651204 c 0,-0.8002832 -0.168102,-1.6349914 -0.524713,-2.502717 -0.35661,-0.8677257 -0.769243,-1.5449991 -1.259406,-2.0345662 -0.12261,0.100151 -0.345323,0.2231609 -0.669862,0.3890726 -0.322784,0.1669416 -0.72413,0.377472 -1.191409,0.6224272 0.568037,1.4567921 0.846395,2.6243192 0.846395,3.5254404 l 2.798961,3.44e-4 z m -3.545974,0 c 0,-0.9795123 -0.245253,-2.0799402 -0.736139,-3.3360177 -0.278736,0.1549976 -0.690991,0.3117455 -1.2375549,0.4551425 -0.534899,0.1564048 -0.991579,0.2115599 -1.370764,0.1792629 l 0,2.7019893 3.3444239,-3.41e-4 z m -3.3444229,3.346211 c 0.691369,0 1.561027,0.211594 2.6079399,0.633685 0.156092,-0.255527 0.323506,-0.756317 0.490851,-1.479273 0.156093,-0.710978 0.245253,-1.322868 0.245253,-1.82335 l -3.3440789,0 0,2.668938 z m 5.0615769,1.879569 c 0.557817,-0.534563 1.002866,-1.21218 1.338003,-2.057768 0.334037,-0.844902 0.491196,-1.67961 0.491196,-2.490395 l -2.843696,0 c 0,1.068062 -0.26745,2.24616 -0.80166,3.546204 0.812224,0.391167 1.42572,0.7233 1.816157,1.001993 l 0,0 z m -0.468346,0.499761 c -0.179011,-0.155719 -0.69137,-0.466743 -1.560683,-0.922572 -0.40169,0.989019 -0.881633,1.83495 -1.4267859,2.534361 1.0585439,-0.311059 2.0617539,-0.844524 2.9874689,-1.611789 l 0,0 z m -3.9131149,1.778388 c 0.657887,-0.80097 1.2266119,-1.755873 1.6945799,-2.889319 -0.434485,-0.2801 -1.2262679,-0.457957 -2.3743179,-0.534563 l 0,3.469221 0.256197,0 c 0.223402,0 0.367175,-0.0116 0.423541,-0.04534 z"
     id="path6"
     inkscape:connector-curvature="0"
     fill="currentColor" />
</svg>
