<?xml version="1.0" encoding="UTF-8" standalone="no"?>
<svg
   xmlns:dc="http://purl.org/dc/elements/1.1/"
   xmlns:cc="http://creativecommons.org/ns#"
   xmlns:rdf="http://www.w3.org/1999/02/22-rdf-syntax-ns#"
   xmlns:svg="http://www.w3.org/2000/svg"
   xmlns="http://www.w3.org/2000/svg"
   xmlns:sodipodi="http://sodipodi.sourceforge.net/DTD/sodipodi-0.dtd"
   xmlns:inkscape="http://www.inkscape.org/namespaces/inkscape"
   version="1.1"
   x="0"
   y="0"
   width="100%"
   height="100%"
   viewBox="0, 0, 200, 200"
   id="www">
  <defs
     id="defs42" />
  <sodipodi:namedview
     pagecolor="#ffffff"
     bordercolor="#666666"
     borderopacity="1"
     objecttolerance="10"
     gridtolerance="10"
     guidetolerance="10"
     inkscape:pageopacity="0"
     inkscape:pageshadow="2"
     inkscape:window-width="1207"
     inkscape:window-height="741"
     id="namedview40"
     showgrid="false"
     inkscape:zoom="3.337544"
     inkscape:cx="89.420278"
     inkscape:cy="109.92858"
     inkscape:window-x="0"
     inkscape:window-y="23"
     inkscape:window-maximized="0"
     inkscape:current-layer="svg2" />
  <g
     id="Calque_1"
     display="none"
     fill="currentColor">
    <path
       d="M106.355,149.888 L106.355,154.034 L114.171,158.546 L177.798,121.812 L177.798,117.665 L114.171,154.4 z"
       id="path5" />
    <path
       d="M162.17,116.458 L149.892,123.541 L149.892,116.609 L134.264,125.653 L134.264,132.555 L121.985,139.638 L121.985,132.758 L113.923,137.422 L106.355,133.028 L106.355,149.003 L114.171,153.514 L121.985,149.003 L121.985,140.335 L134.532,133.098 L142.078,137.453 L149.892,132.942 L149.892,124.237 L162.472,116.979 L169.984,121.316 L177.798,116.806 L177.798,100.461 L162.17,109.503 z"
       id="path7" />
    <path
       d="M79.822,124.235 L79.822,117.624 L64.194,108.55 L64.194,124.235 L72.008,128.747 z"
       id="path9" />
    <path
       d="M72.008,129.632 L64.194,125.121 L64.194,129.269 L72.008,133.779 L89.878,123.461 L86.299,121.384 z"
       id="path11" />
    <path
       d="M37.662,100.334 L37.662,93.144 L22.034,84.071 L22.034,100.334 L29.846,104.846 z"
       id="path13" />
    <path
       d="M29.846,105.731 L22.034,101.22 L22.034,105.366 L29.846,109.877 L48.216,99.272 L44.635,97.193 z"
       id="path15" />
    <path
       d="M85.829,41.454 L47.679,63.172 L47.634,63.146 L47.589,63.224 L22.034,77.769 L22.034,82.387 L114.171,135.882 L177.966,98.966 L177.966,94.348 L85.829,41.454 z M75.406,49.686 L164.96,101.682 L152.799,108.72 L63.146,56.665 L75.406,49.686 z M61.935,57.354 L151.598,109.415 L139.439,116.451 L49.677,64.331 L61.935,57.354 z M138.238,117.146 L125.505,124.513 L35.627,72.327 L48.464,65.021 L138.238,117.146 z M113.836,131.266 L23.863,79.025 L34.416,73.018 L124.305,125.209 L113.836,131.266 z M166.162,100.988 L76.617,48.996 L86.16,43.563 L176.135,95.215 L166.162,100.988 z"
       id="path17" />
  </g>
  <g fill="currentColor"
     id="Calque_2">
    <path
       d="M 99.935547 22 C 99.467547 22 98.996344 22.030109 98.527344 22.037109 C 98.219344 22.042109 97.910469 22.0535 97.605469 22.0625 C 94.985469 22.1425 92.364234 22.353172 89.740234 22.701172 C 89.352234 22.752172 88.965125 22.801375 88.578125 22.859375 C 87.842125 22.968375 87.105094 23.08775 86.371094 23.21875 C 85.857094 23.30975 85.348844 23.412672 84.839844 23.513672 C 83.914844 23.697672 82.990359 23.894281 82.068359 24.113281 C 81.276359 24.300281 80.486125 24.494078 79.703125 24.705078 C 79.196125 24.842078 78.688641 24.990672 78.181641 25.138672 C 77.373641 25.373672 76.572391 25.624766 75.775391 25.884766 C 75.391391 26.011766 75.007047 26.128719 74.623047 26.261719 C 73.442047 26.668719 72.274187 27.103453 71.117188 27.564453 C 70.861187 27.666453 70.607609 27.777812 70.349609 27.882812 C 69.332609 28.300812 68.325125 28.741172 67.328125 29.201172 C 67.160125 29.277172 66.991266 29.342875 66.822266 29.421875 C 66.716266 29.471875 66.615766 29.529078 66.509766 29.580078 C 65.432766 30.093078 64.3645 30.620641 63.3125 31.181641 C 63.1095 31.289641 62.913891 31.406625 62.712891 31.515625 C 61.906891 31.953625 61.107406 32.405047 60.316406 32.873047 C 59.836406 33.157047 59.363625 33.448234 58.890625 33.740234 C 58.419625 34.033234 57.950328 34.329814 57.486328 34.632812 C 56.929328 34.994813 56.374125 35.356469 55.828125 35.730469 C 55.567125 35.910469 55.313687 36.096297 55.054688 36.279297 C 52.886688 37.804297 50.813844 39.427625 48.839844 41.140625 C 48.703844 41.259625 48.567594 41.376141 48.433594 41.494141 C 47.762594 42.086141 47.101125 42.686875 46.453125 43.296875 C 46.374125 43.370875 46.296797 43.448438 46.216797 43.523438 C 44.204797 45.439436 42.307297 47.450875 40.529297 49.546875 C 40.382297 49.720875 40.234844 49.8875 40.089844 50.0625 C 39.602844 50.6475 39.130156 51.239891 38.660156 51.837891 C 38.421156 52.141891 38.183219 52.448813 37.949219 52.757812 C 37.528219 53.309812 37.114938 53.862781 36.710938 54.425781 C 36.429938 54.815781 36.156813 55.213375 35.882812 55.609375 C 35.525813 56.126375 35.165312 56.640063 34.820312 57.164062 C 34.243313 58.041062 33.683625 58.930937 33.140625 59.835938 C 32.911625 60.217937 32.697564 60.607141 32.476562 60.994141 C 32.118564 61.613141 31.763875 62.231281 31.421875 62.863281 C 31.193875 63.286281 30.975859 63.710719 30.755859 64.136719 C 30.438859 64.748719 30.127219 65.364328 29.824219 65.986328 C 29.618219 66.414328 29.414797 66.841437 29.216797 67.273438 C 28.916797 67.924436 28.62775 68.581234 28.34375 69.240234 C 28.17375 69.645234 27.999031 70.047125 27.832031 70.453125 C 27.769031 70.604125 27.702625 70.751344 27.640625 70.902344 C 27.649625 70.891344 27.660875 70.879141 27.671875 70.869141 C 25.228875 76.937141 23.545688 83.302453 22.679688 89.814453 L 22.675781 89.814453 C 22.642781 90.057453 22.631563 90.300922 22.601562 90.544922 C 22.457563 91.704922 22.332234 92.871063 22.240234 94.039062 C 22.213234 94.375062 22.205594 94.708922 22.183594 95.044922 C 22.111594 96.148922 22.054297 97.254234 22.029297 98.365234 C 22.023297 98.680234 22.028391 98.995547 22.025391 99.310547 C 22.014391 100.44055 22.023547 101.56817 22.060547 102.70117 C 22.070547 102.98817 22.087609 103.27355 22.099609 103.56055 C 22.151609 104.71855 22.227031 105.87416 22.332031 107.03516 C 22.355031 107.29416 22.382203 107.55155 22.408203 107.81055 C 22.525203 108.98155 22.67175 110.15227 22.84375 111.32227 C 22.87975 111.57127 22.916078 111.82031 22.955078 112.07031 C 23.136078 113.22431 23.344125 114.37634 23.578125 115.52734 C 23.633125 115.79234 23.684234 116.05927 23.740234 116.32227 C 23.976234 117.42227 24.241344 118.52023 24.527344 119.61523 C 24.608344 119.92723 24.685484 120.23978 24.771484 120.55078 C 25.045484 121.55578 25.350016 122.55278 25.666016 123.55078 C 25.791016 123.94578 25.910969 124.34333 26.042969 124.73633 C 26.336969 125.61033 26.656422 126.4767 26.982422 127.3457 C 27.169422 127.8437 27.347922 128.34489 27.544922 128.83789 C 27.842922 129.58489 28.168234 130.32536 28.490234 131.06836 C 28.745234 131.65336 28.989813 132.24136 29.257812 132.81836 C 29.310812 132.93436 29.356156 133.05292 29.410156 133.16992 C 29.888156 134.18592 30.387297 135.18397 30.904297 136.16797 C 31.011297 136.37597 31.127328 136.57916 31.236328 136.78516 C 31.807328 137.85316 32.398719 138.90159 33.011719 139.93359 C 33.082719 140.05059 33.150703 140.17106 33.220703 140.28906 C 33.953703 141.50606 34.716859 142.69728 35.505859 143.86328 C 35.507859 143.86428 35.506813 143.86619 35.507812 143.86719 C 50.231812 165.55619 74.674968 178 100.04297 178 C 111.15397 178 122.43525 175.61612 133.15625 170.57812 C 169.87525 153.32212 186.85572 111.10269 173.38672 73.679688 C 173.27672 73.367687 173.15216 73.063906 173.03516 72.753906 C 172.61516 71.635906 172.17222 70.521109 171.69922 69.412109 C 171.48722 68.912109 171.26987 68.418781 171.04688 67.925781 C 170.88387 67.562781 170.73741 67.195984 170.56641 66.833984 C 170.14241 65.929984 169.70014 65.03725 169.24414 64.15625 C 169.19914 64.06725 169.14852 63.982531 169.10352 63.894531 C 168.38252 62.514531 167.62498 61.167609 166.83398 59.849609 C 166.78398 59.764609 166.73559 59.67875 166.68359 59.59375 C 165.83459 58.18975 164.94453 56.824187 164.01953 55.492188 C 163.99753 55.461188 163.97903 55.430391 163.95703 55.400391 C 158.11203 46.996391 150.79425 40.018437 142.53125 34.648438 C 142.48425 34.617437 142.43958 34.588594 142.39258 34.558594 C 141.04758 33.688594 139.6762 32.859219 138.2832 32.074219 C 138.1682 32.009219 138.05255 31.946812 137.93555 31.882812 C 136.57355 31.123812 135.19011 30.404469 133.78711 29.730469 C 133.65011 29.661469 133.51105 29.600156 133.37305 29.535156 C 131.95505 28.864156 130.52241 28.229531 129.06641 27.644531 C 128.97641 27.608531 128.88492 27.577016 128.79492 27.541016 C 127.31292 26.953016 125.81578 26.406156 124.30078 25.910156 C 124.24478 25.891156 124.18981 25.872516 124.13281 25.853516 C 122.56281 25.342516 120.97505 24.884609 119.37305 24.474609 C 119.32005 24.460609 119.2718 24.441687 119.2168 24.429688 L 119.21484 24.431641 C 112.95084 22.830641 106.47355 22 99.935547 22 z M 116.25977 26.943359 C 117.68477 27.264359 119.09705 27.630203 120.49805 28.033203 C 120.44305 28.260203 120.38703 28.48975 120.33203 28.71875 C 119.96303 28.50075 119.59166 28.283453 119.22266 28.064453 C 118.50466 28.217453 117.78636 28.368484 117.06836 28.521484 C 117.26536 29.066484 117.46025 29.610297 117.65625 30.154297 C 118.53825 31.057297 119.41883 31.960281 120.29883 32.863281 C 120.26583 33.612281 120.23517 34.365234 120.20117 35.115234 C 120.82017 35.603234 121.44155 36.094031 122.06055 36.582031 C 121.60355 37.332031 121.14645 38.083984 120.68945 38.833984 C 120.98245 38.888984 121.27731 38.943094 121.57031 38.996094 C 121.84231 39.311094 122.11477 39.626359 122.38477 39.943359 C 121.60177 40.171359 120.81916 40.399953 120.03516 40.626953 C 119.76216 41.291953 119.4917 41.956187 119.2207 42.617188 C 118.9487 42.824188 118.6743 43.032281 118.4043 43.238281 C 117.9913 43.520281 117.57706 43.803936 117.16406 44.085938 C 116.83606 43.835938 116.51155 43.585938 116.18555 43.335938 C 115.92355 43.128937 115.66239 42.920844 115.40039 42.714844 C 114.94439 42.574844 114.48825 42.433969 114.03125 42.292969 C 113.34625 42.238969 112.65961 42.185859 111.97461 42.130859 C 111.61561 42.076859 111.25744 42.02375 110.89844 41.96875 C 110.69144 41.93575 110.4853 41.901141 110.2793 41.869141 C 110.0403 41.650141 109.8005 41.434797 109.5625 41.216797 L 108.32031 41.216797 C 107.86331 41.303797 107.40622 41.388563 106.94922 41.476562 C 106.45022 41.607563 105.94922 41.738141 105.44922 41.869141 C 105.10022 42.302141 104.7543 42.739828 104.4043 43.173828 C 104.1863 43.663828 103.96895 44.154578 103.75195 44.642578 C 103.47895 45.012578 103.20555 45.383906 102.93555 45.753906 C 102.51155 46.199906 102.08711 46.645844 101.66211 47.089844 C 101.26011 47.352844 100.85708 47.611047 100.45508 47.873047 C 100.02008 48.383047 99.585391 48.89625 99.150391 49.40625 C 98.681391 49.83025 98.214094 50.255687 97.746094 50.679688 C 97.671094 51.092686 97.592578 51.506922 97.517578 51.919922 C 97.550578 52.245922 97.582186 52.570436 97.617188 52.898438 C 97.704187 53.213437 97.789953 53.52875 97.876953 53.84375 C 98.029953 54.10475 98.180984 54.366953 98.333984 54.626953 C 98.561984 54.747953 98.791531 54.866328 99.019531 54.986328 C 99.411531 54.801328 99.801358 54.615641 100.19336 54.431641 C 100.21536 54.158641 100.23777 53.888187 100.25977 53.617188 C 100.78277 53.498188 101.30417 53.378766 101.82617 53.259766 C 101.84917 53.454766 101.86863 53.648703 101.89062 53.845703 C 102.13062 54.280703 102.37136 54.716344 102.60938 55.152344 C 102.79336 55.456344 102.97806 55.762406 103.16406 56.066406 C 103.13106 56.250406 103.09841 56.434141 103.06641 56.619141 C 103.08841 56.892141 103.10886 57.164547 103.13086 57.435547 C 103.51086 57.490547 103.89048 57.542656 104.27148 57.597656 C 104.49848 57.400656 104.72808 57.205766 104.95508 57.009766 C 105.34708 56.737766 105.73986 56.464359 106.13086 56.193359 C 106.01286 55.845359 105.89144 55.498391 105.77344 55.150391 C 105.72944 54.801391 105.68658 54.454469 105.64258 54.105469 C 106.21758 53.866469 106.79605 53.625719 107.37305 53.386719 C 107.16505 53.071719 106.95795 52.756406 106.75195 52.441406 C 106.35995 52.213406 105.96817 51.985813 105.57617 51.757812 C 105.60017 51.061813 105.62058 50.363969 105.64258 49.667969 C 106.11058 49.287969 106.57892 48.906391 107.04492 48.525391 C 107.18692 48.102391 107.32975 47.678906 107.46875 47.253906 C 107.67575 46.916906 107.88384 46.579186 108.08984 46.242188 C 108.58884 46.253188 109.08984 46.266391 109.58984 46.275391 C 109.66584 46.645391 109.74241 47.015766 109.81641 47.384766 C 109.39441 47.721766 108.96992 48.059531 108.54492 48.394531 C 108.41592 48.809531 108.28334 49.221766 108.15234 49.634766 C 108.37234 50.157766 108.58764 50.681125 108.80664 51.203125 C 109.01364 51.507125 109.21978 51.813187 109.42578 52.117188 C 110.01378 52.085188 110.60245 52.052531 111.18945 52.019531 C 111.48245 51.715531 111.77536 51.408469 112.06836 51.105469 C 112.73336 51.257469 113.39759 51.4095 114.05859 51.5625 C 114.04759 51.7265 114.03639 51.890734 114.02539 52.052734 C 113.76539 52.194734 113.50319 52.333609 113.24219 52.474609 C 112.69819 52.670609 112.15537 52.8655 111.60938 53.0625 C 111.21738 53.1605 110.82755 53.258469 110.43555 53.355469 C 110.24055 53.703469 110.04461 54.052391 109.84961 54.400391 C 109.98961 54.562391 110.13148 54.726672 110.27148 54.888672 C 110.02248 54.977672 109.77248 55.063391 109.52148 55.150391 C 109.59948 55.662391 109.67305 56.172594 109.74805 56.683594 C 109.94405 57.010594 110.14089 57.335109 110.33789 57.662109 C 109.88089 57.966109 109.4238 58.272172 108.9668 58.576172 C 108.6938 58.640172 108.42139 58.706484 108.15039 58.771484 C 107.97839 58.618484 107.80191 58.467453 107.62891 58.314453 C 107.49791 58.402453 107.36733 58.487172 107.23633 58.576172 C 106.96333 58.760172 106.69387 58.944859 106.42188 59.130859 C 106.12887 59.271859 105.83502 59.415688 105.54102 59.554688 C 105.43402 59.793686 105.32384 60.033437 105.21484 60.273438 C 104.96484 60.053437 104.71484 59.838141 104.46484 59.619141 C 104.30284 59.359141 104.13861 59.096937 103.97461 58.835938 C 103.77961 59.030938 103.58367 59.227828 103.38867 59.423828 C 102.85467 59.380828 102.32106 59.334969 101.78906 59.292969 C 101.60506 58.999969 101.41838 58.705109 101.23438 58.412109 C 101.34238 58.055109 101.45355 57.693938 101.56055 57.335938 C 101.70255 57.019938 101.84336 56.705625 101.98438 56.390625 C 101.75436 56.053625 101.52883 55.714906 101.29883 55.378906 C 101.04783 55.597906 100.79783 55.81525 100.54883 56.03125 C 100.28783 56.32525 100.02562 56.619109 99.765625 56.912109 C 99.927625 57.466109 100.09191 58.021172 100.25391 58.576172 C 100.27591 58.955172 100.29636 59.33675 100.31836 59.71875 C 99.992358 59.83775 99.665844 59.958172 99.339844 60.076172 L 98.099609 60.076172 C 97.848609 60.250172 97.598656 60.425656 97.347656 60.597656 C 97.129656 60.955656 96.914313 61.317781 96.695312 61.675781 C 96.402314 61.925781 96.108406 62.174781 95.816406 62.425781 C 95.305406 62.609781 94.793203 62.796469 94.283203 62.980469 C 94.250203 63.240469 94.216547 63.501672 94.185547 63.763672 C 93.804547 63.980672 93.423922 64.195064 93.044922 64.414062 C 93.012922 64.567063 92.978313 64.720094 92.945312 64.871094 C 92.391312 64.805094 91.837203 64.742734 91.283203 64.677734 C 91.218203 64.927734 91.151936 65.175781 91.085938 65.425781 C 90.878938 65.503781 90.672797 65.579344 90.466797 65.652344 C 90.051797 65.501344 89.639563 65.348266 89.226562 65.197266 C 88.867563 65.381266 88.507391 65.567953 88.150391 65.751953 C 88.312391 65.935953 88.476672 66.121641 88.638672 66.306641 C 89.193672 66.511641 89.749734 66.719781 90.302734 66.925781 C 90.379734 67.262781 90.45625 67.598547 90.53125 67.935547 C 90.72825 68.130547 90.923141 68.328436 91.119141 68.523438 C 91.065141 68.751436 91.010078 68.979031 90.955078 69.207031 C 90.857078 69.850031 90.760109 70.491766 90.662109 71.134766 C 90.434109 71.394766 90.204562 71.656969 89.976562 71.917969 C 89.399563 71.939969 88.823094 71.961422 88.246094 71.982422 C 87.366094 71.808422 86.484469 71.632031 85.605469 71.457031 C 85.071469 71.512031 84.537859 71.566094 84.005859 71.621094 C 83.700859 72.013094 83.396797 72.405828 83.091797 72.798828 C 82.669797 73.352828 82.243313 73.906937 81.820312 74.460938 C 81.875314 74.939937 81.928422 75.418484 81.982422 75.896484 C 81.862422 76.321484 81.743047 76.745922 81.623047 77.169922 C 81.764047 77.625922 81.907828 78.084016 82.048828 78.541016 C 82.297828 78.790016 82.546875 79.040062 82.796875 79.289062 C 83.264875 79.410062 83.734219 79.528437 84.199219 79.648438 C 84.212219 80.040437 84.222422 80.431219 84.232422 80.824219 C 84.428422 80.943219 84.623314 81.061641 84.820312 81.181641 C 85.222313 80.997641 85.624391 80.814906 86.025391 80.628906 C 86.917391 80.617906 87.810125 80.608656 88.703125 80.597656 C 88.910125 80.466656 89.116266 80.334125 89.322266 80.203125 C 89.681266 79.953125 90.039437 79.704078 90.398438 79.455078 C 90.605436 79.235078 90.812578 79.019781 91.017578 78.800781 C 90.864578 78.396781 90.7155 77.99575 90.5625 77.59375 C 90.6375 77.19075 90.714063 76.789672 90.789062 76.388672 C 91.181062 75.942672 91.573797 75.495828 91.966797 75.048828 C 92.487797 74.875828 93.010203 74.701344 93.533203 74.527344 C 93.804203 74.113344 94.077656 73.699109 94.347656 73.287109 C 94.401656 73.003109 94.456766 72.722453 94.509766 72.439453 C 94.955766 72.330453 95.400656 72.220328 95.847656 72.111328 C 96.293656 72.253328 96.738547 72.395156 97.185547 72.535156 C 97.908547 72.261156 98.630516 71.988797 99.353516 71.716797 C 99.882516 71.557797 100.41241 71.401234 100.94141 71.240234 C 101.22341 71.364234 101.50411 71.488328 101.78711 71.611328 C 101.91011 71.903328 102.03325 72.192375 102.15625 72.484375 C 102.51025 72.852375 102.86084 73.224703 103.21484 73.595703 C 103.53084 73.903703 103.84902 74.213484 104.16602 74.521484 C 104.64302 74.723484 105.11775 74.925906 105.59375 75.128906 C 105.98975 75.339906 106.3872 75.551672 106.7832 75.763672 C 107.0752 75.991672 107.36425 76.221219 107.65625 76.449219 C 107.84025 76.758219 108.02494 77.066 108.21094 77.375 C 108.18394 77.648 108.15786 77.920359 108.13086 78.193359 C 108.03286 78.388359 107.93884 78.582391 107.83984 78.775391 C 107.95584 78.959391 108.06659 79.146078 108.18359 79.330078 L 108.66016 78.853516 C 108.84416 78.597516 109.02984 78.343891 109.21484 78.087891 C 109.29484 77.919891 109.37317 77.752984 109.45117 77.583984 C 109.35317 77.418984 109.25616 77.250984 109.16016 77.083984 L 108.71094 76.634766 C 108.79994 76.502766 108.88761 76.371281 108.97461 76.238281 C 109.04661 76.134281 109.1175 76.025922 109.1875 75.919922 C 109.4345 76.080922 109.67973 76.237484 109.92773 76.396484 C 110.03373 76.546484 110.13914 76.696703 110.24414 76.845703 C 110.38614 76.739703 110.52697 76.633297 110.66797 76.529297 C 110.41197 76.264297 110.15734 76.001328 109.90234 75.736328 C 109.58534 75.516328 109.26622 75.296219 108.94922 75.074219 C 108.63222 74.837219 108.31505 74.599328 107.99805 74.361328 C 107.83305 74.371328 107.66305 74.379672 107.49805 74.388672 C 107.14405 74.282672 106.79245 74.176314 106.43945 74.070312 C 106.21745 73.788314 105.9993 73.508609 105.7793 73.224609 C 105.5843 72.854609 105.39027 72.485234 105.19727 72.115234 C 104.91427 71.982234 104.63356 71.849797 104.35156 71.716797 C 104.18456 71.418797 104.01661 71.118314 103.84961 70.820312 C 103.90061 70.705314 103.95281 70.590609 104.00781 70.474609 C 103.91881 70.300609 103.83214 70.121266 103.74414 69.947266 C 103.84914 69.814266 103.95455 69.680828 104.06055 69.548828 C 104.36055 69.478828 104.65903 69.407891 104.95703 69.337891 C 105.20503 69.512891 105.45217 69.691187 105.70117 69.867188 C 105.89417 70.121187 106.08625 70.376812 106.28125 70.632812 C 106.49225 70.905813 106.70502 71.178219 106.91602 71.449219 C 107.15302 71.644219 107.39191 71.83825 107.62891 72.03125 C 107.91091 72.13025 108.19256 72.227219 108.47656 72.324219 C 108.62656 72.510219 108.77478 72.694906 108.92578 72.878906 C 109.41878 72.992906 109.9133 73.106656 110.4043 73.222656 C 110.6693 73.612656 110.93227 73.998719 111.19727 74.386719 C 111.10827 74.705719 111.02259 75.020938 110.93359 75.335938 C 111.17159 75.583938 111.40948 75.830125 111.64648 76.078125 C 112.00748 76.351125 112.37047 76.627437 112.73047 76.898438 C 113.20747 76.968438 113.68125 77.038375 114.15625 77.109375 C 114.32525 77.417375 114.49316 77.726156 114.66016 78.035156 C 115.30416 78.318156 115.94784 78.597859 116.58984 78.880859 C 116.70384 78.625859 116.81859 78.371281 116.93359 78.113281 C 116.53559 77.840281 116.14014 77.567875 115.74414 77.296875 C 115.58514 77.021875 115.42562 76.747563 115.26562 76.476562 C 115.16164 76.220562 115.05522 75.964938 114.94922 75.710938 C 115.24122 75.374938 115.53127 75.041078 115.82227 74.705078 C 116.23727 74.669078 116.64945 74.633609 117.06445 74.599609 L 118.17578 74.599609 C 118.56278 74.440609 118.95084 74.281047 119.33984 74.123047 C 119.50784 73.945047 119.67866 73.770703 119.84766 73.595703 C 119.49366 72.887703 119.1372 72.180703 118.7832 71.470703 C 119.3652 71.219703 119.94534 70.967844 120.52734 70.714844 C 121.28434 70.159844 122.04473 69.602875 122.80273 69.046875 C 123.35773 69.098875 123.9157 69.148219 124.4707 69.199219 C 124.9267 68.845219 125.38094 68.490719 125.83594 68.136719 C 126.51794 68.186719 127.19981 68.236064 127.88281 68.289062 C 128.58981 68.618062 129.29786 68.946437 130.00586 69.273438 C 130.53686 69.602436 131.06766 69.932719 131.59766 70.261719 L 131.59766 71.626953 C 131.16866 71.800953 130.73955 71.98025 130.31055 72.15625 C 129.72855 72.28125 129.14545 72.409156 128.56445 72.535156 C 127.95845 72.307156 127.35309 72.081516 126.74609 71.853516 C 126.03809 71.801516 125.33205 71.751172 124.62305 71.701172 C 124.19405 72.078172 123.76494 72.458891 123.33594 72.837891 C 122.83194 72.990891 122.32436 73.140922 121.81836 73.294922 C 121.28636 73.572922 120.75656 73.847953 120.22656 74.126953 C 119.61956 74.404953 119.01325 74.683936 118.40625 74.960938 C 118.45625 75.466938 118.50759 75.970563 118.55859 76.476562 C 119.09059 76.983563 119.61939 77.487141 120.15039 77.994141 C 120.70539 78.652141 121.26336 79.308797 121.81836 79.966797 C 122.29936 79.840797 122.77777 79.714891 123.25977 79.587891 C 123.43477 79.285891 123.61306 78.980781 123.78906 78.675781 C 124.11806 78.930781 124.44639 79.182547 124.77539 79.435547 C 125.45939 79.334547 126.14027 79.231813 126.82227 79.132812 C 127.05027 78.828812 127.27786 78.525656 127.50586 78.222656 C 128.21386 78.272656 128.92091 78.324 129.62891 78.375 C 129.56891 78.772 129.50822 79.168453 129.44922 79.564453 C 129.42622 80.609453 129.40677 81.652266 129.38477 82.697266 C 129.47277 83.415266 129.55753 84.133563 129.64453 84.851562 C 129.87253 84.905563 130.10208 84.960625 130.33008 85.015625 C 130.33077 85.018215 130.33134 85.020848 130.33203 85.023438 L 129.65039 84.859375 L 128.70312 85.806641 L 127.01758 86.357422 L 127.61914 87.378906 L 129.83984 90.498047 L 130.26758 90.412109 L 130.44141 88.464844 L 130.58984 86.302734 L 130.34766 85.080078 C 130.51511 85.710654 130.68426 86.342162 130.85156 86.974609 C 130.75356 87.364609 130.65559 87.756484 130.55859 88.146484 C 130.61359 88.725484 130.66766 89.304813 130.72266 89.882812 C 130.97566 90.059814 131.22747 90.238064 131.48047 90.414062 C 132.01147 91.046064 132.54222 91.678547 133.07422 92.310547 C 133.52822 92.967547 133.9835 93.62425 134.4375 94.28125 C 134.7665 94.48425 135.09683 94.687672 135.42383 94.888672 C 135.80483 95.673672 136.18155 96.457234 136.56055 97.240234 C 136.94055 97.796234 137.31827 98.35325 137.69727 98.90625 C 138.20127 99.10925 138.70784 99.310625 139.21484 99.515625 C 139.49384 100.01963 139.76887 100.52425 140.04688 101.03125 C 140.62887 101.63825 141.21102 102.24256 141.79102 102.85156 C 142.55402 104.70956 143.31708 106.56869 144.08008 108.42969 C 145.39508 107.46869 146.70748 106.50988 148.02148 105.54688 C 149.08348 104.53786 150.14208 103.52564 151.20508 102.51562 C 151.55908 102.16062 151.91158 101.80714 152.26758 101.45312 C 152.31758 100.92314 152.36892 100.39333 152.41992 99.861328 C 152.90192 99.407328 153.37933 98.953047 153.86133 98.498047 C 154.19033 98.194047 154.51866 97.888891 154.84766 97.587891 C 154.97366 96.980891 155.10056 96.374578 155.22656 95.767578 C 155.52956 95.514578 155.83277 95.262719 156.13477 95.011719 C 155.95877 94.479719 155.78152 93.948969 155.60352 93.417969 C 155.85852 92.786969 156.10833 92.153484 156.36133 91.521484 C 156.46233 90.991484 156.56406 90.459687 156.66406 89.929688 C 156.13406 89.550686 155.60131 89.170016 155.07031 88.791016 C 154.66631 88.868016 154.26238 88.946531 153.85938 89.019531 C 153.53037 88.791531 153.20305 88.563937 152.87305 88.335938 C 152.54405 87.578936 152.21672 86.817547 151.88672 86.060547 C 151.65972 86.817547 151.43114 87.578937 151.20312 88.335938 C 150.95012 88.815938 150.69831 89.295344 150.44531 89.777344 C 150.01631 90.005344 149.5852 90.230984 149.1582 90.458984 C 148.9042 90.358984 148.65139 90.25825 148.40039 90.15625 C 148.37339 89.82725 148.34922 89.499922 148.32422 89.169922 C 148.19822 88.740922 148.07231 88.312812 147.94531 87.882812 C 147.76931 88.008813 147.59006 88.136719 147.41406 88.261719 L 147.41406 89.322266 C 147.18606 89.043266 146.95942 88.767281 146.73242 88.488281 C 146.37842 88.060281 146.02392 87.628172 145.66992 87.201172 C 145.03892 86.619172 144.40544 86.037031 143.77344 85.457031 C 143.67344 84.951031 143.5707 84.447406 143.4707 83.941406 C 143.9247 83.687406 144.38094 83.433641 144.83594 83.181641 C 145.39194 83.736641 145.94891 84.294609 146.50391 84.849609 C 146.73191 85.178609 146.95755 85.508891 147.18555 85.837891 C 147.48955 85.810891 147.7947 85.784766 148.0957 85.759766 C 148.5517 86.012766 149.00694 86.264578 149.46094 86.517578 L 150.36914 86.517578 C 150.77414 86.013578 151.17803 85.508953 151.58203 85.001953 C 151.83303 84.976953 152.0898 84.950828 152.3418 84.923828 C 152.5938 85.455828 152.84466 85.987578 153.09766 86.517578 C 154.10866 86.214578 155.11986 85.912375 156.13086 85.609375 C 156.83686 85.228375 157.54595 84.849656 158.25195 84.472656 C 158.73395 84.169656 159.21236 83.8655 159.69336 83.5625 C 159.74436 83.5365 159.79466 83.511375 159.84766 83.484375 C 160.35066 83.966375 160.85728 84.444781 161.36328 84.925781 C 161.89328 85.101781 162.42408 85.280031 162.95508 85.457031 C 163.33208 85.152031 163.7128 84.848875 164.0918 84.546875 C 164.5978 85.078875 165.10237 85.610672 165.60938 86.138672 C 166.21637 87.553672 166.82073 88.969766 167.42773 90.384766 C 167.98373 91.422766 168.5397 92.456186 169.0957 93.492188 C 169.7277 94.605187 170.35823 95.718078 170.99023 96.830078 C 171.34423 97.916078 171.69969 99.002848 172.05469 100.08984 C 172.20669 98.979848 172.35677 97.867859 172.50977 96.755859 C 172.45877 94.985859 172.40847 93.213266 172.35547 91.447266 C 171.97647 90.712266 171.59775 89.982 171.21875 89.25 C 171.39475 88.036 171.57205 86.821328 171.74805 85.611328 C 171.54605 84.118328 171.34358 82.626719 171.14258 81.136719 C 171.06558 80.303719 170.98906 79.469766 170.91406 78.634766 C 171.05306 78.219766 171.19208 77.803672 171.33008 77.388672 C 182.51608 112.60467 166.15113 151.62391 131.82812 167.75391 C 121.76412 172.48191 111.07297 174.88086 100.04297 174.88086 C 77.062968 174.88086 55.535047 164.19183 41.498047 146.67383 C 41.298047 146.14783 41.099391 145.62366 40.900391 145.09766 C 41.759391 145.20066 42.620516 145.3013 43.478516 145.4043 C 43.950516 145.2593 44.421625 145.11761 44.890625 144.97461 C 45.054625 143.95261 45.218814 142.92734 45.382812 141.90234 C 45.258814 140.67634 45.137672 139.4487 45.013672 138.2207 C 44.787672 137.6277 44.562938 137.0325 44.335938 136.4375 C 44.643937 136.2335 44.952812 136.03022 45.257812 135.82422 C 45.401812 135.25022 45.5455 134.67752 45.6875 134.10352 C 46.1385 133.79752 46.588109 133.48959 47.037109 133.18359 C 47.100109 132.13959 47.162656 131.09478 47.222656 130.05078 C 46.956656 129.45678 46.689828 128.86258 46.423828 128.26758 C 45.830828 127.94158 45.237578 127.61316 44.642578 127.28516 C 44.048578 126.26216 43.455328 125.23884 42.861328 124.21484 C 42.062328 123.76584 41.265797 123.31428 40.466797 122.86328 C 39.524797 122.29128 38.582625 121.71758 37.640625 121.14258 C 37.106625 120.18158 36.574969 119.21986 36.042969 118.25586 C 35.266969 117.27486 34.487937 116.29059 33.710938 115.30859 L 33.710938 112.48242 C 33.443938 111.62242 33.177156 110.76034 32.910156 109.90234 C 32.174156 108.77634 31.437219 107.65239 30.699219 106.52539 C 30.167219 105.19339 29.635469 103.8642 29.105469 102.5332 C 28.900469 101.1822 28.694234 99.832516 28.490234 98.478516 C 28.264234 97.600516 28.039453 96.719844 27.814453 95.839844 C 27.105453 94.326844 26.395547 92.813828 25.685547 91.298828 C 26.019547 88.492828 26.51525 85.711703 27.15625 82.970703 L 28.013672 85.396484 L 29.261719 87.25 L 30.228516 87.773438 L 29.140625 85.396484 L 28.339844 82.583984 L 28.300781 79.923828 L 28.195312 79.044922 C 30.115312 72.463922 32.923453 66.153453 36.564453 60.314453 C 37.167453 59.866453 37.769094 59.421609 38.371094 58.974609 C 39.123094 58.276609 39.875953 57.577906 40.626953 56.878906 C 41.741953 56.449906 42.857656 56.018844 43.972656 55.589844 C 44.590656 55.333844 45.208172 55.080219 45.826172 54.824219 C 45.893172 55.253219 45.960344 55.684281 46.027344 56.113281 C 46.645344 56.126281 47.262859 56.140344 47.880859 56.152344 C 48.766859 55.857344 49.654016 55.562578 50.541016 55.267578 C 49.722016 54.972578 48.900984 54.676813 48.083984 54.382812 C 48.619984 53.897813 49.157359 53.414687 49.693359 52.929688 C 50.124359 52.486688 50.555375 52.044609 50.984375 51.599609 C 50.795375 51.130609 50.607922 50.659406 50.419922 50.191406 C 50.928922 50.136406 51.441172 50.083297 51.951172 50.029297 C 52.528172 50.567297 53.104641 51.102625 53.681641 51.640625 C 54.285641 51.626625 54.889141 51.612609 55.494141 51.599609 C 56.046141 51.573609 56.595436 51.545531 57.148438 51.519531 C 57.550438 50.806531 57.953469 50.096766 58.355469 49.384766 C 58.637469 48.376766 58.918172 47.369328 59.201172 46.361328 C 60.517172 44.749328 61.835344 43.138391 63.152344 41.525391 C 62.223344 41.767391 61.297094 42.01 60.371094 42.25 C 61.054094 41.391 61.741781 40.531828 62.425781 39.673828 C 62.896781 38.921828 63.365937 38.168016 63.835938 37.416016 C 63.056936 37.767016 62.276047 38.115844 61.498047 38.464844 C 60.370047 39.324844 59.241281 40.184969 58.113281 41.042969 C 57.238281 41.444969 56.367141 41.849 55.494141 42.25 C 54.272141 42.736 53.051172 43.218125 51.826172 43.703125 C 52.968172 42.721125 54.11 41.740719 55.25 40.761719 C 55.543 40.289719 55.834 39.818609 56.125 39.349609 C 59.069 37.221609 62.197766 35.284406 65.509766 33.566406 C 66.038766 33.627406 66.567656 33.689 67.097656 33.75 C 67.166656 34.313 67.232781 34.878359 67.300781 35.443359 C 66.871781 36.180359 66.440719 36.918203 66.011719 37.658203 C 65.662719 38.275203 65.314844 38.893719 64.964844 39.511719 C 65.944844 39.525719 66.924297 39.539781 67.904297 39.550781 C 68.952297 38.999781 70.000828 38.449437 71.048828 37.898438 C 72.257828 37.335437 73.466781 36.769078 74.675781 36.205078 C 75.749781 35.734078 76.823436 35.264922 77.898438 34.794922 C 77.482438 34.552922 77.064436 34.312312 76.648438 34.070312 C 76.607438 33.653312 76.568297 33.238313 76.529297 32.820312 C 76.984297 32.298313 77.441438 31.772047 77.898438 31.248047 C 78.138437 30.724047 78.381047 30.201734 78.623047 29.677734 C 78.985047 30.000734 79.348938 30.321531 79.710938 30.644531 C 79.883938 30.416531 80.059375 30.186984 80.234375 29.958984 C 80.651375 30.092984 81.066375 30.229281 81.484375 30.363281 C 82.223375 30.430281 82.959219 30.497453 83.699219 30.564453 C 83.203219 31.223453 82.706937 31.881063 82.210938 32.539062 C 81.928938 32.862063 81.647281 33.184812 81.363281 33.507812 C 80.800281 34.179814 80.234922 34.850484 79.669922 35.521484 C 78.771922 36.301484 77.872656 37.079422 76.972656 37.857422 C 76.382656 38.046422 75.791219 38.232875 75.199219 38.421875 C 74.582219 39.051875 73.963703 39.684406 73.345703 40.316406 C 72.727703 40.637406 72.110187 40.960203 71.492188 41.283203 L 69.560547 43.216797 C 69.251547 43.726797 68.942813 44.236094 68.632812 44.746094 C 68.794812 44.909094 68.955188 45.069422 69.117188 45.232422 C 68.997186 45.620422 68.875859 46.010438 68.755859 46.398438 C 69.153859 46.603437 69.550266 46.806766 69.947266 47.009766 C 70.364266 46.659766 70.781266 46.312891 71.197266 45.962891 C 71.774266 45.600891 72.351687 45.238953 72.929688 44.876953 C 73.612686 44.458953 74.301375 44.043953 74.984375 43.626953 C 75.710375 43.545953 76.435156 43.464766 77.160156 43.384766 C 78.036156 43.090766 78.905297 42.793047 79.779297 42.498047 C 80.222297 42.216047 80.665328 41.934344 81.111328 41.652344 C 81.552328 41.758344 81.996406 41.868609 82.441406 41.974609 C 83.556406 41.801609 84.671156 41.624219 85.785156 41.449219 C 86.228156 41.142219 86.671234 40.832437 87.115234 40.523438 C 87.653234 39.973436 88.191516 39.422094 88.728516 38.871094 C 89.506516 38.146094 90.285453 37.421312 91.064453 36.695312 C 91.507453 36.210313 91.950531 35.727187 92.394531 35.242188 C 92.986531 34.691187 93.578922 34.141797 94.169922 33.591797 C 94.639922 33.404797 95.110125 33.214344 95.578125 33.027344 C 95.277125 32.451344 94.980547 31.876828 94.685547 31.298828 C 95.289547 31.606828 95.893047 31.915562 96.498047 32.226562 C 97.585047 32.399563 98.673719 32.575047 99.761719 32.748047 C 100.80972 32.722047 101.8563 32.695969 102.9043 32.667969 C 104.2213 32.440969 105.53852 32.212375 106.85352 31.984375 C 107.18952 31.555375 107.52633 31.124312 107.86133 30.695312 C 108.60133 30.883312 109.33812 31.070766 110.07812 31.259766 C 110.42714 31.231766 110.77595 31.206734 111.12695 31.177734 C 111.05895 30.627734 110.99183 30.076391 110.92383 29.525391 C 111.35283 29.243391 111.78384 28.960734 112.21484 28.677734 C 112.84484 28.450734 113.47642 28.220141 114.10742 27.994141 C 114.84542 28.021141 115.58522 28.047219 116.32422 28.074219 C 116.36022 27.749219 116.4005 27.423656 116.4375 27.097656 C 116.3785 27.046656 116.31877 26.994359 116.25977 26.943359 z M 127.61914 87.378906 L 125.30859 86.916016 L 123.34375 87.146484 L 118.60547 86.685547 L 114.33008 85.759766 L 113.52148 86.916016 L 113.86719 88.419922 L 112.48242 89.228516 L 109.36133 88.1875 L 107.62695 86.916016 L 103.35156 85.298828 L 102.31055 84.373047 L 103.4668 81.023438 L 101.73242 80.560547 L 100.23047 81.369141 L 97.457031 80.908203 L 93.414062 80.908203 L 90.638672 82.0625 L 88.214844 83.103516 L 86.248047 82.640625 L 84.630859 81.716797 L 82.783203 83.449219 L 80.470703 84.835938 L 79.199219 89.113281 L 74.923828 91.191406 L 72.496094 93.388672 L 72.150391 95.236328 L 70.300781 96.623047 L 69.029297 99.626953 L 69.607422 104.13477 L 67.757812 108.52539 L 65.796875 114.88281 L 68.916016 116.03711 L 72.728516 118.58008 L 78.158203 123.54883 L 83.591797 122.625 L 85.787109 123.54883 L 87.289062 122.73828 L 94.107422 121.46875 L 95.724609 123.78125 L 96.996094 124.35547 L 100.92383 124.24219 L 102.42773 126.55273 L 101.03906 131.63672 L 104.96875 136.83789 L 106.81836 139.72656 L 106.35742 141.46094 L 107.51172 144.00391 L 104.85547 147.35352 L 104.50781 150.47461 L 107.62695 155.21289 L 108.78516 160.06445 L 109.70703 160.17969 L 111.20898 163.06836 L 110.98047 163.99414 L 112.82812 165.15039 L 115.02539 166.30664 L 118.60547 164.80273 L 122.1875 163.06836 L 126.11719 159.83398 L 128.42773 157.98633 L 128.89062 155.9043 L 132.35547 154.17383 L 133.16797 152.66992 L 132.70312 149.7793 L 134.55273 147.93359 L 137.55664 146.08203 L 140.5625 143.42383 L 140.32812 138.10938 L 139.63867 133.60156 L 140.67773 129.67383 L 145.30078 123.78125 L 149.46094 117.6543 L 151.88672 111.18359 L 151.88672 106.56055 L 149.11328 108.52539 L 148.07227 109.79688 L 146.45508 110.0293 L 145.30078 111.06836 L 144.37695 109.79688 L 141.71875 107.37109 L 139.52344 105.63672 L 137.9043 102.97852 L 136.16992 101.70703 L 134.66797 97.662109 L 133.2832 96.740234 L 131.78125 94.427734 L 127.61914 87.378906 z M 83.402344 44.59375 L 82.677734 45.199219 L 83.080078 45.923828 L 82.556641 46.771484 L 83.240234 47.333984 L 84.853516 47.535156 L 86.34375 47.132812 L 88.035156 46.609375 L 87.390625 45.037109 L 86.265625 44.958984 L 84.892578 44.796875 L 83.402344 44.59375 z M 92.560547 53.453125 L 89.466797 53.689453 L 89.097656 55.144531 L 89.310547 56.386719 L 89.626953 57.548828 L 90.498047 58.236328 L 91.054688 59.294922 L 90.287109 59.875 L 89.757812 59.875 L 89.810547 60.933594 L 89.201172 61.224609 L 88.939453 61.675781 L 89.388672 62.255859 L 88.199219 63.632812 L 89.148438 63.234375 L 89.677734 63.390625 L 90.628906 62.917969 L 92.244141 62.917969 L 93.908203 62.757812 L 94.384766 62.333984 L 94.068359 61.777344 L 94.78125 61.119141 L 93.962891 60.457031 L 93.355469 59.558594 L 92.957031 58.632812 L 92.427734 58.027344 L 92.376953 57.417969 L 91.689453 56.808594 L 91.794922 56.095703 L 92.480469 55.59375 L 92.613281 54.640625 L 92.560547 53.453125 z M 87.353516 57.099609 L 86.71875 58.183594 L 86.03125 58.447266 L 85.898438 59.400391 L 85.474609 59.71875 L 85.396484 60.191406 L 84.919922 60.564453 L 84.814453 61.384766 L 85.236328 61.568359 L 86.691406 61.197266 L 87.617188 60.933594 L 88.277344 60.033203 L 88.619141 59.029297 L 89.097656 58.476562 L 88.462891 57.283203 L 87.353516 57.099609 z M 99.826172 75.066406 L 99.53125 75.519531 L 99.677734 75.974609 L 100.14453 76.349609 L 100.14453 76.001953 L 100.2793 75.359375 L 99.826172 75.066406 z M 107.74023 79.0625 L 106.35156 79.572266 L 105.20508 79.744141 L 105.05859 80.353516 L 106.69336 80.9375 L 107.54688 81.232422 L 108.1543 80.560547 L 107.86914 79.914062 L 107.74023 79.0625 z M 126.63086 80.353516 L 125.55859 81.232422 L 124.6582 81.742188 L 123.68359 82.085938 L 123.3418 82.767578 L 123.68359 83.15625 L 125.15625 83.15625 L 125.75391 82.767578 L 126.28906 82.523438 L 126.63086 82.230469 L 126.36328 81.792969 L 126.16797 81.572266 L 126.31445 81.109375 L 126.63086 80.720703 L 126.63086 80.353516 z M 150.14844 136.94336 L 149.05859 138.91797 L 148.69727 138.91797 L 148.21484 139.80469 L 146.96484 141.33594 L 145.51562 142.54297 L 144.14453 143.30859 L 143.90234 144.19531 L 143.37891 144.8418 L 143.62109 146.25195 L 143.33984 147.33984 L 142.57227 148.10352 L 141.72656 149.27344 L 141.08203 150.20117 L 141.44531 150.80469 L 141.04102 151.77148 L 142.13086 152.61719 L 144.30664 151.64844 L 145.47266 149.79688 L 147.36719 146.45117 L 148.81641 143.63281 L 150.30859 140.85156 L 150.14844 136.94336 z "
       id="path20" />
  </g>
</svg>
