<?xml version="1.0" standalone="no"?>
<!DOCTYPE svg PUBLIC "-//W3C//DTD SVG 20010904//EN"
 "http://www.w3.org/TR/2001/REC-SVG-20010904/DTD/svg10.dtd">
<svg id="www" version="1.0" xmlns="http://www.w3.org/2000/svg"
 width="100%" height="100%" viewBox="0 0 16.000000 16.000000"
 preserveAspectRatio="xMidYMid">

<g class="SVGChild" transform="translate(0.000000,16.000000) scale(0.100000,-0.100000)"
fill="currentColor" stroke="none">
<path d="M26 135 c-34 -32 -35 -77 -1 -110 51 -52 135 -11 135 66 0 30 -44 69
-78 69 -17 0 -40 -10 -56 -25z m38 -7 c-36 -43 -68 -54 -41 -15 8 12 20 21 26
20 6 -2 11 2 11 7 0 6 5 10 12 10 6 0 3 -10 -8 -22z m72 -21 c13 -8 10 -55 -5
-70 -8 -8 -11 -8 -11 1 0 7 -7 12 -15 12 -8 0 -15 7 -15 15 0 8 9 15 19 15 11
0 23 5 27 11 5 8 -1 10 -20 7 -14 -3 -26 -2 -26 2 0 18 23 22 46 7z m-82 -35
c3 -5 2 -18 -1 -30 -5 -21 -6 -21 -19 -5 -7 10 -14 24 -14 31 0 13 26 17 34 4z"/>
</g>
</svg>
