<?xml version="1.0" encoding="UTF-8" standalone="no"?>
<svg
   xmlns:dc="http://purl.org/dc/elements/1.1/"
   xmlns:cc="http://creativecommons.org/ns#"
   xmlns:rdf="http://www.w3.org/1999/02/22-rdf-syntax-ns#"
   xmlns:svg="http://www.w3.org/2000/svg"
   xmlns="http://www.w3.org/2000/svg"
   xmlns:sodipodi="http://sodipodi.sourceforge.net/DTD/sodipodi-0.dtd"
   xmlns:inkscape="http://www.inkscape.org/namespaces/inkscape"
   version="1.1"
   id="wrong"
   x="0px"
   y="0px"
   width="100%"
   height="100%"
   viewBox="0 0 510 510"
   style="enable-background:new 0 0 510 510;"
   xml:space="preserve"
   inkscape:version="0.91 r13725"><defs
     id="defs11" /><sodipodi:namedview
     pagecolor="#ffffff"
     bordercolor="#666666"
     borderopacity="1"
     objecttolerance="10"
     gridtolerance="10"
     guidetolerance="10"
     inkscape:pageopacity="0"
     inkscape:pageshadow="2"
     inkscape:window-width="1286"
     inkscape:window-height="665"
     id="namedview9"
     showgrid="false"
     inkscape:zoom="0.65442039"
     inkscape:cx="-51.940928"
     inkscape:cy="255"
     inkscape:window-x="45"
     inkscape:window-y="98"
     inkscape:window-maximized="0"
     inkscape:current-layer="color" /><g
     fill="currentColor"
     id="g3"><g
     fill="currentColor"
       id="g5" /></g><path
       fill="currentColor"
     d="M 255 5 A 250 250 0 0 0 5 255 A 250 250 0 0 0 255 505 A 250 250 0 0 0 505 255 A 250 250 0 0 0 255 5 z M 255 60.375 C 275.25 60.375 285.9375 74.4375 285.9375 100.875 C 285.9375 107.0625 285.375 117.75 284.25 133.5 L 268.5 348.375 L 241.5 348.375 L 225.75 133.5 C 224.625 121.125 224.0625 110.4375 224.0625 100.875 C 224.0625 73.875 234.75 60.375 255 60.375 z M 255 385.5 C 273 385.5 287.0625 399.5625 287.0625 417.5625 C 287.0625 435 273 449.625 255 449.625 C 237.5625 449.625 222.9375 435.5625 222.9375 417.5625 C 222.9375 399.5625 237.5625 385.5 255 385.5 z "
     id="path3335" /><g
     fill="currentColor"
     style="font-style:normal;font-weight:normal;font-size:40px;line-height:125%;font-family:sans-serif;letter-spacing:0px;word-spacing:0px;fill-opacity:1;stroke:none;stroke-width:1px;stroke-linecap:butt;stroke-linejoin:miter;stroke-opacity:1"
     id="text4136" /></svg>
