<?xml version="1.0" encoding="UTF-8" standalone="no"?>
<svg
   xmlns:dc="http://purl.org/dc/elements/1.1/"
   xmlns:cc="http://creativecommons.org/ns#"
   xmlns:rdf="http://www.w3.org/1999/02/22-rdf-syntax-ns#"
   xmlns:svg="http://www.w3.org/2000/svg"
   xmlns="http://www.w3.org/2000/svg"
   xmlns:sodipodi="http://sodipodi.sourceforge.net/DTD/sodipodi-0.dtd"
   xmlns:inkscape="http://www.inkscape.org/namespaces/inkscape"
   width="100%"
   height="100%"
   viewBox="0 0 750 150"
   id="logo"
   version="1.1">
  <defs
     id="defs4" />
  <sodipodi:namedview
     id="base"
     pagecolor="#ffffff"
     bordercolor="#666666"
     borderopacity="1.0"
     inkscape:pageopacity="0.0"
     inkscape:pageshadow="2"
     inkscape:zoom="0.9899495"
     inkscape:cx="294.55739"
     inkscape:cy="101.03867"
     inkscape:document-units="px"
     inkscape:current-layer="layer1"
     showgrid="false"
     inkscape:window-width="1440"
     inkscape:window-height="797"
     inkscape:window-x="0"
     inkscape:window-y="1"
     inkscape:window-maximized="1" />
  <g
     inkscape:label="Ebene 1"
     inkscape:groupmode="layer"
     id="layer1">
    <text
       xml:space="preserve"
       style="font-style:normal;font-weight:normal;font-size:40px;line-height:125%;font-family:sans-serif;letter-spacing:0px;word-spacing:0px;fill:#000000;fill-opacity:1;stroke:none;stroke-width:1px;stroke-linecap:butt;stroke-linejoin:miter;stroke-opacity:1"
       x="250.17857"
       y="405.75507"
       id="text4140"
       sodipodi:linespacing="125%"><tspan
         sodipodi:role="line"
         id="tspan4142"
         x="250.17857"
         y="405.75507" /></text>
    <g
       id="g4143"
       transform="matrix(1.5678492,0,0,1.5678492,-768.48129,-18.277257)">
      <path
         sodipodi:open="true"
         d="m 644.44867,25.241547 a 81.967339,81.967323 0 0 1 81.96734,81.967323"
         sodipodi:end="0"
         sodipodi:start="4.712389"
         sodipodi:ry="81.967323"
         sodipodi:rx="81.967339"
         sodipodi:cy="107.20887"
         sodipodi:cx="644.44867"
         sodipodi:type="arc"
         id="path4171"
         style="opacity:1;fill:none;fill-opacity:1;fill-rule:nonzero;stroke:#ffff4d;stroke-width:27.16802216;stroke-miterlimit:4;stroke-dasharray:none;stroke-opacity:1" />
      <path
         d="M 644.34119,51.925911 A 55.291489,55.291489 0 0 1 699.63268,107.2174"
         sodipodi:open="true"
         sodipodi:end="0"
         sodipodi:start="4.712389"
         sodipodi:ry="55.291489"
         sodipodi:rx="55.291489"
         sodipodi:cy="107.2174"
         sodipodi:cx="644.34119"
         sodipodi:type="arc"
         id="path4175"
         style="opacity:1;fill:none;fill-opacity:1;fill-rule:nonzero;stroke:#ffba00;stroke-width:27.38862419;stroke-miterlimit:4;stroke-dasharray:none;stroke-opacity:1" />
      <g
         transform="matrix(1.2014131,0,0,1.2014131,38.292298,-19.991627)"
         id="text4163"
         style="font-style:normal;font-weight:normal;font-size:40px;line-height:125%;font-family:sans-serif;letter-spacing:0px;word-spacing:0px;fill:#000000;fill-opacity:1;stroke:none;stroke-width:1px;stroke-linecap:butt;stroke-linejoin:miter;stroke-opacity:1">
        <path
           sodipodi:nodetypes="csscscsccscsssccscc"
           inkscape:connector-curvature="0"
           id="path4168"
           style="font-style:normal;font-variant:normal;font-weight:normal;font-stretch:normal;font-size:100px;font-family:'Bauhaus 93';-inkscape-font-specification:'Bauhaus 93, ';fill:#3a6e9f;fill-opacity:1"
           d="m 394.36691,26.349609 0,51.892578 c 0,6.477865 2.32747,9.716797 6.98242,9.716797 1.98568,0 3.66211,-0.667318 5.0293,-2.001953 1.39974,-1.367187 2.09961,-3.011067 2.09961,-4.93164 0,-1.985677 -0.65104,-3.645834 -1.95312,-4.980469 -1.30209,-1.367187 -2.89714,-2.050781 -4.78516,-2.050781 -1.33463,0 -2.86458,0.585937 -4.58984,1.757812 l 0,-20.117187 c 2.14843,-0.195313 3.77604,-0.292969 4.88281,-0.292969 6.86849,0 12.74414,2.473958 17.62695,7.421875 4.91537,4.947917 7.37305,10.904948 7.37305,17.871094 0,7.128906 -2.49023,13.134765 -7.4707,18.017578 -4.98047,4.882806 -11.10027,7.324216 -18.35938,7.324216 -3.64583,0 -7.21029,-0.79753 -10.69336,-2.39258 -3.45052,-1.59505 -6.29883,-3.743483 -8.54492,-6.445308 -3.90625,-4.6875 -5.85938,-10.758464 -5.85938,-18.212891 l 0,-52.576172 z" />
        <path
           id="path4180"
           d="m 431.18723,56.318359 18.26171,0"
           style="font-style:normal;font-variant:normal;font-weight:normal;font-stretch:normal;font-size:100px;font-family:'Bauhaus 93';-inkscape-font-specification:'Bauhaus 93, ';fill:#3a6e9f;fill-opacity:1;fill-rule:nonzero;stroke:none;stroke-opacity:1"
           inkscape:connector-curvature="0" />
        <path
           id="path4178"
           d="m 449.44894,56.318359 0,48.681641 -18.26171,0 0,-48.681641"
           style="font-style:normal;font-variant:normal;font-weight:normal;font-stretch:normal;font-size:100px;font-family:'Bauhaus 93';-inkscape-font-specification:'Bauhaus 93, ';fill:#3a6e9f;fill-opacity:1;fill-rule:nonzero;stroke:none;stroke-opacity:1"
           inkscape:connector-curvature="0" />
        <path
           id="path4176"
           transform="matrix(0.83235317,0,0,0.83235317,-31.872716,16.640094)"
           d="m 567.35547,21.564453 c -2.97224,0 -5.55406,1.056111 -7.74414,3.167969 -2.15098,2.072751 -3.22656,4.537658 -3.22656,7.392578 0,3.050464 1.01713,5.552388 3.05078,7.507812 2.07275,1.955425 4.71302,2.933594 7.91992,2.933594 3.20689,0 5.82573,-0.978169 7.85937,-2.933594 2.07275,-1.955424 3.10938,-4.457348 3.10938,-7.507812 0,-2.85492 -1.09509,-5.319827 -3.28516,-7.392578 -2.15097,-2.111858 -4.71134,-3.167969 -7.68359,-3.167969 z"
           style="font-style:normal;font-variant:normal;font-weight:normal;font-stretch:normal;font-size:100px;font-family:'Bauhaus 93';-inkscape-font-specification:'Bauhaus 93, ';fill:#ffff4d;fill-opacity:1;fill-rule:nonzero;stroke:none;stroke-opacity:1"
           inkscape:connector-curvature="0" />
        <path
           sodipodi:nodetypes="ccsccsssssccscscssc"
           inkscape:connector-curvature="0"
           id="path4172"
           style="font-style:normal;font-variant:normal;font-weight:normal;font-stretch:normal;font-size:100px;font-family:'Bauhaus 93';-inkscape-font-specification:'Bauhaus 93, ';fill:#3a6e9f;fill-opacity:1"
           d="m 486.26926,26.349609 18.26172,0 0,52.576172 c 0,7.454427 -1.95313,13.525391 -5.85938,18.212891 -2.24609,2.701825 -5.11068,4.850258 -8.59375,6.445308 -3.45052,1.59505 -6.9987,2.39258 -10.64453,2.39258 -7.25911,0 -13.37891,-2.44141 -18.35938,-7.324216 -4.98047,-4.882813 -7.4707,-10.872396 -7.4707,-17.96875 0,-6.86849 2.47396,-12.809245 7.42188,-17.822266 4.94791,-5.013021 10.80729,-7.519531 17.57812,-7.519531 1.07422,0 2.70182,0.09766 4.88281,0.292969 l 0,20.117187 c -1.49739,-1.171875 -2.99479,-1.757812 -4.49218,-1.757812 -1.88803,0 -3.51563,0.69987 -4.88282,2.099609 -1.33463,1.367187 -2.00195,3.027344 -2.00195,4.980469 0,1.888021 0.69987,3.515625 2.09961,4.882812 1.39974,1.334635 3.07617,2.001953 5.0293,2.001953 4.6875,0 7.03125,-3.238932 7.03125,-9.716797 z" />
      </g>
    </g>
  </g>
</svg>
