<?xml version="1.0" encoding="UTF-8" standalone="no"?>
<svg
   xmlns:dc="http://purl.org/dc/elements/1.1/"
   xmlns:cc="http://creativecommons.org/ns#"
   xmlns:rdf="http://www.w3.org/1999/02/22-rdf-syntax-ns#"
   xmlns:svg="http://www.w3.org/2000/svg"
   xmlns="http://www.w3.org/2000/svg"
   xmlns:sodipodi="http://sodipodi.sourceforge.net/DTD/sodipodi-0.dtd"
   xmlns:inkscape="http://www.inkscape.org/namespaces/inkscape"
   viewBox="0 0 250 50"
   height="100%"
   width="100%"
   xml:space="preserve"
   id="logo">
   <sodipodi:namedview
     pagecolor="#ffffff"
     bordercolor="#666666"
     borderopacity="1"
     objecttolerance="10"
     gridtolerance="10"
     guidetolerance="10"
     inkscape:pageopacity="0"
     inkscape:pageshadow="2"
     inkscape:window-width="1352"
     inkscape:window-height="672"
     id="namedview36"
     showgrid="false"
     inkscape:zoom="1.592"
     inkscape:cx="261.81753"
     inkscape:cy="75"
     inkscape:window-x="40"
     inkscape:window-y="109"
     inkscape:window-maximized="0"
     inkscape:current-layer="logo" /><defs
     id="defs6" /><g
     transform="matrix(0.32061764,0,0,-0.32061764,-3.6770996,50)"
     id="g10"><g
       transform="scale(0.1,0.1)"
       id="g12"><path
         id="path14"
         style="fill:#174c83;fill-opacity:1;fill-rule:nonzero;stroke:none"
         d="m 722.715,797.957 224.695,0 0,46.879 c 0,14.551 0.813,26.676 -9.695,36.375 l -29.906,25.863 c -9.7,8.891 -25.055,9.696 -37.18,9.696 l -65.469,0 c -14.551,0 -26.676,0 -39.601,-8.891 l -26.676,-19.395 c -9.699,-7.273 -16.168,-12.933 -16.168,-35.566 z m 64.664,-239.246 c -32.328,0 -45.266,0 -69.512,21.019 l -33.14,29.094 c -30.711,27.481 -39.606,45.266 -39.606,87.293 l 0,149.531 c 0,41.219 5.66,65.469 37.988,92.95 l 27.481,23.437 c 36.375,31.524 54.156,32.328 85.68,32.328 l 71.128,0 c 37.985,0 55.766,-4.039 85.672,-28.285 L 984.594,941.02 C 1020.16,912.73 1025,882.824 1025,839.988 l 0,-62.234 c 0,-44.453 -7.27,-57.391 -53.34,-57.391 l -248.945,0 0,-25.863 c 0,-7.277 5.66,-16.973 11.316,-22.633 l 19.403,-21.012 c 10.507,-11.316 25.863,-14.55 51.726,-14.55 l 166.5,0 c 25.863,0 53.34,-5.657 53.34,-38.797 0,-33.945 -30.707,-38.797 -53.34,-38.797 l -184.281,0"
         inkscape:connector-curvature="0" /><path
         id="path16"
         style="fill:#313334;fill-opacity:1;fill-rule:nonzero;stroke:none"
         d="m 1924.12,689.113 50.92,0 c 22.64,0 46.68,-4.949 46.68,-33.949 0,-29.703 -26.88,-33.945 -46.68,-33.945 l -172.57,0 c -19.79,0 -46.67,4.242 -46.67,33.945 0,29 24.04,33.949 46.67,33.949 l 53.75,0 0,385.447 -53.75,0 c -19.79,0 -46.67,4.24 -46.67,33.95 0,29 24.04,33.95 46.67,33.95 l 71.44,0 c 38.89,0 50.21,-7.08 50.21,-47.39 l 0,-405.957"
         inkscape:connector-curvature="0" /><path
         id="path18"
         style="fill:#313334;fill-opacity:1;fill-rule:nonzero;stroke:none"
         d="m 2266.44,791.664 c -18.39,0 -45.27,-4.953 -45.27,-29.703 l 0,-45.266 c 0,-22.629 27.59,-27.582 43.85,-27.582 l 74.97,0 74.97,38.899 0,14.851 c 0,37.485 -10.61,48.801 -48.09,48.801 z m 0.71,142.863 c -19.81,0 -46.68,4.246 -46.68,33.946 0,29 24.04,33.957 46.68,33.957 l 93.35,0 c 35.36,0 60.83,-3.539 87.7,-30.418 26.17,-26.168 29.7,-46.676 30.41,-80.625 l 7.07,-230.563 c 0.71,-19.801 -9.19,-39.605 -31.82,-39.605 -17.69,0 -35.36,14.851 -34.66,33.945 l -46.67,-24.043 c -19.1,-9.902 -19.81,-9.902 -41.73,-9.902 l -65.07,0 c -30.41,0 -52.33,3.535 -77.09,24.047 -28.29,23.339 -35.36,48.089 -35.36,83.453 l 0,29.707 c 0,32.527 7.77,53.043 33.24,75.672 23.33,20.507 49.51,25.461 79.21,25.461 l 145.7,0 0,15.562 c 0,50.922 -11.32,59.406 -60.12,59.406 l -84.16,0"
         inkscape:connector-curvature="0" /><path
         id="path20"
         style="fill:#313334;fill-opacity:1;fill-rule:nonzero;stroke:none"
         d="m 2710.59,784.594 c 0,-21.926 2.83,-30.41 20.5,-45.266 L 2770,706.086 c 8.49,-7.07 19.09,-16.973 26.16,-16.973 l 51.63,0 c 9.91,0 16.27,2.125 21.22,6.367 l 29.7,24.75 c 7.78,6.368 8.5,22.633 8.5,36.071 l 0,120.234 c 0,13.438 -3.55,24.043 -9.2,28.285 l -31.13,24.051 c -4.23,3.535 -9.18,5.656 -16.25,5.656 l -47.4,0 c -9.19,0 -20.51,-4.949 -28.28,-12.023 l -43.86,-38.191 c -11.3,-9.192 -20.5,-19.801 -20.5,-40.309 z m 0,168.324 12.02,12.02 c 22.63,22.632 36.07,37.492 67.18,37.492 l 74.98,0 c 17.68,0 33.24,-9.907 50.21,-24.051 l 23.34,-19.809 c 26.88,-23.332 36.78,-42.429 36.78,-78.5 l 0,-136.5 c 0,-36.066 -9.9,-55.164 -36.78,-78.504 l -23.34,-19.8 c -16.27,-13.438 -36.06,-24.047 -53.04,-24.047 l -70.02,0 c -27.58,0 -46.68,16.972 -65.77,34.652 l -15.56,14.856 0,-4.247 c 0,-21.921 -7.07,-45.261 -33.95,-45.261 -28.99,0 -33.94,24.047 -33.94,47.386 l 0,427.175 c 0,23.34 4.95,46.68 33.94,46.68 28.99,0 33.95,-23.34 33.95,-46.68 l 0,-142.862"
         inkscape:connector-curvature="0" /><path
         id="path22"
         style="fill:none;stroke:#313334;stroke-width:10;stroke-linecap:butt;stroke-linejoin:miter;stroke-miterlimit:10;stroke-dasharray:none;stroke-opacity:1"
         d="m 4041.6,565.691 -2500.74,0"
         inkscape:connector-curvature="0" /><path
         id="path24"
         style="fill:#79a2d1;fill-opacity:1;fill-rule:nonzero;stroke:none"
         d="m 1801.69,414.648 42.12,0 0,8.793 c 0,2.719 0.15,5 -1.82,6.809 l -5.6,4.852 c -1.82,1.668 -4.7,1.82 -6.98,1.82 l -12.26,0 c -2.74,0 -5,0 -7.43,-1.672 l -5,-3.629 c -1.82,-1.371 -3.03,-2.43 -3.03,-6.672 z m 12.12,-44.847 c -6.06,0 -8.49,0 -13.03,3.929 l -6.21,5.461 c -5.76,5.149 -7.43,8.489 -7.43,16.36 l 0,28.039 c 0,7.73 1.06,12.269 7.13,17.422 l 5.14,4.398 c 6.82,5.91 10.16,6.059 16.07,6.059 l 13.33,0 c 7.12,0 10.46,-0.758 16.06,-5.309 l 5.91,-4.691 c 6.67,-5.309 7.58,-10.91 7.58,-18.938 l 0,-11.672 c 0,-8.328 -1.37,-10.757 -10,-10.757 l -46.67,0 0,-4.852 c 0,-1.359 1.06,-3.18 2.12,-4.238 l 3.64,-3.942 c 1.96,-2.129 4.84,-2.73 9.7,-2.73 l 31.21,0 c 4.84,0 10,-1.059 10,-7.27 0,-6.359 -5.76,-7.269 -10,-7.269 l -34.55,0"
         inkscape:connector-curvature="0" /><path
         id="path26"
         style="fill:#79a2d1;fill-opacity:1;fill-rule:nonzero;stroke:none"
         d="m 1949.6,437.828 c 6.21,0 9.09,-2.418 9.09,-9.238 0,-6.82 -2.88,-9.25 -9.09,-9.25 l -35.46,0 c -6.21,0 -9.09,2.43 -9.09,9.25 0,6.82 2.88,9.238 9.09,9.238 l 35.46,0"
         inkscape:connector-curvature="0" /><path
         id="path28"
         style="fill:#79a2d1;fill-opacity:1;fill-rule:nonzero;stroke:none"
         d="m 2048.56,384.34 10.92,0 c 4.85,0 10,-1.059 10,-7.27 0,-6.359 -5.76,-7.269 -10,-7.269 l -36.97,0 c -4.25,0 -10,0.91 -10,7.269 0,6.211 5.15,7.27 10,7.27 l 11.51,0 0,82.582 -11.51,0 c -4.25,0 -10,0.906 -10,7.277 0,6.211 5.15,7.27 10,7.27 l 15.3,0 c 8.33,0 10.75,-1.52 10.75,-10.149 l 0,-86.98"
         inkscape:connector-curvature="0" /><path
         id="path30"
         style="fill:#79a2d1;fill-opacity:1;fill-rule:nonzero;stroke:none"
         d="m 2129.05,414.648 42.12,0 0,8.793 c 0,2.719 0.16,5 -1.81,6.809 l -5.61,4.852 c -1.82,1.668 -4.7,1.82 -6.97,1.82 l -12.27,0 c -2.73,0 -5,0 -7.43,-1.672 l -5,-3.629 c -1.82,-1.371 -3.03,-2.43 -3.03,-6.672 z m 12.12,-44.847 c -6.05,0 -8.48,0 -13.03,3.929 l -6.21,5.461 c -5.76,5.149 -7.43,8.489 -7.43,16.36 l 0,28.039 c 0,7.73 1.07,12.269 7.13,17.422 l 5.15,4.398 c 6.81,5.91 10.15,6.059 16.06,6.059 l 13.33,0 c 7.12,0 10.46,-0.758 16.07,-5.309 l 5.9,-4.691 c 6.67,-5.309 7.58,-10.91 7.58,-18.938 l 0,-11.672 c 0,-8.328 -1.36,-10.757 -10,-10.757 l -46.67,0 0,-4.852 c 0,-1.359 1.07,-3.18 2.12,-4.238 l 3.64,-3.942 c 1.97,-2.129 4.85,-2.73 9.7,-2.73 l 31.21,0 c 4.85,0 10,-1.059 10,-7.27 0,-6.359 -5.76,-7.269 -10,-7.269 l -34.55,0"
         inkscape:connector-curvature="0" /><path
         id="path32"
         style="fill:#79a2d1;fill-opacity:1;fill-rule:nonzero;stroke:none"
         d="m 2247.87,406.32 c -3.93,0 -9.7,-1.07 -9.7,-6.371 l 0,-9.687 c 0,-4.864 5.91,-5.922 9.4,-5.922 l 16.06,0 16.06,8.34 0,3.179 c 0,8.032 -2.28,10.461 -10.31,10.461 z m 0.15,30.602 c -4.24,0 -10,0.906 -10,7.269 0,6.219 5.15,7.278 10,7.278 l 20.01,0 c 7.57,0 13.02,-0.758 18.78,-6.52 5.61,-5.609 6.36,-10 6.52,-17.269 l 1.51,-49.399 c 0.15,-4.23 -1.97,-8.48 -6.81,-8.48 -3.79,0 -7.58,3.179 -7.43,7.269 l -10,-5.148 c -4.1,-2.121 -4.24,-2.121 -8.94,-2.121 l -13.95,0 c -6.51,0 -11.21,0.75 -16.51,5.14 -6.05,5 -7.58,10.321 -7.58,17.887 l 0,6.363 c 0,6.969 1.67,11.36 7.13,16.207 5,4.403 10.61,5.461 16.96,5.461 l 31.23,0 0,3.332 c 0,10.911 -2.44,12.731 -12.89,12.731 l -18.03,0"
         inkscape:connector-curvature="0" /><path
         id="path34"
         style="fill:#79a2d1;fill-opacity:1;fill-rule:nonzero;stroke:none"
         d="m 2332.74,440.711 c 0,5.301 0.62,10.758 7.28,10.758 5.76,0 7.27,-4.848 7.27,-9.699 l 0,-5.911 11.37,9.403 c 4.09,3.328 8.33,6.207 12.87,6.207 l 11.67,0 c 5.61,0 10.31,-1.821 14.25,-5.758 4.84,-4.852 6.51,-9.852 6.51,-16.52 0,-5 -0.9,-10.152 -7.11,-10.152 -5.31,0 -7.44,4.242 -7.44,8.941 0,2.43 0,4.239 -1.51,6.36 -1.82,2.582 -5.3,2.582 -8.79,2.582 l -4.24,0 c -2.72,0 -4.69,-1.363 -7.27,-3.481 l -20.31,-16.82 0,-36.82 c 0,-5 -1.06,-10 -7.27,-10 -6.21,0 -7.28,5 -7.28,10 l 0,60.91"
         inkscape:connector-curvature="0" /><path
         id="path36"
         style="fill:#79a2d1;fill-opacity:1;fill-rule:nonzero;stroke:none"
         d="m 2456.42,422.07 0,-42.269 c 0,-5 -1.07,-10 -7.28,-10 -6.21,0 -7.27,5 -7.27,10 l 0,60.91 c 0,5.301 0.61,10.758 7.27,10.758 6.51,0 7.28,-5.457 7.28,-10.61 l 0,-1.968 11.81,7.73 c 3.79,2.418 7.88,4.848 12.58,4.848 l 10.76,0 c 5.61,0 9.09,-1.52 13.48,-5.309 6.52,-5.601 6.22,-11.82 6.52,-19.691 l 1.52,-45.758 c 0.14,-5.16 -0.61,-10.91 -7.12,-10.91 -5.92,0 -7.13,5 -7.28,9.847 l -1.51,44.84 c -0.3,8.953 -1.07,12.434 -9.86,12.434 l -4.84,0 c -1.52,0 -3.04,-0.453 -4.55,-1.363 l -21.51,-13.489"
         inkscape:connector-curvature="0" /><path
         id="path38"
         style="fill:#79a2d1;fill-opacity:1;fill-rule:nonzero;stroke:none"
         d="m 2572.21,480.859 c 0,5.153 2.87,6.821 6.81,6.821 l 8.33,0 c 3.95,0 6.82,-1.668 6.82,-6.821 l 0,-6.968 c 0,-5.153 -2.87,-6.821 -6.82,-6.821 l -8.33,0 c -3.94,0 -6.81,1.668 -6.81,6.821 z m 21.96,-96.519 10.92,0 c 4.84,0 10,-1.059 10,-7.27 0,-6.359 -5.76,-7.269 -10,-7.269 l -36.97,0 c -4.25,0 -10,0.91 -10,7.269 0,6.211 5.14,7.27 10,7.27 l 11.51,0 0,52.582 -11.51,0 c -4.25,0 -10,0.906 -10,7.269 0,6.219 5.14,7.278 10,7.278 l 15.3,0 c 8.33,0 10.75,-1.52 10.75,-10.149 l 0,-56.98"
         inkscape:connector-curvature="0" /><path
         id="path40"
         style="fill:#79a2d1;fill-opacity:1;fill-rule:nonzero;stroke:none"
         d="m 2674.66,422.07 0,-42.269 c 0,-5 -1.07,-10 -7.28,-10 -6.21,0 -7.27,5 -7.27,10 l 0,60.91 c 0,5.301 0.61,10.758 7.27,10.758 6.52,0 7.28,-5.457 7.28,-10.61 l 0,-1.968 11.81,7.73 c 3.79,2.418 7.89,4.848 12.58,4.848 l 10.76,0 c 5.61,0 9.1,-1.52 13.48,-5.309 6.52,-5.601 6.22,-11.82 6.52,-19.691 l 1.52,-45.758 c 0.14,-5.16 -0.61,-10.91 -7.12,-10.91 -5.92,0 -7.13,5 -7.28,9.847 l -1.51,44.84 c -0.3,8.953 -1.06,12.434 -9.85,12.434 l -4.85,0 c -1.52,0 -3.03,-0.453 -4.55,-1.363 l -21.51,-13.489"
         inkscape:connector-curvature="0" /><path
         id="path42"
         style="fill:#79a2d1;fill-opacity:1;fill-rule:nonzero;stroke:none"
         d="m 2783.78,404.34 c 0,-3.02 0.15,-6.211 1.82,-7.57 l 6.06,-4.848 c 1.05,-0.91 2.42,-1.371 4.24,-1.371 l 10.6,0 c 1.82,0 3.95,1.519 6.67,3.789 l 11.21,9.25 c 1.07,0.898 1.52,2.879 1.52,4.851 l 0,10.598 c 0,1.973 -0.45,3.941 -1.52,4.852 l -11.21,9.238 c -2.72,2.281 -4.85,3.793 -6.67,3.793 l -10.6,0 c -1.82,0 -3.19,-0.453 -4.24,-1.363 l -6.06,-4.848 c -1.67,-1.371 -1.82,-4.551 -1.82,-7.582 z m -14.55,20 c 0,6.82 1.97,12.879 5,15.308 l 10.61,8.332 c 3.03,2.43 5.31,3.489 9.1,3.489 l 14.08,0 c 3.94,0 8.64,-2.879 14.25,-7.278 l 3.63,-2.871 0,1.66 c 0,4.551 2.43,8.489 7.43,8.489 6.36,0 7.12,-5.309 7.12,-10.149 l 0,-71.058 c 0,-13.192 -1.07,-15.922 -7.12,-21.071 l -4.85,-4.089 c -6.37,-5.301 -10,-6.211 -18.19,-6.211 l -24.09,0 c -4.24,0 -10,0.91 -10,7.269 0,6.211 5.16,7.281 10,7.281 l 26.67,0 c 3.03,0 5,1.36 7.28,3.321 l 3.63,3.34 c 1.21,1.207 2.12,3.339 2.12,6.058 l 0,20 -3.03,-3.031 c -3.33,-3.328 -7.88,-7.117 -11.97,-7.117 l -17.12,0 c -3.03,0 -6.51,0.457 -10.91,4.386 l -9.09,8.192 c -4.25,3.93 -4.55,7.719 -4.55,13.629 l 0,22.121"
         inkscape:connector-curvature="0" /><path
         id="path44"
         style="fill:#79a2d1;fill-opacity:1;fill-rule:nonzero;stroke:none"
         d="m 3030.65,384.34 10.92,0 c 4.85,0 10,-1.059 10,-7.27 0,-6.359 -5.76,-7.269 -10,-7.269 l -36.97,0 c -4.25,0 -10,0.91 -10,7.269 0,6.211 5.15,7.27 10,7.27 l 11.51,0 0,82.582 -11.51,0 c -4.25,0 -10,0.906 -10,7.277 0,6.211 5.15,7.27 10,7.27 l 15.3,0 c 8.33,0 10.75,-1.52 10.75,-10.149 l 0,-86.98"
         inkscape:connector-curvature="0" /><path
         id="path46"
         style="fill:#79a2d1;fill-opacity:1;fill-rule:nonzero;stroke:none"
         d="m 3120.84,406.32 c -3.94,0 -9.7,-1.07 -9.7,-6.371 l 0,-9.687 c 0,-4.864 5.91,-5.922 9.4,-5.922 l 16.06,0 16.06,8.34 0,3.179 c 0,8.032 -2.28,10.461 -10.31,10.461 z m 0.15,30.602 c -4.24,0 -10,0.906 -10,7.269 0,6.219 5.15,7.278 10,7.278 l 20.01,0 c 7.56,0 13.02,-0.758 18.78,-6.52 5.61,-5.609 6.36,-10 6.52,-17.269 l 1.51,-49.399 c 0.15,-4.23 -1.97,-8.48 -6.81,-8.48 -3.79,0 -7.58,3.179 -7.44,7.269 l -10,-5.148 c -4.09,-2.121 -4.23,-2.121 -8.93,-2.121 l -13.95,0 c -6.51,0 -11.21,0.75 -16.51,5.14 -6.05,5 -7.58,10.321 -7.58,17.887 l 0,6.363 c 0,6.969 1.67,11.36 7.13,16.207 5,4.403 10.61,5.461 16.96,5.461 l 31.22,0 0,3.332 c 0,10.911 -2.43,12.731 -12.88,12.731 l -18.03,0"
         inkscape:connector-curvature="0" /><path
         id="path48"
         style="fill:#79a2d1;fill-opacity:1;fill-rule:nonzero;stroke:none"
         d="m 3220.26,404.801 c 0,-4.699 0.61,-6.52 4.4,-9.699 l 8.33,-7.122 c 1.81,-1.511 4.09,-3.64 5.6,-3.64 l 11.07,0 c 2.12,0 3.48,0.461 4.54,1.371 l 6.37,5.301 c 1.67,1.367 1.81,4.847 1.81,7.726 l 0,25.75 c 0,2.891 -0.75,5.16 -1.96,6.071 l -6.67,5.152 c -0.91,0.758 -1.97,1.211 -3.49,1.211 l -10.15,0 c -1.97,0 -4.39,-1.063 -6.06,-2.582 l -9.39,-8.18 c -2.42,-1.969 -4.4,-4.238 -4.4,-8.629 z m 0,36.058 2.58,2.582 c 4.85,4.84 7.73,8.028 14.4,8.028 l 16.05,0 c 3.79,0 7.13,-2.129 10.76,-5.149 l 5,-4.25 c 5.76,-5 7.88,-9.09 7.88,-16.82 l 0,-29.238 c 0,-7.731 -2.12,-11.821 -7.88,-16.821 l -5,-4.25 c -3.48,-2.871 -7.72,-5.14 -11.36,-5.14 l -15,0 c -5.91,0 -10,3.64 -14.1,7.429 l -3.33,3.168 0,-0.91 c 0,-4.687 -1.51,-9.687 -7.27,-9.687 -6.21,0 -7.28,5.14 -7.28,10.14 l 0,91.528 c 0,5 1.07,10 7.28,10 6.21,0 7.27,-5 7.27,-10 l 0,-30.61"
         inkscape:connector-curvature="0" /><path
         id="path50"
         style="fill:#79a2d1;fill-opacity:1;fill-rule:nonzero;stroke:none"
         d="m 3329.38,396.922 c 0,-3.031 1.07,-5 5.31,-8.641 3.18,-2.73 5.46,-3.941 10,-3.941 l 11.51,0 c 4.55,0 6.82,1.211 10,3.941 4.25,3.641 5.3,5.61 5.3,8.641 l 0,27.418 c 0,3.039 -1.05,5 -5.3,8.64 -3.18,2.731 -5.45,3.942 -10,3.942 l -11.51,0 c -4.54,0 -6.82,-1.211 -10,-3.942 -4.24,-3.64 -5.31,-5.601 -5.31,-8.64 z m -14.55,27.418 c 0,9.699 1.98,13.039 9.25,18.941 7.12,5.91 10.45,8.188 20.61,8.188 l 11.51,0 c 10.16,0 13.49,-2.278 20.61,-8.188 7.27,-5.902 9.24,-9.242 9.24,-18.941 l 0,-27.418 c 0,-9.543 -2.42,-13.192 -10,-19.543 -7.57,-6.367 -10.6,-7.578 -19.85,-7.578 l -11.51,0 c -9.24,0 -12.28,1.211 -19.86,7.578 -7.56,6.351 -10,10 -10,19.543 l 0,27.418"
         inkscape:connector-curvature="0" /><path
         id="path52"
         style="fill:#79a2d1;fill-opacity:1;fill-rule:nonzero;stroke:none"
         d="m 3423.96,440.711 c 0,5.301 0.61,10.758 7.27,10.758 5.76,0 7.28,-4.848 7.28,-9.699 l 0,-5.911 11.36,9.403 c 4.09,3.328 8.33,6.207 12.87,6.207 l 11.67,0 c 5.61,0 10.31,-1.821 14.25,-5.758 4.85,-4.852 6.52,-9.852 6.52,-16.52 0,-5 -0.91,-10.152 -7.12,-10.152 -5.31,0 -7.43,4.242 -7.43,8.941 0,2.43 0,4.239 -1.52,6.36 -1.82,2.582 -5.3,2.582 -8.79,2.582 l -4.24,0 c -2.72,0 -4.69,-1.363 -7.27,-3.481 l -20.3,-16.82 0,-36.82 c 0,-5 -1.07,-10 -7.28,-10 -6.21,0 -7.27,5 -7.27,10 l 0,60.91"
         inkscape:connector-curvature="0" /><path
         id="path54"
         style="fill:#79a2d1;fill-opacity:1;fill-rule:nonzero;stroke:none"
         d="m 3557.32,406.32 c -3.93,0 -9.69,-1.07 -9.69,-6.371 l 0,-9.687 c 0,-4.864 5.91,-5.922 9.39,-5.922 l 16.07,0 16.05,8.34 0,3.179 c 0,8.032 -2.27,10.461 -10.3,10.461 z m 0.15,30.602 c -4.24,0 -10,0.906 -10,7.269 0,6.219 5.16,7.278 10,7.278 l 20.01,0 c 7.57,0 13.03,-0.758 18.78,-6.52 5.62,-5.609 6.37,-10 6.52,-17.269 l 1.52,-49.399 c 0.14,-4.23 -1.98,-8.48 -6.82,-8.48 -3.79,0 -7.58,3.179 -7.43,7.269 l -10,-5.148 c -4.09,-2.121 -4.24,-2.121 -8.94,-2.121 l -13.94,0 c -6.52,0 -11.21,0.75 -16.52,5.14 -6.05,5 -7.57,10.321 -7.57,17.887 l 0,6.363 c 0,6.969 1.67,11.36 7.13,16.207 5,4.403 10.6,5.461 16.96,5.461 l 31.22,0 0,3.332 c 0,10.911 -2.43,12.731 -12.88,12.731 l -18.04,0"
         inkscape:connector-curvature="0" /><path
         id="path56"
         style="fill:#79a2d1;fill-opacity:1;fill-rule:nonzero;stroke:none"
         d="m 3671.45,397.219 c 0,-8.168 -0.31,-12.879 9.69,-12.879 l 7.42,0 c 5.91,0 8.65,0.461 10.16,6.371 0.91,3.48 3.63,5.91 7.28,5.91 4.08,0 7.42,-3.18 7.42,-7.281 0,-4.078 -2.58,-9.238 -5,-12.11 -5.3,-6.371 -12.28,-7.429 -20,-7.429 l -7.43,0 c -7.27,0 -13.64,1.668 -18.78,7.269 -5.62,6.211 -5.32,12.418 -5.32,20.309 l 0,39.543 -4.69,0 c -4.24,0 -10,0.906 -10,7.269 0,6.219 5.15,7.278 10,7.278 l 4.69,0 0,14.851 c 0,5 1.07,10 7.28,10 6.21,0 7.28,-5 7.28,-10 l 0,-14.851 24.39,0 c 4.84,0 10,-1.059 10,-7.278 0,-6.363 -5.76,-7.269 -10,-7.269 l -24.39,0 0,-39.703"
         inkscape:connector-curvature="0" /><path
         id="path58"
         style="fill:#79a2d1;fill-opacity:1;fill-rule:nonzero;stroke:none"
         d="m 3765.87,396.922 c 0,-3.031 1.06,-5 5.3,-8.641 3.19,-2.73 5.46,-3.941 10,-3.941 l 11.52,0 c 4.55,0 6.81,1.211 10,3.941 4.24,3.641 5.3,5.61 5.3,8.641 l 0,27.418 c 0,3.039 -1.06,5 -5.3,8.64 -3.19,2.731 -5.45,3.942 -10,3.942 l -11.52,0 c -4.54,0 -6.81,-1.211 -10,-3.942 -4.24,-3.64 -5.3,-5.601 -5.3,-8.64 z m -14.55,27.418 c 0,9.699 1.97,13.039 9.25,18.941 7.12,5.91 10.45,8.188 20.6,8.188 l 11.52,0 c 10.15,0 13.48,-2.278 20.6,-8.188 7.28,-5.902 9.25,-9.242 9.25,-18.941 l 0,-27.418 c 0,-9.543 -2.42,-13.192 -10,-19.543 -7.58,-6.367 -10.61,-7.578 -19.85,-7.578 l -11.52,0 c -9.24,0 -12.27,1.211 -19.85,7.578 -7.57,6.351 -10,10 -10,19.543 l 0,27.418"
         inkscape:connector-curvature="0" /><path
         id="path60"
         style="fill:#79a2d1;fill-opacity:1;fill-rule:nonzero;stroke:none"
         d="m 3860.44,440.711 c 0,5.301 0.61,10.758 7.27,10.758 5.77,0 7.28,-4.848 7.28,-9.699 l 0,-5.911 11.37,9.403 c 4.09,3.328 8.33,6.207 12.87,6.207 l 11.67,0 c 5.6,0 10.3,-1.821 14.25,-5.758 4.84,-4.852 6.51,-9.852 6.51,-16.52 0,-5 -0.91,-10.152 -7.12,-10.152 -5.3,0 -7.43,4.242 -7.43,8.941 0,2.43 0,4.239 -1.51,6.36 -1.82,2.582 -5.31,2.582 -8.79,2.582 l -4.24,0 c -2.73,0 -4.7,-1.363 -7.28,-3.481 l -20.3,-16.82 0,-36.82 c 0,-5 -1.06,-10 -7.28,-10 -6.21,0 -7.27,5 -7.27,10 l 0,60.91"
         inkscape:connector-curvature="0" /><path
         id="path62"
         style="fill:#79a2d1;fill-opacity:1;fill-rule:nonzero;stroke:none"
         d="m 4026.23,433.129 0,8.34 c 0,5 1.06,10 7.28,10 6.21,0 7.27,-5 7.27,-10 l 0,-5.91 c 0,-3.637 -0.3,-6.071 -1.82,-9.239 l -36.67,-79.851 c -3.18,-6.821 -4.85,-7.578 -11.51,-7.578 l -11.22,0 c -4.24,0 -10,0.91 -10,7.269 0,6.211 5.16,7.281 10,7.281 l 10.01,0 10.75,22.27 -0.75,0 c -6.06,0 -6.37,2.73 -8.64,7.73 l -17.88,39.539 c -1.97,4.399 -3.49,7.731 -3.49,11.969 l 0,6.52 c 0,5 1.07,10 7.28,10 6.21,0 7.27,-5 7.27,-10 l 0,-8.34 19.54,-42.867 3.19,0 19.39,42.867"
         inkscape:connector-curvature="0" /><path
         id="path64"
         style="fill:#174c83;fill-opacity:1;fill-rule:nonzero;stroke:none"
         d="m 909.746,1490.32 -119.254,69.17 -476.953,-294.35 -12.016,-706.441 59.793,621.051 548.43,310.57"
         inkscape:connector-curvature="0" /><path
         id="path66"
         style="fill:#174c83;fill-opacity:1;fill-rule:nonzero;stroke:none"
         d="M 262.402,1249.59 114.688,1165.64 118.359,384.371 789.57,0 259.707,515.211 l 2.695,734.379"
         inkscape:connector-curvature="0" /><path
         id="path68"
         style="fill:#174c83;fill-opacity:1;fill-rule:nonzero;stroke:none"
         d="m 919.613,213.5 545.297,219.738 0,729.402 L 1328.6,532.52 807.703,326.43"
         inkscape:connector-curvature="0" /><path
         id="path70"
         style="fill:#174c83;fill-opacity:1;fill-rule:nonzero;stroke:none"
         d="M 355.316,706.773 337.621,503.691 843.652,8.30078 1465.7,375.93 906.453,143.672 355.316,706.773"
         inkscape:connector-curvature="0" /><path
         id="path72"
         style="fill:#174c83;fill-opacity:1;fill-rule:nonzero;stroke:none"
         d="m 1390.32,1030.75 39.7,152.68 -480.747,278.12 -553.613,-306.8 515.856,162.17 478.804,-286.17"
         inkscape:connector-curvature="0" /></g></g></svg>
