<?xml version="1.0" encoding="UTF-8" standalone="no"?>
<svg
   xmlns:dc="http://purl.org/dc/elements/1.1/"
   xmlns:cc="http://creativecommons.org/ns#"
   xmlns:rdf="http://www.w3.org/1999/02/22-rdf-syntax-ns#"
   xmlns:svg="http://www.w3.org/2000/svg"
   xmlns="http://www.w3.org/2000/svg"
   xmlns:sodipodi="http://sodipodi.sourceforge.net/DTD/sodipodi-0.dtd"
   xmlns:inkscape="http://www.inkscape.org/namespaces/inkscape"
   width="100%"
   height="100%"
   viewBox="0 0 750 150"
   id="logo"
   version="1.1">
  <defs
     id="defs4" />
  <sodipodi:namedview
     id="base"
     pagecolor="#ffffff"
     bordercolor="#666666"
     borderopacity="1.0"
     inkscape:pageopacity="0.0"
     inkscape:pageshadow="2"
     inkscape:zoom="0.7"
     inkscape:cx="123.53739"
     inkscape:cy="124.95466"
     inkscape:document-units="px"
     inkscape:current-layer="layer1"
     showgrid="false"
     inkscape:window-width="1440"
     inkscape:window-height="797"
     inkscape:window-x="0"
     inkscape:window-y="1"
     inkscape:window-maximized="1" />
  <g
     inkscape:label="Ebene 1"
     inkscape:groupmode="layer"
     id="layer1">
    <text
       xml:space="preserve"
       style="font-style:normal;font-weight:normal;font-size:40px;line-height:125%;font-family:sans-serif;letter-spacing:0px;word-spacing:0px;fill:#000000;fill-opacity:1;stroke:none;stroke-width:1px;stroke-linecap:butt;stroke-linejoin:miter;stroke-opacity:1"
       x="250.17857"
       y="405.75507"
       id="text4140"
       sodipodi:linespacing="125%"><tspan
         sodipodi:role="line"
         id="tspan4142"
         x="250.17857"
         y="405.75507" /></text>
    <g
       id="g4152"
       transform="matrix(0.9983459,0,0,1.1840417,-9.9834571,-13.803127)">
      <g
         transform="matrix(1.0241302,0,0,1.0241302,5.3914113,7.9069511)"
         id="g4181">
        <g
           style="font-style:normal;font-weight:normal;font-size:40px;line-height:125%;font-family:sans-serif;letter-spacing:0px;word-spacing:0px;fill:#000000;fill-opacity:1;stroke:none;stroke-width:1px;stroke-linecap:butt;stroke-linejoin:miter;stroke-opacity:1"
           id="text4136"
           transform="matrix(3.4643676,0,0,3.4643676,-558.55639,-1461.2167)">
          <path
             d="m 176.5904,430.30585 0,7.69531 q -1.54297,0 -2.12891,0.58594 -0.5664,0.5664 -0.72265,2.26562 -0.50781,5.64453 -4.375,7.96875 -2.05078,1.21094 -5.82031,1.21094 l -1.01563,0 0,-7.73438 0.33203,0 q 1.75781,0 2.5,-0.72265 0.76172,-0.74219 0.87891,-2.57813 0.15625,-2.98828 0.54687,-4.19922 0.41016,-1.21093 1.64063,-2.40234 2.14844,-2.08984 5.95703,-2.08984 l 2.20703,0 z"
             style="font-style:normal;font-variant:normal;font-weight:normal;font-stretch:normal;font-family:'Bauhaus 93';-inkscape-font-specification:'Bauhaus 93, ';fill:#3a6e9f;fill-opacity:1"
             id="path4151"
             inkscape:connector-curvature="0" />
          <path
             d="m 190.86774,440.54022 7.2461,-0.27344 q -0.3125,4.21875 -3.14453,6.9336 -2.83203,2.71484 -6.89453,2.71484 -4.29688,0 -7.26563,-2.98828 -2.94922,-2.98828 -2.94922,-7.32422 0,-4.12109 2.98828,-7.05078 2.98828,-2.92969 7.16797,-2.92969 3.65235,0 6.44531,2.30469 2.79297,2.30469 3.47657,5.87891 l -7.40235,0.27343 q -0.95703,-1.25 -2.42187,-1.25 -1.25,0 -2.05078,0.82032 -0.80078,0.82031 -0.80078,2.07031 0,1.26953 0.83984,2.12891 0.85937,0.85937 2.12891,0.85937 1.85546,0 2.63671,-2.16797 z"
             style="font-style:normal;font-variant:normal;font-weight:normal;font-stretch:normal;font-family:'Bauhaus 93';-inkscape-font-specification:'Bauhaus 93, ';fill:#3a6e9f;fill-opacity:1"
             id="path4153"
             inkscape:connector-curvature="0" />
          <path
             d="m 208.64118,422.84491 0,8.14453 q 1.85547,-1.34766 3.71094,-1.34766 2.8125,0 4.45312,2.03125 1.66016,2.03125 1.66016,5.48829 l 0,12.34375 -7.30469,0 0,-10.29297 q 0,-1.25 -0.27343,-1.67969 -0.25391,-0.42969 -1.01563,-0.42969 -1.23047,0 -1.23047,1.81641 l 0,10.58594 -7.30469,0 0,-26.66016 7.30469,0 z"
             style="font-style:normal;font-variant:normal;font-weight:normal;font-stretch:normal;font-family:'Bauhaus 93';-inkscape-font-specification:'Bauhaus 93, ';fill:#3a6e9f;fill-opacity:1"
             id="path4155"
             inkscape:connector-curvature="0" />
          <path
             d="m 222.66462,430.30585 7.30469,0 0,10.99609 q 0,1.66016 1.38672,1.66016 1.36718,0 1.36718,-1.66016 l 0,-10.99609 7.30469,0 0,10.85937 q 0,3.78906 -2.51953,6.40625 -2.51953,2.59766 -6.17188,2.59766 -4.16015,0 -6.69921,-3.02735 -1.97266,-2.36328 -1.97266,-6.5625 l 0,-10.27343 z"
             style="font-style:normal;font-variant:normal;font-weight:normal;font-stretch:normal;font-family:'Bauhaus 93';-inkscape-font-specification:'Bauhaus 93, ';fill:#3a6e9f;fill-opacity:1"
             id="path4157"
             inkscape:connector-curvature="0" />
          <path
             d="m 251.53181,422.84491 0,26.66016 -7.30469,0 0,-26.66016 7.30469,0 z"
             style="font-style:normal;font-variant:normal;font-weight:normal;font-stretch:normal;font-family:'Bauhaus 93';-inkscape-font-specification:'Bauhaus 93, ';fill:#3a6e9f;fill-opacity:1"
             id="path4159"
             inkscape:connector-curvature="0" />
          <path
             d="m 275.00837,440.95038 -11.07422,0 q -0.25391,-0.83985 -0.25391,-1.54297 0,-0.97656 0.35157,-1.91406 l 3.71093,0 q -0.39062,-2.16797 -2.4414,-2.16797 -1.36719,0 -2.22656,1.17187 -0.85938,1.15235 -0.85938,2.96875 0,1.89453 0.82031,3.06641 0.83985,1.17187 2.1875,1.17187 1.09375,0 2.10938,-1.09375 l 4.16015,5 q -2.91015,2.28516 -6.46484,2.28516 -4.33594,0 -7.28516,-2.91016 -2.94921,-2.91015 -2.94921,-7.20703 0,-4.27734 2.96875,-7.22656 2.98828,-2.94922 7.32421,-2.94922 4.23829,0 7.10938,2.89063 2.89062,2.87109 2.89062,7.08984 0,0.42969 -0.0781,1.36719 z"
             style="font-style:normal;font-variant:normal;font-weight:normal;font-stretch:normal;font-family:'Bauhaus 93';-inkscape-font-specification:'Bauhaus 93, ';fill:#3a6e9f;fill-opacity:1"
             id="path4161"
             inkscape:connector-curvature="0" />
          <path
             d="m 295.41853,449.50507 -7.30469,0 0,-10.9961 q 0,-1.67969 -1.38672,-1.67969 -1.36719,0 -1.36719,1.67969 l 0,10.9961 -7.30469,0 0,-10.85938 q 0,-3.80859 2.51954,-6.40625 2.51953,-2.61719 6.17187,-2.61719 4.17969,0 6.69922,3.02735 1.97266,2.36328 1.97266,6.58203 l 0,10.27344 z"
             style="font-style:normal;font-variant:normal;font-weight:normal;font-stretch:normal;font-family:'Bauhaus 93';-inkscape-font-specification:'Bauhaus 93, ';fill:#3a6e9f;fill-opacity:1"
             id="path4163"
             inkscape:connector-curvature="0" />
          <path
             d="m 306.41462,435.091 0,5.17578 -8.92578,0 0,-5.17578 8.92578,0 z"
             style="font-style:normal;font-variant:normal;font-weight:normal;font-stretch:normal;font-family:'Bauhaus 93';-inkscape-font-specification:'Bauhaus 93, ';fill:#ffff4d;fill-opacity:1"
             id="path4165"
             inkscape:connector-curvature="0" />
          <path
             d="m 318.91462,441.47772 0,6.69922 q -1.58203,0.58594 -3.02734,0.58594 -3.53516,0 -5.9961,-2.67578 -2.4414,-2.67578 -2.4414,-6.54297 0,-4.17969 2.94921,-7.05078 2.94922,-2.8711 7.2461,-2.8711 2.28515,0 4.375,0.91797 2.08984,0.91797 3.28125,2.46094 1.99219,2.55859 1.99219,7.42187 l 0,6.40625 q 0,5.21485 -2.96875,8.45704 -2.94922,3.26171 -7.69532,3.26171 -1.44531,0 -3.65234,-0.72265 l 0,-6.64063 q 1.42578,0.78125 2.89062,0.78125 1.97266,0 3.04688,-1.30859 1.07422,-1.28906 1.07422,-3.71094 l 0,-7.32422 q 0,-3.0664 -2.48047,-3.0664 -1.05469,0 -1.85547,0.82031 -0.78125,0.80078 -0.78125,1.85547 0,1.11328 0.74219,1.85547 0.76172,0.74218 1.875,0.74218 0.74219,0 1.42578,-0.35156 z"
             style="font-style:normal;font-variant:normal;font-weight:normal;font-stretch:normal;font-family:'Bauhaus 93';-inkscape-font-specification:'Bauhaus 93, ';fill:#3a6e9f;fill-opacity:1"
             id="path4167"
             inkscape:connector-curvature="0" />
          <path
             d="m 338.07478,422.84491 0,7.46094 3.28125,0 0,7.71484 -3.28125,0 q 0,2.32422 0.72265,3.20313 0.74219,0.8789 2.69531,0.8789 l 0,7.67578 q -0.5664,0.0195 -0.83984,0.0195 -2.48047,0 -4.6875,-1.15234 -2.1875,-1.15234 -3.51562,-3.125 -1.67969,-2.51953 -1.67969,-6.67969 l 0,-15.99609 7.30469,0 z"
             style="font-style:normal;font-variant:normal;font-weight:normal;font-stretch:normal;font-family:'Bauhaus 93';-inkscape-font-specification:'Bauhaus 93, ';fill:#3a6e9f;fill-opacity:1"
             id="path4169"
             inkscape:connector-curvature="0" />
        </g>
        <path
           style="opacity:1;fill:none;fill-opacity:1;fill-rule:nonzero;stroke:#ffff4d;stroke-width:26.52789879;stroke-miterlimit:4;stroke-dasharray:none;stroke-opacity:1"
           id="path4171"
           sodipodi:type="arc"
           sodipodi:cx="624"
           sodipodi:cy="96.962204"
           sodipodi:rx="80.036049"
           sodipodi:ry="80.036041"
           sodipodi:start="4.712389"
           sodipodi:end="0"
           d="m 624,16.926163 a 80.036049,80.036041 0 0 1 80.03605,80.036041"
           sodipodi:open="true" />
        <path
           style="opacity:1;fill:none;fill-opacity:1;fill-rule:nonzero;stroke:#ffba00;stroke-width:26.77928162;stroke-miterlimit:4;stroke-dasharray:none;stroke-opacity:1"
           id="path4175"
           sodipodi:type="arc"
           sodipodi:cx="624"
           sodipodi:cy="96.970207"
           sodipodi:rx="54.061359"
           sodipodi:ry="54.061359"
           sodipodi:start="4.712389"
           sodipodi:end="0"
           sodipodi:open="true"
           d="m 624,42.908848 a 54.061359,54.061359 0 0 1 54.06136,54.061359" />
      </g>
      <rect
         y="11.66"
         x="632.83002"
         height="26.49"
         width="11.65"
         id="rect4150"
         style="opacity:1;fill:#ffff4d;fill-opacity:1;fill-rule:nonzero;stroke:none;stroke-width:26.70000076;stroke-miterlimit:4;stroke-dasharray:none;stroke-opacity:1" />
    </g>
  </g>
</svg>
