<?xml version="1.0" encoding="UTF-8" standalone="no"?>
<svg
   xmlns:dc="http://purl.org/dc/elements/1.1/"
   xmlns:cc="http://creativecommons.org/ns#"
   xmlns:rdf="http://www.w3.org/1999/02/22-rdf-syntax-ns#"
   xmlns:svg="http://www.w3.org/2000/svg"
   xmlns="http://www.w3.org/2000/svg"
   xmlns:sodipodi="http://sodipodi.sourceforge.net/DTD/sodipodi-0.dtd"
   xmlns:inkscape="http://www.inkscape.org/namespaces/inkscape"
   version="1.1"
   x="0px"
   y="0px"
   viewBox="0 0 1000 1000"
   enable-background="new 0 0 1000 1000"
   xml:space="preserve"
   id="close_fullscreen"
   inkscape:version="0.91 r13725"
   sodipodi:docname="close_fullscreen.svg"><defs
     id="defs18" /><sodipodi:namedview
     pagecolor="#ffffff"
     bordercolor="#666666"
     borderopacity="1"
     objecttolerance="10"
     gridtolerance="10"
     guidetolerance="10"
     inkscape:pageopacity="0"
     inkscape:pageshadow="2"
     inkscape:window-width="1440"
     inkscape:window-height="780"
     id="namedview16"
     showgrid="false"
     inkscape:zoom="0.3337544"
     inkscape:cx="500"
     inkscape:cy="500"
     inkscape:window-x="0"
     inkscape:window-y="0"
     inkscape:window-maximized="0"
     inkscape:current-layer="svg2" /><g
     id="g6"><path
       d="m 450.36603,467.86311 -270.5,-25.7 c 0,0 -36,1.1 -15.8,-18.9 20.2,-20.1 69,-69.1 69,-69.1 0,0 -11.9,-11.9 -30.2,-30.1 -52,-52.1 -146.7,-146.8 -185.2,-185.3 0,0 -13.2000005,-7.8 2.6,-23.6 15.9,-16.000005 85.8,-85.700005 97.2,-97.200005 11.2,-11.2999999 19.7,-2.3 19.7,-2.3 37.5,37.5 135.4,135.300005 185.7,185.700005 16.3,16.5 27,27.1 27,27.1 0,0 39.2,-39.2 63.8,-63.7 24.5,-24.6 24.4,12.4 24.4,12.4 0,0 34.2,242.3 34.2,271.6 0,20.8 -21.9,19.1 -21.9,19.1 z"
       id="path8"
       inkscape:connector-curvature="0" /><path
       d="m 552.1214,532.55915 270.3,25.7 c 0,0 36.1,-1.1 16,19 -20.1,20.1 -69,69 -69,69 0,0 11.8,11.8 30.1,29.9 52,52.2 146.8,147 185.2,185.6 0,0 13.4,7.5 -2.5,23.5 -15.9,15.9 -85.8,85.8 -97.2,97.1 -11.3,11.4 -19.8,2.4 -19.8,2.4 -37.4,-37.4 -135.5,-135.5 -185.8,-185.7 -16.2,-16.3 -27,-27.1 -27,-27.1 0,0 -39.3,39.3 -63.8,63.9 -24.4,24.5 -24.4,-12.4 -24.4,-12.4 0,0 -34,-242.7 -34,-271.5 0,-21.1 21.9,-19.4 21.9,-19.4 z"
       id="path10"
       inkscape:connector-curvature="0" /><path
       d="m 465.4021,550.67035 -25.5,270.6 c 0,0 1.1,36.1 -19.1,15.9 -20.1,-20.1 -69,-69.1 -69,-69.1 0,0 -11.9,11.9 -30,30.2 -52,52.1 -146.8,146.8 -185.4,185.5 0,0 -7.7,13 -23.6,-2.8 -15.900002,-15.9 -85.800002,-85.8 -97.100002,-97.1 -11.3999999,-11.3 -2.3,-19.8 -2.3,-19.8 37.4,-37.5 135.300002,-135.6 185.600002,-186 16.3,-16.2 27.1,-26.9 27.1,-26.9 0,0 -39.2,-39.2 -63.7,-63.6 -24.6,-24.7 12.2,-24.5 12.2,-24.5 0,0 242.4,-34.3 271.5,-34.3 21.1,0 19.3,21.9 19.3,21.9 z"
       id="path12"
       inkscape:connector-curvature="0" /><path
       d="m 530.35182,449.14163 25.4,-270.7 c 0,0 -0.9,-36 19.2,-15.7 20.3,20.2 69.1,69 69.1,69 0,0 11.8,-11.8 30,-30.1 52,-52 146.8,-146.699997 185.4,-185.299997 0,0 7.7,-13.2000003 23.6,2.7 15.9,15.9 85.7,85.599997 97.2,96.999997 11.2,11.5 2.4,19.9 2.4,19.9 -37.6,37.6 -135.6,135.4 -185.9,185.9 -16.4,16.3 -27,26.9 -27,26.9 0,0 39.1,39.2 63.7,63.8 24.5,24.6 -12.4,24.4 -12.4,24.4 0,0 -242.4,34 -271.4,34 -21.1,0 -19.3,-21.8 -19.3,-21.8 z"
       id="path14"
       inkscape:connector-curvature="0" /></g></svg>
