<?xml version="1.0" encoding="UTF-8" standalone="no"?>
<svg
   xmlns:dc="http://purl.org/dc/elements/1.1/"
   xmlns:cc="http://creativecommons.org/ns#"
   xmlns:rdf="http://www.w3.org/1999/02/22-rdf-syntax-ns#"
   xmlns:svg="http://www.w3.org/2000/svg"
   xmlns="http://www.w3.org/2000/svg"
   xmlns:sodipodi="http://sodipodi.sourceforge.net/DTD/sodipodi-0.dtd"
   xmlns:inkscape="http://www.inkscape.org/namespaces/inkscape"
   id="fullscreen"
   viewBox="0 0 16 16"
   xml:space="preserve"
   width="100%"
   height="100%">
   <defs
     id="defs15" /><sodipodi:namedview
     pagecolor="#ffffff"
     bordercolor="#666666"
     borderopacity="1"
     objecttolerance="10"
     gridtolerance="10"
     guidetolerance="10"
     inkscape:pageopacity="0"
     inkscape:pageshadow="2"
     inkscape:window-width="1315"
     inkscape:window-height="699"
     id="namedview13"
     showgrid="false"
     inkscape:zoom="3.776"
     inkscape:cx="97.797264"
     inkscape:cy="34.833811"
     inkscape:window-x="0"
     inkscape:window-y="0"
     inkscape:window-maximized="0"
     inkscape:current-layer="fullscreen" /><g
     id="g3"
     transform="matrix(0.01632589,0,0,0.01636661,-0.16263287,-0.183305)"><path
       d="M 34.4,12.3 304.9,38 c 0,0 36,-1.1 15.8,18.9 -20.2,20.1 -69,69.1 -69,69.1 0,0 11.9,11.9 30.2,30.1 52,52.1 146.7,146.8 185.2,185.3 0,0 13.2,7.8 -2.6,23.6 -15.9,16 -85.8,85.7 -97.2,97.2 -11.2,11.3 -19.7,2.3 -19.7,2.3 C 310.1,427 212.2,329.2 161.9,278.8 c -16.3,-16.5 -27,-27.1 -27,-27.1 0,0 -39.2,39.2 -63.8,63.7 C 46.6,340 46.7,303 46.7,303 46.7,303 12.5,60.7 12.5,31.4 12.5,10.6 34.4,12.3 34.4,12.3 Z"
       id="path5"
       inkscape:connector-curvature="0" /><path
       d="M 968.1,988.1 697.8,962.4 c 0,0 -36.1,1.1 -16,-19 20.1,-20.1 69,-69 69,-69 0,0 -11.8,-11.8 -30.1,-29.9 -52,-52.2 -146.8,-147 -185.2,-185.6 0,0 -13.4,-7.5 2.5,-23.5 15.9,-15.9 85.8,-85.8 97.2,-97.1 11.3,-11.4 19.8,-2.4 19.8,-2.4 37.4,37.4 135.5,135.5 185.8,185.7 16.2,16.3 27,27.1 27,27.1 0,0 39.3,-39.3 63.8,-63.9 24.4,-24.5 24.4,12.4 24.4,12.4 0,0 34,242.7 34,271.5 0,21.1 -21.9,19.4 -21.9,19.4 z"
       id="path7"
       inkscape:connector-curvature="0" /><path
       d="M 10,966.9 35.5,696.3 c 0,0 -1.1,-36.1 19.1,-15.9 20.1,20.1 69,69.1 69,69.1 0,0 11.9,-11.9 30,-30.2 52,-52.1 146.8,-146.8 185.4,-185.5 0,0 7.7,-13 23.6,2.8 15.9,15.9 85.8,85.8 97.1,97.1 11.4,11.3 2.3,19.8 2.3,19.8 -37.4,37.5 -135.3,135.6 -185.6,186 -16.3,16.2 -27.1,26.9 -27.1,26.9 0,0 39.2,39.2 63.7,63.6 24.6,24.7 -12.2,24.5 -12.2,24.5 0,0 -242.4,34.3 -271.5,34.3 C 8.2,988.8 10,966.9 10,966.9 Z"
       id="path9"
       inkscape:connector-curvature="0" /><path
       d="m 985.9,33 -25.4,270.7 c 0,0 0.9,36 -19.2,15.7 -20.3,-20.2 -69.1,-69 -69.1,-69 0,0 -11.8,11.8 -30,30.1 -52,52 -146.8,146.7 -185.4,185.3 0,0 -7.7,13.2 -23.6,-2.7 -15.9,-15.9 -85.7,-85.6 -97.2,-97 -11.2,-11.5 -2.4,-19.9 -2.4,-19.9 37.6,-37.6 135.6,-135.4 185.9,-185.9 16.4,-16.3 27,-26.9 27,-26.9 0,0 -39.1,-39.2 -63.7,-63.8 -24.5,-24.6 12.4,-24.4 12.4,-24.4 0,0 242.4,-34 271.4,-34 21.1,0 19.3,21.8 19.3,21.8 z"
       id="path11"
       inkscape:connector-curvature="0" /></g></svg>
