<?xml version="1.0" encoding="utf-8"?>
<!DOCTYPE svg PUBLIC "-//W3C//DTD SVG 1.1//EN" "http://www.w3.org/Graphics/SVG/1.1/DTD/svg11.dtd">
<svg
  version="1.1"
  xmlns="http://www.w3.org/2000/svg"
  xmlns:xlink="http://www.w3.org/1999/xlink"
  x="0px"
  y="0px"
  id="fullscreen"
  viewBox="0 0 1000 1000"
  enable-background="new 0 0 1000 1000"
  xml:space="preserve">
<g><path d="M34.4,12.3L304.9,38c0,0,36-1.1,15.8,18.9c-20.2,20.1-69,69.1-69,69.1s11.9,11.9,30.2,30.1c52,52.1,146.7,146.8,185.2,185.3c0,0,13.2,7.8-2.6,23.6c-15.9,16-85.8,85.7-97.2,97.2c-11.2,11.3-19.7,2.3-19.7,2.3c-37.5-37.5-135.4-135.3-185.7-185.7c-16.3-16.5-27-27.1-27-27.1s-39.2,39.2-63.8,63.7C46.6,340,46.7,303,46.7,303S12.5,60.7,12.5,31.4C12.5,10.6,34.4,12.3,34.4,12.3z"/><path d="M968.1,988.1l-270.3-25.7c0,0-36.1,1.1-16-19c20.1-20.1,69-69,69-69s-11.8-11.8-30.1-29.9c-52-52.2-146.8-147-185.2-185.6c0,0-13.4-7.5,2.5-23.5c15.9-15.9,85.8-85.8,97.2-97.1c11.3-11.4,19.8-2.4,19.8-2.4c37.4,37.4,135.5,135.5,185.8,185.7c16.2,16.3,27,27.1,27,27.1s39.3-39.3,63.8-63.9c24.4-24.5,24.4,12.4,24.4,12.4S990,939.9,990,968.7C990,989.8,968.1,988.1,968.1,988.1z"/><path d="M10,966.9l25.5-270.6c0,0-1.1-36.1,19.1-15.9c20.1,20.1,69,69.1,69,69.1s11.9-11.9,30-30.2c52-52.1,146.8-146.8,185.4-185.5c0,0,7.7-13,23.6,2.8c15.9,15.9,85.8,85.8,97.1,97.1c11.4,11.3,2.3,19.8,2.3,19.8C424.6,691,326.7,789.1,276.4,839.5c-16.3,16.2-27.1,26.9-27.1,26.9s39.2,39.2,63.7,63.6c24.6,24.7-12.2,24.5-12.2,24.5S58.4,988.8,29.3,988.8C8.2,988.8,10,966.9,10,966.9z"/><path d="M985.9,33l-25.4,270.7c0,0,0.9,36-19.2,15.7c-20.3-20.2-69.1-69-69.1-69s-11.8,11.8-30,30.1c-52,52-146.8,146.7-185.4,185.3c0,0-7.7,13.2-23.6-2.7c-15.9-15.9-85.7-85.6-97.2-97c-11.2-11.5-2.4-19.9-2.4-19.9c37.6-37.6,135.6-135.4,185.9-185.9c16.4-16.3,27-26.9,27-26.9s-39.1-39.2-63.7-63.8c-24.5-24.6,12.4-24.4,12.4-24.4s242.4-34,271.4-34C987.7,11.2,985.9,33,985.9,33z"/></g>
</svg>
