<?xml version="1.0" standalone="no"?>
<!DOCTYPE svg PUBLIC "-//W3C//DTD SVG 20010904//EN"
 "http://www.w3.org/TR/2001/REC-SVG-20010904/DTD/svg10.dtd">
<svg version="1.0" xmlns="http://www.w3.org/2000/svg"
 width="16.000000pt" height="16.000000pt" viewBox="0 0 16.000000 16.000000"
 preserveAspectRatio="xMidYMid meet">

<g transform="translate(0.000000,16.000000) scale(0.100000,-0.100000)"
fill="#3a6e9f" stroke="none">
<path d="M20 80 l0 -70 55 0 55 0 0 70 0 70 -55 0 -55 0 0 -70z m81 3 c10 -3
19 -9 19 -14 0 -5 -6 -6 -14 -3 -8 3 -29 -2 -48 -12 l-33 -17 23 25 c12 13 23
35 23 49 l2 24 4 -24 c3 -13 13 -26 24 -28z"/>
</g>
</svg>
