<?xml version="1.0" encoding="UTF-8" standalone="no"?>
<svg
   xmlns:dc="http://purl.org/dc/elements/1.1/"
   xmlns:cc="http://creativecommons.org/ns#"
   xmlns:rdf="http://www.w3.org/1999/02/22-rdf-syntax-ns#"
   xmlns:svg="http://www.w3.org/2000/svg"
   xmlns="http://www.w3.org/2000/svg"
   xmlns:sodipodi="http://sodipodi.sourceforge.net/DTD/sodipodi-0.dtd"
   xmlns:inkscape="http://www.inkscape.org/namespaces/inkscape"
   id="clipboard"
   width="100%"
   height="100%"
   viewBox="0 0 16 16"
   xml:space="preserve">
   <defs
     id="defs33" /><sodipodi:namedview
     pagecolor="#ffffff"
     bordercolor="#666666"
     borderopacity="1"
     objecttolerance="10"
     gridtolerance="10"
     guidetolerance="10"
     inkscape:pageopacity="0"
     inkscape:pageshadow="2"
     inkscape:window-width="1379"
     inkscape:window-height="747"
     id="namedview31"
     showgrid="false"
     inkscape:zoom="9.44"
     inkscape:cx="9.3497203"
     inkscape:cy="22.923564"
     inkscape:window-x="0"
     inkscape:window-y="23"
     inkscape:window-maximized="0"
     inkscape:current-layer="clipboard" /><g
     id="g5"
     transform="matrix(0.53848681,0,0,0.53848681,-5.569447,-5.2704396)"
     fill="currentColor"><path
       d="m 15.1,0.1875 c -1.018804,7.1646e-4 -1.86136,0.79365925 -1.923829,1.8105469 l -1.13203,0 c -0.292681,0 -0.488282,0.1956012 -0.488282,0.4882812 l 0,2.5351563 c 0.09755,0.292685 0.293162,0.4882812 0.488282,0.4882812 l 6.311718,0 c 0.292685,0 0.488282,-0.1955962 0.488282,-0.4882812 l 0,-2.5351563 c 0,-0.29268 -0.195597,-0.4882812 -0.488282,-0.4882812 l -1.332031,0 C 16.961359,0.98115886 16.118805,0.18821593 15.1,0.1875 Z M 7.4433594,3.65625 c -1.268295,0 -2.2441407,1.0734106 -2.2441406,2.2441406 l 0,21.7558594 c 0,1.268295 1.0734056,2.244141 2.2441406,2.244141 l 15.5136716,0 c 1.26829,0 2.242188,-1.073406 2.242188,-2.244141 l 0,-21.6582031 C 25.101669,4.7297569 24.127665,3.65625 22.859375,3.65625 l -2.927734,0 0,2.2517579 c 0,0.390245 -0.293253,0.5839843 -0.585938,0.5839843 l -8.486328,0 c -0.292684,0 -0.488281,-0.2912993 -0.488281,-0.5839843 l 0,-2.2517579 z"
       transform="translate(10,9.6)"
       id="path27"
       inkscape:connector-curvature="0"
       sodipodi:nodetypes="ccsscsssssccsssssscscsssscs" /></g></svg>
