<?xml version="1.0" encoding="UTF-8" standalone="no"?>
<svg
   xmlns:dc="http://purl.org/dc/elements/1.1/"
   xmlns:cc="http://creativecommons.org/ns#"
   xmlns:rdf="http://www.w3.org/1999/02/22-rdf-syntax-ns#"
   xmlns:svg="http://www.w3.org/2000/svg"
   xmlns="http://www.w3.org/2000/svg"
   xmlns:sodipodi="http://sodipodi.sourceforge.net/DTD/sodipodi-0.dtd"
   xmlns:inkscape="http://www.inkscape.org/namespaces/inkscape"
   version="1.1"
   id="clipboard"
   x="0px"
   y="0px"
   width="100%"
   height="100%"
   viewBox="10 10 30 30"
   xml:space="preserve"><defs
     id="defs33" /><sodipodi:namedview
     pagecolor="#ffffff"
     bordercolor="#666666"
     borderopacity="1"
     objecttolerance="10"
     gridtolerance="10"
     guidetolerance="10"
     inkscape:pageopacity="0"
     inkscape:pageshadow="2"
     inkscape:window-width="1379"
     inkscape:window-height="747"
     id="namedview31"
     showgrid="false"
     inkscape:zoom="9.44"
     inkscape:cx="15.144611"
     inkscape:cy="22.923564"
     inkscape:window-x="0"
     inkscape:window-y="0"
     inkscape:window-maximized="0"
     inkscape:current-layer="rapidfeedback" /><g
     id="g5"
     fill="currentColor"
     transform="translate(0,0.4)"><path
       d="M 15.099609 0.1875 C 14.080805 0.18821646 13.23825 0.98115925 13.175781 1.9980469 L 11.640625 1.9980469 C 11.347945 1.9980469 11.152344 2.1936481 11.152344 2.4863281 L 11.152344 5.0214844 C 11.249894 5.3141694 11.445505 5.5097656 11.640625 5.5097656 L 18.566406 5.5097656 C 18.859091 5.5097656 19.054687 5.3141694 19.054688 5.0214844 L 19.054688 2.4863281 C 19.054688 2.1936481 18.859091 1.9980469 18.566406 1.9980469 L 17.023438 1.9980469 C 16.960968 0.98115886 16.118414 0.18821593 15.099609 0.1875 z M 7.4433594 3.65625 C 6.1750644 3.65625 5.1992187 4.7296606 5.1992188 5.9003906 L 5.1992188 27.65625 C 5.1992188 28.924545 6.2726244 29.900391 7.4433594 29.900391 L 22.957031 29.900391 C 24.225321 29.900391 25.199219 28.826985 25.199219 27.65625 L 25.199219 5.9980469 C 25.101669 4.7297569 24.127665 3.65625 22.859375 3.65625 L 19.931641 3.65625 L 19.931641 5.6074219 C 19.931641 5.9976669 19.638388 6.1914064 19.345703 6.1914062 L 10.859375 6.1914062 C 10.566691 6.1914062 10.371094 5.9001069 10.371094 5.6074219 L 10.371094 3.65625 L 7.4433594 3.65625 z "
       transform="translate(10,9.6)"
       id="path27" /></g></svg>
