<?xml version="1.0" encoding="UTF-8" standalone="no"?>
<svg
   xmlns:dc="http://purl.org/dc/elements/1.1/"
   xmlns:cc="http://creativecommons.org/ns#"
   xmlns:rdf="http://www.w3.org/1999/02/22-rdf-syntax-ns#"
   xmlns:svg="http://www.w3.org/2000/svg"
   xmlns="http://www.w3.org/2000/svg"
   xmlns:sodipodi="http://sodipodi.sourceforge.net/DTD/sodipodi-0.dtd"
   xmlns:inkscape="http://www.inkscape.org/namespaces/inkscape"
   id="clock"
   width="100%"
   height="100%"
   viewBox="0 0 16 16">
   <defs
     id="defs40" /><sodipodi:namedview
     pagecolor="#ffffff"
     bordercolor="#666666"
     borderopacity="1"
     objecttolerance="10"
     gridtolerance="10"
     guidetolerance="10"
     inkscape:pageopacity="0"
     inkscape:pageshadow="2"
     inkscape:window-width="1089"
     inkscape:window-height="610"
     id="namedview38"
     showgrid="false"
     showborder="false"
     fit-margin-top="0"
     fit-margin-left="0"
     fit-margin-right="0"
     fit-margin-bottom="0"
     inkscape:zoom="20.48"
     inkscape:cx="7.9449534"
     inkscape:cy="7.4924748"
     inkscape:window-x="145"
     inkscape:window-y="84"
     inkscape:window-maximized="0"
     inkscape:current-layer="Capa_1" /><g
     id="g3"
     fill="currentColor"
     transform="matrix(0.03802489,0,0,0.03802489,0,3.922273e-5)"><g
       id="Layer_8_58_"><path
         d="M 210.389,0.001 C 94.381,0.001 0,94.382 0,210.389 c 0,116.006 94.381,210.387 210.389,210.387 116.008,0 210.388,-94.381 210.388,-210.387 C 420.777,94.382 326.396,0.001 210.389,0.001 Z m 0,386.499 C 113.287,386.5 34.28,307.488 34.28,210.389 34.28,113.288 113.287,34.28 210.389,34.28 c 97.101,0 176.109,79.008 176.109,176.109 0,97.1 -79.008,176.111 -176.109,176.111 z M 319.061,156.275 c 3.516,5.094 2.24,12.072 -2.854,15.59 l -101.554,70.163 c -1.906,1.312 -4.136,1.98 -6.372,1.98 -1.781,0 -3.57,-0.427 -5.207,-1.28 -3.684,-1.947 -6,-5.762 -6,-9.926 l 0,-150.163 c 0,-6.186 5.021,-11.207 11.207,-11.207 6.188,0 11.206,5.021 11.206,11.207 l 0,128.8 83.979,-58.02 c 5.102,-3.502 12.093,-2.224 15.595,2.856 z"
         id="path6"
         inkscape:connector-curvature="0" /></g></g><g
     id="g8"
     transform="translate(0,-404.776)" /><g
     id="g10"
     transform="translate(0,-404.776)" /><g
     id="g12"
     transform="translate(0,-404.776)" /><g
     id="g14"
     transform="translate(0,-404.776)" /><g
     id="g16"
     transform="translate(0,-404.776)" /><g
     id="g18"
     transform="translate(0,-404.776)" /><g
     id="g20"
     transform="translate(0,-404.776)" /><g
     id="g22"
     transform="translate(0,-404.776)" /><g
     id="g24"
     transform="translate(0,-404.776)" /><g
     id="g26"
     transform="translate(0,-404.776)" /><g
     id="g28"
     transform="translate(0,-404.776)" /><g
     id="g30"
     transform="translate(0,-404.776)" /><g
     id="g32"
     transform="translate(0,-404.776)" /><g
     id="g34"
     transform="translate(0,-404.776)" /><g
     id="g36"
     transform="translate(0,-404.776)" /></svg>
