<?xml version="1.0" encoding="UTF-8" standalone="no"?>
<svg
   xmlns:dc="http://purl.org/dc/elements/1.1/"
   xmlns:cc="http://creativecommons.org/ns#"
   xmlns:rdf="http://www.w3.org/1999/02/22-rdf-syntax-ns#"
   xmlns:svg="http://www.w3.org/2000/svg"
   xmlns="http://www.w3.org/2000/svg"
   xmlns:sodipodi="http://sodipodi.sourceforge.net/DTD/sodipodi-0.dtd"
   xmlns:inkscape="http://www.inkscape.org/namespaces/inkscape"
   id="group"
   width="100%"
   height="100%"
   viewBox="0 0 16 16"
   xml:space="preserve">
   <defs
     id="defs19" /><sodipodi:namedview
     pagecolor="#ffffff"
     bordercolor="#666666"
     borderopacity="1"
     objecttolerance="10"
     gridtolerance="10"
     guidetolerance="10"
     inkscape:pageopacity="0"
     inkscape:pageshadow="2"
     inkscape:window-width="1234"
     inkscape:window-height="615"
     id="namedview17"
     showgrid="false"
     inkscape:zoom="3.6875"
     inkscape:cx="-52.745763"
     inkscape:cy="64.787341"
     inkscape:window-x="0"
     inkscape:window-y="23"
     inkscape:window-maximized="0"
     inkscape:current-layer="group" /><g
     id="g9"
     transform="matrix(0.032,0,0,0.032,-0.19200002,-0.19200006)"><path
       d="m 354.99902,67.168874 c -12.60316,0 -24.28253,1.935718 -33.94031,6.926014 21.97211,16.884726 33.61321,44.518542 33.61321,81.754022 0,42.91023 -14.39386,92.32147 -36.2798,125.81786 0.0595,0.37986 0.11692,0.7498 0.18488,1.12116 0.57646,2.5983 1.05028,3.95566 1.34397,4.6292 4.79975,2.67598 10.54206,4.77661 16.95711,7.03268 l 9.6092,3.20227 c 28.41265,9.43326 57.79221,19.07945 84.25704,36.63772 4.2767,2.82161 8.31756,4.9563 12.10275,9.81068 l 63.1282,0 c 0.25242,-9.70754 -1.4168,-26.94923 -5.48962,-39.28298 -3.95995,-11.88472 -11.13883,-23.51823 -21.7238,-30.49153 -20.37623,-13.5255 -44.1162,-20.56512 -67.06526,-28.28479 -5.53762,-1.93932 -11.16048,-3.96493 -16.21995,-6.97343 -4.52185,-2.68568 -6.21532,-8.14838 -7.26023,-12.98212 -0.46359,-2.55826 -0.75161,-5.15888 -0.8936,-7.74141 16.64079,-22.76822 27.68035,-59.91353 27.68035,-90.37715 0,-47.548596 -26.86575,-60.798196 -60.00414,-60.798196 z m -200.00114,0.0024 c -33.1396,0 -60.004148,13.240341 -60.004148,60.779226 0,31.56194 11.839678,70.27396 29.486548,92.75457 -0.16384,1.7767 -0.37297,3.55549 -0.69214,5.32369 -1.05219,4.82889 -2.74566,10.23969 -7.26023,12.92051 -5.06554,3.00729 -10.69065,4.91796 -16.22706,6.85728 -22.951488,7.72452 -46.689148,14.53052 -67.060528,28.05724 -10.59103,6.97209 -17.766271,19.07139 -21.723801,30.95611 -4.0764597,12.33375 -5.7431997,29.57659 -5.4919797,39.28534 l 62.5901207,0 c 3.97088,-4.85559 8.20233,-7.57839 12.70719,-10.53835 25.791298,-17.12866 54.428358,-26.51684 82.123778,-35.65642 3.97937,-1.30825 7.95328,-2.59494 11.90839,-3.93232 l 0.81064,-0.26785 c 5.85195,-2.04976 11.40021,-3.98392 15.94026,-6.48514 0.2051,-0.47816 0.49784,-1.27515 0.84857,-2.59311 -22.801,-33.28644 -38.29457,-84.73159 -38.29457,-128.80445 0,-37.38717 11.75051,-65.083062 33.90951,-81.94837 -9.5801,-4.843451 -21.13486,-6.707956 -33.57055,-6.707956 z m 99.66399,7.620518 c -44.18451,0 -80.00236,17.646122 -80.00236,81.038178 0,42.07528 15.78343,93.6944 39.31379,123.67987 -0.21966,2.36286 -0.49728,4.7352 -0.92204,7.08957 -1.40655,6.43568 -3.66215,13.65093 -9.67793,17.22497 -6.75729,4.01456 -14.25855,6.55364 -21.64084,9.14224 -30.60076,10.30219 -62.25222,19.37401 -89.412448,37.41044 -14.12137,9.29733 -23.68958,25.82155 -28.96507,41.66987 -5.4369,16.4454 -7.65917,37.00749 -7.32422,52.7842 l 199.965598,0 199.96796,0 c 0.34223,-15.77671 -1.88391,-36.34001 -7.31474,-52.7842 -5.28399,-15.84832 -14.8534,-31.55218 -28.96507,-40.85923 -27.1675,-18.02672 -58.82353,-27.51617 -89.42429,-37.80865 -7.3835,-2.5886 -14.88389,-5.33395 -21.62662,-9.34609 -6.03035,-3.58375 -8.28461,-10.88745 -9.68267,-17.33164 -0.61529,-3.41747 -0.99936,-6.88906 -1.18989,-10.33687 22.18692,-30.35562 36.90794,-79.89059 36.90794,-120.51078 0,-63.398123 -35.82016,-81.061878 -80.0071,-81.061878 z"
       id="path11"
       inkscape:connector-curvature="0"
       fill="currentColor" /></g></svg>
