<?xml version="1.0" encoding="UTF-8" standalone="no"?>
<svg
   xmlns:dc="http://purl.org/dc/elements/1.1/"
   xmlns:cc="http://creativecommons.org/ns#"
   xmlns:rdf="http://www.w3.org/1999/02/22-rdf-syntax-ns#"
   xmlns:svg="http://www.w3.org/2000/svg"
   xmlns="http://www.w3.org/2000/svg"
   xmlns:sodipodi="http://sodipodi.sourceforge.net/DTD/sodipodi-0.dtd"
   xmlns:inkscape="http://www.inkscape.org/namespaces/inkscape"
   id="subscribe"
   width="100%"
   height="100%"
   viewBox="0 0 16 16"
   xml:space="preserve">
	 <defs
     id="defs9" /><sodipodi:namedview
     pagecolor="#ffffff"
     bordercolor="#666666"
     borderopacity="1"
     objecttolerance="10"
     gridtolerance="10"
     guidetolerance="10"
     inkscape:pageopacity="0"
     inkscape:pageshadow="2"
     inkscape:window-width="1390"
     inkscape:window-height="791"
     id="namedview7"
     showgrid="false"
     inkscape:zoom="3.4911366"
     inkscape:cx="-102.89206"
     inkscape:cy="53.709959"
     inkscape:window-x="0"
     inkscape:window-y="0"
     inkscape:window-maximized="0"
     inkscape:current-layer="subscribe" /><g
     id="g3"
     fill="currentColor"
     transform="matrix(0.04184076,0,0,0.04184076,-1.060002e-6,-1.0843045e-5)"><path
       d="m 381.918,147.437 c -1.323,-4.074 -5.122,-6.831 -9.401,-6.831 l -131.33,0 -40.582,-124.9 c -1.322,-4.072 -5.12,-6.831 -9.402,-6.831 -4.282,0 -8.08,2.759 -9.403,6.831 l -40.581,124.9 -131.331,0 c -4.282,0 -8.081,2.756 -9.404,6.831 -1.322,4.074 0.126,8.535 3.591,11.053 l 106.245,77.193 -40.582,124.9 c -1.323,4.074 0.125,8.535 3.592,11.054 3.466,2.521 8.157,2.521 11.623,0 l 106.249,-77.192 106.249,77.192 c 1.731,1.262 3.773,1.888 5.811,1.888 2.038,0 4.079,-0.626 5.812,-1.888 3.466,-2.519 4.913,-6.979 3.591,-11.054 l -40.58,-124.9 106.242,-77.193 c 3.464,-2.518 4.914,-6.979 3.591,-11.053 z m -127.271,76.476 c -3.465,2.519 -4.913,6.979 -3.591,11.054 l 33.402,102.791 -87.446,-63.527 c -1.732,-1.26 -3.774,-1.887 -5.812,-1.887 -2.038,0 -4.079,0.627 -5.812,1.887 l -87.447,63.527 33.403,-102.791 c 1.323,-4.074 -0.126,-8.535 -3.592,-11.054 l -87.441,-63.536 108.089,0 c 4.28,0 8.079,-2.756 9.402,-6.831 L 191.201,50.75 224.598,153.546 c 1.322,4.074 5.121,6.831 9.403,6.831 l 108.087,0 -87.441,63.536 z"
       id="path5"
       inkscape:connector-curvature="0" /></g></svg>
