<?xml version="1.0" encoding="UTF-8" standalone="no"?>
<svg
   xmlns:dc="http://purl.org/dc/elements/1.1/"
   xmlns:cc="http://creativecommons.org/ns#"
   xmlns:rdf="http://www.w3.org/1999/02/22-rdf-syntax-ns#"
   xmlns:svg="http://www.w3.org/2000/svg"
   xmlns="http://www.w3.org/2000/svg"
   xmlns:sodipodi="http://sodipodi.sourceforge.net/DTD/sodipodi-0.dtd"
   xmlns:inkscape="http://www.inkscape.org/namespaces/inkscape"
   id="user"
   width="100%"
   height="100%"
   viewBox="0 0 16 16"
   xml:space="preserve">
   <defs
     id="defs13" /><sodipodi:namedview
     pagecolor="#ffffff"
     bordercolor="#666666"
     borderopacity="1"
     objecttolerance="10"
     gridtolerance="10"
     guidetolerance="10"
     inkscape:pageopacity="0"
     inkscape:pageshadow="2"
     inkscape:window-width="1443"
     inkscape:window-height="779"
     id="namedview11"
     showgrid="false"
     inkscape:zoom="1.84375"
     inkscape:cx="-137.76271"
     inkscape:cy="39.050847"
     inkscape:window-x="-1"
     inkscape:window-y="7"
     inkscape:window-maximized="0"
     inkscape:current-layer="user" /><path
     d="M 15.705893,13.289477 C 15.49467,12.655691 15.111796,12.01639 14.547097,11.644351 13.460534,10.923108 12.194553,10.53837 10.970436,10.126486 10.675135,10.02303 10.375096,9.9102525 10.105232,9.7497866 9.8643004,9.6066415 9.7738534,9.3130486 9.7178924,9.0551846 c -0.0247,-0.136388 -0.03984,-0.276349 -0.04769,-0.414019 0.8876496,-1.214253 1.4764656,-3.195924 1.4764656,-4.8208171 0,-2.535845 -1.4328546,-3.24252505 -3.2000786,-3.24252505 -1.767573,0 -3.2001171,0.70563105 -3.2001171,3.24147605 0,1.6830301 0.631262,3.7475741 1.5723891,4.9469141 -0.0086,0.09468 -0.01984,0.1893589 -0.03689,0.283612 -0.05608,0.257825 -0.146408,0.545942 -0.387185,0.689049 -0.270175,0.160505 -0.5701751,0.2623694 -0.8655151,0.3658254 -1.224116,0.411845 -2.490059,0.775029 -3.57635,1.496272 -0.56500998,0.372039 -0.94768998,1.054719 -1.15875798,1.688505 -0.217359,0.657787 -0.306252,1.472506 -0.292854,2.1327 l 7.99837108,0 7.9989916,0 c 0.01351,-0.660156 -0.07557,-1.474874 -0.292777,-2.1327 z"
     id="path9"
     inkscape:connector-curvature="0"
     fill="currentColor" /></svg>
