<?xml version="1.0" encoding="UTF-8" standalone="no"?>
<svg
   xmlns:dc="http://purl.org/dc/elements/1.1/"
   xmlns:cc="http://creativecommons.org/ns#"
   xmlns:rdf="http://www.w3.org/1999/02/22-rdf-syntax-ns#"
   xmlns:svg="http://www.w3.org/2000/svg"
   xmlns="http://www.w3.org/2000/svg"
   xmlns:sodipodi="http://sodipodi.sourceforge.net/DTD/sodipodi-0.dtd"
   xmlns:inkscape="http://www.inkscape.org/namespaces/inkscape"
   version="1.1"
   id="GradingQuestion"
   x="0px"
   y="0px"
   width="100%"
   height="100%"
   viewBox="0 0 510 510"
   style="enable-background:new 0 0 510 510;"
   xml:space="preserve"
   inkscape:version="0.91 r13725"
   sodipodi:docname="grading.svg"><defs
     id="defs11" /><sodipodi:namedview
     pagecolor="#ffffff"
     bordercolor="#666666"
     borderopacity="1"
     objecttolerance="10"
     gridtolerance="10"
     guidetolerance="10"
     inkscape:pageopacity="0"
     inkscape:pageshadow="2"
     inkscape:window-width="1420"
     inkscape:window-height="762"
     id="namedview9"
     showgrid="false"
     inkscape:zoom="0.4627451"
     inkscape:cx="149.74587"
     inkscape:cy="359.39302"
     inkscape:window-x="4"
     inkscape:window-y="96"
     inkscape:window-maximized="0"
     inkscape:current-layer="matrix" /><g
     id="g3"><g
       id="g5" /></g><path
     fill="currentColor"
     style="opacity:1;fill-opacity:1;fill-rule:nonzero;stroke:none;stroke-width:10;stroke-miterlimit:4;stroke-dasharray:none;stroke-opacity:1"
     d="M 65 5 C 31.76 5 5 31.76 5 65 L 5 445 C 5 478.24 31.76 505 65 505 L 445 505 C 478.24 505 505 478.24 505 445 L 505 65 C 505 31.76 478.24 5 445 5 L 65 5 z M 131.30078 74.857422 L 171.30078 74.857422 L 171.30078 120 L 215.54883 120 L 215.54883 160 L 171.30078 160 L 171.30078 204.85742 L 131.30078 204.85742 L 131.30078 160 L 85.548828 160 L 85.548828 120 L 131.30078 120 L 131.30078 74.857422 z M 294 120 L 424 120 L 424 160 L 294 160 L 294 120 z M 150 275 C 194.09395 275 235 315.90605 235 360 C 235 404.09395 194.09395 445 150 445 C 105.90605 445 65 404.09395 65 360 C 65 315.90605 105.90605 275 150 275 z M 360 275 C 404.09395 275 445 315.90605 445 360 C 445 404.09395 404.09395 445 360 445 C 315.90605 445 275 404.09395 275 360 C 275 315.90605 315.90605 275 360 275 z M 150 295 C 114.01266 295 85 324.01266 85 360 C 85 395.98734 114.01266 425 150 425 C 185.98734 425 215 395.98734 215 360 C 215 324.01266 185.98734 295 150 295 z M 360 295 C 324.01266 295 295 324.01266 295 360 C 295 395.98734 324.01266 425 360 425 C 395.98734 425 425 395.98734 425 360 C 425 324.01266 395.98734 295 360 295 z M 149.99219 325.51172 C 172.23657 325.51196 184.26918 337.57692 184.26953 359.86133 C 184.27025 382.1465 172.23733 394.21265 149.99219 394.21289 C 127.74704 394.21265 115.71412 382.1465 115.71484 359.86133 C 115.71519 337.57692 127.7478 325.51196 149.99219 325.51172 z "
     id="rect4169" /></svg>
