<?xml version="1.0" encoding="UTF-8" standalone="no"?>
<svg
   xmlns:dc="http://purl.org/dc/elements/1.1/"
   xmlns:cc="http://creativecommons.org/ns#"
   xmlns:rdf="http://www.w3.org/1999/02/22-rdf-syntax-ns#"
   xmlns:svg="http://www.w3.org/2000/svg"
   xmlns="http://www.w3.org/2000/svg"
   xmlns:sodipodi="http://sodipodi.sourceforge.net/DTD/sodipodi-0.dtd"
   xmlns:inkscape="http://www.inkscape.org/namespaces/inkscape"
   version="1.1"
   id="JumpLabel"
   x="0px"
   y="0px"
   width="100%"
   height="100%"
   viewBox="0 0 534.479 534.479"
   style="enable-background:new 0 0 534.479 534.479;"
   xml:space="preserve"
   inkscape:version="0.91 r13725"><defs
     id="defs43" /><sodipodi:namedview
     pagecolor="#ffffff"
     bordercolor="#666666"
     borderopacity="1"
     objecttolerance="10"
     gridtolerance="10"
     guidetolerance="10"
     inkscape:pageopacity="0"
     inkscape:pageshadow="2"
     inkscape:window-width="1440"
     inkscape:window-height="794"
     id="namedview41"
     showgrid="false"
     inkscape:zoom="0.62444811"
     inkscape:cx="-177.74287"
     inkscape:cy="267.2395"
     inkscape:window-x="0"
     inkscape:window-y="1"
     inkscape:window-maximized="0"
     inkscape:current-layer="jumpLabel"
     inkscape:snap-text-baseline="true" /><path
     fill="currentColor"
     style="opacity:1;fill-opacity:1;fill-rule:nonzero;stroke:none;stroke-width:6;stroke-miterlimit:4;stroke-dasharray:none;stroke-opacity:1"
     d="M 62.240234 2.2402344 C 29.000234 2.2402344 2.2402344 29.000234 2.2402344 62.240234 L 2.2402344 472.24023 C 2.2402344 505.48023 29.000234 532.24023 62.240234 532.24023 L 472.24023 532.24023 C 505.48023 532.24023 532.24023 505.48023 532.24023 472.24023 L 532.24023 62.240234 C 532.24023 29.000234 505.48023 2.2402344 472.24023 2.2402344 L 62.240234 2.2402344 z M 313.90625 92.240234 L 477.24023 255.57227 L 313.90625 418.9043 L 313.90625 323.24023 C 197.23958 323.24023 115.57358 360.57357 57.240234 442.24023 C 80.573572 325.57357 150.57292 208.90561 313.90625 185.57227 L 313.90625 92.240234 z "
     id="rect4135" /></svg>
