<?xml version="1.0" encoding="UTF-8" standalone="no"?>
<svg
   xmlns:dc="http://purl.org/dc/elements/1.1/"
   xmlns:cc="http://creativecommons.org/ns#"
   xmlns:rdf="http://www.w3.org/1999/02/22-rdf-syntax-ns#"
   xmlns:svg="http://www.w3.org/2000/svg"
   xmlns="http://www.w3.org/2000/svg"
   xmlns:sodipodi="http://sodipodi.sourceforge.net/DTD/sodipodi-0.dtd"
   xmlns:inkscape="http://www.inkscape.org/namespaces/inkscape"
   version="1.1"
   id="MatrixQuestion"
   x="0px"
   y="0px"
   width="100%"
   height="100%"
   viewBox="0 0 510 510"
   style="enable-background:new 0 0 510 510;"
   xml:space="preserve"
   inkscape:version="0.91 r13725"
   sodipodi:docname="matrix.svg"><defs
     id="defs11" /><sodipodi:namedview
     pagecolor="#ffffff"
     bordercolor="#666666"
     borderopacity="1"
     objecttolerance="10"
     gridtolerance="10"
     guidetolerance="10"
     inkscape:pageopacity="0"
     inkscape:pageshadow="2"
     inkscape:window-width="1420"
     inkscape:window-height="762"
     id="namedview9"
     showgrid="false"
     inkscape:zoom="0.9254902"
     inkscape:cx="52.895614"
     inkscape:cy="327.29584"
     inkscape:window-x="4"
     inkscape:window-y="73"
     inkscape:window-maximized="0"
     inkscape:current-layer="matrix" /><g
     id="g3"><g
       id="g5" /></g><path
     fill="currentColor"
     style="opacity:1;fill-opacity:1;fill-rule:nonzero;stroke:none;stroke-width:10;stroke-miterlimit:4;stroke-dasharray:none;stroke-opacity:1"
     d="M 65,5 C 31.76,5 5,31.76 5,65 l 0,380 c 0,33.24 26.76,60 60,60 l 380,0 c 33.24,0 60,-26.76 60,-60 L 505,65 C 505,31.76 478.24,5 445,5 Z m 84.99219,59.732 c 44.10124,0 84.99981,40.97062 84.99981,85.12933 0,44.1587 -40.89857,85.13067 -84.99981,85.13067 -44.10124,0 -85.00019,-40.9723 -85.00019,-85.131 0,-44.15871 40.89895,-85.129 85.00019,-85.129 z M 360,65 c 44.09395,0 85,40.90605 85,85 0,44.09395 -40.90605,85 -85,85 -44.09395,0 -85,-40.90605 -85,-85 0,-44.09395 40.90605,-85 85,-85 z M 149.99219,84.732422 c -35.98005,0 -65.000006,29.062248 -65.000002,65.128908 0,36.06666 29.019952,65.13086 65.000002,65.13086 35.98005,0 65,-29.0642 65,-65.13086 0,-36.06666 -29.01995,-65.128908 -65,-65.128908 z M 360,85 c -35.98734,0 -65,29.01266 -65,65 0,35.98734 29.01266,65 65,65 35.98734,0 65,-29.01266 65,-65 0,-35.98734 -29.01266,-65 -65,-65 z m -210.00781,30.51172 c 22.24438,2.4e-4 34.27699,12.0652 34.27734,34.34961 7.2e-4,22.28517 -12.0322,34.35132 -34.27734,34.35156 -22.24515,-2.4e-4 -34.27807,-12.06639 -34.27735,-34.35156 3.5e-4,-22.28441 12.03296,-34.34937 34.27735,-34.34961 z M 150,275 c 44.09395,0 85,40.90605 85,85 0,44.09395 -40.90605,85 -85,85 -44.09395,0 -85,-40.90605 -85,-85 0,-44.09395 40.90605,-85 85,-85 z m 210,0 c 44.09395,0 85,40.90605 85,85 0,44.09395 -40.90605,85 -85,85 -44.09395,0 -85,-40.90605 -85,-85 0,-44.09395 40.90605,-85 85,-85 z m -210,20 c -35.98734,0 -65,29.01266 -65,65 0,35.98734 29.01266,65 65,65 35.98734,0 65,-29.01266 65,-65 0,-35.98734 -29.01266,-65 -65,-65 z m 210,0 c -35.98734,0 -65,29.01266 -65,65 0,35.98734 29.01266,65 65,65 35.98734,0 65,-29.01266 65,-65 0,-35.98734 -29.01266,-65 -65,-65 z"
     id="rect4169"
     inkscape:connector-curvature="0"
     sodipodi:nodetypes="ssssssssssssssssssssssssssssscccccssssssssssssssssssss" /></svg>
