<?xml version="1.0" encoding="UTF-8" standalone="no"?>
<svg
   xmlns:dc="http://purl.org/dc/elements/1.1/"
   xmlns:cc="http://creativecommons.org/ns#"
   xmlns:rdf="http://www.w3.org/1999/02/22-rdf-syntax-ns#"
   xmlns:svg="http://www.w3.org/2000/svg"
   xmlns="http://www.w3.org/2000/svg"
   xmlns:sodipodi="http://sodipodi.sourceforge.net/DTD/sodipodi-0.dtd"
   xmlns:inkscape="http://www.inkscape.org/namespaces/inkscape"
   version="1.1"
   id="MultipleChoiceQuestion"
   x="0px"
   y="0px"
   width="100%"
   height="100%"
   viewBox="0 0 510 510"
   style="enable-background:new 0 0 510 510;"
   xml:space="preserve"
   inkscape:version="0.91 r13725"
   sodipodi:docname="multipleChoice.svg"><defs
     id="defs11" /><sodipodi:namedview
     pagecolor="#ffffff"
     bordercolor="#666666"
     borderopacity="1"
     objecttolerance="10"
     gridtolerance="10"
     guidetolerance="10"
     inkscape:pageopacity="0"
     inkscape:pageshadow="2"
     inkscape:window-width="1420"
     inkscape:window-height="762"
     id="namedview9"
     showgrid="false"
     inkscape:zoom="0.70710678"
     inkscape:cx="4.7325744"
     inkscape:cy="262.44796"
     inkscape:window-x="1"
     inkscape:window-y="32"
     inkscape:window-maximized="0"
     inkscape:current-layer="multipleChoice" /><g
     id="g3"><g
       id="g5" /></g><path
     fill="currentColor"
     style="opacity:1;fill-opacity:1;fill-rule:nonzero;stroke:none;stroke-width:20;stroke-miterlimit:4;stroke-dasharray:none;stroke-opacity:1"
     d="M 20.724609 5 C 12.012905 5 5 12.012904 5 20.724609 L 5 489.27539 C 5 497.9871 12.012905 505 20.724609 505 L 489.27539 505 C 497.9871 505 505 497.9871 505 489.27539 L 505 20.724609 C 505 12.012904 497.9871 5 489.27539 5 L 20.724609 5 z M 123.72461 97.900391 L 386.27539 97.900391 C 400.40779 97.900391 412.09961 109.59221 412.09961 123.72461 L 412.09961 386.27539 C 412.09961 400.40779 400.40779 412.09961 386.27539 412.09961 L 123.72461 412.09961 C 109.59221 412.09961 97.900391 400.40779 97.900391 386.27539 L 97.900391 123.72461 C 97.900391 109.59221 109.59221 97.900391 123.72461 97.900391 z M 123.72461 118.09961 C 120.4336 118.09961 118.09961 120.4336 118.09961 123.72461 L 118.09961 386.27539 C 118.09961 389.5664 120.4336 391.90039 123.72461 391.90039 L 386.27539 391.90039 C 389.5664 391.90039 391.90039 389.5664 391.90039 386.27539 L 391.90039 123.72461 C 391.90039 120.4336 389.5664 118.09961 386.27539 118.09961 L 123.72461 118.09961 z M 327.39062 173.33398 L 361.16602 206.95312 L 264.63281 303.04297 L 264.63672 303.04688 L 230.85938 336.66602 L 148.83398 255.01758 L 182.60938 221.39648 L 230.85742 269.42383 L 327.39062 173.33398 z "
     id="rect4141" /><g
     transform="matrix(3.4118622,0,0,3.396194,-617.86243,-628.76317)"
     id="g4153" /></svg>
