<?xml version="1.0" encoding="UTF-8" standalone="no"?>
<svg
   xmlns:dc="http://purl.org/dc/elements/1.1/"
   xmlns:cc="http://creativecommons.org/ns#"
   xmlns:rdf="http://www.w3.org/1999/02/22-rdf-syntax-ns#"
   xmlns:svg="http://www.w3.org/2000/svg"
   xmlns="http://www.w3.org/2000/svg"
   xmlns:sodipodi="http://sodipodi.sourceforge.net/DTD/sodipodi-0.dtd"
   xmlns:inkscape="http://www.inkscape.org/namespaces/inkscape"
   version="1.1"
   id="PageBreak"
   x="0px"
   y="0px"
   viewBox="0 0 577 577"
   preserveAspectRatio="xMinYMin"
   width="100%"
   height="100%"
   inkscape:version="0.91 r13725">
  <defs
     id="defs17" />
  <sodipodi:namedview
     pagecolor="#ffffff"
     bordercolor="#666666"
     borderopacity="1"
     objecttolerance="10"
     gridtolerance="10"
     guidetolerance="10"
     inkscape:pageopacity="0"
     inkscape:pageshadow="2"
     inkscape:window-width="1417"
     inkscape:window-height="696"
     id="namedview15"
     showgrid="false"
     showguides="false"
     inkscape:zoom="0.40850592"
     inkscape:cx="-520.58224"
     inkscape:cy="296.53691"
     inkscape:window-x="8"
     inkscape:window-y="73"
     inkscape:window-maximized="0"
     inkscape:current-layer="pagebreak" />
  <path
     fill="currentColor"
     d="M -1.5 0 L -1.5 220 L 578.5 220 L 578.5 0 L -1.5 0 z M 0 263.5 L 0 313.5 L 80 313.5 L 80 263.5 L 0 263.5 z M 128 263.5 L 128 313.5 L 208 313.5 L 208 263.5 L 128 263.5 z M 248.5 263.5 L 248.5 313.5 L 328.5 313.5 L 328.5 263.5 L 248.5 263.5 z M 376 263.5 L 376 313.5 L 456 313.5 L 456 263.5 L 376 263.5 z M 497 263.5 L 497 313.5 L 577 313.5 L 577 263.5 L 497 263.5 z M -1.5 357 L -1.5 577 L 578.5 577 L 578.5 357 L -1.5 357 z "
     id="rect4138" />
</svg>
