<?xml version="1.0" encoding="UTF-8" standalone="no"?>
<svg
   xmlns:dc="http://purl.org/dc/elements/1.1/"
   xmlns:cc="http://creativecommons.org/ns#"
   xmlns:rdf="http://www.w3.org/1999/02/22-rdf-syntax-ns#"
   xmlns:svg="http://www.w3.org/2000/svg"
   xmlns="http://www.w3.org/2000/svg"
   xmlns:sodipodi="http://sodipodi.sourceforge.net/DTD/sodipodi-0.dtd"
   xmlns:inkscape="http://www.inkscape.org/namespaces/inkscape"
   version="1.1"
   id="ShortTextQuestion"
   x="0px"
   y="0px"
   width="100%"
   height="100%"
   viewBox="0 0 510 510"
   style="enable-background:new 0 0 510 510;"
   xml:space="preserve"
   inkscape:version="0.91 r13725"
   sodipodi:docname="shortText.svg"><metadata
     id="metadata10"><rdf:RDF><cc:Work
         rdf:about=""><dc:format>image/svg+xml</dc:format><dc:type
           rdf:resource="http://purl.org/dc/dcmitype/StillImage" /><dc:title></dc:title></cc:Work></rdf:RDF></metadata><defs
     id="defs11" /><sodipodi:namedview
     pagecolor="#ffffff"
     bordercolor="#666666"
     borderopacity="1"
     objecttolerance="10"
     gridtolerance="10"
     guidetolerance="10"
     inkscape:pageopacity="0"
     inkscape:pageshadow="2"
     inkscape:window-width="1420"
     inkscape:window-height="762"
     id="namedview9"
     showgrid="false"
     inkscape:zoom="0.65442039"
     inkscape:cx="-154.3216"
     inkscape:cy="272.45263"
     inkscape:window-x="8"
     inkscape:window-y="75"
     inkscape:window-maximized="0"
     inkscape:current-layer="longText" /><g
     id="g3"><g
       id="g5" /></g><rect
     fill="currentColor"
     style="opacity:1;fill-opacity:0;fill-rule:nonzero;stroke:none;stroke-width:26.70000076;stroke-miterlimit:4;stroke-dasharray:none;stroke-opacity:1"
     id="rect4136"
     width="723.94067"
     height="92.923729"
     x="-905.46613"
     y="-255" /><g
     id="g4141" /><path
     style="opacity:1;fill:currentColor;fill-opacity:1;fill-rule:nonzero;stroke:none;stroke-width:6;stroke-miterlimit:4;stroke-dasharray:none;stroke-opacity:1"
     d="M 65,5 C 31.76,5 5,31.76 5,65 l 0,380 c 0,33.24 26.76,60 60,60 l 380,0 c 33.24,0 60,-26.76 60,-60 L 505,65 C 505,31.76 478.24,5 445,5 Z m 5.724609,165.0918 368.550781,0 c 8.71171,0 15.72461,7.0129 15.72461,15.72461 l 0,29.27734 c 0,8.71171 -7.0129,15.72461 -15.72461,15.72461 l -368.550781,0 C 62.012901,230.81836 55,223.80546 55,215.09375 l 0,-29.27734 c 0,-8.71171 7.012901,-15.72461 15.724609,-15.72461 z m 0,109.08984 168.550781,0 c 8.71171,0 15.72461,7.0129 15.72461,15.72461 l 0,29.27734 c 0,8.71171 -7.0129,15.72461 -15.72461,15.72461 l -168.550781,0 C 62.012901,339.9082 55,332.8953 55,324.18359 l 0,-29.27734 c 0,-8.71171 7.012901,-15.72461 15.724609,-15.72461 z"
     id="rect4148"
     inkscape:connector-curvature="0"
     sodipodi:nodetypes="sssssssssssssssssssssssssss" /></svg>
