<?xml version="1.0" encoding="UTF-8" standalone="no"?>
<svg
   xmlns:dc="http://purl.org/dc/elements/1.1/"
   xmlns:cc="http://creativecommons.org/ns#"
   xmlns:rdf="http://www.w3.org/1999/02/22-rdf-syntax-ns#"
   xmlns:svg="http://www.w3.org/2000/svg"
   xmlns="http://www.w3.org/2000/svg"
   xmlns:sodipodi="http://sodipodi.sourceforge.net/DTD/sodipodi-0.dtd"
   xmlns:inkscape="http://www.inkscape.org/namespaces/inkscape"
   version="1.1"
   id="SingleChoiceQuestion"
   x="0px"
   y="0px"
   width="100%"
   height="100%"
   viewBox="0 0 510 510"
   style="enable-background:new 0 0 510 510;"
   xml:space="preserve"
   inkscape:version="0.91 r13725"
   sodipodi:docname="singleChoice.svg"><defs
     id="defs11" /><sodipodi:namedview
     pagecolor="#ffffff"
     bordercolor="#666666"
     borderopacity="1"
     objecttolerance="10"
     gridtolerance="10"
     guidetolerance="10"
     inkscape:pageopacity="0"
     inkscape:pageshadow="2"
     inkscape:window-width="1420"
     inkscape:window-height="762"
     id="namedview9"
     showgrid="false"
     inkscape:zoom="0.65442039"
     inkscape:cx="161.78008"
     inkscape:cy="255"
     inkscape:window-x="16"
     inkscape:window-y="12"
     inkscape:window-maximized="0"
     inkscape:current-layer="singleChoice" /><g
     id="g3"><g
       id="g5" /></g><path
     fill="currentColor"
     style="opacity:1;fill-opacity:1;fill-rule:nonzero;stroke:none;stroke-width:6;stroke-miterlimit:4;stroke-dasharray:none;stroke-opacity:1"
     d="M 65 5 C 31.76 5 5 31.76 5 65 L 5 445 C 5 478.24 31.76 505 65 505 L 445 505 C 478.24 505 505 478.24 505 445 L 505 65 C 505 31.76 478.24 5 445 5 L 65 5 z M 255 98 C 341.59026 98 412 168.40974 412 255 C 412 341.59026 341.59026 412 255 412 C 168.40974 412 98 341.59026 98 255 C 98 168.40974 168.40974 98 255 98 z M 255 118 C 179.21854 118 118 179.21854 118 255 C 118 330.78146 179.21854 392 255 392 C 330.78146 392 392 330.78146 392 255 C 392 179.21854 330.78146 118 255 118 z M 255 173.33398 A 81.666668 81.666668 0 0 1 336.66602 255 A 81.666668 81.666668 0 0 1 255 336.66602 A 81.666668 81.666668 0 0 1 173.33398 255 A 81.666668 81.666668 0 0 1 255 173.33398 z "
     id="rect4143" /></svg>
