<?xml version="1.0" encoding="iso-8859-1"?>
<!DOCTYPE svg PUBLIC "-//W3C//DTD SVG 1.1//EN" "http://www.w3.org/Graphics/SVG/1.1/DTD/svg11.dtd">
<svg id="trash" xmlns="http://www.w3.org/2000/svg" xmlns:xlink="http://www.w3.org/1999/xlink" x="0px" y="0px"
	 width="100%" height="100%" viewBox="0 0 512 512" style="enable-background:new 0 0 512 512;" xml:space="preserve">
<g fill="currentColor">
	<path d="M400,64H112c-26.51,0-48,21.49-48,48v16h384v-16C448,85.49,426.51,64,400,64z M316.16,32l7.059,50.5H188.782l7.057-50.5
		H316.16 M320,0H192c-13.2,0-25.495,10.696-27.321,23.769l-9.357,66.962C153.495,103.804,162.8,114.5,176,114.5h160
		c13.199,0,22.506-10.696,20.68-23.769l-9.357-66.962C345.494,10.696,333.199,0,320,0L320,0z M408,160H104
		c-17.6,0-30.696,14.341-29.103,31.869l26.206,288.263C102.696,497.659,118.4,512,136,512h240c17.6,0,33.305-14.341,34.896-31.868
		l26.205-288.263C438.695,174.341,425.6,160,408,160z M192,448h-48l-16-224h64V448z M288,448h-64V224h64V448z M368,448h-48V224h64
		L368,448z"/>
</g>
</svg>
