<?xml version="1.0" encoding="UTF-8" standalone="no"?>
<svg
   xmlns:dc="http://purl.org/dc/elements/1.1/"
   xmlns:cc="http://creativecommons.org/ns#"
   xmlns:rdf="http://www.w3.org/1999/02/22-rdf-syntax-ns#"
   xmlns:svg="http://www.w3.org/2000/svg"
   xmlns="http://www.w3.org/2000/svg"
   xmlns:sodipodi="http://sodipodi.sourceforge.net/DTD/sodipodi-0.dtd"
   xmlns:inkscape="http://www.inkscape.org/namespaces/inkscape"
   id="close"
   width="100%"
   height="100%"
   viewBox="0 0 16 16">
	 <defs
     id="defs7" /><sodipodi:namedview
     pagecolor="#ffffff"
     bordercolor="#666666"
     borderopacity="1"
     objecttolerance="10"
     gridtolerance="10"
     guidetolerance="10"
     inkscape:pageopacity="0"
     inkscape:pageshadow="2"
     inkscape:window-width="1429"
     inkscape:window-height="782"
     id="namedview5"
     showgrid="false"
     inkscape:zoom="3.6875"
     inkscape:cx="95.186441"
     inkscape:cy="4.9666641"
     inkscape:window-x="0"
     inkscape:window-y="0"
     inkscape:window-maximized="0"
     inkscape:current-layer="close" /><path
     d="m 15.559547,13.439542 -5.439542,-5.4395419 5.439542,-5.439542 c 0.587271,-0.58727 0.587271,-1.532734 0,-2.12000497 -0.587271,-0.58727104 -1.532735,-0.58727104 -2.120005,0 L 7.9999999,5.8799951 2.5604579,0.44045314 c -0.58727,-0.58727104 -1.532734,-0.58727104 -2.12000498,0 -0.58727104,0.58727096 -0.58727104,1.53273496 0,2.12000496 L 5.8799949,8.0000001 0.44045292,13.439542 c -0.58727104,0.58727 -0.58727104,1.532734 0,2.120005 0.58727098,0.587271 1.53273498,0.587271 2.12000498,0 l 5.439542,-5.439542 5.4395421,5.439542 c 0.58727,0.587271 1.532734,0.587271 2.120005,0 0.583106,-0.587271 0.583106,-1.5369 0,-2.120005 z"
     id="path3"
     inkscape:connector-curvature="0"
     style="fill:currentColor" /></svg>
