<?xml version="1.0" encoding="UTF-8" standalone="no"?>
<svg
   xmlns:dc="http://purl.org/dc/elements/1.1/"
   xmlns:cc="http://creativecommons.org/ns#"
   xmlns:rdf="http://www.w3.org/1999/02/22-rdf-syntax-ns#"
   xmlns:svg="http://www.w3.org/2000/svg"
   xmlns="http://www.w3.org/2000/svg"
   xmlns:sodipodi="http://sodipodi.sourceforge.net/DTD/sodipodi-0.dtd"
   xmlns:inkscape="http://www.inkscape.org/namespaces/inkscape"
   id="config"
   width="100%"
   height="100%"
   viewBox="0 0 16 16"
   xml:space="preserve">
   <defs
     id="defs7" /><sodipodi:namedview
     pagecolor="#ffffff"
     bordercolor="#666666"
     borderopacity="1"
     objecttolerance="10"
     gridtolerance="10"
     guidetolerance="10"
     inkscape:pageopacity="0"
     inkscape:pageshadow="2"
     inkscape:window-width="1308"
     inkscape:window-height="734"
     id="namedview5"
     showgrid="false"
     inkscape:zoom="3.6875"
     inkscape:cx="-69.019302"
     inkscape:cy="-47.728816"
     inkscape:window-x="0"
     inkscape:window-y="23"
     inkscape:window-maximized="0"
     inkscape:current-layer="config" /><g
     id="g4137"
     transform="matrix(0.032,0,0,0.032,-0.07821029,-0.142911)"><path
       inkscape:connector-curvature="0"
       id="path3"
       d="m 502.44407,284.46594 0,-60 -56.32767,-20 c -4.73665,-18.32282 -12.04126,-35.61044 -21.45024,-51.51335 l 0.0765,-0.0777 25.68932,-53.972093 -42.42718,-42.427178 -53.96966,25.688098 -0.0777,0.0777 C 338.05451,72.832469 320.76324,65.527859 302.44407,60.793639 l -20,-56.3276715 -60,0 -20,56.3288815 c -18.32039,4.73301 -35.61044,12.03762 -51.51335,21.450238 l -0.0777,-0.0801 -53.972088,-25.688098 -42.42718,42.427178 25.68811,53.972093 0.0801,0.0777 c -9.41141,15.90292 -16.71602,33.19418 -21.45024,51.51335 l -56.327649,19.99876 0,60 56.328879,20 c 4.73301,18.32039 12.04005,35.61044 21.45025,51.51335 l -0.0801,0.0777 -25.68811,53.96966 42.42719,42.42718 53.972078,-25.68932 0.0777,-0.0765 c 15.90292,9.40898 33.19418,16.71238 51.51335,21.45024 l 19.99876,56.32769 60,0 20,-56.32767 c 18.32039,-4.73665 35.61044,-12.04126 51.51335,-21.45024 l 0.0777,0.0765 53.96966,25.68932 42.42718,-42.42718 -25.68932,-53.96966 -0.0765,-0.0777 c 9.409,-15.90293 16.7124,-33.1942 21.45026,-51.51337 l 56.32767,-20 z m -250,70 c -55.22937,0 -100,-44.77184 -100,-100 0,-55.22937 44.77063,-100 100,-100 55.22937,0 100,44.77063 100,100 0,55.22937 -44.77063,100 -100,100 z"
       fill="currentColor" /></g></svg>
