<?xml version="1.0" encoding="UTF-8" standalone="no"?>
<svg
   xmlns:dc="http://purl.org/dc/elements/1.1/"
   xmlns:cc="http://creativecommons.org/ns#"
   xmlns:rdf="http://www.w3.org/1999/02/22-rdf-syntax-ns#"
   xmlns:svg="http://www.w3.org/2000/svg"
   xmlns="http://www.w3.org/2000/svg"
   xmlns:sodipodi="http://sodipodi.sourceforge.net/DTD/sodipodi-0.dtd"
   xmlns:inkscape="http://www.inkscape.org/namespaces/inkscape"
   id="edit"
   width="100%"
   height="100%"
   viewBox="0 0 16 16"
   xml:space="preserve">
   <defs
     id="defs21" /><sodipodi:namedview
     pagecolor="#ffffff"
     bordercolor="#666666"
     borderopacity="1"
     objecttolerance="10"
     gridtolerance="10"
     guidetolerance="10"
     inkscape:pageopacity="0"
     inkscape:pageshadow="2"
     inkscape:window-width="1301"
     inkscape:window-height="761"
     id="namedview19"
     showgrid="false"
     inkscape:zoom="4.3703704"
     inkscape:cx="49.881357"
     inkscape:cy="5.4915266"
     inkscape:window-x="135"
     inkscape:window-y="51"
     inkscape:window-maximized="0"
     inkscape:current-layer="edit" /><g
     id="g3351"
     transform="matrix(0.06167118,0,0,0.06051279,-4.6746725,-5.40339)"
     fill="currentColor"><path
       d="m 348.78516,23.511719 c -6.72541,0.05397 -13.55088,2.961 -20.2793,8.796875 -8.93461,7.762857 -17.1377,16.405249 -26.51172,25.486328 l 72.50195,68.546878 c 6.73758,-7.17698 15.67271,-15.67288 23.58203,-25.19336 10.83871,-13.182213 9.52023,-29.731762 -2.49023,-42.035159 -8.20226,-8.348733 -16.40516,-16.698126 -24.60742,-24.90039 -7.08086,-7.158673 -14.57319,-10.762343 -22.19531,-10.701172 z M 292.32812,69.658203 58.123047,308.40234 c 20.945068,21.38448 41.451385,42.47681 62.103513,63.42188 6.44464,6.5911 6.73704,6.4446 13.47461,-0.29297 74.11332,-75.57801 148.37301,-151.15637 222.48633,-226.73437 1.46469,-1.4647 2.92984,-3.22285 4.39453,-4.98047 L 292.32812,69.658203 Z M 47.285156,321.87891 c -2.92938,11.86399 -6.152712,25.63033 -9.667968,39.25195 -3.954664,15.67218 -8.055118,31.19889 -12.15625,46.72461 l 0,2.92969 c 9.666954,-2.34351 19.479529,-4.3948 29.146484,-6.88477 20.212723,-5.12641 40.426133,-10.39902 62.396488,-15.96484 L 47.285156,321.87891 Z"
       transform="matrix(0.68273828,0,0,0.68273828,58.416786,73.241521)"
       id="path9"
       inkscape:connector-curvature="0" /></g></svg>
