<?xml version="1.0" encoding="UTF-8" standalone="no"?>
<svg
   xmlns:dc="http://purl.org/dc/elements/1.1/"
   xmlns:cc="http://creativecommons.org/ns#"
   xmlns:rdf="http://www.w3.org/1999/02/22-rdf-syntax-ns#"
   xmlns:svg="http://www.w3.org/2000/svg"
   xmlns="http://www.w3.org/2000/svg"
   xmlns:sodipodi="http://sodipodi.sourceforge.net/DTD/sodipodi-0.dtd"
   xmlns:inkscape="http://www.inkscape.org/namespaces/inkscape"
   version="1.1"
   id="edit"
   x="0px"
   y="0px"
   width="100%"
   height="100%"
   viewBox="0 0 432 432"
   style="enable-background:new 0 0 432 432;"
   xml:space="preserve"><defs
     id="defs21" /><sodipodi:namedview
     pagecolor="#ffffff"
     bordercolor="#666666"
     borderopacity="1"
     objecttolerance="10"
     gridtolerance="10"
     guidetolerance="10"
     inkscape:pageopacity="0"
     inkscape:pageshadow="2"
     inkscape:window-width="1301"
     inkscape:window-height="761"
     id="namedview19"
     showgrid="false"
     inkscape:zoom="1.0925926"
     inkscape:cx="216"
     inkscape:cy="216"
     inkscape:window-x="135"
     inkscape:window-y="51"
     inkscape:window-maximized="0"
     inkscape:current-layer="edit" /><g
     fill="currentColor"
     id="g3351"
     transform="matrix(1.4646901,0,0,1.4646901,-85.562488,-107.27613)"><path
       d="M 348.78516 23.511719 C 342.05975 23.565693 335.23428 26.472719 328.50586 32.308594 C 319.57125 40.071451 311.36816 48.713843 301.99414 57.794922 L 374.49609 126.3418 C 381.23367 119.16482 390.1688 110.66892 398.07812 101.14844 C 408.91683 87.966227 407.59835 71.416678 395.58789 59.113281 C 387.38563 50.764548 379.18273 42.415155 370.98047 34.212891 C 363.89961 27.054218 356.40728 23.450548 348.78516 23.511719 z M 292.32812 69.658203 L 58.123047 308.40234 C 79.068115 329.78682 99.574432 350.87915 120.22656 371.82422 C 126.6712 378.41532 126.9636 378.26882 133.70117 371.53125 C 207.81449 295.95324 282.07418 220.37488 356.1875 144.79688 C 357.65219 143.33218 359.11734 141.57403 360.58203 139.81641 L 292.32812 69.658203 z M 47.285156 321.87891 C 44.355776 333.7429 41.132444 347.50924 37.617188 361.13086 C 33.662524 376.80304 29.56207 392.32975 25.460938 407.85547 L 25.460938 410.78516 C 35.127892 408.44165 44.940467 406.39036 54.607422 403.90039 C 74.820145 398.77398 95.033555 393.50137 117.00391 387.93555 L 47.285156 321.87891 z "
       transform="matrix(0.68273828,0,0,0.68273828,58.416786,73.241521)"
       id="path9" /></g></svg>
