<?xml version="1.0" encoding="UTF-8" standalone="no"?>
<svg
   xmlns:dc="http://purl.org/dc/elements/1.1/"
   xmlns:cc="http://creativecommons.org/ns#"
   xmlns:rdf="http://www.w3.org/1999/02/22-rdf-syntax-ns#"
   xmlns:svg="http://www.w3.org/2000/svg"
   xmlns="http://www.w3.org/2000/svg"
   xmlns:sodipodi="http://sodipodi.sourceforge.net/DTD/sodipodi-0.dtd"
   xmlns:inkscape="http://www.inkscape.org/namespaces/inkscape"
   id="eye"
   width="100%"
   height="100%"
   viewBox="0 0 16 16"
   xml:space="preserve">
	 <defs
     id="defs9" /><sodipodi:namedview
     pagecolor="#ffffff"
     bordercolor="#666666"
     borderopacity="1"
     objecttolerance="10"
     gridtolerance="10"
     guidetolerance="10"
     inkscape:pageopacity="0"
     inkscape:pageshadow="2"
     inkscape:window-width="1411"
     inkscape:window-height="757"
     id="namedview7"
     showgrid="false"
     inkscape:zoom="5.2149125"
     inkscape:cx="60.894866"
     inkscape:cy="-3.248759"
     inkscape:window-x="0"
     inkscape:window-y="0"
     inkscape:window-maximized="0"
     inkscape:current-layer="eye" /><g
     id="g3"
     transform="scale(0.03125,0.03125)"><path
       d="M 256,96 C 144.341,96 47.559,161.021 0,256 47.559,350.979 144.341,416 256,416 367.656,416 464.439,350.979 512,256 464.441,161.021 367.656,96 256,96 Z m 126.225,84.852 c 30.082,19.187 55.572,44.887 74.719,75.148 -19.146,30.261 -44.639,55.961 -74.719,75.148 C 344.428,355.257 300.779,368 256,368 211.22,368 167.572,355.257 129.775,331.148 99.695,311.96 74.205,286.26 55.058,256 c 19.146,-30.262 44.637,-55.962 74.717,-75.148 1.959,-1.25 3.938,-2.461 5.929,-3.65 C 130.725,190.866 128,205.613 128,221 c 0,70.691 57.308,128 128,128 70.691,0 128,-57.309 128,-128 0,-15.387 -2.725,-30.134 -7.703,-43.799 1.988,1.189 3.969,2.401 5.928,3.651 z M 256,205 c 0,26.51 -21.49,48 -48,48 -26.51,0 -48,-21.49 -48,-48 0,-26.51 21.49,-48 48,-48 26.51,0 48,21.49 48,48 z"
       id="path5"
       inkscape:connector-curvature="0"
       fill="currentColor" /></g></svg>
