<?xml version="1.0" encoding="UTF-8" standalone="no"?>
<svg
   xmlns:dc="http://purl.org/dc/elements/1.1/"
   xmlns:cc="http://creativecommons.org/ns#"
   xmlns:rdf="http://www.w3.org/1999/02/22-rdf-syntax-ns#"
   xmlns:svg="http://www.w3.org/2000/svg"
   xmlns="http://www.w3.org/2000/svg"
   xmlns:sodipodi="http://sodipodi.sourceforge.net/DTD/sodipodi-0.dtd"
   xmlns:inkscape="http://www.inkscape.org/namespaces/inkscape"
   version="1.1"
   id="tree"
   x="0px"
   y="0px"
   width="100%"
   height="100%"
   viewBox="462.775 307.445 260 260"
   enable-background="new 462.775 307.445 260 236"
   xml:space="preserve"><defs
     id="defs21" /><sodipodi:namedview
     pagecolor="#ffffff"
     bordercolor="#666666"
     borderopacity="1"
     objecttolerance="10"
     gridtolerance="10"
     guidetolerance="10"
     inkscape:pageopacity="0"
     inkscape:pageshadow="2"
     inkscape:window-width="1383"
     inkscape:window-height="766"
     id="namedview19"
     showgrid="false"
     inkscape:zoom="1.4142136"
     inkscape:cx="1.6601226"
     inkscape:cy="144.27417"
     inkscape:window-x="0"
     inkscape:window-y="23"
     inkscape:window-maximized="0"
     inkscape:current-layer="g3" /><g
     id="g3"
     transform="matrix(2.1176918,0,0,2.1176918,-770.91078,-512.67434)"
     fill="currentColor"><path
       d="m 700.61459,424.21963 c 0,-11.76588 -9.53535,-21.3022 -21.30123,-21.3022 -2.32653,0 -4.55902,0.38693 -6.65632,1.07657 0,-8.84964 -7.17355,-16.02417 -16.02319,-16.02417 -6.03036,0 -11.27804,3.33453 -14.01306,8.25796 -3.85665,-3.85959 -9.18367,-6.24881 -15.07102,-6.24881 -10.84898,0 -19.78481,8.11689 -21.11314,18.60538 -1.01192,-0.19983 -2.0591,-0.30955 -3.12882,-0.30955 -8.85061,0 -16.02416,7.17355 -16.02416,16.02319 0,6.60832 4.00261,12.27918 9.71363,14.72914 -3.26106,3.74204 -5.25061,8.62237 -5.25061,13.97682 0,11.76391 9.53731,21.3022 21.30122,21.3022 2.95641,0 5.7698,-0.60441 8.32752,-1.69273 2.99167,4.73142 7.79755,8.17371 13.43314,9.41289 l 0,27.31984 13.152,0 0,-28.62661 c 3.72832,-1.64768 6.90906,-4.30629 9.14743,-7.66237 2.12375,0.79347 4.41208,1.24702 6.81208,1.24702 10.77845,0 19.51641,-8.73796 19.51641,-19.51641 0,-3.38939 -0.86596,-6.57698 -2.38727,-9.3551 10.94988,-0.88457 19.56539,-10.03592 19.56539,-21.21306 l 0,0 z"
       id="path11"
       inkscape:connector-curvature="0" />
     </g></svg>
