<?xml version="1.0" encoding="UTF-8" standalone="no"?>

<svg
   xmlns:dc="http://purl.org/dc/elements/1.1/"
   xmlns:cc="http://creativecommons.org/ns#"
   xmlns:rdf="http://www.w3.org/1999/02/22-rdf-syntax-ns#"
   xmlns:svg="http://www.w3.org/2000/svg"
   xmlns="http://www.w3.org/2000/svg"
   xmlns:sodipodi="http://sodipodi.sourceforge.net/DTD/sodipodi-0.dtd"
   xmlns:inkscape="http://www.inkscape.org/namespaces/inkscape"
   version="1.1"
   id="tree"
   x="0px"
   y="0px"
   width="100%"
   height="100%"
   viewBox="462.775 307.445 260 236"
   enable-background="new 462.775 307.445 260 236"
   xml:space="preserve"><defs
     id="defs21" /><sodipodi:namedview
     pagecolor="#ffffff"
     bordercolor="#666666"
     borderopacity="1"
     objecttolerance="10"
     gridtolerance="10"
     guidetolerance="10"
     inkscape:pageopacity="0"
     inkscape:pageshadow="2"
     inkscape:window-width="1383"
     inkscape:window-height="766"
     id="namedview19"
     showgrid="false"
     inkscape:zoom="1.4142136"
     inkscape:cx="130"
     inkscape:cy="144.27417"
     inkscape:window-x="0"
     inkscape:window-y="0"
     inkscape:window-maximized="0"
     inkscape:current-layer="Ebene_1" /><g
     fill="currentColor"
     id="g3"
     transform="matrix(1.8151644,0,0,1.8151644,-577.08234,-386.8479)"><path
       d="m 702.63047,422.51073 c 0,-12.011 -9.734,-21.746 -21.745,-21.746 -2.375,0 -4.654,0.395 -6.795,1.099 0,-9.034 -7.323,-16.358 -16.357,-16.358 -6.156,0 -11.513,3.404 -14.305,8.43 -3.937,-3.94 -9.375,-6.379 -15.385,-6.379 -11.075,0 -20.197,8.286 -21.553,18.993 -1.033,-0.204 -2.102,-0.316 -3.194,-0.316 -9.035,0 -16.358,7.323 -16.358,16.357 0,6.746 4.086,12.535 9.916,15.036 -3.329,3.82 -5.36,8.802 -5.36,14.268 0,12.009 9.736,21.746 21.745,21.746 3.018,0 5.89,-0.617 8.501,-1.728 3.054,4.83 7.96,8.344 13.713,9.609 l 0,27.889 13.426,0 0,-29.223 c 3.806,-1.682 7.053,-4.396 9.338,-7.822 2.168,0.81 4.504,1.273 6.954,1.273 11.003,0 19.923,-8.92 19.923,-19.923 0,-3.46 -0.884,-6.714 -2.437,-9.55 11.178,-0.903 19.973,-10.245 19.973,-21.655 l 0,0 z"
       id="path11"
       inkscape:connector-curvature="0" /></g></svg>
