<?xml version="1.0" encoding="UTF-8" standalone="no"?>
<svg
   xmlns:dc="http://purl.org/dc/elements/1.1/"
   xmlns:cc="http://creativecommons.org/ns#"
   xmlns:rdf="http://www.w3.org/1999/02/22-rdf-syntax-ns#"
   xmlns:svg="http://www.w3.org/2000/svg"
   xmlns="http://www.w3.org/2000/svg"
   xmlns:sodipodi="http://sodipodi.sourceforge.net/DTD/sodipodi-0.dtd"
   xmlns:inkscape="http://www.inkscape.org/namespaces/inkscape"
   id="tree"
   width="100%"
   height="100%"
   viewBox="0 0 16 16"
   xml:space="preserve">
   <defs
     id="defs21" /><sodipodi:namedview
     pagecolor="#ffffff"
     bordercolor="#666666"
     borderopacity="1"
     objecttolerance="10"
     gridtolerance="10"
     guidetolerance="10"
     inkscape:pageopacity="0"
     inkscape:pageshadow="2"
     inkscape:window-width="1434"
     inkscape:window-height="762"
     id="namedview19"
     showgrid="false"
     inkscape:zoom="4.0000001"
     inkscape:cx="90.203653"
     inkscape:cy="-38.568538"
     inkscape:window-x="0"
     inkscape:window-y="23"
     inkscape:window-maximized="0"
     inkscape:current-layer="g3" /><g
     id="g3"
     transform="matrix(2.1176918,0,0,2.1176918,-770.91078,-756.67434)"
     fill="currentColor"><path
       d="m 371.3385,359.56738 c 0,-0.7324 -0.59355,-1.32601 -1.32595,-1.32601 -0.14482,0 -0.28379,0.0241 -0.41434,0.067 0,-0.55087 -0.44654,-0.99747 -0.99741,-0.99747 -0.37538,0 -0.70203,0.20757 -0.87228,0.51404 -0.24007,-0.24025 -0.57166,-0.38897 -0.93814,-0.38897 -0.67532,0 -1.23156,0.50526 -1.31424,1.15814 -0.063,-0.0124 -0.12818,-0.0193 -0.19476,-0.0193 -0.55093,0 -0.99747,0.44654 -0.99747,0.99741 0,0.41135 0.24915,0.76435 0.60465,0.91685 -0.20299,0.23294 -0.32684,0.53673 -0.32684,0.87003 0,0.73227 0.59368,1.32601 1.32595,1.32601 0.18403,0 0.35916,-0.0376 0.51837,-0.10537 0.18623,0.29452 0.48538,0.5088 0.83619,0.58593 l 0,1.7006 0.81868,0 0,-1.78194 c 0.23208,-0.10256 0.43007,-0.26806 0.5694,-0.47697 0.1322,0.0494 0.27464,0.0776 0.42404,0.0776 0.67093,0 1.21485,-0.54392 1.21485,-1.21485 0,-0.21098 -0.0539,-0.4094 -0.1486,-0.58234 0.6816,-0.0551 1.2179,-0.62471 1.2179,-1.32046 l 0,0 z"
       id="path11"
       inkscape:connector-curvature="0" /></g></svg>
