<?xml version="1.0" standalone="no"?>
<!DOCTYPE svg PUBLIC "-//W3C//DTD SVG 20010904//EN"
 "http://www.w3.org/TR/2001/REC-SVG-20010904/DTD/svg10.dtd">
<svg version="1.0" xmlns="http://www.w3.org/2000/svg"
 width="16.000000pt" height="16.000000pt" viewBox="0 0 16.000000 16.000000"
 preserveAspectRatio="xMidYMid meet">

<g transform="translate(0.000000,16.000000) scale(0.100000,-0.100000)"
fill="#ffffff" stroke="none">
<path d="M0 80 l0 -60 80 0 80 0 0 60 0 60 -80 0 -80 0 0 -60z m140 0 l0 -40
-62 2 -63 2 57 3 c58 4 68 12 49 42 -8 12 -12 12 -25 2 -8 -7 -19 -10 -24 -7
-6 3 -15 -1 -22 -9 -19 -23 -30 -18 -30 15 l0 30 60 0 60 0 0 -40z"/>
<path d="M30 100 c0 -5 5 -10 10 -10 6 0 10 5 10 10 0 6 -4 10 -10 10 -5 0
-10 -4 -10 -10z"/>
</g>
</svg>
