<?xml version="1.0" standalone="no"?>
<!DOCTYPE svg PUBLIC "-//W3C//DTD SVG 20010904//EN"
 "http://www.w3.org/TR/2001/REC-SVG-20010904/DTD/svg10.dtd">
<svg version="1.0" xmlns="http://www.w3.org/2000/svg"
 width="16.000000pt" height="16.000000pt" viewBox="0 0 16.000000 16.000000"
 preserveAspectRatio="xMidYMid meet">

<g transform="translate(0.000000,16.000000) scale(0.100000,-0.100000)"
fill="#ffffff" stroke="none">
<path d="M2 83 c1 -50 2 -52 5 -15 l4 42 52 2 c36 1 42 2 20 5 -18 2 -33 8
-33 14 0 5 -11 9 -25 9 -24 0 -25 -2 -23 -57z"/>
<path d="M24 86 c-8 -22 -1 -59 14 -64 7 -2 12 5 12 16 0 19 23 45 50 55 8 3
-4 6 -28 6 -28 1 -44 -4 -48 -13z"/>
<path d="M145 90 c3 -5 8 -10 11 -10 2 0 4 5 4 10 0 6 -5 10 -11 10 -5 0 -7
-4 -4 -10z"/>
<path d="M67 43 c-14 -13 -6 -23 18 -23 16 0 25 6 25 15 0 15 -31 21 -43 8z"/>
</g>
</svg>
