<?xml version="1.0" standalone="no"?>
<!DOCTYPE svg PUBLIC "-//W3C//DTD SVG 20010904//EN"
 "http://www.w3.org/TR/2001/REC-SVG-20010904/DTD/svg10.dtd">
<svg version="1.0" xmlns="http://www.w3.org/2000/svg"
 width="16.000000pt" height="16.000000pt" viewBox="0 0 16.000000 16.000000"
 preserveAspectRatio="xMidYMid meet">

<g transform="translate(0.000000,16.000000) scale(0.100000,-0.100000)"
fill="#ffffff" stroke="none">
<path d="M0 80 l0 -80 80 0 80 0 0 80 0 80 -80 0 -80 0 0 -80z m41 31 c-12 -7
-12 -13 -3 -24 7 -7 9 -17 5 -20 -14 -15 -23 -6 -23 23 0 22 5 30 18 30 14 0
14 -2 3 -9z m98 -33 c-1 -40 -1 -41 -9 -15 -5 16 -14 35 -21 43 -9 11 -8 14
10 14 18 0 21 -6 20 -42z"/>
</g>
</svg>
